<?xml version="1.0" standalone="no"?><!DOCTYPE svg PUBLIC "-//W3C//DTD SVG 1.1//EN" "http://www.w3.org/Graphics/SVG/1.1/DTD/svg11.dtd"><svg t="1542263050833" class="icon" style="" viewBox="0 0 1024 1024" version="1.1" xmlns="http://www.w3.org/2000/svg" p-id="19054" xmlns:xlink="http://www.w3.org/1999/xlink" width="200" height="200"><defs><style type="text/css"></style></defs><path d="M96.768 423.808l4.992-0.512H111.616l4.48 0.512v65.408l-0.384 0.384-0.512 0.896h-0.512l-0.384 0.384-1.408 0.384h-12.544l-1.28-0.384-0.512-0.384h-0.896v-0.896l-0.384-0.384-0.384-1.792v-63.616h-0.128z m45.312 105.728V561.408l-0.384 0.896-0.512 0.512-0.384 0.896h-0.896l-0.896 0.512-1.792 0.384H118.4v50.176l3.968-0.896 4.096-0.384 3.584-1.28 3.584-0.896 1.792-0.384 1.792-0.896 3.584-1.28 3.584-1.792 3.2-1.792 3.584-1.792 3.072-1.792 2.688-2.176 3.2-2.304 5.888-4.992 2.688-2.688 2.304-2.688 2.688-3.072 2.304-2.688 2.304-3.072 1.792-3.2 1.792-3.584 1.792-3.2 1.792-3.584 1.28-3.584 2.304-7.168 1.28-3.584 0.384-4.096 0.896-3.584 0.512-3.968 0.384-8.064-0.384-6.272-0.512-3.2v-3.2l-1.408-6.272-1.792-6.272-0.896-2.688-0.896-2.688-2.176-5.76-3.072-5.376-2.688-5.376-3.584-4.48-4.096-4.992-4.096-4.48-4.48-4.096-4.48-3.584-4.992-3.584-5.376-3.2-5.376-2.688v73.6l-0.384 0.896-0.512 0.512-0.384 0.896-0.896 0.512h-0.896l-1.792 0.384H110.72l-0.512 0.384-0.384 0.512v-30.848l0.384-0.896 0.512-0.896 0.896-0.384h12.16l1.792-0.512 1.408-0.512 0.896-0.512 0.896-1.28v-68.224l8.96 2.688 4.48 1.408 4.096 1.28 4.48 1.792 3.968 2.304 4.096 1.792 3.584 2.304 4.096 2.688 3.584 2.176 3.584 2.688 3.072 3.072 3.584 3.2 3.2 3.072 5.76 6.272 2.688 3.584 2.688 3.584 2.176 3.968 2.304 3.584 4.48 8.064 1.792 4.096 1.408 4.48 2.688 8.576 1.28 4.48 0.896 4.48 0.512 4.48 0.896 4.992V535.68l-0.384 5.376-0.384 5.376-0.896 5.376-1.408 4.992-1.28 5.376-1.792 4.864-1.792 4.48-2.176 4.864-2.304 4.48-2.688 4.48-2.688 4.48-3.2 3.968-3.2 3.968-3.2 4.096-3.584 3.584-3.584 3.584-4.096 3.072-4.096 3.072-4.096 3.2-4.48 2.688-4.48 2.688-4.48 2.176-4.864 2.176-4.48 1.792-5.376 1.792-4.864 1.408-4.992 1.408-5.376 0.896-5.376 0.512-5.376 0.384-5.376 0.512-5.376-0.512-5.376-0.384-5.376-0.512-5.376-0.896-5.376-1.408-4.992-1.408-4.992-1.792-4.992-1.792-4.48-2.176-4.48-2.176-4.48-2.688-4.48-2.688-4.096-3.2-3.968-3.072-4.096-3.072-3.584-3.584-3.584-3.584-3.584-4.096-3.072-3.968-2.688-3.968-2.688-4.48-2.688-4.48-2.176-4.48-2.304-4.864-1.792-4.48-1.792-4.864-1.28-5.376-1.28-4.992-0.896-5.376-0.896-5.376-0.512-5.76v-10.368l0.384-4.48 0.384-4.992 0.896-4.48 0.896-4.48 0.896-4.48 2.688-8.576 1.792-4.48 1.792-4.096 1.792-3.968 2.176-4.096 2.304-3.584 2.688-3.968 2.688-3.584 2.688-3.584 2.688-3.2 3.072-3.2 3.2-3.072 3.072-3.2 7.168-5.376 3.584-2.688 3.584-2.688 4.096-2.304 3.968-1.792L62.72 432.64l4.096-1.792 3.968-1.28 4.48-1.408 4.48-1.408 4.48-1.28v68.224l0.384 0.896 0.384 0.384 1.408 0.512 1.28 0.512 1.28 0.512H101.12l0.896 0.384 0.896 0.896v31.744l-0.896-0.896H75.52l-1.792-0.384h-0.896l-0.512-0.512-0.896-0.896-0.384-0.512v-0.896l-0.384-1.408V451.84l-5.376 2.688-4.992 3.2-4.864 3.584-4.992 3.584-4.48 4.096-4.096 4.48-3.584 4.992-3.584 4.864-3.072 4.992-2.688 5.376-1.408 2.688-0.896 3.072-2.304 5.888-1.408 5.888-1.28 6.272-0.384 3.2v3.2l-0.512 6.272v3.968l0.512 4.096 0.384 3.584 0.512 3.968 0.896 4.096 0.896 3.584 1.28 3.584 0.512 1.792 0.896 1.792 1.28 3.584 1.408 3.584 3.584 6.656 4.48 5.76 2.176 3.2 2.304 3.072 2.688 2.688 2.688 2.688 5.376 4.992 3.2 2.304 3.072 2.176 6.272 3.584 3.584 1.792 3.072 1.792 3.584 1.28 3.584 1.408 3.968 0.896 3.584 1.28 3.584 0.384 4.096 0.896V564.48H75.776l-1.792-0.384-0.384-0.512h-0.896l-0.896-0.896-0.384-0.512v-0.896l-0.384-1.408v-30.464l0.384 0.512 0.384 0.384 1.408 0.896 1.28 0.384 1.408 0.384h25.6l0.896 0.384 0.896 0.896v30.464H110.08v-29.568l0.384-0.896 0.512-0.896 0.896-0.384h25.472l1.408-0.384 1.408-0.384 1.28-0.896 0.64-0.768z" fill="#009174" p-id="19055"></path><path d="M307.328 434.944l-0.384-0.768-0.768-0.768-1.536-0.384-1.536-0.768-3.968-1.536-5.888-1.536-1.152 0.384-1.152 0.384-0.384 0.768-0.384 0.768-0.384 2.816v5.504l0.384 2.816v9.472l-0.384 2.816v1.152l-0.384 0.384-3.584 1.152-4.736 2.048-17.024 3.968-3.968 0.384H258.56l-1.536 0.384-1.152 0.384-0.768 0.768-0.384 0.384-0.384 0.768-0.384 0.768v2.432l0.384 1.536 0.384 1.536 0.384 1.92 1.92 4.352 1.92 3.968 0.768 1.92 1.152 1.536 2.816 4.352 3.584 3.968 0.768 1.152 3.968 6.656 0.384 0.384h1.536l4.352-1.92 4.352-1.152 1.536-0.384 2.048-0.384 3.2-0.384 1.536 0.384 0.384 0.384 0.384 1.152 0.384 3.2 0.384 5.12v7.168l1.152 6.272v-0.384l-0.384 7.808v10.624l-0.384 1.92-0.768 1.92-1.152 1.536-0.384 1.536 0.384 0.768 0.768 0.768 1.92 0.768h3.072l1.536-0.384 3.968-0.768h0.384l0.768-0.384 0.384-0.768v-0.384l-1.152-6.272v-1.152l-0.384-1.536-0.384-7.04v-9.856 1.92-0.768l0.384-7.04 1.152-14.976 0.384-2.304 0.384-1.152 0.768-0.384 1.152-0.384h1.152l4.352-0.768 5.504-0.384h5.888l6.656-0.384 0.384-0.384 0.384-1.536 0.384-1.536 0.384-2.432v-1.152l0.384-1.152 1.152-2.432 2.304-3.584 3.2-3.968 0.384-1.152 0.768-1.152 1.152-1.92 1.536-1.536 0.768-0.384 0.768-0.768 1.152-0.384 1.152-0.768 0.768-1.28 0.768-1.152-0.384-0.384v-0.768l-1.536-1.536-1.92-1.92-1.152-0.768-1.152-0.768-1.536-0.768-1.536-1.152-1.92-0.768-3.584-1.536-3.2-1.536-2.816-0.768-2.816-0.384-0.768 0.384h-4.736l-4.736 0.384-9.472 1.152-1.152-1.536-0.384-1.92v-5.12l0.384-3.2V441.6l0.384-1.152 0.384-0.768 1.152-1.536 1.536-1.536v-0.768l0.896-0.896z m-16.512 52.352l-1.536 0.768-3.2 0.768-9.856 2.304-0.384-1.152-0.768-1.152-0.768-1.152-0.384-1.152-0.768-1.536-0.384-3.2-0.384-1.92v-4.864l0.768-1.92 0.768-0.384 1.536-0.768 6.656-2.304 2.688-1.152 3.2-1.28 1.92 0.384 0.384 2.816 0.384 4.352v12.544h0.128z m12.672-11.392v-8.32l0.384-2.304v-0.768l0.384-0.384 0.768-0.384 1.536-0.384 2.816-0.384 3.584-0.384h8.192l1.152 0.384 1.152 0.768 0.384 0.384 0.384 0.384 0.384 0.768 0.384 1.152v2.816l-0.384 2.304-0.768 4.352-0.384 1.536-0.768 1.536-1.152 1.536-0.768 1.152-1.152 0.384-1.536 0.768-2.816 0.384-3.2 0.384-3.2 0.384-3.2 0.768-1.536 0.384-0.384-0.384v-1.536l-0.384-2.304v-4.992h0.128z m94.208-25.984l-1.152 0.384-1.152 0.768-1.152 0.768-0.384 0.768-0.768 1.152-0.768 2.304-0.384 3.2-0.384 3.968-0.384 11.008-0.384 14.592 0.384 7.936-0.384 7.936 0.768 13.44 0.768 4.352 0.384 3.2 0.384 1.152 0.768 1.152 0.384 0.768 0.768 0.768 0.768 0.384 0.768 0.384 0.768-0.384 0.768-0.384 1.92-1.92 1.536-0.768 1.92-1.152h0.768l0.768-0.384 1.536-0.768 1.536-0.384h2.432l2.304-0.384 0.768-0.384 9.088-1.536 3.968-0.768 2.304-0.384 2.816-0.384 5.12-0.384 4.352-0.384 3.968 0.384 3.584 0.384h3.968l0.768-0.384 0.384-0.384 0.384-0.384v-4.736l-0.384-0.768-0.384-2.048-0.384-1.536-0.768-0.384-0.768-0.384-1.152-0.384H439.04l-5.888 0.768-3.2 0.384-3.2 0.768-7.168 1.152-7.424 1.92-5.888 1.152-2.816 0.384h-0.768l-1.152-0.384-0.384-0.384-0.768-1.152-0.384-0.768v-0.768l-0.384-0.768v-1.152l-0.384-1.92 0.768-13.824 0.768-3.968v-1.536l0.384-0.768 0.384-1.152 1.152-11.392 1.536-8.32 0.768-3.2 0.768-2.304 0.384-1.92 0.384-0.384 0.384-0.384 1.92-1.664 2.816-1.536 3.584-2.304 3.584-1.536 1.92-0.768 1.92-0.768 3.968-1.152 0.384-0.384 1.152-0.768 4.352-0.768 4.736-0.384 9.088-0.768h1.152l0.768 0.384 1.152 0.384 0.768 0.768 1.92 1.536 1.152 1.152 0.768 1.152 0.768 1.536 0.384 1.536 0.768 1.536 0.384 1.536 0.384 3.2 0.384 1.92v1.536l0.384 0.768v3.584l0.384 3.072 2.048 33.92 0.768 12.544 0.384 5.12-0.768 1.152-0.768 0.384-0.384 0.384-1.92 0.768h-2.304l-3.2-0.384-2.816-0.384-0.768-0.384-0.384-0.384-1.92-1.536-1.536-0.384-0.384 0.384-0.384 0.384v0.384l0.384 0.768 0.384 1.152 0.384 0.768 1.152 1.152 2.816 2.816 4.352 2.816 4.352 2.688 3.968 2.432 2.816 1.536 2.816 1.152 2.816 0.768 2.304 0.384 1.152-0.384 1.152-0.384 0.384-0.768v-0.512l0.384-1.536-0.384-1.152-0.384-5.12-0.384-1.92-0.384-2.816-0.384-2.816-0.384-25.984-0.384-29.952-0.384-0.768v-0.896l-0.384-2.688-0.384-4.352v-6.272l0.384-0.768 0.768-2.816 0.384-0.384 0.384-0.768 0.768-1.92v-1.92l-0.384-0.768-7.424-3.584-3.584-0.768-2.304-0.384-2.432-0.384-5.504-0.384h-6.272l-3.584 0.384-3.584 0.384-3.2 0.384-3.2 0.384-7.936 1.152-3.2 0.768-2.816 0.384-2.816 0.768-1.92 0.384-1.92 0.384-2.816 1.152-2.816 1.536-8.576 2.816z m14.976 37.376l1.152-0.384 1.536-0.384 4.736-1.152h0.384l0.384 0.384 0.384 0.384 0.384 0.768-0.384 2.304-0.384 1.152v1.152l-1.152 1.536-1.152 1.152-3.968 1.536-3.2 1.152-2.816 0.768-2.816 0.384h-1.152l-0.768 0.384-0.64 0.768-0.384 0.384v1.92l1.152 3.968v0.768l0.768 0.384 0.384 0.384H406.272l1.152-0.384 1.152-0.384 9.088-1.536 24.448-4.352h10.624l1.92-0.384 0.768-0.384 0.768-0.768 0.384-1.152 0.384-1.152V492.8l-0.384-0.768-0.768-0.768-1.152-0.384h-1.152l-1.152-0.384-0.768-0.384-5.12-9.472v-0.768l0.768-0.768 0.768-1.152 1.536-1.152 0.384-3.968-0.384-0.768-0.384-0.768-1.152-0.384h-1.152l-7.936 0.384h-3.072l-0.384-3.2 0.384-1.536v-0.384h0.384l5.504-1.92 0.768-0.384h0.384l0.384-0.384 1.152-0.384 1.92-0.384 0.384-0.384 0.384-0.384v-0.384l0.768-0.768 0.384 0.384v-3.2 0.384l0.384-2.816-0.768-0.768-1.152-0.768-0.768-0.384h-4.224l-1.536 0.384h-1.536l-1.92 0.768-2.304 0.384-2.816 0.384-3.584 1.152-4.736 1.152-5.12 1.92-3.2 0.768-1.92 0.768-1.152 0.384-0.768 0.384v3.456l0.384 1.536-0.384 1.536 2.816 2.048 3.2-0.768H421.504l1.536 0.384 0.384 0.384 0.384 0.768v0.384l0.384 0.768-0.384 1.92-0.384 0.384v0.384l-4.352 0.384-3.968 1.152-4.352 0.384h-1.152l-0.768 0.384h-0.512l-0.768 0.384-0.384 0.384v0.768l-0.384 2.304v0.384h0.384l0.384 1.536v1.536l0.384 0.384 0.384 0.384 0.768 0.768 1.152 0.384h2.432v0.512z m24.448-4.352h0.768l1.152 0.768 0.384 1.152 0.768 1.536v1.152l0.768 1.152 0.768 0.384 0.384 0.768v0.384l-0.384 0.768h-2.304l-1.92 0.384h-1.152l-0.768-0.768-0.768-0.384-0.384-0.384-0.768-1.152-0.384-1.92v-0.768l0.384-0.768v-0.768l0.768-0.768 1.152-0.768h1.536z m72.832 43.008l1.92 0.384 1.92-0.384 2.304-0.384 2.304-0.384 5.12-2.304 2.688-1.536 3.2-1.536 0.384-0.768 1.152-0.768 2.816-1.536 0.384-0.384 0.768-1.536 1.536-3.968 3.584-5.12 2.816-3.584 1.92-1.92 0.384-0.384 0.768-0.384h0.384v7.04l-0.384 4.352-0.384 4.352V523.904l0.384 3.584 0.768 3.584 0.768 3.2 0.768 2.816 1.536 2.304 0.384 1.152 0.768 1.152 0.768 0.768 0.768 0.768h1.536l1.536-1.536 1.92-1.536 1.92-1.536 1.92-1.536 0.384-0.384 0.768-1.152 3.968-3.2 5.504-5.888 1.92-2.816 1.536-2.688v-0.384l0.384-0.384 0.384-1.152 0.768-2.304 3.072-7.168 2.432 0.768 1.92 0.768 1.92 1.152 1.536 1.152 1.92 1.536 1.152 2.048 1.536 1.92 1.152 2.304 0.384 0.768 0.384 0.768 0.768 0.384 1.152 0.384 2.816 0.768 1.92 0.384h6.656l4.736-0.384 4.352-0.384 3.584-0.384 3.2-0.384 3.2-0.768 2.432-1.152 1.92-0.768v-0.768l0.384-0.768-0.768-1.152-1.536-0.768-1.536-1.152-2.432-0.768-2.432-0.768-3.2-0.768-7.04-1.536-7.936-1.152h-2.432l-3.2-1.536-4.352-1.152-7.936-3.584-5.888-3.584-2.432-1.152-1.536-1.536-1.152-1.152-0.768-1.536 0.768-0.384 0.768-0.768 4.352-1.536 2.304-1.536 2.816-2.048 0.768-0.768 0.768-0.384 2.816-2.304 1.536-0.768 1.92-1.152 0.768-0.768 1.152-0.768 3.968-2.304 1.152-0.768v-0.384l0.384-0.384-0.384-0.768-0.384-1.152-0.768-0.768-0.768-1.152-1.152-0.768-0.768-0.384-1.536-0.384h-0.128l-1.28-0.896-1.152 1.536-1.92 1.536-2.432 2.816-3.584 3.2-1.536 1.536-0.768 0.384-0.768 0.768-5.12 2.816-7.04 3.968-3.2-1.152-3.584-2.432-1.92-1.92-1.536-1.536-0.768-1.152-0.384-0.768 0.384-0.768 0.384-1.152 2.304-4.736 0.768-1.92 0.384-1.536 0.768-1.152 2.304-6.272 0.384-1.92 0.768-1.92 0.768-1.152 0.768-0.384 0.384-0.384 6.272-2.304 1.536-0.768 1.152-0.384 1.92 0.384 0.768 0.384 0.768 0.768 0.768 0.768 0.384 0.768 0.384 0.384v0.384l0.384 1.152-0.384 0.768v1.152l-0.768 0.768-0.768 1.152-1.92 2.304-3.2 2.432-3.2 2.304-3.2 2.688-0.768 0.768-0.384 0.768 0.384 0.384h2.816l3.2-0.384 1.152-0.384h1.536l2.816-0.768 2.688-1.152 2.816-1.152 2.304-1.152 2.816-1.92 0.384-0.384 1.152-1.152 2.304-1.536 3.584-1.92 1.152-0.768 1.536-1.152v-1.152l-7.04-4.736-2.816-2.816-1.536-0.768-1.152-0.768-2.304-0.768-2.816-0.768-2.816-0.384-2.688-0.384-3.584 0.768-7.04 1.536h-0.384v-0.384l-0.768-2.048v-5.12l0.384-3.2v-2.048l0.384-1.536 0.384-0.768v-1.92l0.384-1.92 1.152-3.2-0.384-0.384-1.152-0.384-1.152-0.384H564.48l-1.92-0.768-1.92 1.152-1.536 0.384-0.384 0.384-0.384 5.12-0.384 2.304-0.384 2.432-0.768 5.12-0.384 5.12v5.504l-0.768 0.384-1.536 0.768-5.888 2.816-0.768 0.384v4.608l0.384 0.768v0.768l0.384 0.384 0.768 0.384 1.152 0.384h0.768l1.152-0.768h0.384l-5.12 15.36-0.384 0.768-2.304 3.968-5.12 8.32-2.304 2.432-1.92 2.304-6.656 7.808-3.2 3.2-1.536 1.536-1.536 1.92-1.152 1.152-3.2 1.92-2.816 2.432-2.304 2.304-1.536 2.304h-0.64v0.768l-0.768 0.768v0.768z m42.624-7.04l1.536-7.552 0.384-3.968V504.32l0.384-2.816 0.384-2.304v-1.536l0.384-0.384h0.384l4.352 1.536 2.816 0.384 0.768 0.384 1.152 0.384 2.432 1.152 2.816 1.92 2.816 2.432 2.816 1.92 0.768 0.768-0.384 0.768-0.384 1.152-0.768 0.768-1.152 1.536-4.352 4.736-0.384 0.384-5.12 3.968-3.968 2.816-1.92 1.152-1.152 0.768-1.536 0.384h-3.072l-0.384-0.384-0.384-0.384v-0.768l-0.384-2.048 0.384-1.152v-1.152l0.384-0.768 0.384-1.024z m-27.648-41.088l0.384 0.768 0.384 0.384 1.152 0.768 0.768 0.384 3.2 0.768 3.584 0.768 3.968 0.768 2.304 0.384h0.768l0.384-0.384 0.384-0.384 0.384-0.768-0.768-3.968v-3.2l-0.384-2.816V468.48l0.384-1.152v-1.152l0.384-1.92v-0.768l0.384-0.768-0.384-1.152-1.152-0.384h-1.92l-0.768 0.384-1.536 1.152-5.12 5.12-6.656 8.704v1.28h-0.128z m158.08 13.44l1.92 12.672v2.304l-0.384 1.536-0.768 1.536-0.768 1.152-1.152 0.768-1.92 1.152-2.688 0.768-3.584 1.536-2.816 0.768-5.888 1.536-4.352 1.536h-1.152l-3.584 1.152-5.504 1.152-2.304 0.384h-2.304l-0.384 0.384h-0.384l-0.384 0.768v1.536l0.768 1.92 2.816 5.504v0.384l0.384 0.384h1.152l1.536-0.384 2.816-1.536 2.816-1.536 3.2-1.152 3.584-1.536 3.584-1.152 4.352-0.768 5.12-1.152 5.12-0.768 5.504-0.768 8.704-1.536 5.12-1.152 3.2-0.384 3.584-0.384 4.736-0.384h5.504l5.504-0.768 5.504-0.384h4.736l4.736 0.384 1.536 0.768 4.352 1.152 5.888 1.152 2.432 0.768 4.736 1.536h0.768l0.768-0.384 0.768-0.384v-0.768l0.384-1.152-0.384-3.584-0.384-1.92-0.768-2.304-1.536-6.272-0.384-0.384-0.768-1.536-1.536-1.536-1.536-0.768-1.536-0.384-0.768-0.384-1.152 0.384-2.304 0.384-1.152 0.384-1.152 0.384h-2.304l-1.152 0.384-0.768 0.384-12.416 0.384-3.2 0.384-1.536 0.384h-9.088l-0.384-0.384 0.384-5.504v-1.92l0.384-0.384 0.384-0.384 1.152-0.768 1.152-0.384 2.816-2.816 4.352-3.584 5.12-4.736 6.272-6.272 0.384-0.768 1.152-0.768 0.384-0.384 2.304-1.152 1.536-1.152 1.152-1.152 0.384-0.768v-0.768l-0.384-0.768-0.768-0.768-0.768-1.152-1.92-2.304-1.536-1.92-1.92-0.768-0.768-0.384H733.44l-0.768 0.384-0.384 0.384-0.384 0.768-0.768 1.152-2.432 3.584-1.536 2.048-1.152 1.536-1.536 2.304-1.92 2.432-5.504 5.888h-0.384l1.152-24.832 0.384-2.304 0.768-5.12 0.768-4.352 0.384-1.92 0.384-1.536 1.536-2.304 0.768-0.768 0.768-0.384v-0.384l-0.384-0.768-0.768-0.768-1.92-1.536-1.92-0.768-2.304-0.768-2.432-0.384-1.152 0.384-1.152 0.384-0.384 0.768-0.768 1.152-0.384 1.92-0.768 2.304-0.768 7.168-0.384 3.968v5.12l-1.152 14.592-0.384 9.856-0.384 8.704-0.384 3.2-0.768 3.2-0.384 2.816-0.768 1.92-0.384 1.92-0.768 1.152-0.768 1.152-0.768 0.384-2.816 0.384h-0.768l-0.768-0.384-0.384-0.768V503.04l-0.384-7.808-0.384-3.968v-19.712l0.384-7.936v-0.384l1.152-3.584 0.384-1.152v-0.768l-0.384-0.768-0.384-0.768-0.768-0.384-1.152-0.768-9.856-2.816-1.152 0.384-1.152 0.768-0.384 0.384-0.384 0.768-0.384 1.152-0.384 1.536v3.2l0.384 4.352 0.384 7.168 0.384 9.088-0.768 1.152-7.936 4.352-2.816 1.536-1.152 0.384h-5.504l-2.304 0.384-0.384 0.384v0.768l-0.384 1.152 0.384 1.92 0.384 0.768 0.384 1.152 1.536 1.92 2.432 2.432 1.536 1.92 1.536 1.152 1.536 0.768h1.152l0.768-0.384 1.536-1.536 5.12-6.272 1.536-1.152 0.768-1.92 0.768-0.768h0.512v0.128z m104.832-15.36l-3.968 5.12-3.968 5.12-3.968 5.888-0.768 2.816v1.152l0.384 0.384 0.768 0.384h1.92l1.152-0.384 1.152-0.384 1.536-0.768 3.2-1.92 4.352-3.2 3.2-2.816h1.152l0.768 1.152 1.536 2.816v0.384l1.152 1.152 1.92 2.304 0.384 0.768v1.152l-0.768 0.768-0.768 0.768-1.152 0.768-4.736 2.304h-6.4l-0.384 0.768-0.384 0.384v3.072l0.384 2.304 0.768 2.816 0.768 2.304 0.384 0.384 0.384 0.384 0.768 0.384 9.088-3.2h0.384l0.384 0.384v0.768l0.384 0.768v7.552l0.384 5.504 0.384 2.304 0.384 1.92 0.768 2.816 0.768 0.768 1.152 0.384 0.768-0.384 2.816-1.92 2.816-1.536 0.768-0.768 1.152-1.152 2.816-3.2 3.584-5.504 4.736-6.656 1.92-6.656 0.768-3.2v-0.384l-0.768-0.384-0.384 0.384-1.152 0.768-1.152 1.536-1.536 2.304-3.968 4.352-3.2 2.816-1.152 1.152-1.152 0.768-0.768 0.384-0.384 0.384-1.536-0.384h-0.384l-0.384-0.384-0.384-1.152-0.384-1.152 0.384-1.152v-1.152l0.768-1.152 0.384-1.152 1.92-1.92 2.304-2.048 1.536-1.536 3.968-4.352 1.152-1.536 0.768-1.536 0.768-1.152V492.8l-0.768-1.152v-0.384h-0.384l-1.152-0.384-4.352 0.768-0.768-1.536 3.968-7.552 0.768-1.152 0.384-1.152v-4.736l-0.384-0.768-0.384-0.384-0.384-0.384-0.384-0.384-1.152-0.384h-2.816l-2.688 1.152-2.816 1.152-3.584 1.92-2.816 1.152-0.768 0.384h-1.92l-0.384-0.384-0.384-0.384v-2.688l0.384-1.536 0.768-1.536 0.768-1.536 1.152-1.536 1.152-1.536 1.92-1.536 1.536-1.152 1.92-1.536 1.152-0.384h0.768l1.152 0.384 1.536 0.768 4.736 3.584 1.92-0.384 1.536-0.384 1.536-1.152 1.92-1.536 1.152-1.536 1.152-1.536 0.384-1.536 0.384-1.536-0.384-1.536-0.768-1.152-1.536-1.152-0.384-0.384h-0.768l-6.272 1.152h-0.768l-0.768-0.384v-0.384l-0.384-0.768 0.384-1.152 1.152-1.92 1.536-2.432 2.432-2.304 0.384-1.152 0.768-0.768v-2.688l-0.384-0.768-0.384-1.152-0.768-0.768-1.92-1.536-1.92-1.536-1.92-1.152H810.88l-0.384 0.384-0.384 1.152-0.384 1.92-2.304 5.12-2.432 5.12-2.816 5.12-2.816 4.736-3.584 5.504-3.584 5.504-4.352 6.912z m57.216 14.592l0.768-0.768 2.304-2.432 3.968-2.304 2.688-1.92 1.92-1.152 1.536-1.536 1.536-1.92 1.152-2.048 1.152-2.816 0.768-2.688 0.768-3.2 0.768-3.968 0.384-1.92 0.384-2.048 0.768-2.304 0.384-1.536 3.584-9.472v-0.384l-0.384-0.768-1.92-1.536-1.92-1.152-2.816-0.768-2.304-0.384-2.816-0.384-3.2 0.384-2.688 0.768-3.584 1.152-3.584 1.536-3.968 1.536-9.472 5.888-2.304 1.92-0.768 0.384-0.384 0.384v0.384l0.384 4.352v5.888l0.384 16.896v4.736l-0.384 4.736-0.384 4.736v9.856l0.384 5.504 0.384 5.12 0.384 5.504 0.768 5.504 0.384 1.152 0.384 1.536 1.152 5.888 0.768 1.536 0.768 1.152 0.768 0.768h1.536l1.152-0.384 0.768-0.384 1.152-0.768 2.304-2.048 2.304-3.2 1.536-2.048 2.816-3.072 2.432-2.816 1.152-1.152 0.384-1.536 0.768-1.536v-0.384h0.384l1.536-1.92 0.768-2.048 0.768-1.152 0.384-1.536 0.384-1.536 0.384-1.152 0.768-0.384 0.384-0.384h0.384l1.536 0.384 5.888 2.304 1.92 2.048 1.536 2.304 1.152 2.432 0.768 2.304 0.384 0.768 0.384 0.768 0.384 0.384 0.768 0.768 1.536 0.384 2.304 0.384 3.584 0.384 3.968 0.384 5.504-0.384h1.536l1.92-0.384 2.816-1.152 1.536-0.768 1.152-0.768 1.536-0.768 1.152-1.152-0.384-0.384-0.384-0.768-1.152-1.152-2.688-1.536-3.968-1.536-5.12-1.92-14.976-4.352-9.856-4.352-3.968-2.048-2.816-1.536-1.536-1.152-0.384-0.768-0.384-0.384 0.384-0.768 0.768-0.768 5.504-3.2 0.768-0.768 1.92-1.92 3.584-3.584 0.768-0.384 0.768-1.152 2.432-3.2 1.92-1.92 0.384-0.384 1.92-2.304 0.768-1.152v-0.64l-0.384-1.152-1.152-1.92-0.768-1.152-0.768-1.152-0.768-0.384-0.384-0.384-0.768 0.384-1.152 0.384-1.152 1.152-1.152 1.536-3.2 2.816-7.04 6.272-4.352 3.2-5.12 2.304-0.384 0.384-3.584 1.152v-0.384h1.28z m-4.736 11.776h0.768l0.768 0.384 2.432 1.152 5.504 2.304 1.536 0.384 0.768 0.768 0.768 0.768 0.384 0.768-0.384 0.768-0.384 0.768-1.152 2.048-2.304 2.816-1.536 1.536-1.536 1.536-1.536 1.152-1.92 1.152-1.92 0.768-1.536 0.384h-2.688l-0.384-0.384-0.384-0.384-0.384-0.384-0.384-3.584v-3.968l0.384-4.352 0.768-4.736v-0.384l0.384-0.384 1.152-0.768 2.816-0.128z m3.2-45.696l0.768-1.152 1.152-1.92 1.536-1.152 1.536-0.768 1.536-0.384 1.152 0.384 0.768 0.384 0.384 0.384 0.384 0.768v6.272l-0.384 4.736-0.768 3.584-0.768 3.2-0.768 1.92-0.384 0.768-0.768 0.768-1.536 1.92-1.536 1.152-5.12 3.584h-0.768l-0.384 0.768-0.768-0.384-0.384-0.384-0.384-0.768v-1.152l0.384-0.768 0.384-0.768 0.384-0.768 1.152-1.152 2.816-2.816 3.968-3.584 2.816-3.2 0.768-1.152 0.384-0.768V462.08l-0.384-0.768-0.384-0.384-0.768-0.384-1.152-0.384-2.304 0.384-1.92 0.768-3.584 1.92h-0.768v-1.92l0.768-1.152 1.152-1.536 1.792-2.048z m70.528 57.216l0.384 0.384v0.384l0.768 0.384h2.688l1.536-0.384 3.584-1.152 1.92-0.768 1.536-1.152 1.536-1.152 1.536-1.536 3.2-3.2 0.384-1.152v-1.536l0.384-1.152 0.768-1.536 1.152-1.92 0.768-1.152 1.152-1.536 0.768-0.768 0.768 0.384 0.384 0.384 0.384 0.768v0.768l0.384 3.2 0.384 3.968-0.384 2.304-0.384 11.392-0.384 8.32-0.384 1.536v1.152l0.384 0.768 0.384 0.768 0.384 0.768 0.768 0.384h4.224l0.768-0.384 0.768-0.384 0.384-0.384v-0.64l0.384-1.92v-2.816l-0.384-3.2v-7.936l0.384-7.936V503.04l0.384-2.304v-0.768l0.384-1.92 0.768-7.04 0.768-5.12 0.768-3.2 0.768-1.536 1.536-1.92 1.536-1.536 0.768-1.152v-1.92l-1.152-1.536-1.536-1.152-1.152-0.768-1.152-0.768H947.712l-1.152 0.768-0.768 1.152-1.152 1.536-1.92 2.432-1.152 1.92-1.152 1.536-0.384 1.152v0.384l-0.384 0.384-2.688 3.968-4.352 5.504-6.272 7.808-7.936 9.088-1.536 1.536-1.536 1.152-0.768 1.152-0.384 0.768-0.384 0.768v0.384h0.256z m40.576-56.448l1.92-1.536 1.152-1.536 0.768-1.152v-1.28l-0.384-0.768-0.768-1.152-1.152-1.152-1.92-1.92-3.2-1.92-1.152-0.768H948.736l-0.768 0.768-1.152 1.152-1.152 1.536-3.2 4.352-3.584 6.784-3.2 4.736-1.92 3.584-1.152 2.816-0.384 1.152v1.536l0.768 1.152 1.536 0.768 0.768-0.384 1.152-0.768 1.92-1.536 1.92-1.92 1.152-0.768 1.536-1.536 5.12-3.584 0.768-0.768 0.768-1.152 1.152-1.152 0.768-0.384 0.768-0.768 1.152-1.152 1.152-1.28z m25.216 17.024l-3.584 0.768-2.688 0.768-3.2 0.384h-3.584l-0.768 0.384-5.888 1.536h-1.152l-1.152 0.384-0.384 0.768-0.384 1.152 0.384 0.768 0.384 0.768 0.384 1.152 0.768 1.152 1.152 1.536 1.152 2.048v0.384h0.768l1.92 0.384 2.816-1.152 3.2-1.152 3.584-1.152 3.968-1.152 3.968-0.384h5.504l1.536 0.384 0.384 0.384 0.768 1.536 0.768 2.304 0.384 3.2 0.768 3.2v6.016l0.768 5.888v5.504l0.384 5.504v5.12l-0.384 1.92-0.384 0.768-1.152 0.768-1.536 0.384H985.344l-2.816-0.384-2.816-0.384-3.584-0.768-3.584-1.152h-1.536l-1.92-0.384-1.152-0.768-2.304-0.768-1.536-0.384h-0.384v0.768l0.384 0.768 0.384 0.768 1.152 0.768 2.304 2.304 3.584 2.304 2.816 2.816 2.304 1.152 3.968 1.536 4.736 1.536 6.272 1.92 7.936 1.92 1.92 0.768h1.92l0.768-0.384 0.384-0.768 0.384-0.768-1.92-13.056-0.384-3.584v-1.536l0.384-25.984v-9.088l0.384-0.384 0.768-2.432 0.768-0.768 0.768-0.384 0.768-0.768h1.152l1.152-0.384h1.536l3.968 0.384 4.736 0.768h1.92l1.152-0.384 1.152-0.768v-0.384l0.384-0.384v-1.152l-0.384-2.816-0.384-1.152-0.384-1.536-1.536-2.688-2.304-2.816-1.536-0.384H1009.664l-3.584 0.384-3.584 0.384-8.32 1.152-1.536 0.384-2.304 0.384-2.816 0.768-7.68 3.584z m24.064-18.176l1.152-0.768 0.384-0.768 0.384-0.768 0.384-0.768-0.384-1.152-0.384-1.152-0.384-2.048-0.768-1.92-0.768-0.384-0.768-0.768h-0.768l-1.152-0.384-2.432 0.384-3.584 1.152-11.776 3.968-3.968 1.152-3.584 0.768-2.816 0.384-1.92 0.384-0.768 0.384-0.384 0.384-0.384 0.384v1.536l0.384 0.768 0.768 2.816 0.384 0.384 0.768 3.2 0.384 0.768 0.384 0.768 0.768 0.384h0.768l2.304-0.384 3.2-0.384 9.088-0.384 3.2-1.92 2.816-1.152 3.968-1.536 5.504-3.328z" fill="#231815" p-id="19056"></path><path d="M265.6 598.912h8.704l-4.352-11.392-4.352 11.392z m0.384-18.048h7.936l12.16 29.184h-7.936l-1.92-5.888H263.68l-2.432 5.888h-7.424l12.16-29.184z m47.744 8.96l-0.384-0.768-0.384-0.768-0.768-1.152-0.384-0.384-0.768-0.384-1.152-0.768-1.92-0.384h-3.84l-1.92 0.384-0.768 0.384-0.768 0.384-1.536 1.152-1.152 1.536-0.768 1.92-0.384 2.304v4.736l0.768 2.304 0.384 0.768 0.384 0.768 0.384 0.768 0.768 0.768 1.536 0.768 1.536 0.768 1.536 0.384h3.456l1.536-0.384h0.768l0.768-0.384 1.152-0.768 0.768-1.152 0.768-1.152 0.768-1.152 0.384-1.152h-7.936v-5.12h14.208v15.744h-4.736l-0.768-3.584-1.92 1.92-1.536 1.152-1.536 0.384-1.536 0.768H301.568l-1.536-0.384-1.536-0.384-1.152-0.768-1.152-0.384-2.432-1.92-1.152-1.152-0.768-0.768-0.768-1.536-0.768-1.152-0.384-1.536-0.384-1.536-0.384-1.536V593.92l0.384-1.536 0.384-1.536 0.384-1.536 0.768-1.152 0.768-1.152 0.768-1.152 1.152-1.152 1.152-1.152 1.152-0.768 2.816-1.536 1.536-0.384 1.536-0.384h6.784l2.816 0.768 1.536 0.384 1.152 0.384 1.92 1.152 2.048 1.536 1.152 1.536 0.384 0.768 0.384 1.152 0.768 1.92h-7.168v-0.256z m21.248-3.84v7.936h7.936l2.304-0.384h1.152l1.152-0.768 0.768-0.768 0.384-0.768v-2.304l-0.384-1.152-0.768-0.768-0.768-0.384-1.536-0.384h-10.24v-0.256z m15.36-4.352l0.768 0.384 0.768 0.384 0.768 0.384 0.768 0.768 1.152 1.152 0.384 1.152 0.768 1.536v1.536l-0.384 1.92-0.768 1.92-0.768 1.152-0.768 0.768-1.152 0.384-1.152 0.768 1.92 0.768 0.768 0.768 0.384 0.768 0.768 1.92 0.384 1.152v6.016l0.384 1.152 1.152 0.768v0.384H348.16l-0.384-1.536v-2.304l-0.384-2.816v-2.304l-0.384-0.768-0.768-0.384-0.384-0.768h-1.152l-1.152-0.384h-8.576v11.392h-7.04v-29.184h20.096l2.304 1.152z m18.176 28.416h-7.04v-29.184h7.04v29.184z m10.24-26.496l1.152-0.768 1.152-0.768 1.152-0.384 1.152-0.384 2.816-0.768 1.536-0.384h3.456l1.92 0.384 1.92 0.384 1.536 0.384 1.536 0.768 1.152 0.768 0.768 0.384 0.384 0.768 0.768 0.384 0.384 0.768 1.152 1.152 0.384 1.536 0.768 1.152v1.536H396.8l-0.768-1.92-1.152-1.536-0.768-0.768-1.536-0.384-1.536-0.384H387.84l-1.536 0.384-1.536 0.768-0.768 0.768-0.384 0.384-1.152 1.536-0.384 1.92-0.384 1.92-0.384 2.432 0.384 2.304 0.384 1.92 0.768 1.536 0.768 1.536 1.536 1.152 1.152 0.768 1.536 0.384h3.456l1.536-0.384 1.536-0.768 0.768-0.768 1.152-1.536 0.768-1.92h7.04l-0.768 2.432-0.768 1.92-1.536 1.92-0.768 0.768-0.768 0.768-1.152 0.768-0.768 0.384-2.432 1.152h-1.152l-1.536 0.384-2.816 0.384-1.92-0.384h-1.536l-1.536-0.384-1.536-0.384-1.152-0.384-1.536-0.768-1.152-0.768-1.152-1.152-1.536-1.92-0.768-1.536-0.768-1.152-0.384-1.536-0.384-1.536v-7.04l0.384-1.536 0.768-1.536 0.384-1.152 1.152-1.536 0.768-1.152 1.024-1.28z m31.104-2.688h7.168V599.04l0.384 2.432 0.384 1.152v0.768l0.384 0.384 0.768 0.768 1.152 0.768 1.536 0.384h3.84l1.536-0.384 1.152-0.768 0.768-1.152 0.384-0.768 0.384-1.152V580.864h7.552v20.096l-0.384 1.92-0.768 2.048-0.384 1.152-1.152 1.152-0.768 1.152-1.536 0.768-1.152 0.384-1.536 0.768-1.92 0.384h-8.32l-1.536-0.384-1.536-0.768-1.536-0.384-1.152-0.768-1.152-1.152-0.768-1.152-0.768-1.152-0.384-2.048-0.384-1.92v-20.096h-0.256z m34.304 0h7.168v24.064h16.896v5.12H444.16v-29.184z m50.432 0v5.12h-10.24v24.064h-7.04v-24.064h-10.24v-5.12h27.52z m4.352 0h7.424V601.472l0.384 1.152 0.384 0.768 0.384 0.384 0.384 0.768 1.152 0.768 1.536 0.384h3.84l1.536-0.384 1.152-0.768 1.152-1.152v-0.768l0.384-1.152 0.384-2.432v-18.176h7.04v20.096l-0.384 1.92-0.384 2.048-0.768 1.152-0.768 1.152-1.152 1.152-1.152 0.768-1.536 0.384-1.536 0.768-1.536 0.384h-8.064l-1.92-0.384-1.536-0.768-1.152-0.384-1.536-0.768-0.768-1.152-1.152-1.152-0.384-1.152-0.768-2.048-0.384-1.92v-20.096h-0.256z m41.728 5.12v7.936h7.936l2.304-0.384h1.536l0.768-0.768 0.768-0.768 0.384-0.768v-2.304l-0.384-1.152-0.768-0.768-0.768-0.384-1.536-0.384h-10.24v-0.256z m15.488-4.352l0.768 0.384 0.768 0.384 0.768 0.384 0.768 0.768 1.152 1.152 0.768 1.152 0.384 1.536v3.456l-1.152 1.92-0.768 1.152-0.768 0.768-1.152 0.384-1.152 0.768 1.92 0.768 0.768 0.768 0.384 0.768 0.768 1.92 0.384 1.152v6.016l0.768 1.152 0.768 0.768v0.384h-7.808l-0.768-1.536v-5.12l-0.384-1.152v-1.152l-0.384-0.768-0.768-0.384-0.384-0.768h-1.152l-1.152-0.384H540.8v11.392H533.76v-29.184h20.096l2.304 1.152z m21.248 17.28h8.704l-4.352-11.392-4.352 11.392z m0.384-18.048h7.808l12.288 29.184h-7.936l-1.92-5.888h-12.672l-2.304 5.888h-7.552l12.288-29.184z m24.448 0h7.04v24.064h17.28v5.12h-24.448v-29.184h0.128z m48.512 5.12v6.272h10.624l1.536-0.768 0.768-0.384 0.384-0.384v-0.768l0.384-0.768-0.384-1.152v-0.768l-0.768-0.384-0.768-0.384-1.92-0.384h-9.856v-0.128z m0 11.392v7.552h10.624l1.536-0.384 0.768-0.384 0.768-0.768 0.384-1.152 0.384-1.152-0.384-1.152-0.384-0.768-0.768-0.768-0.768-0.384-1.536-0.384h-10.624v-0.256z m18.944-13.44l0.768 0.768 0.384 1.152 0.384 1.152v2.304l-0.384 1.152-0.384 1.152-0.768 0.768-1.152 0.768-1.536 0.768 1.536 0.768 0.768 0.384 1.152 0.768 0.384 0.768 0.768 0.768 0.384 1.152 0.384 1.152v2.304l-0.384 1.152-0.384 1.152-0.768 1.152-1.152 1.152-1.152 1.152-1.92 0.768-1.92 0.384-2.304 0.384H644.352v-29.184h19.712l1.152 0.384 1.152 0.384 1.92 0.768 0.768 0.768 0.64 1.536z m18.048 14.976h8.704l-4.352-11.392-4.352 11.392z m0.384-18.048h8.32l11.776 29.184h-7.552l-2.304-5.888h-12.672l-2.304 5.888h-7.424l12.16-29.184z m24.448 0h7.424l13.824 20.48v-20.48h6.656v29.184H733.44l-14.208-20.864v20.864h-6.656v-29.184z m34.688 0h7.04v11.776l13.44-11.776h9.088l-14.208 11.776 14.976 17.28h-9.088l-10.624-12.672-3.584 2.816v9.856h-7.04v-29.056z m69.76 22.016l0.768-1.152 0.768-1.92 0.768-1.92v-4.736l-0.768-1.92-0.768-1.92-0.384-0.768-0.384-0.384-0.768-0.768-0.768-0.768-1.536-0.768-1.536-0.384h-4.352l-1.536 0.384-0.768 0.384-0.768 0.384-0.768 0.768-0.768 0.384-1.152 1.536-0.768 1.92-0.384 1.92v4.736l0.384 1.92 0.768 1.92 0.768 0.768 0.384 0.384 0.768 0.768 0.768 0.384 1.536 1.152 1.536 0.384h4.352l1.536-0.384 0.768-0.384 0.768-0.768 0.768-0.384 0.768-0.768z m4.352 4.736l-1.152 0.768-0.768 0.768-2.816 0.768-3.2 0.768-3.2 0.384-3.584-0.384-1.536-0.384-1.536-0.384-2.816-0.768-0.768-0.768-1.152-0.768-1.152-1.152-1.152-1.152-0.768-1.536-0.768-1.152-0.384-1.536-0.384-1.92-0.384-1.536v-3.968l0.384-1.92 0.384-1.536 0.384-1.536 0.768-1.536 0.768-1.152 1.152-1.152 1.152-1.152 1.152-0.768 0.768-0.768 2.816-0.768 3.2-0.768 3.584-0.384 3.2 0.384 1.536 0.384 1.536 0.384 2.816 0.768 0.768 0.768 1.152 0.768 1.152 1.152 1.152 1.152 0.768 1.152 0.768 1.536 0.384 1.536 0.384 1.536 0.384 1.92v3.968l-0.384 1.536-0.384 1.92-0.384 1.536-0.768 1.152-0.768 1.536-1.152 1.152-1.152 1.152z m10.624-26.752h24.448v5.12h-17.408v6.656h14.976v5.12h-14.976v12.16H832v-29.056z m45.696 2.688l1.152-0.768 1.152-0.768 1.152-0.384 1.152-0.384 2.816-0.768 1.536-0.384H890.624l1.536 0.384 1.92 0.384 1.536 0.384 1.536 0.768 1.536 0.768 0.384 0.384 0.768 0.768 0.384 0.384 0.384 0.768 1.152 1.152 0.768 1.536 0.384 1.152v1.536h-7.04l-0.768-1.92-0.768-1.536-1.152-0.768-1.536-0.384-1.536-0.384h-3.456l-1.536 0.384-1.536 0.768-0.384 0.768-0.768 0.384-0.768 1.536-0.768 1.92-0.384 1.92v4.736l0.384 1.92 0.768 1.536 1.152 1.536 1.152 1.152 1.152 0.768 1.92 0.384h3.072l1.536-0.384 1.536-0.768 1.152-0.768 0.768-1.536 0.768-1.92h7.04l-0.384 2.432-1.152 1.92-1.152 1.92-1.152 0.768-0.768 0.768-0.768 0.768-1.152 0.384-2.304 1.152h-1.152l-1.536 0.384-2.816 0.384-1.536-0.384h-1.92l-1.536-0.384-1.536-0.384-1.152-0.384-1.152-0.768-1.536-0.768-0.768-1.152-1.92-1.92-0.768-1.536-0.384-1.152-0.768-1.536v-1.536l-0.384-1.536v-3.456l0.384-2.048 0.384-1.536 0.384-1.536 0.768-1.152 0.768-1.536 0.768-1.152 1.024-1.28z m31.232 26.496v-29.184h7.04v11.008h13.44v-11.008h7.04v29.184h-7.04v-13.056h-13.44v13.056h-7.04z m40.96 0h-7.168v-29.184h7.168v29.184z m6.656-29.184h7.552l13.44 20.48v-20.48h6.656v29.184h-7.168l-13.824-20.864v20.864h-6.656v-29.184z m43.776 18.048h8.704l-4.352-11.392-4.352 11.392z m0.384-18.048h8.32l12.16 29.184h-7.808l-2.432-5.888H998.4l-2.304 5.888h-7.424l12.032-29.184z" fill="#009174" p-id="19057"></path></svg>