<svg class="icon" viewBox="0 0 1024 1024" xmlns="http://www.w3.org/2000/svg" width="48" height="48"><defs><style/></defs><path d="M960 64H64C28.7 64 0 92.7 0 128v640c0 35.3 28.7 64 64 64h320v64h-96c-17.7 0-32 14.3-32 32s14.3 32 32 32h448c17.7 0 32-14.3 32-32s-14.3-32-32-32h-96v-64h320c35.3 0 64-28.7 64-64V128c0-35.3-28.7-64-64-64zM576 896H448v-64h128v64zm384-128H64V128h896v640z"/><path d="M799.9 470.1l-63 .1c-6.4-13.6-13.8-26.5-22.6-38.8l31.4-54.7c8.8-15.4 3.5-34.9-11.8-43.7L609 261.4c-15.4-8.8-34.9-3.5-43.7 11.8L533.9 328c-15-1.4-30-1.3-44.9.1l-31.7-54.5c-8.9-15.2-28.5-20.5-43.7-11.6l-124.5 72.3c-15.2 8.9-20.5 28.5-11.6 43.7l31.6 54.4c-4.4 6.2-8.5 12.5-12.2 19-3.7 6.5-7.1 13.1-10.2 20.1l-62.9.2c-17.7 0-31.9 14.4-31.9 32.1l.2 71.2h-.2v64h640.4v-64l-.3-73c0-17.6-14.4-31.9-32.1-31.9zM448.1 574.9c0-10.2 2.4-20.6 7.6-30.2 16.7-31.1 55.5-42.9 86.6-26.2 21.5 11.5 33.7 33.6 33.8 56.4h-128zm192 0c0-45.6-24.5-89.8-67.6-112.8-62.3-33.4-139.9-9.9-173.3 52.4-10.3 19.3-15.2 40-15.2 60.4H256l-.1-39.3 52.6-.2c13.5-.1 25.6-8.6 30.1-21.3 4.1-11.3 8.6-21.4 13.9-30.7 5.3-9.3 11.7-18.3 19.5-27.5 8.7-10.3 10-25 3.2-36.8L349 373.5l69.2-40.2 26.4 45.5c6.8 11.7 20.3 17.9 33.6 15.4 22.1-4.2 44.6-4.2 67.1-.1 13.4 2.4 26.7-3.8 33.5-15.6l26.2-45.6 69.4 39.8-26.2 45.6c-6.8 11.8-5.3 26.5 3.5 36.8 14.9 17.3 26.2 36.8 33.7 58 4.6 12.8 16.7 21.3 30.2 21.3l52.6-.2.1 40.7H640.1z"/></svg>