<?xml version="1.0" standalone="no"?><!DOCTYPE svg PUBLIC "-//W3C//DTD SVG 1.1//EN" "http://www.w3.org/Graphics/SVG/1.1/DTD/svg11.dtd"><svg t="1542263275775" class="icon" style="" viewBox="0 0 2327 1024" version="1.1" xmlns="http://www.w3.org/2000/svg" p-id="23309" xmlns:xlink="http://www.w3.org/1999/xlink" width="454.4921875" height="200"><defs><style type="text/css"></style></defs><path d="M349.393455 164.375273C167.447273 164.375273 12.032 310.016 0.674909 491.706182-10.658909 673.349818 124.765091 837.818182 305.570909 860.485818c180.619636 22.621091 353.396364-102.353455 387.165091-281.530182 16.477091-87.435636-0.093091-181.806545-47.965091-257.070545-46.359273-72.983273-120.552727-125.114182-204.194909-146.269091a371.735273 371.735273 0 0 0-91.182545-11.240727M79.010909 513.815273c0-130.839273 97.396364-249.134545 227.444364-269.824v93.649454c0 8.517818 3.048727 22.877091-0.605091 30.650182-3.002182 6.050909-32.023273 2.280727-38.656 2.280727-37.445818 0-73.541818 22.132364-82.594909 60.392728-3.979636 16.733091-1.582545 36.142545-1.582546 53.341091 0 30.929455-1.000727 62.091636 0 93.044363a78.196364 78.196364 0 0 0 38.306909 66.862546c16.686545 9.797818 34.513455 10.542545 53.224728 10.542545 8.843636 0 28.648727-4.421818 31.906909 5.585455 2.513455 7.633455 0 21.899636 0 30.021818v90.112c-129.396364-20.712727-227.444364-135.656727-227.444364-266.658909m191.534546 64.628363c-12.869818 0-7.749818-29.719273-7.749819-37.864727v-45.824-24.855273c0-6.097455-2.234182-16.081455 1.303273-21.341091 5.725091-8.285091 35.584-3.421091 44.916364-3.42109h88.180363c8.983273 0 39.447273-5.259636 41.751273 6.190545 3.025455 13.824 0.162909 31.581091 0.162909 45.754182v61.184c0 10.542545 1.722182 20.177455-11.380363 20.177454h-157.184m121.739636 202.007273V687.243636c0-12.194909-5.957818-31.534545 9.588364-32.512 19.013818-1.186909 38.423273 2.350545 57.111272-2.769454 39.400727-10.798545 56.808727-46.173091 56.808728-84.317091v-44.613818-46.266182c0-23.389091 2.280727-46.894545-10.589091-67.816727-20.317091-33.024-53.178182-38.353455-88.576-38.353455-4.747636 0-19.083636 2.373818-22.644364-0.605091-4.096-3.607273-1.675636-13.963636-1.675636-18.641454v-107.357091c130.048 20.759273 227.514182 138.938182 227.514181 269.847272-0.023273 131.002182-98.141091 245.946182-227.537454 266.612364" fill="#B02434" p-id="23310"></path><path d="M969.821091 520.354909c-0.465455-4.561455 2.978909-18.385455 8.215273-8.704 3.84 7.051636 2.676364 16.197818 3.188363 23.901091 0.674909 10.379636-0.395636 19.758545-3.141818 29.649455-1.047273 3.700364-1.442909 8.354909 1.186909 11.543272 1.489455 1.792 7.424 2.466909 6.260364 5.678546-1.582545 4.049455-13.102545-1.768727-14.871273-3.421091-6.306909-5.818182-3.723636-16.360727-3.84-24.087273-0.162909-8.192-0.744727-16.663273 4.026182-21.899636 3.095273-3.304727-1.489455-8.634182-1.024-12.660364m46.033454-198.097454c12.660364-12.055273 33.303273-24.645818 51.572364-20.363637 13.102545 8.517818-7.354182 36.445091-12.683636 44.334546-5.376 7.936-32.349091 42.635636-36.561455 17.152-2.327273-14.033455-4.677818-26.996364-2.327273-41.122909m2.46691-53.946182a22221.032727 22221.032727 0 0 0-29.067637-36.538182c-5.050182-6.376727-8.773818-14.382545-17.361454-15.825455-11.729455-1.978182-16.267636 8.005818-21.969455 16.034909-5.585455 7.959273 2.304 18.594909-0.674909 28.904728-4.072727 14.219636-5.608727 29.44-6.981818 44.125091-0.930909 9.821091-1.605818 19.688727-2.071273 29.579636-2.280727 3.770182-9.821091 7.447273-13.218909 9.984-5.189818 3.84-46.196364 35.328-49.733818 31.325091a139.217455 139.217455 0 0 0-17.850182-17.477818c-5.073455-3.979636-12.055273-5.632-15.802182-11.264-7.377455-11.008-11.915636-15.080727-11.124363 2.955636-0.349091 29.253818 10.426182 56.878545 26.414545 81.128727 9.448727 14.405818 18.781091 29.160727 35.770182 34.583273 3.351273 1.093818 23.296 6.493091 24.064 3.025455 0.744727-3.374545 0.977455-9.262545 2.699636-12.264728 9.262545-16.477091 9.378909 14.010182 9.797818 19.409455 1.373091 16.314182 0.535273 37.585455 6.935273 52.573091 8.750545 20.456727 6.958545 42.077091 7.563636 63.744 0.232727 6.935273 15.336727 28.881455 22.062546 18.082909 0.581818-2.862545-8.890182-13.265455-9.984-16.174546a5.678545 5.678545 0 0 1 0 1.256728c-4.584727-8.564364-3.979636-24.226909-5.376-33.512728-0.512-3.490909-6.888727-48.896-1.070546-47.96509 0.930909 0.139636 1.978182 12.590545 0.325819 11.915636 0.884364 11.031273 2.443636 21.992727 3.909818 32.954182 1.675636 12.590545 6.027636 22.551273 9.332363 34.56 1.210182 2.909091 0.069818 9.774545 5.934546 8.564363 5.794909-1.210182 1.396364-2.885818 4.142545-7.610181 0.791273-1.419636 11.845818-4.468364 11.310546-4.654546 6.981818 2.699636 7.493818-8.192 7.493818-12.125091-0.837818-13.777455-5.376-21.829818 1.675636-35.258182 5.585455-10.472727 8.354909-27.973818 10.658909-39.493818 3.048727-15.336727 9.425455-30.021818 12.218182-45.218909 1.838545-9.937455 2.839273-18.734545 6.004364-28.369454 0.768-2.466909 1.140364-7.889455 3.979636-8.052364 5.050182-0.302545 17.873455-0.558545 20.107637-6.679273 1.978182-4.375273-1.512727-8.029091 2.978909-13.195636 1.210182-1.396364 10.821818-7.307636 5.352727-9.099637-3.328-1.070545-12.846545 0.907636-13.684364-1.815272a20.852364 20.852364 0 0 1 4.282182-20.642909c10.286545-10.961455 19.362909-18.664727 27.042909-32.418909 7.214545-12.823273 20.526545-23.691636 24.762182-37.469091 5.562182-18.176-5.888-20.084364-21.876364-20.689455-14.754909-0.581818-26.158545 3.979636-39.191272 10.519273-3.002182 1.536-15.173818 8.797091-15.173818 0.279273-3.490909-5.189818-4.608-15.685818-4.608-21.690182m-87.854546 106.216727a174.173091 174.173091 0 0 0-17.664 12.637091c-2.978909 2.443636-12.8 8.331636-13.544727 11.473454-1.442909 6.004364 0.628364 12.520727 3.816727 17.617455 4.049455 6.562909 12.357818 8.797091 15.080727 15.36 6.865455 16.477091 13.777455-3.444364 15.080728-12.753455 1.745455-12.078545 8.354909-35.165091-2.769455-44.334545" fill="" p-id="23311"></path><path d="M1405.742545 231.819636c-24.785455-29.905455-81.221818-7.959273-110.126545 3.909819-18.641455 7.68-34.117818 22.528-45.986909 38.539636-6.353455 8.634182-16.384 27.694545-1.28 35.048727 5.469091 2.746182 15.243636-1.954909 14.103273-8.145454-1.652364-8.750545-2.397091-15.918545 1.931636-23.994182 10.286545-19.2 25.693091-29.393455 45.893818-36.002909 16.197818-5.306182 38.144-14.103273 55.296-11.217455 20.200727 3.421091 37.026909 19.944727 45.684364 37.725091 18.199273 37.678545 19.083636 83.502545 21.154909 124.439273 2.048 40.192-1.024 78.801455-7.493818 118.504727-1.652364 9.914182-16.500364 22.411636-25.204364 26.507636-14.405818 6.749091-36.165818-7.517091-51.153454-9.076363-7.400727-0.744727-16.826182 0.977455-23.924364-1.373091-9.472-3.141818 6.632727-10.216727 8.517818-11.031273 14.964364-6.306909 44.916364 10.589091 55.598546-4.282182 4.165818-5.818182 9.658182-16.64 8.238545-24.017454-1.792-10.402909-12.450909-5.818182-19.060364-3.607273-19.409455 6.516364-38.888727 12.916364-58.554181 18.548364-13.405091 3.84-35.909818 12.171636-49.896728 9.262545-1.093818-0.232727 21.666909-22.993455 23.994182-25.274182 12.288-12.125091 24.482909-24.762182 37.515636-36.072727 6.213818-5.469091 16.942545 15.104 20.89891 18.362182 4.491636 3.700364 16.174545 13.172364 22.411636 8.727273 5.655273-3.979636 8.866909-15.662545 11.170909-21.806546 3.746909-9.867636 15.872-35.165091 5.864727-44.753454 4.328727 4.258909-11.473455 38.702545-14.429091 43.869091-3.397818 5.934545-9.169455 10.635636-16.430545 8.890181-9.099636-2.187636-11.636364-11.915636-16.965818-18.362181-4.491636-5.445818 10.170182-19.060364 12.683636-22.504728 8.564364-11.543273 30.650182-28.625455 29.812364-44.008727-0.605091-11.217455-5.073455-17.035636-11.869091-6.120727-5.166545 8.378182-10.845091 16.244364-15.662546 24.878545-3.84 6.935273-7.074909 15.662545-12.311272 21.690182-5.678545 6.725818-15.220364 7.400727-8.098909-2.187636 4.817455-6.423273 4.584727-13.125818 5.98109-20.642909 1.629091-8.541091-8.587636-13.684364-14.17309-17.803637-6.493091-4.724364-11.217455-12.706909-15.848728-19.176727-5.981091-8.308364-6.283636-11.008-0.791272-19.130182 4.258909-6.516364 27.880727-40.750545 8.192-40.750545-8.378182 0-16.337455 4.468364-23.738182 7.749818-9.332364 4.119273-8.517818 0.698182-12.194909-6.656-2.862545-5.748364-7.354182-15.313455-12.590546-19.176727-7.959273-5.911273-1.768727 10.053818-1.326545 11.566545 2.304 7.819636 4.933818 16.244364 6.144 24.296727 0.930909 6.423273-9.681455 14.429091-12.846546 19.874909-8.773818 15.429818 19.781818-0.837818 22.178909 4.933819 8.448 20.154182-6.609455 25.367273-12.241454 42.728727-1.047273 3.211636-6.865455 18.734545-0.209455 19.479273 5.608727 0.651636 8.052364-9.588364 14.405818-7.912728 2.932364 0.791273-20.992 30.673455-23.296 34.071273-9.658182 14.033455-16.034909 24.994909-17.75709 42.100364-1.536 14.498909 24.32-4.072727 29.509818-6.935273 13.428364-7.377455 31.441455-16.546909 40.913454-29.067636 4.258909-5.725091 9.937455-0.581818 8.075637 5.166545-1.047273 3.211636-8.936727 6.702545-11.566546 8.820364-12.194909 9.844364-22.621091 21.504-33.722182 32.558545-9.332364 9.262545-19.2 20.922182-29.509818 28.834909-4.910545 3.723636-16.430545 2.536727-22.318545 3.304727-3.700364 0.465455-9.402182 9.076364-10.263273 2.746182a333.079273 333.079273 0 0 1-2.490182-43.659636c-2.001455 3.211636-3.956364 6.958545-7.237818 9.285818 0.698182-13.102545-1.745455-26.391273-1.28-39.68 0.837818-22.714182 1.908364-45.451636 3.560727-68.142545 1.210182-16.709818 3.304727-33.326545 6.260364-49.826909 2.327273-12.8 1.605818-29.928727-8.890182-9.89091-18.013091 34.327273-16.779636 81.058909-18.106182 118.853819-1.140364 32.256-0.325818 65.349818 5.12 97.210181 2.048 12.148364 6.237091 32.209455 21.643637 33.373091 30.743273 2.443636-6.423273-25.553455 3.607272-34.117818 2.722909-2.327273 16.663273-0.116364 20.363637-0.139636 7.377455-0.046545 14.685091-0.139636 22.085818 0.093091 22.784 0.721455 45.754182 3.84 67.560727 10.682182 17.384727 5.469091 34.443636 13.614545 47.290182 26.810181 6.586182 6.772364 10.216727 10.007273 18.082909 2.024728 7.610182-7.749818 15.010909-15.383273 23.086546-22.667637 10.193455-9.146182 21.783273-16.733091 23.877818-31.045818 2.141091-14.661818 2.722909-29.626182 3.653818-44.357818 2.513455-39.354182 4.701091-77.800727 0.744727-117.108364-4.212364-41.309091-14.941091-90.856727-42.263273-123.741091m-100.770909 92.253091c2.513455-1.210182 5.073455-2.257455 7.703273-3.072-1.652364 3.490909-5.236364 14.452364-10.007273 13.637818-5.352727-0.930909-0.558545-9.146182 2.304-10.565818m7.959273 101.213091c-4.701091 7.051636-22.341818 14.312727-30.208 16.384-14.615273 3.933091-6.842182-4.817455-2.397091-12.194909 6.213818-10.542545 15.313455-18.990545 23.970909-27.485091 2.862545-2.816 10.123636 10.426182 11.101091 12.381091 1.652364 3.351273-0.488727 7.936-2.466909 10.914909m7.517091-16.104727c-2.350545-4.328727-4.445091-25.646545 3.025455-15.057455 1.908364 2.722909 5.492364 8.238545 4.072727 11.869091-1.233455 3.234909-3.816727 9.169455-7.098182 3.188364" fill="" p-id="23312"></path><path d="M1361.012364 338.222545c12.660364 0 18.525091-12.962909 20.666181-23.64509 2.862545-13.358545-8.378182-15.709091-19.130181-20.852364-6.027636-2.885818-13.079273-3.467636-19.688728-3.351273-7.354182 0.186182-7.168 9.099636-7.121454 15.266909 0.046545 16.733091 6.609455 32.581818 25.274182 32.581818M1592.808727 391.586909a788.945455 788.945455 0 0 1 42.053818-78.010182c5.748364-9.146182 12.101818-18.176 20.037819-25.553454 3.537455-3.234909 8.029091-7.191273 13.032727-7.726546 6.260364-0.674909 12.194909 0.162909 17.314909-4.235636 10.682182-9.122909 3.746909-17.640727-4.328727-26.042182a59.345455 59.345455 0 0 0-13.591273-10.705454c-5.864727-3.281455-5.888 0.488727-9.332364 5.46909-16.989091 24.576-31.045818 50.385455-43.776 77.381819-12.241455 25.902545-23.552 52.200727-35.607272 78.196363-5.12 11.124364-10.309818 22.272-15.732364 33.233455-1.931636 3.956364-3.863273 8.145455-6.888727 11.357091-3.700364 3.909818-9.285818 3.979636-12.590546 8.378182-7.005091 9.239273-4.212364 21.783273 5.213091 27.950545 11.869091 7.726545 10.007273-13.568 11.799273-19.851636 7.121455-23.645091 21.853091-47.499636 32.395636-69.841455" fill="" p-id="23313"></path><path d="M1670.097455 297.332364c-1.466182 4.352-2.955636 9.076364-2.955637 13.707636 0 7.261091 3.421091 11.892364-0.325818 19.083636-1.256727 2.397091-4.770909 5.12-5.166545 7.936-1.186909 8.075636 10.24-2.141091 10.775272-2.653091 5.399273-4.840727 11.310545-7.307636 18.338909-8.866909 5.655273-1.256727 10.030545 0.558545 9.239273-5.678545-2.257455-17.687273-12.986182-24.878545-29.905454-23.528727M1903.429818 519.586909c-17.733818-5.445818-35.002182-12.474182-52.736-17.989818-6.469818-2.071273-14.824727-2.606545-20.340363-6.958546-8.890182-6.865455-0.977455-9.937455 2.536727-16.779636 2.280727-4.445091 2.350545-8.750545 5.492363-13.242182 5.562182-7.936 11.845818-14.545455 19.36291-20.666182 3.979636-3.234909 15.266909-5.911273 14.498909-12.567272-1.512727-12.078545-19.060364 0.442182-22.202182 3.490909-30.533818 29.789091-67.933091 31.115636-108.404364 25.949091-2.676364-0.325818-10.472727 4.049455-11.147636 2.955636-2.373818-3.560727 0.791273-14.266182 1.28-17.989818 1.163636-9.285818 2.792727-18.385455 5.189818-27.438546 1.978182-7.493818 4.165818-23.458909 11.589818-27.904 4.817455-2.885818 8.424727-1.536 12.288-5.771636 5.725091-6.237091 5.748364 2.304 2.443637 6.493091-10.123636 13.056-23.458909 34.071273-23.45891 51.130182 0 11.915636 1.489455 14.312727 12.404364 7.330909 8.261818-5.306182 15.965091-11.170909 24.878546-15.383273 6.330182-2.978909 13.917091-4.654545 19.898181-8.122182 6.562909-3.700364-1.070545-19.944727-4.421818-24.133818-3.677091-4.538182-9.239273-5.585455-9.332363-12.753454-0.046545-6.027636 7.586909-16.779636 10.379636-21.992728 9.937455-18.432 11.240727-37.771636 17.966545-57.274181 3.095273-8.866909 5.748364-17.570909 8.052364-26.670546 1.838545-7.168 8.168727-15.057455 6.260364-22.318545-1.140364-3.979636 2.536727-18.385455-8.587637-11.170909-9.425455 6.097455-18.944 13.079273-27.741091 20.107636-2.56 2.071273-32.442182 30.440727-31.278545 30.859636-5.352727-2.001455-11.589818-13.149091-14.149818-0.651636-1.629091 7.889455-5.794909 14.336-8.913455 21.666909-8.285091 19.642182-14.173091 40.541091-18.757818 61.346909-4.445091 19.874909-6.679273 40.401455-9.216 60.602182-1.233455 9.914182-2.141091 19.851636-3.072 29.789091-1.210182 13.288727-1.931636 14.382545-11.496727 23.691636-16.942545 16.523636-32.814545 36.840727-54.900364 46.754909-6.237091 2.839273-19.851636 8.029091-12.427636-3.165091 3.328-5.003636 4.794182-2.769455 10.356363-3.584 3.956364-0.558545 2.373818-7.424 3.281455-10.123636 2.094545-6.260364 14.312727-12.544 19.037091-16.779636 9.402182-8.541091 18.036364-17.92 26.600727-27.322182 5.469091-6.027636 9.681455-18.269091-3.025454-20.712727a47.476364 47.476364 0 0 0-15.290182-0.279273c-3.095273 0.442182-11.52 4.677818-14.359273 2.373818 1.349818 1.070545 13.218909-16.709818 14.196364-19.874909 0.977455-3.304727-4.328727-25.088-6.423273-23.738182-2.490182 1.629091-4.910545 8.238545-7.284364 10.496a125.044364 125.044364 0 0 1-9.565091 6.958546c-4.375273 1.349818-3.467636-15.639273-2.234181-17.664 2.955636-4.910545 5.352727-9.076364 10.728727-11.729455 13.800727-6.749091 14.987636-13.312 3.700363-24.017455-4.165818-3.979636-2.024727-8.168727-8.331636-9.541818-5.422545-1.186909-7.610182 0.930909-11.915636 3.677091-9.146182 5.771636-26.298182 12.683636-19.2 25.204364 5.236364 9.309091 6.958545 11.077818-0.279273 20.247273-9.658182 12.148364-20.340364 24.762182-14.336 40.448 3.002182 7.842909 1.512727 18.082909 11.566545 18.26909-7.191273 10.891636-17.128727 19.572364-26.71709 28.276364-5.352727 4.864-32.442182 21.294545-12.869819 27.694546 13.707636 4.468364 16.802909-16.430545 26.763637-18.571637 2.816-0.581818 8.541091 3.025455 11.147636 3.933091 6.912 2.420364 12.986182-1.093818 5.864727 7.936-3.979636 5.026909-18.338909 15.080727-18.874181 21.387636-1.629091 18.827636 4.538182 17.477818 20.130909 14.149819 32.349091-6.888727 51.898182-26.205091 74.193454-48.733091 11.217455-11.380364 8.680727 14.545455 9.146182 20.689454 1.326545 17.873455 13.312 30.324364 31.860364 30.394182 17.570909 0.093091 32.069818-13.614545 44.008727-24.901818 5.073455-4.817455 10.752-9.425455 15.127273-14.917818 2.816-3.514182 4.352-9.518545 7.563636-12.357818 9.169455-8.075636 25.274182 8.424727 33.722182 12.660363 13.521455 6.795636 28.322909 7.773091 43.147636 6.004364 12.171636-1.442909 24.366545-3.490909 36.375273-5.864727 3.560727-0.698182 12.218182-2.048 6.656-7.540364-2.769455-2.722909-12.730182-2.676364-16.407273-3.770182m-118.062545-109.474909c-3.979636 4.933818-7.377455 9.099636-13.661091 10.728727-4.980364 1.303273-16.267636 6.004364-12.753455-3.723636 1.722182-4.724364 5.213091-12.544 8.448-16.384 3.467636-4.235636 9.169455 6.656 10.821818-1.698909 4.189091 2.048 6.260364 6.586182 7.144728 11.077818m-31.232-61.090909c0-17.128727 10.100364-40.052364 21.061818-52.875636 6.912-8.122182 15.802182-14.754909 24.785454-20.433455 14.242909-9.053091 11.869091 2.397091 8.378182 13.079273-3.421091 10.821818-6.493091 21.736727-9.658182 32.651636-2.862545 10.007273-3.677091 11.776-11.822545 18.501818-7.470545 6.283636-15.220364 12.218182-23.179636 17.966546-9.588364 6.981818-9.565091 0.605091-9.565091-8.890182m-113.501091 135.656727c3.700364-2.327273 25.949091-17.291636 30.161454-10.356363 2.816 4.561455-25.344 27.578182-29.602909 30.882909-3.072-4.561455-3.560727-15.709091-0.558545-20.526546m-16.360727-38.120727c2.304 2.257455-1.629091 9.006545-3.304728 6.912-2.071273-2.443636 0.977455-9.239273 3.304728-6.912m-8.587637 74.635636c-25.786182-1.186909-1.861818-13.963636 4.538182-24.296727 4.491636-0.674909 3.770182 5.632 4.258909 8.890182 1.233455 7.889455-2.792727 11.124364-8.797091 15.406545m176.430546-2.978909c-5.376 6.772364-15.848727 11.752727-23.016728 16.267637-8.634182 5.492364-18.641455 12.381091-28.695272 14.754909-21.527273 5.12-17.570909-44.241455-15.825455-55.389091 0.558545-3.374545-0.418909-15.243636 4.352-14.336 3.328 0.628364 4.375273 3.956364 6.935273 5.678545 5.026909 3.444364 10.402909 2.699636 15.988363 3.84 7.377455 1.489455 48.616727 18.664727 40.261819 29.184m27.252363-37.562182c-5.562182 7.563636-13.312 1.815273-17.896727-3.304727 6.725818-1.792 11.938909-4.584727 17.570909-8.517818 9.099636-6.376727 2.513455 8.773818 0.325818 11.822545M2105.669818 389.934545c-8.471273-5.608727-42.286545-8.820364-31.162182-22.853818 9.751273-12.288 27.764364-23.319273 41.867637-29.370182 8.331636-3.537455 18.711273-4.165818 26.181818-9.30909 5.841455-4.026182 8.96-12.101818 12.8-17.943273 11.752727-17.943273 7.237818-37.166545 0.791273-56.32a110.522182 110.522182 0 0 0-10.589091-23.133091c-5.585455-8.843636-9.565091-9.239273-19.828364-8.448-16.151273 1.186909-23.877818 22.341818-32.325818 33.908364-22.481455 30.673455-46.103273 66.583273-75.380364 91.22909-7.098182 5.911273-17.105455 10.891636-19.339636 20.759273-1.792 7.982545 0.977455 17.896727 8.936727 21.294546 6.237091 2.653091 39.470545 7.842909 40.471273 13.149091 1.442909 7.563636-17.757091 23.249455-22.365091 28.439272-13.893818 15.685818-28.206545 31.464727-40.983273 48.058182-9.634909 12.520727-0.930909 29.789091 12.357818 36.328727 6.237091 3.095273 17.314909 5.678545 23.947637 2.094546 2.420364-1.326545 2.373818-3.933091 2.373818-6.306909 0-4.235636 4.701091-7.354182 7.493818-9.821091 5.492364-4.957091 33.349818-25.460364 32.581818-8.168727-0.674909 15.057455-11.380364 38.120727-2.350545 52.014545 5.306182 8.029091 18.059636 16.989091 26.624 20.898909 8.471273 3.816727 10.263273-13.777455 11.915636-18.781091a58.88 58.88 0 0 0-19.828363-65.605818c-6.632727-5.073455-12.962909-6.772364-12.520728-15.453091 0.372364-7.796364 14.638545-16.896 19.432728-22.784 7.819636-9.634909 17.664-17.384727 26.135272-26.414545 10.472727-11.101091 3.979636-20.084364-7.237818-27.461819M2166.178909 344.994909c-5.073455 8.401455-0.628364 23.994182 8.750546 27.717818 5.376 2.141091 7.633455-4.538182 10.635636-7.563636a67.723636 67.723636 0 0 1 19.502545-13.917091c11.799273-5.562182 27.741091-11.962182 40.913455-12.823273 5.888-0.395636 9.634909 2.466909 15.709091 0.046546 4.421818-1.792 20.084364-2.955636 22.621091-5.771637 3.048727-3.374545 1.28-9.774545 4.328727-13.707636 2.443636-2.885818 10.263273-9.122909 1.931636-9.122909-13.800727 0-29.649455 4.514909-42.845091 8.354909-17.245091 5.050182-33.256727 13.451636-49.92 20.037818-6.725818 2.653091-14.219636 5.213091-21.364363 2.629818-8.494545-3.095273-5.515636-3.467636-10.263273 4.119273M2318.452364 375.994182c-10.333091-2.327273-23.738182 2.094545-33.838546 4.421818-14.778182 3.444364-29.789091 6.749091-44.334545 11.054545-29.277091 8.680727-55.086545 25.297455-83.316364 36.491637-7.191273 2.862545-21.504 4.189091-25.739636 11.566545-6.702545 11.659636 5.236364 22.644364 15.988363 13.940364 8.541091-6.842182 19.898182-11.380364 29.44-16.616727 11.170909-6.144 22.528-12.311273 34.862546-15.755637a7263.650909 7263.650909 0 0 0 0.372363 90.065455c0.093091 10.263273 3.421091 30.650182-7.936 36.468363-12.683636 6.446545-28.997818-5.562182-40.79709-9.634909-6.795636-2.350545-12.613818-2.769455-18.222546-7.773091-1.652364-1.466182-10.379636-11.124364-13.568-5.562181-4.887273 8.471273 16.244364 17.989818 20.503273 20.573091 11.426909 6.958545 25.693091 13.754182 35.002182 23.528727 9.658182 10.402909 9.332364 31.557818 27.252363 33.349818 12.497455 1.349818 30.114909-20.736 32.814546-31.371636 3.165091-12.194909-0.954182-26.996364-2.909091-39.261091-4.864-30.161455-13.102545-62.417455-5.748364-92.718546 3.048727-12.613818-16.430545-13.218909-12.8-23.109818 0.605091-1.745455 9.355636-1.931636 11.845818-3.188364 6.516364-3.328 13.661091-5.329455 20.619637-7.447272 8.773818-2.676364 17.454545-5.236364 26.624-6.283637 6.912-0.791273 16.826182 1.349818 23.179636-1.419636 3.723636-1.605818 7.540364-7.400727 10.100364-10.449455 4.096-4.794182 11.333818-8.285091 0.605091-10.868363" fill="" p-id="23314"></path><path d="M1805.079273 746.286545c3.723636 4.794182 12.404364 21.108364 16.570182 22.807273-0.558545-0.302545 1.978182 0.465455 3.025454 0.512-0.279273-5.352727 1.861818-30.696727-2.117818-33.466182-1.861818-1.326545-5.678545 2.885818-8.773818 2.885819-5.818182-1.140364-11.031273-5.096727-16.849455-6.656-14.941091-5.632-31.953455-4.235636-46.289454 2.56-40.564364 21.620364-45.661091 86.970182-1.978182 108.8 13.265455 6.842182 34.024727 8.727273 48.128 2.885818 13.381818-4.770909 21.643636-16.290909 30.510545-26.740364-3.351273-1.582545-5.608727-1.047273-7.447272 1.652364-5.12 7.563636-12.683636 13.824-21.527273 16.477091-19.176727 5.701818-44.381091-2.397091-53.76-20.712728-11.566545-22.690909-12.497455-53.154909 6.539636-71.749818 14.801455-14.452364 39.982545-16.267636 53.969455 0.744727M951.738182 806.632727c-1.117091-15.336727-11.217455-24.994909-26.368-26.810182 11.403636-2.373818 17.361455-14.754909 17.710545-25.506909 0.698182-19.362909-16.477091-26.298182-33.117091-27.159272-20.130909-0.907636-40.866909 0.581818-61.067636 0.581818-1.605818 7.168 12.450909 5.632 15.546182 12.148363 5.585455 10.356364 1.163636 33.210182 1.163636 44.939637 0 14.661818 2.164364 31.255273-0.488727 45.661091-1.838545 7.749818-13.777455 7.447273-12.962909 13.544727 32-3.793455 104.005818 13.800727 99.584-37.399273m-64.814546-33.466182c-1.954909-19.2-4.072727-53.178182 27.205819-34.862545 13.754182 8.610909 16.197818 34.048-1.908364 38.679273-4.701091 1.047273-23.528727 5.585455-25.297455-3.816728m38.795637 57.6c-8.168727 8.005818-38.423273 12.381091-38.423273-5.329454v-23.714909c0-4.701091-1.675636-13.730909 4.608-15.383273a45.032727 45.032727 0 0 1 27.461818 2.909091c14.126545 6.842182 17.664 30.510545 6.353455 41.518545M979.688727 820.410182c-3.025455 6.027636-5.771636 12.055273-11.450182 16.011636-2.629818 1.489455-7.144727 1.605818-6.795636 5.026909 0.372364 4.189091 33.652364 2.094545 39.470546 1.954909 2.676364-0.116364 3.281455 0.069818 2.839272-2.466909-0.512-2.862545-6.283636-2.001455-9.285818-3.095272-14.987636-4.514909-8.354909-15.522909-3.421091-25.064728 4.189091-8.238545 4.096-9.937455 13.009455-9.937454 9.472 0 18.874182 0.372364 28.322909 0.372363 8.238545 0 8.448 5.12 11.682909 12.125091 1.722182 3.746909 4.910545 8.285091 5.469091 12.450909 2.117818 9.099636-8.424727 8.680727-11.194182 14.08 15.755636 3.444364 33.629091 1.349818 49.757091 1.489455-1.349818-2.816-4.724364-3.374545-7.959273-5.282909-7.261091-4.189091-10.123636-10.333091-13.335273-17.710546l-11.403636-26.298181c-9.704727-22.388364-17.757091-46.941091-29.858909-68.165819-15.290182 31.511273-30.580364 62.976-45.847273 94.510546m54.272-25.041455c-11.194182 0-22.551273 0.558545-33.722182-0.139636l17.547637-38.772364c4.654545 13.312 12.125091 26.205091 18.269091 38.912h-2.094546M2175.953455 808.843636c0-5.981091 0.162909-12.008727 0.162909-18.059636 0-12.055273 0.046545-24.203636-0.488728-36.258909-0.279273-4.654545 0.674909-11.310545-3.118545-14.824727-3.653818-3.421091-24.855273-8.308364-10.658909-8.052364 9.751273 0.139636 27.066182-2.257455 35.514182 2.327273-20.456727 1.559273-12.637091 43.287273-12.8 57.786182l-0.302546 35.84c-0.069818 5.794909 2.536727 18.385455-3.025454 19.502545-6.004364 1.186909-11.240727-7.493818-14.987637-11.217455-8.168727-8.122182-16.384-16.221091-24.599272-24.343272-16.034909-15.848727-32.139636-31.650909-48.104728-47.569455 0 14.592 0.139636 29.160727 0.139637 43.752727 0 10.775273-3.607273 34.699636 13.312 34.699637 5.306182 7.074909-17.570909 4.724364-20.084364 4.724363-3.793455 0.046545-16.989091 1.536-17.780364-1.675636-0.744727-3.165091 1.047273-3.281455 3.863273-4.049454 13.707636-4.840727 10.309818-21.783273 10.472727-33.605819l0.558546-37.166545c0.093091-5.957818 1.093818-12.660364 0.256-18.548364 0-10.053818-17.92-16.128-17.501091-19.851636 0.093091-0.558545-0.093091-1.186909 0-1.745455 3.909818 0.418909 30.650182-1.442909 31.208727 0.628364 2.606545 9.728 17.361455 19.968 24.040727 26.670545l35.281455 35.281455c0.907636 0.837818 18.571636 17.291636 18.641455 15.755636M1185.140364 728.366545l-3.467637-0.09309c0.023273 6.283636 15.290182 4.654545 18.199273 11.938909 3.141818 6.562909 1.512727 18.897455 1.582545 25.669818 0.209455 12.194909 0.209455 24.389818 0.209455 36.584727 0 9.285818-14.615273-8.401455-16.942545-10.752-16.523636-16.360727-33.210182-32.558545-49.594182-49.058909-5.632-5.655273-8.797091-15.290182-17.082182-14.754909-5.073455 0-23.063273-2.722909-26.391273 0.907636-1.512727 1.652364 10.123636 6.842182 12.590546 9.611637a15.918545 15.918545 0 0 1 4.305454 10.496c2.676364 20.200727-0.651636 43.124364-0.977454 63.557818-0.116364 6.725818 1.233455 15.662545-3.048728 21.364363-2.862545 4.049455-10.984727 3.304727-11.333818 7.517091-0.442182 5.399273 11.613091 2.792727 15.616 2.792728 4.212364 0.256 21.713455 1.512727 22.737455-1.652364 1.303273-3.886545-2.629818-2.955636-5.143273-3.933091-6.074182-2.117818-7.330909-8.075636-7.773091-13.754182-1.373091-21.294545-0.674909-42.821818-0.674909-64.186182 17.454545 17.175273 34.932364 34.210909 52.410182 51.36291 4.980364 4.887273 31.418182 37.376 38.516363 32.116363 3.304727-2.466909 1.070545-25.041455 1.140364-30.021818 0.093091-11.706182 0.162909-23.365818 0.302546-35.048727 0.093091-10.565818 0.186182-21.131636 0.372363-31.697455 0.116364-4.514909 0.186182-10.682182 4.514909-13.405091 3.095273-2.024727 7.819636-0.279273 8.145455-4.142545-12.730182-0.512-25.483636-1.419636-38.213818-1.419637M1356.590545 842.565818c-2.513455-4.631273-12.194909-7.819636-16.360727-12.544-6.888727-7.819636-13.079273-16.360727-19.525818-24.576-5.794909-7.307636-11.543273-14.661818-17.314909-21.992727-5.608727-7.191273 3.933091-12.264727 9.239273-17.245091 10.100364-9.332364 20.014545-21.271273 31.581091-28.741818 1.698909-1.326545 17.873455-9.076364 9.960727-9.076364-12.450909 0-24.925091 0.279273-37.352727-0.186182-0.977455 5.329455 5.888 2.466909 8.494545 6.609455 2.653091 3.979636-1.745455 7.866182-4.142545 10.356364-11.752727 12.241455-23.319273 24.832-36.026182 36.119272-11.985455 10.658909-8.471273-1.349818-8.471273-11.566545v-16.337455c0-3.165091-0.023273-6.330182 0.046545-9.518545 0.418909-3.188364-0.488727-6.004364 2.443637-8.448 1.093818-0.930909 10.263273-4.631273 10.030545-6.050909-0.907636-5.422545-48.663273 1.233455-48.942545-0.279273 1.233455 6.958545 18.618182 4.887273 16.733091 16.244364-0.814545 4.933818-0.139636 10.565818-0.139637 15.592727v58.368c0 5.003636 1.000727 14.242909-3.281454 17.803636-0.116364 0.093091-14.266182 7.68-7.819637 7.68 2.397091 0 4.794182-0.069818 7.237819-0.116363l25.064727-0.465455c1.163636-0.023273 14.359273 1.047273 11.264-3.048727-1.885091-2.466909-6.4-2.629818-8.797091-4.631273-3.584-3.048727-3.630545-7.633455-3.793455-11.962182-0.093091-2.862545-0.046545-5.748364-0.046545-8.634182 0-4.282182-1.000727-10.053818 0-14.196363 1.326545-5.282909 5.608727-8.029091 9.890909-11.892364 10.472727 12.939636 20.526545 26.205091 31.162182 39.005091 3.048727 3.653818 6.656 7.051636 8.471273 11.543273 2.001455 5.376 20.014545 2.606545 26.228363 2.606545h-1.605818c1.745455 0.186182 4.817455-0.279273 5.771636-0.418909M1974.062545 842.472727c-13.824-4.235636-10.682182-19.339636-10.682181-30.929454v-37.632c0-9.448727-3.118545-25.483636 1.163636-34.094546 2.257455-5.469091 10.379636-2.420364 9.472-8.145454-15.872 0.418909-32 0.418909-47.895273 0-1.256727 5.911273 6.702545 3.490909 10.426182 6.702545 9.541818 8.890182 4.864 32.023273 4.980364 43.496727H1888.256c-6.190545 0-5.352727-0.837818-5.352727-6.4 0-12.893091-5.189818-40.029091 13.614545-40.308363-0.093091-0.116364-0.116364-1.186909 0-1.303273-6.469818-0.279273-51.805091-4.491636-52.014545-0.442182-0.116364 2.583273 11.357091 4.468364 14.312727 7.796364 6.120727 7.191273 3.793455 19.665455 3.793455 28.462545 0 17.314909 0.651636 34.769455 0 52.061091-0.349091 8.96-1.698909 16.849455-10.728728 20.642909-2.676364 1.28-3.653818 1.722182-3.048727 4.817455 16.430545-0.162909 32.884364 0.395636 49.338182 0 2.56-3.002182-3.351273-3.886545-4.119273-3.979636-16.151273-2.769455-11.124364-34.117818-11.124364-45.265455 0-5.981091-1.000727-6.167273 3.584-8.075636 3.863273-1.605818 11.845818 0 16.03491 0h32.09309c6.818909 0 7.214545-0.930909 7.214546 5.911272v30.789819c0 1.652364-3.095273 18.478545-7.610182 15.732363 9.146182 5.632 31.185455 3.188364 41.960727 3.537455 0.512-2.304-0.162909-2.792727-2.141091-3.374546M2045.719273 842.309818c-15.057455-2.699636-11.054545-22.923636-11.054546-34.048v-39.237818c0-8.541091-4.235636-29.649455 5.422546-33.885091 13.428364-4.258909-3.770182-4.421818-9.285818-4.421818-4.002909 0-34.094545-1.117091-31.488 2.769454 2.164364 3.281455 10.612364 1.163636 13.358545 7.005091 2.932364 5.888 1.768727 13.707636 1.768727 20.107637v40.029091c0 10.984727 3.118545 27.880727-3.258182 37.445818-2.443636 3.118545-8.820364 3.211636-9.355636 6.190545-0.721455 4.305455 17.152 2.024727 20.759273 2.024728 3.234909 0 26.926545 0.674909 27.112727-0.861091 0.395636-3.188364-0.744727-2.536727-3.979636-3.118546M1631.534545 730.763636c-25.460364 0-50.920727 0.488727-76.404363 0.186182-1.419636 6.493091 9.611636 4.258909 13.265454 8.797091 7.005091 7.237818 3.118545 28.066909 3.118546 37.445818v37.701818c0 5.888 1.070545 13.009455-0.954182 18.618182-1.745455 4.328727-8.424727 4.724364-9.495273 7.633455-1.233455 3.421091 34.885818 2.490182 40.424728 2.350545 3.188364 0 9.634909 2.141091 8.936727-2.490182-0.558545-3.84-6.865455-2.257455-10.449455-4.375272-9.634909-4.794182-6.539636-21.085091-6.539636-29.975273v-13.498182c0-6.493091 1.28-5.771636 7.470545-5.771636 9.588364-0.674909 22.551273-0.395636 24.855273 11.077818 1.512727 6.725818 4.142545-1.908364 4.282182-5.026909 0.488727-8.96 0.907636-17.896727 1.373091-26.856727-6.469818-1.373091-5.562182 3.118545-8.075637 7.400727-3.537455 5.957818-11.589818 5.538909-17.570909 6.446545-2.187636 0-11.985455 1.186909-11.985454-2.117818 0-8.587636-5.585455-38.120727 4.933818-41.053091 8.029091-2.490182 22.714182-1.326545 29.626182 1.373091 5.469091 1.978182 12.544 18.315636 14.685091 17.058909 2.583273-1.489455 2.583273-24.715636-2.699637-24.832-2.885818 0.023273-5.818182-0.046545-8.797091-0.093091M2315.473455 836.864c-6.237091-4.701091-8.610909-14.149818-11.68291-21.154909l-14.545454-33.559273c-7.866182-18.106182-14.196364-38.353455-24.506182-55.249454-11.752727 23.156364-21.969455 47.197091-32.512 70.935272-5.259636 11.845818-9.867636 29.184-19.549091 38.050909-5.957818 5.306182-16.802909 8.96-0.837818 8.96 4.445091 0 35.490909 1.815273 33.093818-3.002181-1.000727-1.978182-8.378182-2.024727-11.240727-3.607273-14.615273-6.027636-2.397091-21.922909 2.373818-30.952727 3.234909-6.167273 21.550545-2.909091 28.416-2.816 2.978909 0.023273 12.032-1.419636 14.382546 0.162909 1.652364 1.117091 3.141818 6.818909 3.956363 8.727272 1.722182 4.096 6.632727 10.752 6.632727 15.197091 4.794182 7.168-9.122909 11.450182-10.775272 14.685091 15.36 3.444364 32.930909 1.349818 48.593454 1.536-1.675636-3.630545-8.145455-5.213091-11.799272-7.912727m-41.053091-40.145455c-10.984727 0-22.016 0.395636-32.954182-0.09309 5.678545-12.916364 11.426909-25.856 17.082182-38.795637 4.770909 13.288727 11.938909 26.088727 17.873454 38.912l-2.001454-0.023273M1538.932364 779.962182c-2.257455-33.303273-32.535273-55.994182-64.930909-52.666182-33.140364 1.303273-56.250182 34.210909-52.363637 65.861818 1.815273 33.28 33.093818 55.342545 64.884364 52.363637 34.304-2.420364 54.737455-32.977455 52.410182-65.559273m-22.737455 33.256727c-4.724364 10.263273-9.867636 21.643636-21.341091 25.646546-13.661091 4.724364-28.648727 0.162909-38.749091-9.704728-16.267636-15.895273-18.082909-46.824727-11.962182-67.328 7.051636-23.505455 32.791273-35.514182 54.085819-22.551272 20.549818 12.497455 27.578182 53.085091 17.966545 73.937454" fill="" p-id="23315"></path></svg>