<?xml version="1.0" standalone="no"?><!DOCTYPE svg PUBLIC "-//W3C//DTD SVG 1.1//EN" "http://www.w3.org/Graphics/SVG/1.1/DTD/svg11.dtd"><svg t="1542263530106" class="icon" style="" viewBox="0 0 1820 1024" version="1.1" xmlns="http://www.w3.org/2000/svg" p-id="31893" xmlns:xlink="http://www.w3.org/1999/xlink" width="355.46875" height="200"><defs><style type="text/css"></style></defs><path d="M725.143704 571.828148l0.284444 21.048889c-11.282963-10.42963-27.97037-15.644444-42.477037-9.197037-14.411852 6.921481-22.186667 21.048889-20.195555 36.408889 0.853333 11.567407 10.145185 23.419259 21.712592 27.780741 12.420741 3.982222 27.117037 1.706667 36.408889-6.921482l4.645926-3.792592v21.617777c-15.834074 9.860741-41.528889 10.42963-57.173333-0.284444-19.057778-12.136296-27.117037-32.331852-22.850371-53.665185 3.792593-17.635556 20.48-35.555556 38.968889-38.968889 14.127407-3.223704 29.202963-0.948148 40.675556 5.973333zM754.631111 604.16h0.284445c7.205926-5.783704 19.342222-6.068148 27.685925-2.37037 10.05037 4.645926 12.705185 15.075556 12.420741 25.125926v38.968888h-17.92l-0.284444-41.339259c-0.284444-3.128889-0.853333-6.352593-4.077037-8.059259-4.361481-1.991111-10.42963-1.706667-14.127408 1.422222-2.939259 3.223704-3.223704 7.205926-3.792592 11.567408l-0.284445 36.408888H736.711111V565.191111h17.92v38.968889zM1196.183704 604.16c7.49037-5.783704 19.911111-6.352593 28.539259-1.991111 9.291852 4.645926 11.851852 14.411852 11.851852 24.272592v39.537778h-17.92l-0.284445-41.339259c-0.568889-3.413333-1.422222-7.774815-5.688889-8.912593-4.93037-0.853333-10.998519-0.853333-13.842962 3.792593-2.275556 4.645926-2.56 9.765926-2.56 14.980741v31.478518h-17.92V565.191111h17.92l-0.094815 38.968889zM1637.736296 618.287407l0.284445 0.284445c6.352593-5.783704 12.420741-11.851852 18.394074-17.635556h24.557037l-29.202963 27.117037-0.568889 0.568889 31.194074 37.262222h-23.703704l-20.29037-25.125925c-0.284444 0-0.568889 0.284444-0.853333 0.284444v24.841481h-17.92V565.191111h17.92v53.096296h0.189629zM893.25037 611.365926c1.706667 3.223704 2.275556 7.205926 2.56 11.282963l0.284445 43.33037h-18.204445l-0.284444-40.77037c-0.568889-3.413333-1.137778-7.774815-4.93037-9.197037-3.792593-0.853333-8.628148-1.137778-11.851852 0.853333-5.214815 4.077037-4.93037 10.619259-5.214815 16.971852v32.047407h-18.204445v-64.948148h17.92c0.568889 1.137778 0 2.654815 0.284445 3.792593 7.49037-6.352593 20.48-6.921481 29.202963-2.275556 3.508148 1.991111 7.016296 5.214815 8.438518 8.912593zM1603.697778 609.374815c4.361481 6.637037 3.792593 14.980741 4.077037 23.134815v33.469629h-18.488889v-41.054815c-0.568889-3.413333-1.137778-6.921481-4.645926-8.628148-4.077037-1.422222-10.145185-1.706667-13.274074 1.422223-3.508148 3.792593-3.508148 8.912593-4.077037 13.842962l-0.284445 34.417778h-18.204444v-64.948148h18.204444v3.508148c1.517037-0.284444 2.939259-1.706667 4.361482-2.275555 8.059259-4.361481 20.48-3.792593 27.685926 1.706666 1.706667 1.611852 3.508148 3.413333 4.645926 5.404445zM955.354074 605.866667c-4.361481-3.413333-9.860741-5.783704-15.36-6.352593-4.266667-0.568889-8.628148-0.284444-12.8 1.232593-12.136296 3.413333-20.764444 15.834074-21.902222 27.685926-1.422222 14.696296 4.077037 29.202963 17.635555 36.124444 4.93037 2.654815 10.903704 3.508148 16.971852 3.223704h0.094815c5.783704-0.568889 11.188148-2.654815 15.265185-6.068148 0.284444 1.137778 0 2.844444 0 4.361481h18.204445v-65.137778h-18.10963v4.930371z m-2.465185 39.348148c-2.844444 4.361481-7.68 6.352593-12.894815 6.637037-0.853333 0-1.706667 0-2.56-0.284445-4.93037-0.663704-9.576296-3.792593-11.567407-8.154074-3.223704-6.068148-3.223704-15.265185 0.853333-21.048889 2.844444-4.645926 7.774815-6.921481 13.274074-6.921481 0.853333 0 1.991111 0 2.844445 0.284444 4.077037 0.568889 7.49037 2.56 10.05037 6.068149 4.361481 6.352593 4.645926 16.971852 0 23.419259zM1163.851852 615.158519c-4.077037-5.783704-9.576296-10.334815-15.644445-12.98963-4.645926-1.991111-9.765926-2.939259-14.98074-2.939259h-0.094815c-8.154074 0-16.118519 2.37037-22.091852 7.30074-12.136296 9.197037-16.213333 24.177778-11.567407 38.4 3.792593 11.567407 16.213333 21.997037 28.918518 22.850371 1.706667 0 3.318519 0.284444 4.740741 0.284444h0.094815c13.274074-0.284444 25.031111-6.637037 31.668148-17.92 5.878519-10.42963 5.594074-25.505185-1.042963-34.986666z m-16.782222 30.34074c-3.223704 4.361481-8.343704 6.352593-13.842963 6.352593-1.422222 0-2.939259-0.284444-4.361482-0.568889-5.214815-0.568889-10.145185-5.214815-11.851852-10.145185-1.991111-6.352593-1.706667-14.411852 2.654815-19.626667 3.508148-4.361481 8.343704-6.068148 13.558519-6.068148 1.137778 0 2.180741 0 3.413333 0.284444 4.93037 0.568889 9.576296 3.792593 11.851852 8.05926 3.413333 6.352593 3.223704 16.213333-1.422222 21.712592zM1295.644444 600.936296v4.930371c-4.077037-3.413333-9.481481-5.688889-15.17037-6.352593h-0.18963c-5.404444-0.568889-10.903704 0-15.454814 2.37037-10.998519 4.645926-17.92 15.834074-19.057778 26.832593-1.422222 14.696296 4.361481 28.634074 17.635555 35.84 4.835556 2.654815 11.188148 3.792593 16.971852 3.223704s11.282963-2.74963 15.36-6.162963v4.361481h18.204445v-64.948148l-18.29926-0.094815z m-1.706666 43.330371c-2.844444 4.93037-8.059259 7.300741-13.558519 7.585185-0.853333 0-1.706667 0-2.56-0.284445-5.214815-0.663704-9.576296-4.361481-11.851852-8.722963-2.56-6.352593-2.844444-14.980741 1.232593-20.764444 3.128889-4.361481 7.774815-6.637037 13.274074-6.637037 0.853333 0 1.896296 0 2.74963 0.284444 4.077037 0.568889 7.49037 2.56 10.145185 6.068149 4.077037 6.068148 4.645926 16.118519 0.568889 22.471111zM1518.459259 600.936296v4.930371c-4.361481-3.792593-9.481481-5.783704-15.265185-6.352593-4.077037-0.568889-8.438519 0-12.420741 1.042963-12.705185 3.508148-21.617778 16.497778-22.186666 28.634074-1.422222 14.506667 4.361481 28.34963 17.635555 35.271111 4.645926 2.654815 10.998519 3.792593 17.066667 3.223704 3.982222-0.284444 7.68-1.517037 10.524444-3.508148 1.706667-0.568889 2.844444-2.275556 4.645926-2.844445v4.645926h18.773334v-64.948148l-18.773334-0.094815z m-2.37037 44.183704c-3.223704 4.361481-7.774815 6.637037-12.98963 6.637037-1.422222 0-3.128889-0.284444-4.456296-0.568889-6.162963-1.422222-10.714074-7.49037-11.282963-13.274074-1.422222-7.774815 0.568889-16.118519 7.774815-20.48 2.275556-1.422222 5.214815-1.991111 8.059259-1.991111 3.508148 0 6.542222 0.853333 8.817778 2.56 1.801481 1.137778 3.223704 2.844444 4.361481 4.361481 4.361481 6.352593 4.077037 16.402963-0.284444 22.755556zM1090.465185 632.888889c-0.853333-9.007407-7.205926-17.92-16.213333-21.712593 1.422222-1.706667 2.939259-3.413333 3.697778-5.214815 4.361481-6.921481 4.361481-17.92 0.284444-24.841481-4.645926-10.714074-13.558519-14.411852-23.988148-15.644444-8.628148-1.137778-18.299259-0.568889-27.306667-0.568889v101.167407c7.49037 0 17.540741 0.568889 27.401482 0v-17.066667h-8.628148v-26.548148c2.844444 0 5.783704 0 8.628148 0.284445 7.205926 0.284444 13.748148 1.422222 16.971852 8.343703 1.422222 3.792593 0.853333 8.722963-1.422223 12.136297-4.077037 4.645926-9.576296 5.499259-15.549629 5.783703v17.066667c8.628148-0.568889 16.782222-1.991111 22.85037-5.499259 10.145185-5.783704 14.411852-16.497778 13.274074-27.685926z m-29.866666-29.771852c-1.706667 1.706667-4.077037 2.844444-6.352593 3.128889-2.56 0.568889-5.688889 0.568889-8.533333 0.568889l-0.284445-25.125926c3.128889 0 6.257778-0.284444 8.817778 0.568889 2.56 0.568889 4.93037 1.422222 6.921481 3.792592 3.223704 4.645926 2.939259 12.420741-0.568888 17.066667zM1458.631111 623.786667c-2.56-5.214815-8.059259-10.334815-13.274074-12.705186l2.844444-3.792592c5.499259-7.49037 4.93037-19.342222 0.568889-27.117037-4.93037-10.145185-13.463704-13.842963-23.608889-14.980741-8.628148-0.853333-18.488889 0-27.496296-0.284444v101.072592l27.496296-0.284444h3.697778c10.714074-0.284444 19.911111-3.413333 26.642963-12.136296 6.637037-7.774815 7.774815-20.48 3.128889-29.771852z m-42.192592-42.097778c2.939259 0 6.068148-0.284444 8.628148 0.568889 2.844444 0.568889 5.214815 1.706667 6.921481 4.077037 2.844444 4.645926 2.844444 11.851852-0.284444 16.497778-1.801481 1.991111-4.077037 2.844444-6.637037 3.413333-2.654815 0.568889-5.688889 0.568889-8.628148 0.568889v-25.125926z m23.608888 61.819259c-3.697778 4.361481-9.291852 5.214815-14.98074 5.499259h-8.628148v-26.548148c2.939259 0 5.688889 0 8.628148 0.284445 7.205926 0 14.222222 1.422222 17.066666 8.628148 1.422222 3.982222 0.853333 8.912593-2.085926 12.136296zM1346.085926 576.474074c0 5.783704-4.93037 10.42963-10.714074 10.42963-5.688889 0-10.714074-4.645926-10.714074-10.42963 0-5.499259 4.93037-10.145185 10.714074-10.145185 5.688889 0 10.714074 4.645926 10.714074 10.145185zM1326.364444 601.031111h17.92v64.948148h-17.92zM826.785185 576.758519c0 5.783704-4.93037 10.42963-10.714074 10.429629-6.068148 0-10.714074-4.645926-10.714074-10.429629s4.645926-10.334815 10.714074-10.334815c5.878519-0.094815 10.714074 4.551111 10.714074 10.334815zM807.158519 601.031111h17.635555v64.948148h-17.635555zM777.481481 522.145185v-14.411852h1.422223c3.128889 0 5.499259-0.284444 6.352592-1.137777 1.137778-0.568889 1.706667-2.275556 1.706667-4.361482v-82.583704h-5.499259v-14.98074h5.499259v-13.558519h26.832593v13.558519h36.408888V510.103704c0 1.706667-0.853333 4.077037-2.56 7.49037-1.706667 3.128889-7.49037 4.645926-17.351111 4.645926h-13.274074v-14.411852h1.422222c1.706667 0 3.223704-0.284444 3.792593-0.853333 0.853333-0.568889 1.422222-1.422222 1.422222-2.844445v-84.29037h-9.765926v91.496296c0 1.706667-0.568889 3.792593-1.991111 5.783704-1.422222 1.801481-3.792593 3.223704-7.205926 4.077037-3.508148 0.853333-6.637037 1.137778-9.197037 1.137778h-18.014815v-0.18963zM777.481481 412.444444v-14.411851V412.444444zM662.186667 478.53037h26.832592l-8.343703 32.616297c-0.284444 1.137778-1.137778 2.939259-2.275556 4.361481-1.422222 1.706667-3.508148 3.223704-6.352593 4.645926-3.223704 1.422222-7.774815 1.991111-14.696296 1.991111h-12.420741v-13.558518h4.077037c3.413333 0 5.783704-1.137778 6.352593-3.508148l6.826667-26.548149zM777.481481 398.032593h-27.496296v-6.637037h-26.832592v6.637037h-27.970371V412.444444h27.970371v6.068149h-28.254815v22.565926h26.263703v-8.05926h30.625186v8.05926H777.481481v-22.565926h-27.496296V412.444444h27.496296zM777.481481 446.198519h-83.152592v14.696296h53.096296l-10.998518 9.481481v7.774815l-39.253334 4.077037V497.777778l39.253334-4.930371v10.998519c0 1.706667-0.568889 2.56-1.422223 3.128889s-2.56 0.853333-5.214814 0.853333h-27.970371V522.42963h43.045926c6.068148 0 10.42963-0.853333 13.558519-3.128889 3.223704-1.991111 4.93037-4.93037 4.93037-8.722963v-19.911111l10.42963-1.706667v-14.980741l-10.42963 1.137778v-2.275556l14.127407-11.567407M672.331852 392.533333l6.068148 17.351111c0.853333 2.56 3.792593 3.982222 8.722963 3.982223h2.844444v13.558518h-17.635555c-2.275556 0-4.93037-0.284444-7.774815-0.853333-2.654815-0.568889-4.645926-1.137778-5.783704-1.991111-1.137778-0.853333-2.56-1.991111-3.792592-3.508148-1.137778-1.422222-1.991111-2.844444-2.275556-4.077037l-7.49037-24.557037h27.117037v0.094814zM645.783704 435.2h27.117037l5.499259 19.342222c0.284444 1.422222 0.853333 2.37037 1.706667 2.654815 0.853333 0.284444 2.37037 0.568889 4.361481 0.568889h4.361482v13.558518H674.133333c-8.343704 0-13.842963-1.137778-16.782222-3.792592-2.56-2.56-4.077037-4.93037-4.645926-6.921482l-6.921481-25.41037zM948.717037 478.245926h28.539259l-7.205926 28.065185c-1.706667 5.783704-4.361481 9.481481-7.774814 11.567408-3.508148 1.706667-6.921481 2.844444-10.145186 3.223703-3.223704 0.284444-7.49037 0.284444-13.558518 0.284445h-14.980741v-16.118519h10.145185c3.413333 0 5.783704-0.568889 6.921482-1.137778 1.137778-0.568889 1.991111-1.991111 2.56-4.361481l5.499259-21.522963zM1128.391111 396.231111h-88.462222l5.499259-5.783704h-32.616296l-7.774815 7.205926c-1.991111 1.706667-3.792593 3.128889-5.499259 3.697778-1.706667 0.853333-4.361481 1.137778-7.205926 1.137778h-6.352593v15.075555h10.42963c10.998519 0 19.057778-1.137778 23.703704-3.792592l4.74074-2.465185h103.537778V396.325926h-0.474074l0.474074-0.094815zM1123.934815 462.222222v-41.054815l-45.226667 0.18963H988.539259v40.77037h-6.068148v14.980741h6.068148v43.899259l67.413334 0.094815h37.357037c6.068148 0 10.903704-0.284444 14.98074-0.568889 3.792593-0.379259 6.921481-1.232593 9.576297-2.939259s4.077037-4.077037 4.93037-6.637037c0.568889-2.844444 1.137778-5.499259 1.137778-8.059259v-25.694815h5.783704v-14.980741h-5.783704z m-27.875556 39.727408c0 1.422222-0.568889 2.56-1.706666 3.128889-0.853333 0.568889-3.128889 0.568889-6.352593 0.568888h-10.714074l-16.497778-21.048888h-28.918518l14.98074 21.048888h-31.194074v-28.539259h80.402963v24.841482z m0.094815-39.822223h-21.617778l-14.696296-17.635555h-0.18963v-0.094815h-29.202963l12.705186 17.635556h-27.496297v-25.6h80.497778v25.694814zM924.728889 435.2h28.065185l4.361482 15.36c0.568889 1.991111 1.137778 3.128889 2.275555 3.982222 1.137778 0.568889 2.56 1.137778 4.645926 1.137778h11.567407V472.177778h-18.773333c-8.628148 0-14.411852-0.853333-17.066667-2.939259-2.56-1.706667-4.361481-3.508148-5.214814-4.930371-0.568889-1.422222-1.706667-4.551111-3.223704-8.912592l-6.637037-20.195556zM925.866667 391.016296h28.349629l2.844445 14.696297c0.568889 3.508148 3.128889 5.499259 7.49037 5.499259h12.705185v15.928889h-18.488889c-4.361481 0-8.343704 0-12.136296-0.568889-4.077037-0.568889-6.921481-1.422222-8.912592-3.128889-1.991111-1.422222-3.413333-3.128889-4.361482-4.93037-1.137778-1.991111-1.991111-4.645926-2.939259-8.05926l-4.551111-19.437037zM1350.068148 488.391111v-24.272592h20.195556l3.128889 9.576296h10.145185c2.275556 0 4.077037-0.284444 4.645926-0.853334s1.137778-1.137778 1.137777-2.37037v-6.068148h20.195556v9.291852c0 3.128889-0.284444 6.068148-1.137778 8.628148-0.568889 2.275556-5.973333 3.792593-16.402963 3.792593h-14.696296l3.982222 12.42074c1.137778 3.508148 2.085926 5.499259 2.939259 5.783704 1.137778 0.568889 1.706667 0.853333 2.654815 1.137778l5.214815-0.284445h15.075556v15.54963h-17.635556c-12.705185 0-20.764444-1.137778-24.557037-2.844444-3.508148-1.706667-5.783704-3.982222-6.921481-7.205926l-7.964445-22.281482zM1201.019259 430.08h84.005926v15.928889h-35.84v15.928889h36.124445v15.265185h-36.124445V499.674074c0 2.56 0.284444 4.077037 1.137778 4.645926 0.853333 0.568889 2.844444 0.853333 6.068148 0.853333h21.617778v15.54963h-36.598519c-3.223704 0-6.352593-0.568889-9.86074-1.137778-3.792593-0.568889-6.352593-1.706667-8.343704-3.792592-2.085926-1.706667-3.223704-4.645926-3.223704-8.343704v-30.056296h-20.764444V461.748148h20.764444v-15.928889h-19.057778v-15.739259h0.094815z" fill="" p-id="31894"></path><path d="M1350.068148 392.248889H1295.17037V502.518519c0 4.361481 0.284444 7.49037 0.853334 9.576296 0.284444 1.706667 1.991111 3.508148 4.93037 5.214815 2.844444 1.422222 6.068148 2.275556 9.576296 2.56 3.792593 0 9.007407 0.284444 16.213334 0.284444h17.351111v-15.265185h-14.127408c-1.991111 0-3.792593-0.568889-4.645926-1.422222-1.137778-0.853333-1.706667-2.939259-1.706666-6.352593v-37.546667H1372.539259c6.731852 0 11.567407-0.284444 14.791111-0.568888 2.939259 0 6.352593-1.232593 9.860741-2.93926 3.128889-1.706667 5.499259-3.792593 6.637037-6.068148 0.853333-1.991111 1.422222-6.921481 1.422222-14.411852v-43.33037h-55.182222z m27.117037 15.075555v12.610371h-53.949629v-12.610371h53.949629z m-1.706666 36.314075c-1.137778 0.853333-2.56 1.422222-4.930371 1.422222h-47.312592v-10.61926h53.949629v6.257778c0 1.232593-0.568889 2.085926-1.706666 2.93926z" fill="" p-id="31895"></path><path d="M1365.048889 464.118519H1341.62963l8.438518 24.272592v-24.272592zM1244.065185 400.877037h41.054815V416.237037h-47.122963l-3.223704 3.223704c-1.422222 1.706667-3.128889 3.128889-5.783703 4.361481-2.275556 1.137778-6.921481 1.706667-14.127408 1.706667h-15.075555v-14.791111h4.645926c3.697778 0 6.352593-0.284444 7.49037-1.137778 0.853333-0.568889 1.991111-2.275556 2.939259-5.214815l4.361482-13.558518h27.685926l-2.844445 10.05037zM1521.588148 422.494815h22.281482l-13.274074 19.057778V522.42963h-32.900741v-65.801482h-19.057778V438.992593h11.282963c2.844444 0 4.93037-0.284444 6.068148-0.853334 1.422222-0.568889 3.128889-2.37037 5.214815-5.214815l6.921481-8.628148h-29.487407v-17.635555h19.342222c2.275556 0 4.361481-0.284444 6.068148-1.137778 1.706667-0.568889 3.508148-2.275556 5.214815-4.645926l7.774815-10.334815h34.986667l-13.558519 18.773334c-5.025185 6.826667-10.42963 11.188148-16.877037 13.179259z m116.717037 20.574815h-85.143704V425.718519h131.982223v17.351111H1671.585185v58.595555c0 5.214815-0.853333 9.291852-2.654815 12.136296-1.706667 2.844444-4.361481 4.93037-8.059259 6.068149-3.792593 1.137778-9.576296 1.801481-17.351111 1.801481l-64.663704 0.284445v-17.351112h51.38963c3.128889 0 5.214815-0.568889 6.257778-1.422222 1.232593-0.853333 1.801481-3.223704 1.801481-6.921481v-53.191111z m-82.583704-33.185186V392.533333h127.905186v17.351111h-127.905186z" fill="" p-id="31896"></path><path d="M168.96 456.628148s62.957037-86.945185 165.736296-32.900741c0 0 52.527407-36.124444 118.708148-34.417777 7.49037 0.284444 60.017778-0.284444 77.937778 25.41037 8.628148 12.98963 7.774815 29.202963-7.205926 41.528889 0 0-71.300741-56.888889-246.897777-2.56 0 0-25.41037-13.842963-58.026667-11.567408-30.625185 2.37037-50.251852 14.506667-50.251852 14.506667z" fill="#6FB92C" p-id="31897"></path><path d="M505.078519 668.823704l69.878518-147.247408S539.401481 419.365926 350.53037 445.62963c-168.580741 23.703704-266.42963 142.411852-266.429629 142.411851s111.502222-76.231111 253.534815-35.555555c117.854815 33.754074 167.442963 116.337778 167.442963 116.337778z" fill="#00428D" p-id="31898"></path></svg>