<?xml version="1.0" standalone="no"?><!DOCTYPE svg PUBLIC "-//W3C//DTD SVG 1.1//EN" "http://www.w3.org/Graphics/SVG/1.1/DTD/svg11.dtd"><svg t="1542262990826" class="icon" style="" viewBox="0 0 5132 1024" version="1.1" xmlns="http://www.w3.org/2000/svg" p-id="17586" xmlns:xlink="http://www.w3.org/1999/xlink" width="1002.34375" height="200"><defs><style type="text/css"></style></defs><path d="M386.596 80.73S605.218-77.042 873.954 291.797l-92.818 90.46S494.895 5.346 386.596 80.73z" fill="#06569F" p-id="17587"></path><path d="M827.934 536.563c-48.025-4.364-179.04 0-179.04 0l-220.56 227.091-209.632-224.919 216.172-227.091 211.818 214.005 113.556-111.363-200.894-216.182S484.793 91.265 370.612 93.73C160.773 126.205 0 310.528 0 533.049c0 245.434 195.585 444.403 436.894 444.403 232.54 0 422.551-184.783 436.056-417.868-2.41-7.344-11.445-19.97-45.016-23.02z" fill="#06569F" p-id="17588"></path><path d="M1678.96 216.008c-0.976-33.247-32.263-30.308-32.263-30.308h-194.48v-44.944h-94.808v43.969s-145.637-0.965-185.692 0c-40.08 0.975-38.115 33.237-38.115 33.237l-0.975 288.328h222.827v53.754h97.753v-52.763h225.768c-0.016 0 0.949-258.046-0.016-291.273z m-321.567 245.323h-128.05V231.65h128.05v229.682z m223.834 0.965h-128.05V232.624h128.05v229.672z m748.647-325.46s-440.793-0.96-472.066 0c-31.273 0.964-40.066 29.324-40.066 29.324v388.02h543.41V169.097c0-29.317-31.278-32.262-31.278-32.262zM2265.38 511.17h-350.88V181.796h350.88V511.17z m0 0" fill="#040000" p-id="17589"></path><path d="M2253.631 256.079v-45.934h-327.424v45.934h108.495v45.934h-104.576v48.874h104.576v88.944h-109.44v48.874h327.394v-48.874h-114.338v-88.944h111.424v-48.874h-111.424v-45.934h115.313z m0 0" fill="#040000" p-id="17590"></path><path d="M2146.136 357.715h66.466l16.61 30.314h19.541v42.995h-51.804c0.016 0-18.55 9.782-50.813-73.31z m883.555-12.697v-71.354h32.238v-49.848h-34.186V186.69c-1.94-35.177-36.176-35.177-36.176-35.177h-113.375v-23.469h-89.934v25.419h-112.384v47.889h110.46v21.49h-121.202v47.899h122.192v24.428h-110.46v47.9h109.47v21.49H2668.07v51.817h117.288v20.525h-131.966v50.814h131.965v22.465h-106.54l-29.324-5.854c-3.919-1.965-31.303-17.6-31.303-17.6 17.616-15.621 23.5-59.622 23.5-59.622l2.91-142.692h-43.006c39.116-27.358 56.692-95.772 56.692-95.772V147.6h-174.959v51.797h94.798c-17.601 86.98-88.944 85.99-88.944 85.99v49.849h86.015v74.297c-5.879 26.394-9.768 20.516-9.768 20.516-10.742 2.939-23.47-56.668-23.47-56.668h-52.777v18.561c7.817 40.07 36.152 88.945 36.152 88.945-6.83 9.753-43.956 15.637-43.956 15.637v61.572c59.622 5.868 97.738-30.3 97.738-30.3 22.465 18.575 89.92 32.248 89.92 32.248h386.05V511.17h-177.884v-21.505h150.526v-51.799h-152.476v-23.443h152.476v-48.874h-152.476v-20.53h154.44z m-152.489-143.666h55.718v23.453h-55.718v-23.453z m-0.975 71.338h55.718v23.47h-55.718v-23.47z m292.258-131.934h174.919v50.807h-174.92v-50.807z m-28.373 96.758h152.48v217.954l72.313-61.586v83.086s-69.399 68.404-157.384 83.076l-44.945-51.799 42.036-15.65V279.547h-64.515v-42.034h0.015z m217.977 13.685h37.128s7.818-1.964 7.818-11.732V129.033h263.899s29.338 0 31.273 31.273c1.97 31.273 0 86.99 0 86.99h44.95v51.803s-62.55 0.96-84.025 0c-19.621-0.894-48.89-10.758-51.83-45.934v-76.248H3492.98v83.076s1.94 33.227-37.15 37.142c-39.122 3.903-97.723 0-97.723 0v-45.936h-0.018z m0 0" fill="#040000" p-id="17591"></path><path d="M3357.117 314.72h379.197v48.863l-97.723 97.748s-21.505 7.834 120.227 26.4v62.545s-130.024-0.975-203.303-45.933c0 0-43.985 39.106-201.338 47.898v-60.61s113.369-11.718 117.257-25.405c0 0-100.661-73.318-103.576-88.944h98.703l86.99 49.838 82.095-65.475h-278.53V314.72z m585.414-212.096l69.404 27.368-17.59 36.168h106.545v45.933h-136.828l-23.495 35.193h153.494v50.823h-88.985v38.116h95.813v49.839h-94.84v88.939s53.784-23.454 91.9-60.596v74.283s-26.41 47.883-166.182 71.344l-49.833-58.648 43.005-6.843v-106.53h-58.632v-51.788h62.55v-39.09h-42.035l-19.536 15.636s-43.01-52.778-45.948-56.677c-2.939-3.92 79.188-31.289 121.193-153.47z m329.373 357.717s-32.252-35.172-49.838-98.706h72.318s24.445 60.59 30.294 57.666c5.853-2.925 16.601-0.016 47.914-60.611h69.39s-3.914 42.035-65.485 104.58c0 0 13.687 17.601 65.484 22.48v68.416s-90.878 3.898-168.11-89.92" fill="#040000" p-id="17592"></path><path d="M4422.43 338.19s1.965-153.455 0-181.799c-1.966-28.347-30.299-31.272-30.299-31.272h-270.728l-0.974 363.586h-18.566l1.94 65.474c125.106 9.768 169.09-27.372 169.09-27.372V467.2l-2.944-4.889c-19.51 13.672-64.51 22.465-64.51 22.465V341.12l216.99-2.929z m-216.016-165.187h129.025v36.167h-129.025v-36.167z m0 85.026h129.025v36.165h-129.025V258.03z m564.94-124.116h350.863v50.812h-350.863v-50.812z m-20.515 129.02v50.812h216.965l0.975 0.975v172.995s-0.975 13.671-16.596 15.637l-102.642 0.974-0.98 49.839h153.445s65.484-10.748 65.484-73.31v-167.11h65.49v-50.812h-382.141z m-50.854-114.374l-47.883-42.995c-61.57 112.398-132.94 142.697-132.94 142.697l32.279 58.656c89.918-43.02 148.544-158.358 148.544-158.358z m0 0" fill="#040000" p-id="17593"></path><path d="M4771.354 227.746l-54.743-52.793-0.975 1.964c-84.05 144.662-182.772 168.117-182.772 168.117l37.151 62.56c5.853 2.93 44.945-21.515 44.945-21.515V553.2h92.874l-1.966-237.49c37.127-32.273 65.486-87.964 65.486-87.964zM1336.152 732.675c-8.515-33.99-32.582-51.455-72.258-52.398-54.783 2.842-83.1 37.307-85 103.418 0 70.838 28.808 106.237 86.42 106.237 39.676-0.942 64.206-25.015 73.681-72.23h33.995c-10.414 63.286-48.652 95.843-114.753 97.737-36.848-0.95-66.13-12.279-87.842-33.99-18.885-25.49-28.335-57.616-28.335-96.328 0-42.48 11.819-76.026 35.43-100.58 21.728-22.663 50.505-34.006 86.404-34.006 61.374 1.894 96.818 29.28 106.253 82.156h-33.995v-0.016z m228.504 179.863h-31.191v-120.41c0.949-29.282-11.804-43.453-38.243-42.479-33.99 0.92-51.479 21.228-52.414 60.891v102h-32.566V657.543h32.566v93.484h1.424c15.106-20.762 33.515-31.146 55.227-31.146 19.85 0 35.43 5.671 46.758 16.998 12.263 7.558 18.424 24.098 18.424 49.588v126.07h0.015z m80.662 0h-32.555V725.553h32.555v186.985z m-32.555-219.565v-35.428h32.555v35.428h-32.555z m232.404 219.58h-31.147V799.222c1.894-34.94-11.819-51.467-41.101-49.588-14.156 0-25.96 5.187-35.41 15.581-8.5 8.515-13.226 23.613-14.175 45.338v102h-32.582V725.57h31.187v26.91c15.096-21.728 34.47-32.582 58.061-32.582 42.505 0.934 64.223 23.147 65.151 66.571v126.085h0.016z m46.632-128.924c0.933-42.478 26.913-63.732 77.902-63.732 45.34 1.894 68.47 19.843 69.405 53.849v107.646c0 7.58 3.778 11.328 11.344 11.328h4.237c2.843-0.92 5.196-1.394 7.096-1.394v21.227h-18.425c-22.676 0-33.53-8.03-32.57-24.08-18.899 17-42.046 25.49-69.42 25.49-37.777-0.935-57.596-17.45-59.504-49.576 0.944-33.99 20.318-53.374 58.086-58.087l52.398-5.656c11.343-1.898 17.005-9.433 17.005-22.661 0-20.776-15.105-31.175-45.348-31.175-26.44 0-40.596 12.276-42.48 36.82H1891.8z m116.16 34c-7.554 4.714-25.03 8.99-52.43 12.768-26.438 1.884-39.675 11.793-39.675 29.753 0 21.718 10.868 32.557 32.596 32.557 36.833-2.829 56.65-17.446 59.51-43.9v-31.178z m372.41-84.954c-8.5-33.99-32.597-51.455-72.247-52.398-54.784 2.842-83.092 37.307-85.01 103.418 0 70.838 28.818 106.237 86.404 106.237 39.691-0.942 64.231-25.015 73.697-72.23h34.004c-10.414 63.286-48.666 95.843-114.753 97.737-36.848-0.95-66.115-12.279-87.843-33.99-18.869-25.491-28.303-57.618-28.303-96.33 0-42.48 11.789-76.025 35.409-100.58 21.717-22.663 50.52-34.006 86.41-34.006 61.373 1.895 96.788 29.281 106.252 82.157h-34.02v-0.015z m88.066 15.555c17-18.883 38.252-28.333 63.758-28.333 26.435 0 47.692 9.434 63.743 28.333 15.096 18.884 23.137 42.505 24.086 70.838 0 29.279-7.57 52.874-22.677 70.809-16.04 16.072-37.768 24.086-65.152 24.086-24.57 0-43.944-5.2-58.086-15.571-18.873-19.844-28.782-46.283-29.757-79.324 0.948-29.282 8.973-52.888 24.085-70.838z m63.741 143.096c33.991-0.975 52.4-25.028 55.243-72.258-2.843-46.282-21.252-69.893-55.243-70.838-34.004 0.945-52.428 24.565-55.242 70.838 2.828 47.218 21.238 71.283 55.242 72.258z m277.85 21.227h-31.163V799.222c1.91-34.94-11.803-51.467-41.08-49.588-14.177 0-25.98 5.187-35.429 15.581-8.5 8.515-13.223 23.613-14.156 45.338v102h-32.586V725.57h31.177v26.91c15.09-21.728 34.45-32.582 58.07-32.582 42.495 0.934 64.223 23.147 65.157 66.571v126.085h0.01z m154.373-131.727c0-21.727-15.092-32.596-45.349-32.596-23.59 0.945-35.9 9.92-36.803 26.925-1.91 12.278 9.435 20.776 33.99 25.504l32.556 7.078c35.874 7.556 53.373 24.086 52.445 49.6 0 18.87-6.621 34.006-19.85 45.324-14.186 7.55-32.095 11.313-53.847 11.313-53.839 0-81.222-20.288-82.157-60.9h29.753c1.91 26.435 19.344 39.646 52.404 39.646 27.414-0.92 41.556-11.313 42.505-31.161 1.91-11.33-10.383-20.303-36.819-26.91l-38.257-8.505c-29.279-7.55-43.94-22.197-43.94-43.909 0-19.833 7.567-35.873 22.657-48.18 14.161-9.435 30.717-14.158 49.6-14.158 45.338 0.934 69.434 21.253 72.263 60.929H2964.4z m111.884-28.238v121.833c0 10.399 6.147 15.582 18.44 15.582h12.752v22.677h-24.096c-16.056 0-26.439-2.358-31.192-7.083-5.63-7.555-8.475-17.004-8.475-28.333V752.587h-24.096v-26.91h24.096V674.67h32.57v51.008h31.192v26.91h-31.19z m97.626 159.965h-32.602V725.57h31.163v32.57c14.161-25.504 32.095-38.257 53.853-38.257 1.868 0 3.747 0.475 5.656 1.419h2.819v34.005h-12.728c-14.187 0-25.03 3.778-32.596 11.335-10.383 10.382-15.565 23.145-15.565 38.253v107.66z m207.035 0.056V887.09l-1.434-1.393c-13.222 19.833-33.53 29.266-60.913 28.321-15.121 0-27.844-1.899-38.243-5.661-14.161-8.499-21.727-24.539-22.66-48.178V725.595h32.6v124.661c0 28.348 12.248 42.52 36.82 42.52 32.12-0.943 49.6-22.203 52.413-63.743V725.609h31.177v187h-29.76z m195.531-121.874c-2.829-27.399-17.465-41.086-43.93-41.086-33.99 1.896-51.94 25.017-53.808 69.42 0 49.096 17.48 73.637 52.444 73.637 25.46-1.88 40.557-16.986 45.31-45.319h31.162c-7.57 43.453-33.03 65.64-76.472 66.574-26.463 0-47.256-6.596-62.353-19.816-15.12-15.112-22.687-38.275-22.687-69.435 0-33.975 8.07-59.954 24.097-77.888 15.09-17.95 37.323-26.925 66.56-26.925 41.56 0.934 65.192 24.57 70.854 70.838h-31.177z m100.581-38.147v121.833c0 10.399 6.116 15.582 18.395 15.582h12.752v22.677h-24.097c-16.07 0-26.439-2.358-31.162-7.083-5.646-7.555-8.49-17.004-8.49-28.333V752.587h-24.096v-26.91h24.097V674.67h32.601v51.008h31.147v26.91h-31.147z m94.96 159.95h-32.637V725.553h32.636v186.985z m-32.637-219.565v-35.428h32.636v35.428h-32.636z m92.05 55.257c17-18.883 38.237-28.333 63.717-28.333 26.465 0 47.717 9.434 63.772 28.333 15.092 18.884 23.122 42.505 24.066 70.838 0 29.279-7.525 52.874-22.661 70.809-16.05 16.072-37.779 24.086-65.177 24.086-24.545 0-43.914-5.2-58.076-15.571-18.899-19.844-28.802-46.283-29.711-79.324 0.909-29.282 8.974-52.888 24.07-70.838z m63.717 143.096c33.99-0.975 52.44-25.028 55.283-72.258-2.843-46.282-21.278-69.893-55.283-70.838-34.005 0.945-52.414 24.565-55.233 70.838 2.819 47.218 21.229 71.283 55.233 72.258z m277.92 21.227h-31.193V799.222c1.91-34.94-11.788-51.467-41.056-49.588-14.201 0-26.004 5.187-35.439 15.581-8.5 8.515-13.212 23.613-14.161 45.338v102h-32.566V725.57h31.115v26.91c15.136-21.728 34.48-32.582 58.102-32.582 42.51 0.934 64.207 23.147 65.197 66.571v126.085z m151.308-255.01h114.737c46.252 1.895 70.354 23.136 72.263 63.733 0 25.513-11.334 43.453-33.995 53.847 32.096 11.335 48.152 32.11 48.152 62.338 0 18.884-6.147 34.955-18.395 48.179-16.056 17.953-39.692 26.912-70.854 26.912h-111.894V657.544h-0.014z m35.4 107.662h62.322c36.849 0.945 54.783-13.202 53.834-42.478 0-24.572-17.934-36.849-53.834-36.849h-62.323v79.327z m0 119.015h75.1c35.874-0.935 54.283-16.513 55.217-46.74 0-28.334-20.777-42.495-62.307-42.495h-68.01v89.235zM4561.08 783.63c0.964-42.478 26.914-63.732 77.95-63.732 45.307 1.894 68.44 19.843 69.373 53.849v107.646c0 7.58 3.778 11.328 11.343 11.328h4.252c2.813-0.92 5.182-1.394 7.106-1.394v21.227h-18.44c-22.656 0-33.53-8.03-32.566-24.08-18.899 17-42.036 25.49-69.405 25.49-37.807-0.935-57.625-17.45-59.51-49.576 0.936-33.99 20.32-53.374 58.102-58.087l52.415-5.656c11.333-1.898 16.974-9.433 16.974-22.661 0-20.776-15.106-31.175-45.318-31.175-26.465 0-40.626 12.276-42.51 36.82h-29.766z m116.202 34c-7.596 4.714-25.071 8.99-52.454 12.768-26.425 1.884-39.652 11.793-39.652 29.753 0 21.718 10.828 32.557 32.556 32.557 36.823-2.829 56.651-17.446 59.54-43.9V817.63h0.01z m239.595 94.924h-31.146V799.222c1.878-34.94-11.82-51.467-41.086-49.588-14.201 0-25.975 5.187-35.44 15.581-8.499 8.515-13.226 23.613-14.16 45.338v102h-32.567V725.57h31.147v26.91c15.136-21.728 34.48-32.582 58.102-32.582 42.505 0.934 64.177 23.147 65.152 66.571v126.085z m205.355-0.015h-41.096l-59.51-94.909-25.505 25.507v69.403h-31.177V657.544h31.177V806.3l82.172-80.747h39.686l-72.242 70.824 76.495 116.16z m0 0" fill="#040000" p-id="17594"></path></svg>