<?xml version="1.0" standalone="no"?><!DOCTYPE svg PUBLIC "-//W3C//DTD SVG 1.1//EN" "http://www.w3.org/Graphics/SVG/1.1/DTD/svg11.dtd"><svg t="1542263454843" class="icon" style="" viewBox="0 0 2560 1024" version="1.1" xmlns="http://www.w3.org/2000/svg" p-id="29277" xmlns:xlink="http://www.w3.org/1999/xlink" width="500" height="200"><defs><style type="text/css"></style></defs><path d="M471.04 448c-12.8-23.04-23.04-48.64-33.28-71.68-17.92-46.08-35.84-92.16-51.2-138.24-51.2 148.48-133.12 286.72-232.96 404.48 74.24-17.92 148.48-28.16 222.72-33.28 35.84-51.2 66.56-104.96 94.72-161.28" fill="#BF0017" p-id="29278"></path><path d="M471.04 606.72c-30.72 0-61.44 0-92.16 2.56-40.96 61.44-89.6 120.32-140.8 176.64 76.8-15.36 153.6-20.48 232.96-20.48 79.36 0 158.72 7.68 232.96 20.48-51.2-56.32-99.84-115.2-140.8-176.64-30.72-2.56-61.44-2.56-92.16-2.56" fill="#730000" p-id="29279"></path><path d="M153.6 642.56l81.92 143.36c51.2-56.32 99.84-115.2 140.8-176.64-74.24 5.12-148.48 15.36-222.72 33.28" fill="#E60020" p-id="29280"></path><path d="M376.32 609.28c35.84-51.2 66.56-104.96 92.16-161.28 28.16 56.32 58.88 110.08 92.16 161.28-30.72-2.56-61.44-2.56-92.16-2.56-28.16 0-58.88 0-92.16 2.56" fill="#FFFFFF" p-id="29281"></path><path d="M552.96 238.08c-15.36 46.08-30.72 92.16-51.2 138.24-10.24 25.6-20.48 48.64-33.28 71.68 28.16 56.32 58.88 110.08 92.16 161.28 76.8 5.12 151.04 15.36 222.72 33.28-97.28-117.76-176.64-256-230.4-404.48" fill="#E60020" p-id="29282"></path><path d="M471.04 448c12.8-23.04 23.04-48.64 33.28-71.68 17.92-46.08 35.84-92.16 51.2-138.24h-166.4c15.36 46.08 30.72 92.16 51.2 138.24 7.68 23.04 17.92 48.64 30.72 71.68" fill="#730000" p-id="29283"></path><path d="M704 785.92l81.92-143.36C714.24 624.64 640 614.4 563.2 609.28c43.52 61.44 89.6 120.32 140.8 176.64" fill="#BF0017" p-id="29284"></path><path d="M2007.04 535.04s-20.48 15.36-46.08 30.72c-10.24-15.36-12.8-30.72-15.36-38.4h74.24V353.28H1843.2V652.8s10.24 7.68 20.48 20.48c20.48-5.12 51.2-7.68 58.88-7.68v-40.96c-12.8 0-33.28 2.56-38.4 2.56V524.8h10.24c5.12 38.4 56.32 120.32 104.96 145.92l33.28-33.28c-28.16-17.92-46.08-38.4-48.64-43.52 25.6-17.92 43.52-30.72 43.52-30.72l-20.48-28.16z m-120.32-74.24h89.6v28.16h-89.6V460.8z m89.6-35.84h-89.6V396.8h89.6v28.16z m-202.24-76.8h-43.52s-2.56 56.32-35.84 115.2l25.6 35.84h20.48v28.16h-40.96v43.52h40.96v84.48l20.48 20.48c10.24-2.56 40.96-7.68 66.56-7.68v-38.4c-20.48 0-40.96 2.56-43.52 2.56v-64h46.08V524.8h-46.08v-28.16h38.4v-43.52h-74.24c2.56-7.68 7.68-17.92 10.24-25.6h71.68V384h-61.44c5.12-20.48 5.12-35.84 5.12-35.84m-599.04 0h-51.2s7.68 20.48 10.24 38.4H998.4v145.92c0 30.72-5.12 76.8-43.52 117.76l35.84 28.16c56.32-64 53.76-138.24 53.76-168.96v-79.36h243.2v-43.52h-104.96c-2.56-23.04-7.68-38.4-7.68-38.4m371.2 250.88c28.16-25.6 53.76-64 64-94.72l-25.6-28.16h-130.56c2.56-7.68 7.68-20.48 10.24-25.6h181.76v-43.52h-33.28c-7.68-30.72-5.12-25.6-17.92-58.88h-48.64s12.8 35.84 17.92 58.88H1472c7.68-30.72 7.68-58.88 7.68-58.88h-43.52s0 28.16-7.68 58.88h-43.52c10.24-35.84 10.24-58.88 10.24-58.88h-43.52s0 28.16-15.36 74.24l23.04 28.16h58.88c-12.8 35.84-40.96 97.28-102.4 156.16l30.72 30.72c40.96-38.4 64-74.24 81.92-104.96 7.68 12.8 17.92 33.28 33.28 51.2 2.56 5.12 7.68 7.68 12.8 12.8-33.28 20.48-66.56 30.72-104.96 35.84l17.92 43.52c51.2-10.24 92.16-28.16 122.88-48.64 33.28 25.6 76.8 38.4 125.44 48.64l15.36-43.52c-40.96-5.12-76.8-15.36-104.96-33.28m-76.8-79.36h84.48c-7.68 15.36-33.28 43.52-43.52 51.2-12.8-10.24-33.28-35.84-40.96-51.2m632.32-43.52c38.4-17.92 81.92-87.04 84.48-128h-43.52c-2.56 38.4-43.52 79.36-61.44 89.6l20.48 38.4z m61.44-46.08c-7.68 46.08-61.44 97.28-89.6 110.08l17.92 40.96c15.36-7.68 28.16-20.48 38.4-28.16v120.32h43.52V512c15.36-20.48 28.16-48.64 33.28-79.36h-43.52z m64-71.68h168.96v46.08H2227.2z m179.2 99.84h-192v43.52h112.64v130.56s-40.96-5.12-71.68-2.56v40.96c40.96 0 117.76 7.68 117.76 7.68V504.32h33.28v-46.08z" fill="#221815" p-id="29285"></path></svg>