<?xml version="1.0" standalone="no"?><!DOCTYPE svg PUBLIC "-//W3C//DTD SVG 1.1//EN" "http://www.w3.org/Graphics/SVG/1.1/DTD/svg11.dtd"><svg t="1542263293893" class="icon" style="" viewBox="0 0 1024 1024" version="1.1" xmlns="http://www.w3.org/2000/svg" p-id="24620" xmlns:xlink="http://www.w3.org/1999/xlink" width="200" height="200"><defs><style type="text/css"></style></defs><path d="M335 473.5c0-34.7-47.1-62.9-105.1-62.9-46.5 0-85.9 18.1-99.8 43.1-1.3 2.3-2 4.9-2 7.5 0 6.2 3.9 11.8 10.1 15.4l53.3 30.8c2.8 1.5 6 2.4 9.6 2.4 3.6 0 6.9-0.9 9.6-2.4l50.6-29.2c3.4-2 5.6-5.1 5.6-8.5 0-3.4-2-6.3-5.3-8.3l-18.8-10.9-41.7 24-31.5-18.2c12.2-11 34.9-18.3 60.9-18.3 38.8 0 70.4 16.5 70.4 36.8-0.8 31.5-47.1 55.9-103.2 54.5-56.2-1.5-101-28.2-100.2-59.8 0.4-41.6 54.9-74.8 121.7-74.1 6 0.1 11.8 0.4 17.5 1-13.7-5-30.8-8.1-49.5-8.1-14.9 0-28.8 1.9-40.8 5.3-48.5 13.2-82.4 44-82.4 79.9 0 48 60.7 87 135.5 87s135.5-39 135.5-87zM378 451.8l9.6 0.8h69.9c1.8-5.1 3.5-9.8 4.9-14.1 1.4-4.3 2.7-8.8 3.9-13.5 1.1-4.7 2.3-9.7 3.3-15 1-5.3 1.7-8.8 1.9-10.4l0.8-6.2v-1c0.3-0.6 1.1-0.6 2.6 0 0.1 0.1 1.7 0.6 4.7 1.7 3.1 1.1 6.4 2.5 10 4.5 3.5 1.9 5.4 3.2 5.7 4 0.3 0.7 0.2 1.4-0.1 1.9-0.3 0.5-2 1.2-5.1 2-2.1 3.9-4.3 7.7-6.5 11.6-2.2 3.9-9.3 15.4-21.3 34.4H477c2.9-3.9 5.1-6.9 6.7-8.9 1.5-2 2.8-3 3.6-3.1 0.8-0.1 2.1 0.5 3.8 1.8 4 3.2 6.8 5.9 8.5 8.1 1.7 2.2 2.4 3.6 2.2 4-0.3 0.5-0.8 0.7-1.5 0.7H389.1l-8.2 0.4-2.9-3.7z m34.5 42.5c-6.4 4.5-14.8 8.8-25.2 12.9l-5.1 2c-0.9 0.4-1.5 0.3-1.8-0.3-0.4-0.5-0.1-1.1 0.8-1.8l4.7-3.2c1.1-0.8 2.8-2.2 5.1-4.2s5.2-4.9 8.8-8.5c3.6-3.6 6.7-7.7 9.5-12.1 2.7-4.4 4.5-7.6 5.4-9.4l1.9-4c0.4-0.9 0.8-1.5 1-1.7 0.3-0.2 0.7-0.2 1.4 0.1 3.5 1.6 7.5 3.7 11.9 6.2 4.4 2.6 6.6 4.4 6.6 5.5-0.1 0.7-0.5 1.2-1.2 1.6l-2 0.4-2.3 0.4c-6.6 6.3-13.1 11.6-19.5 16.1z m39.3-25.5c3.9 0.8 7.6 1.6 11.3 2.5 3.7 0.9 8.3 2.6 13.9 5 5.6 2.5 10 5.5 13 9.2 3 3.7 4.7 7.2 4.9 10.5 0.2 3.3-0.4 6.2-2 8.5s-4.1 3.5-7.6 3.4c-2.9 0-5.1-0.9-6.5-2.6-1.5-1.7-3.1-4.5-5-8.5-1.8-4-4.1-7.6-6.7-10.7-2.6-3.2-5-5.7-7-7.6-2.1-1.9-4.5-3.6-7.2-5.2-2.8-1.6-4.4-2.5-5-2.8-0.6-0.3-0.9-0.5-1.1-0.8-0.2-0.3-0.2-0.7-0.1-1.1 0.1-0.5 0.7-0.6 1.7-0.5l3.4 0.7z m-22.4-73c7.8 6.9 13.2 12.5 16.2 16.7 2.9 4.3 4.7 8.8 5.4 13.7 0.7 4.9 0.4 8.6-0.8 11.1-0.9 1.9-2.4 3.5-4.3 4.7-1.9 1.2-4.4 1.7-7.2 1.4-2.9-0.3-4.9-1.7-5.8-4.2-1-2.4-1.4-4.6-1.2-6.6 0-0.3 0.2-1.6 0.6-3.8 0.3-2.2 0.5-4.5 0.6-6.8 0-2.3-0.2-4.7-0.4-7.1-0.7-5-1.7-8.7-2.9-11.1-1.3-2.4-2.3-4.4-3.1-5.8-0.8-1.5-1.4-2.5-1.7-2.9-0.3-0.5-0.5-0.8-0.5-1.1 0-0.3 0.1-0.6 0.4-0.9 0.3-0.3 0.8-0.2 1.5 0.2l3.2 2.5z m-31.7 5c1.7 1.3 4.1 3 7.1 5.3s6.5 5.7 10.4 10.3c4 4.7 5.9 9.8 5.9 15.6 0 5.7-1.2 9.6-3.4 11.7-2.3 2-4.8 2.9-7.7 2.6-2.9-0.3-5-1.4-6.5-3.2-1.5-1.9-2.2-3.6-2.1-5.3 0-1.7 0.3-4 0.6-7.2 0.4-3.1 0.4-6.5 0-10.2-0.4-3.2-1-5.9-2-8.2-0.9-2.3-2.2-4.7-3.9-7.1-1.7-2.4-2.8-3.8-3.2-4.3-0.3-0.5-0.6-0.9-0.7-1.2-0.1-0.3 0-0.6 0.3-0.9 0.2-0.4 0.7-0.3 1.5 0.1l3.7 2zM531.6 503.4l9.1 0.8h30v-94.1l-1-18.2c0.5-0.9 1.7-1.2 3.6-1 6.8 1 11.5 1.9 14 2.6 2.5 0.7 3.7 1.7 3.2 2.7-0.4 1.1-1.9 2.5-4.7 4.2v103.7h12.9l-0.1-92.1-1-18.1c0.5-0.9 1.7-1.2 3.5-1 6.9 1 11.3 1.8 13.2 2.4 1.9 0.5 3 1.2 3.5 1.7 0.4 0.6 0.5 1.2 0.3 1.7-0.2 0.6-1.7 1.8-4.5 3.7v72.5c1.3-2.8 2.3-5 3-6.5 0.7-1.6 1.8-4.6 3.5-9.1s3.1-8.4 4.2-11.9c1.1-3.4 2.2-7.1 3.2-11.1s1.7-6.8 2.1-8.5l1-4.9 0.6-3.8c0.6-0.7 1.7-0.7 3.4 0l7.6 3.2c2.2 1 4.4 2 6.6 3.3 2.2 1.2 3.3 2.2 3.4 2.7 0 0.6-0.1 1.1-0.4 1.4-0.5 0.7-2.1 1.3-4.6 1.8-6.5 11.7-11.8 21.1-16.1 28.2-4.3 7.1-7.5 12.1-9.8 15.2l-7.6 10.8v18.5h14.5c3-3.7 5.2-6.5 6.6-8.5 1.4-2 2.6-3.1 3.3-3.2 0.8-0.1 2.1 0.6 4 2.3l4.3 3.7c0.8 0.8 2.2 2.1 4 3.9 1.8 1.8 2.6 2.9 2.5 3.5-0.1 0.5-0.9 0.8-2.3 0.8h-107l-8.1 0.4-3.9-3.7z m11.8-78.2c5.5 5.6 9.7 10.8 12.6 15.5 2.9 4.8 5.3 9.5 7.1 14.3 1.8 4.8 2.7 9.1 2.5 13.1-0.1 3.9-1.1 7-3.1 9.2-2 2.3-4.5 3.3-7.6 3.1-3.1-0.1-5.3-1.1-6.5-3-1.2-1.8-1.7-4.3-1.5-7.4l0.7-7.2c0.2-3.7 0.2-7.9-0.3-12.5-0.4-3.5-0.9-6.6-1.6-9.3-0.6-2.7-1.4-5.1-2.2-7.4-0.9-2.2-1.7-4.1-2.4-5.6s-1.3-2.5-1.6-3.1c-0.4-0.6-0.6-1.1-0.8-1.6-0.2-0.5-0.1-0.9 0.3-1.3 0.3-0.4 1-0.1 2 0.7l2.4 2.5zM753.1 449.3h11.7c0.5 4.8 0.7 7.6 0.8 8.5 0.2 0.9 0.5 3.2 1 7s0.9 6.3 1.2 7.6c0.3 1.3 1.1 4.1 2.4 8.4-5.5 2.5-11.2 5-17.2 7.4v-38.9h0.1z m-12.9-53.7c-0.7-0.2-1.1-0.3-1.2-0.1-0.2 0.1-0.2 1.4 0 3.9 0.3 2.5 0.4 6.4 0.4 11.6v79.2c0 1.2-0.2 2.1-0.5 2.8-0.3 0.7-0.7 1.2-1.3 1.7-0.8 0.5-1.2 0.9-1.2 1 0 0.1 0.1 0.4 0.4 0.9l5.8 13.5c0.5 1.1 0.8 1.8 1.1 2.1 0.3 0.3 0.5 0.4 0.7 0.4 0.2 0 0.7-0.4 1.4-1.2l3.9-4.5c1.7-2 3.2-3.7 4.3-5l5.5-6.6c1.2-1.5 5-5.7 11.3-12.6l1.9 5.3c0.6 1.8 2.2 5.2 4.6 10 2.5 4.9 5.3 8.6 8.5 11.3 3.3 2.6 5 3.9 5.4 3.9 0.4 0 0.9-0.5 1.5-1.6 0.5-1.1 1.4-2.3 2.5-3.7 1.1-1.4 2.5-2.7 4.1-3.8 1.7-1.1 2.9-1.8 3.8-2.1l3.7-1.1c0.6-0.2 0.9-0.5 1-0.9 0-0.4-0.3-0.8-1-1.1l-2-0.8c-0.6-0.2-3.1-1.5-7.4-3.7-4.3-2.2-8-5.1-11-8.7-3-3.6-5.9-7.5-8.8-11.9l6.2-2.4 10.6-4.6c1.1-0.5 2.9-1.2 5.2-2.1l4.3-0.8c4.5-0.8 3.9-2.5-1.6-5.1-5.5-2.6-9.2-4.3-11-4.9-0.8-0.2-1.2-0.3-1.5-0.2-0.3 0.1-0.7 0.5-1.2 1.4l-2.2 3.1c-2.7 3.9-6.2 8.1-10.6 12.7l-2.4-4.2c-0.5-0.8-1.2-2.6-2.3-5.5-1.1-2.9-1.9-5.1-2.3-6.6-0.4-1.5-0.9-3.3-1.4-5.2h12.9v1.4c0 1.7 1.4 2.6 4.4 2.6 2.8 0.1 5.1-0.3 6.9-1 1.8-0.7 2.8-1.3 3.2-1.6 0.3-0.4 0.6-0.9 0.9-1.5l-0.6-13.9v-28c2.5-1.1 3.7-2.3 3.7-3.5-0.1-1.3-2.5-2.9-7.3-4.9-4.8-2-7.4-2.9-7.9-2.8-0.7 0.1-1.4 0.7-2.2 1.7-0.8 1-1.8 2.2-2.9 3.6h-24.8l-13.5-5.9z m12.9 30.9h27.4v20.3h-27.4v-20.3z m0-22.5h27.4v19.9h-27.4V404z m-36-6.9c0.9-0.4 1.3-1 1.4-1.5 0-0.6-0.8-1.3-2.5-2-1.7-0.8-4.3-1.6-8-2.6-3.7-0.9-5.8-1.5-6.5-1.7-0.6-0.2-1.3-0.4-1.9-0.4-0.5 0-0.8 0-0.8 0.2v0.4c0 0.1-0.1 0.8-0.4 2L697 398c-0.4 1.8-1.2 4.9-2.3 9.2-1.1 4.3-2.2 8.1-3.4 11.3-1.1 3.2-2.3 6.3-3.5 9.2-1.2 2.9-2.1 5-2.8 6.5l-1.9 4c-0.4 0.9-0.5 1.5-0.2 1.8 0.2 0.3 0.7 0.1 1.3-0.4l2.5-2.1 2.4-2.4 3 3 6-0.5h4.9v18.1h-10.3l-8.8-0.8 3.9 3.7 5.7-0.5h9.6v28.4c0 0.5-0.1 1.2-0.3 2-0.2 0.8-0.4 1.5-0.5 2.1-0.2 0.6-0.7 1.1-1.3 1.6-0.6 0.5-1 0.8-1 1 0 0.2 0.2 0.6 0.6 1.5l7.3 14.5c0.4 0.8 0.6 1.2 0.7 1.3 0.1 0.1 0.2 0.1 0.4 0.1l0.8-1 6-7.3c1.4-1.7 7.6-8.9 18.4-21.4l4.1-4.7c0.5-0.6 0.6-1 0.4-1.4-0.3-0.4-0.8-0.4-1.5 0l-6.3 3.4c-3.3 1.8-8 4.1-14.3 7v-27h20.1c0.4 0 0.8-0.3 1.1-0.9 0.3-0.6-1.5-2.6-5.5-6.1l-3.9-3.3c-0.7-0.6-1.3-0.9-1.6-0.8-0.3 0.1-0.6 0.3-1 0.7-0.3 0.4-2.6 3.1-6.8 7.9h-2.5v-14.8l2-1.6c0.1-0.1 0.3-0.6 0.6-1.6h12.6c0.4 0 0.8-0.3 1.2-1 0.4-0.7-2.7-3.6-9.2-8.7-0.8-0.5-1.3-0.8-1.6-0.7-0.3 0-1.4 1-3.2 2.8-1.9 1.9-3.5 3.6-4.8 5.1h-17l-7.2-0.7c4.3-4.7 8.8-10.5 13.7-17.6H737c0.4 0 0.7-0.3 0.8-0.9 0.1-0.6-1.6-2.5-5.1-5.6l-4.3-3.5c-0.8-0.7-1.5-1-1.9-1-0.4 0-3 2.8-7.8 8.3h-13.9c2.4-4.1 5.4-9 8.6-14.8l3.7-2.3zM874.8 409.5l-11.4 7.2c-6.7 4-13 7.3-19 9.8l-4.6 1.9c-0.9 0.5-1.6 0.5-2 0-0.4-0.5-0.1-1.2 0.9-2.1l2.9-2.7 4.5-4.1c2.7-2.6 5.9-6.1 9.6-10.3 3.7-4.3 6.9-8.6 9.8-13l2.3-3.7 1.4-2.5c0.3-0.2 0.7-0.3 1.2-0.2 0.6 0.1 1.6 0.7 3 1.9l5.8 4.3c0.8 0.6 2.3 1.8 4.4 3.7 2.2 1.8 3.2 3.2 3.2 4-0.2 1.3-0.9 1.9-2.2 1.8l-3.4 0.2c-2.9 1.6-5.1 3-6.4 3.8z m-0.6 30.4c2.9 1.5 4.4 2.5 4.6 3.1 0.4 1.2-0.5 2.3-2.5 3.3v45.8l0.6 13.7c-0.3 0.8-0.7 1.6-1.2 2.2-0.5 0.6-1.9 1.2-3.9 1.7-2.1 0.5-4.3 0.8-6.7 0.8-1.4 0.1-2.3-0.1-2.9-0.5-0.6-0.4-1-1-1.4-1.9l0.7-15v-41.8c-7.9 5.8-14 10.1-18.2 12.9l-3.3 2.1c-1 0.6-1.5 0.5-1.7-0.2-0.3-0.7-0.2-1.3 0.2-1.8l2.9-3.4c2.3-2.6 4.2-4.9 5.9-7 1.7-2.1 4.6-6.1 8.8-12.3 4.2-6.1 7.5-11.5 9.9-16.1l2.3-4.5c1.2-2.3 1.8-3.5 1.9-3.5 0.2 0 0.3-0.1 0.6-0.1 1.1 0.2 4.3 1.9 9.4 5.3 5.2 3.4 7.6 5.6 7.3 6.7-0.3 1.1-2 1.8-5 2-2.3 2.6-5.1 5.4-8.3 8.5z m61.5-1.7c2.8-4.4 4.9-7.4 6.2-9.1 1.3-1.7 2.5-2.6 3.3-2.9 0.9-0.2 2.4 0.6 4.7 2.6 4.8 4.3 7.7 7 8.8 8.2 1.1 1.2 1.6 2.1 1.4 2.7-0.1 0.7-0.7 1-1.6 1h-17.9c-0.6 1.2-1.4 2.2-2.3 3v54.2c0 2.9-0.3 4.9-0.9 6.2-0.6 1.2-1.8 2.3-3.7 3.4-1.9 1-4.4 1.9-7.5 2.5-3.2 0.6-5.4 0.8-6.8 0.6-1.2-0.1-2-0.3-2.3-0.8-0.3-0.4-0.4-1.3-0.5-2.6 0-1.3-0.2-2.4-0.5-3.4s-1.1-2-2.4-3.1c-1.3-1.2-3-2.1-5-2.9l-4.5-1.6c-1.3-0.5-1.8-1-1.5-1.6 0.4-0.6 1-0.9 2-0.8l3.4 0.4 8.6 0.6c1.6 0.1 2.8 0 3.7-0.3 0.9-0.3 1.5-0.9 1.8-1.6 0.3-0.7 0.5-2.2 0.5-4.3l-0.1-48h-29.1l-7.5 0.4-3.5-3.7 9.1 0.8h44.1v0.1z m-7.6-34.5c3.1-4.1 5.4-6.9 6.6-8.5 1.1-1.6 2.1-2.5 2.9-2.6 0.8-0.1 1.9 0.4 3.4 1.6 1.2 1 3 2.4 5.1 4.3 2.1 1.9 3.7 3.4 4.8 4.6 1.1 1.2 1.5 2 1.2 2.5-0.2 0.5-0.9 0.7-2.1 0.7h-48.4l-7.5 0.3-3.5-3.7 9.1 0.9h28.4v-0.1zM379.1 555.5c3.4-0.1 3.8-0.8 3.8-3.6v-17.7c0-2.9-0.6-3.4-3.8-3.6v-0.8h11.8v0.8c-2.9 0.1-3.9 0.4-3.9 3.6v17.7c0 3.1 1 3.5 3.9 3.6v0.7h-11.8v-0.7zM422.1 530.7c-2.5 0.3-3.8 0.4-3.8 5.1v20.9h-0.7l-17.5-21.8h-0.1v15.5c0 4.1 0.9 5 3.7 5.1v0.7h-9.3v-0.7c3-0.2 3.8-0.8 3.8-5.1v-17.5c-1.6-2-2.3-2.2-3.8-2.2v-0.8h6.8l15.2 19.1h0.1v-13.3c0-4.6-1.1-4.9-3.8-5.1v-0.8h9.3v0.9h0.1zM433.3 532.9c0-0.8 0-1.6 1.9-1.6 5 0 7.2 1.1 9.1 2.8 2.7 2.5 3.7 5.7 3.7 9 0 11.6-9.8 11.6-12.3 11.6-1.9 0-2.4-0.3-2.4-1.6v-20.2z m-7.5 23.3h11.3c12.2 0 15.3-7.8 15.3-13.1 0-8.9-6.3-13.3-15.9-13.3h-10.7v0.8c3.1 0.2 3.5 0.6 3.5 3.6v17.7c0 2.8-0.5 3.4-3.5 3.6v0.7zM484.2 530.7c-3.1 0.3-3.7 0.9-3.7 5.1v10.4c0 3.2 0 10.7-10.3 10.7-9.8 0-9.8-7.8-9.8-10.1v-12.4c0-2.9-0.6-3.4-3.6-3.6v-0.8H468v0.8c-3.1 0.2-3.6 0.8-3.6 3.6V547c0 2.5 0 8 6.9 8 3.1 0 5.4-1.3 6.5-3.1 0.5-0.9 0.9-2.2 0.9-5.4v-10.7c0-4.3-1-4.9-3.7-5.1v-0.8h9.2v0.8zM506 537.8h-1c-0.7-3.3-3.2-6.8-7.4-6.8-2 0-4 1.2-4 3.7 0 6 13.3 6.8 13.3 14.9 0 3.4-2.7 7.2-8.4 7.2-3 0-5-1.4-6.2-1.4-0.8 0-1.2 0.7-1.2 1.3h-0.9l-1.2-8.4h0.9c0.8 1.9 2.8 7 8.2 7 3.2 0 4.8-2.3 4.8-4.4 0-2.3-0.6-3.6-6.5-7-3.7-2.1-6.2-3.9-6.2-7.8 0-4.5 3.6-6.8 7.2-6.8 2.4 0 4.5 1.4 5.5 1.4 1.1 0 1.3-0.9 1.4-1.4h0.8l0.9 8.5zM529.8 556.2h-11.6v-0.7c3.6-0.2 3.7-1.1 3.7-4v-19.9h-2.2c-4.4 0-5.4 0.7-6.3 5.1h-1l0.2-6.8H535l0.2 6.8h-1c-0.8-4.4-2-5.1-6.3-5.1H526v20.3c0 2.7 0.5 3.5 3.8 3.6v0.7zM564.7 556.2h-6.4l-9.5-12.2-2.2 0.1v7.8c0 2.7 0.4 3.4 3.6 3.6v0.7h-11v-0.7c3.2-0.2 3.4-1 3.4-4v-17.2c0-2.9-0.6-3.3-3.4-3.6v-0.8h11c3.5 0 10.1 0.9 10.1 7 0 5.3-5.2 6.3-7.2 6.7l8.2 10.1c0.9 1.1 1.8 1.8 3.5 1.9v0.6h-0.1z m-18.1-13.6c3.3 0 9.3-0.1 9.3-5.8 0-5.3-5.2-5.4-6.8-5.4-2.1 0-2.5 0.3-2.5 1.4v9.8zM568.1 555.5c3.4-0.1 3.9-0.8 3.9-3.6v-17.7c0-2.9-0.6-3.4-3.9-3.6v-0.8h11.8v0.8c-2.9 0.1-3.9 0.4-3.9 3.6v17.7c0 3.1 0.9 3.5 3.9 3.6v0.7h-11.8v-0.7zM591.6 546l4.6-11 4.6 11h-9.2z m19.5 9.5c-1.7-0.1-2.3-0.6-3.6-3.5l-9.9-22.6h-0.8l-8.3 19.5c-0.8 1.7-2 4.7-2.9 5.6-0.7 0.8-1.4 0.8-2 0.9v0.7h7.9v-0.7c-0.8 0-2.7 0-2.7-1.7 0-0.4 0.1-1 0.3-1.5l1.8-4.7h10.4l1.6 3.8c0.3 0.6 0.8 1.9 0.8 2.5 0 1.5-1.3 1.5-2.8 1.5v0.7H611v-0.5h0.1zM625.8 530.7c-2.7 0.2-3.7 0.4-3.7 3.6V553c0 1.6 0.7 1.6 4 1.6 6 0 8.5-0.1 10.8-5.4h1l-1.9 6.9h-21.4v-0.7c2.5-0.2 3.5-0.5 3.5-3.6v-17.7c0-3.1-0.9-3.4-3.5-3.6v-0.8h11.2v1zM661.6 543.3c3.8 0 5.1 0.2 6.4 0.6 2.1 0.7 4 2 4 5.2 0 5.3-4.8 5.7-7.4 5.7-2.3 0-3-0.1-3-1.6v-9.9z m-7.8-12.6c3.3 0.2 3.8 0.6 3.8 3.6V552c0 2.8-0.5 3.5-3.8 3.6v0.7h13.3c8.8 0 9.6-5.5 9.6-7 0-4.2-3.2-6.1-6.6-6.8v-0.1c1.8-0.5 5.3-1.3 5.3-5.7 0-6.2-7-6.7-10.4-6.7h-11.1v0.7h-0.1z m7.8 1.9c0-0.6 0.1-1.1 0.9-1.1 0.4 0 0.9-0.1 1.8-0.1 2.8 0 6.9 0.8 6.9 5.5s-4.7 4.8-5.8 4.8l-3.8 0.1v-9.2zM708.7 556.2h-10.2v-0.7c1.5 0 2.8-0.1 2.8-1.5 0-0.6-0.5-1.9-0.7-2.5l-1.6-3.8h-10.4l-1.8 4.7c-0.2 0.5-0.3 1.1-0.3 1.5 0 1.7 1.9 1.7 2.7 1.7v0.7h-7.9v-0.7c0.6-0.1 1.3-0.1 2-0.9 0.9-1 2.2-3.9 2.9-5.6l8.3-19.5h0.8l9.9 22.6c1.3 2.9 1.8 3.3 3.6 3.5v0.5h-0.1zM698.4 546l-4.6-11-4.6 11h9.2zM739.8 530.7c-2.5 0.3-3.8 0.4-3.8 5.1v20.9h-0.7l-17.5-21.8h-0.1v15.5c0 4.1 0.8 5 3.7 5.1v0.7h-9.3v-0.7c3-0.2 3.8-0.8 3.8-5.1v-17.5c-1.6-2-2.2-2.2-3.8-2.2v-0.8h6.8l15.2 19.1h0.1v-13.3c0-4.6-1.1-4.9-3.8-5.1v-0.8h9.4v0.9zM759.2 529.9h10.4v0.8c-2.4 0.2-3.2 0.3-6 3.1l-7.5 7.5 9.3 9.9c2.6 2.9 4 4.4 6.3 4.3v0.7h-12.1v-0.7c2.1-0.1 2.8-0.1 2.8-1 0-1.2-3.8-5.3-5.2-6.7l-4.2-4.2-1 0.8v7.4c0 2.8 0.5 3.4 3.6 3.6v0.7h-11.2v-0.7c3.1-0.2 3.6-0.8 3.6-4v-17.2c0-3.1-0.9-3.4-3.6-3.6v-0.8h11.3v0.8c-3.1 0.2-3.6 0.6-3.6 3.6v8.2c9-8.1 10.1-9.1 10.1-10.5 0-1.1-0.8-1.2-2.7-1.2v-0.8h-0.3zM809.9 538.3c-1-4.2-3.8-7.3-8.7-7.3-2 0-4.3 0.8-6 2.4-1.6 1.5-3.3 4.1-3.3 9.8 0 8.4 4.7 11.9 9.7 11.9 4.9 0 7.7-2.8 9-4l0.7 0.7c0 0.1-3.5 5-10.8 5-6.4 0-13.3-3.8-13.3-13.7 0-8.9 6.7-13.7 13.5-13.7 3.5 0 6.1 1.3 7 1.3 0.2 0 1.5 0 1.8-1.3h0.8l0.3 9h-0.7v-0.1zM829.5 555.4c-4.4 0-8.5-3.5-8.5-12.3 0-9.1 4.4-12.3 8.5-12.3s8.5 3.2 8.5 12.3c-0.1 8.7-4.1 12.3-8.5 12.3z m0 1.4c7.2 0 13-5.2 13-13.7 0-9.1-6.5-13.8-13-13.8s-13 4.6-13 13.8c0 8.5 5.8 13.7 13 13.7zM851.2 556.7c0.8 0 2.2-0.7 2.2-2.1 0-1.2-1-2.3-2.2-2.3-1.2 0-2.2 1-2.2 2.3 0 1.4 1.3 2.1 2.2 2.1zM861.8 561.8c1.2-0.4 4.5-3 4.5-5.9 0-3.3-2.3-3.8-3.2-3.8-1 0-2.3 0.6-2.3 2.3 0 1.6 1.4 2 2.5 2 0.3 0 0.5 0 0.6-0.1 0.2 0 0.3-0.1 0.4-0.1 0.3 0 0.5 0.2 0.5 0.6 0 0.8-0.6 2.5-3.2 4.2l0.2 0.8zM882.5 530.7c-2.7 0.2-3.7 0.4-3.7 3.6V553c0 1.6 0.7 1.6 4 1.6 6 0 8.5-0.1 10.8-5.4h1l-1.9 6.9h-21.4v-0.7c2.5-0.2 3.5-0.5 3.5-3.6v-17.7c0-3.1-0.9-3.4-3.5-3.6v-0.8h11.2v1zM911.8 556.2h-11.6v-0.7c3.6-0.2 3.7-1.1 3.7-4v-19.9h-2.1c-4.4 0-5.4 0.7-6.3 5.1h-0.9l0.3-6.8h22.4l0.2 6.8h-0.9c-0.8-4.4-1.9-5.1-6.3-5.1H908v20.3c0 2.7 0.5 3.5 3.8 3.6v0.7zM928.7 532.9c0-0.8 0-1.6 1.9-1.6 5 0 7.2 1.1 9.1 2.8 2.8 2.5 3.7 5.7 3.7 9 0 11.6-9.8 11.6-12.3 11.6-1.9 0-2.4-0.3-2.4-1.6v-20.2z m-7.5 23.3h11.3c12.2 0 15.3-7.8 15.3-13.1 0-8.9-6.3-13.3-15.9-13.3h-10.7v0.8c3 0.2 3.5 0.6 3.5 3.6v17.7c0 2.8-0.5 3.4-3.5 3.6v0.7zM956.6 556.7c0.8 0 2.2-0.7 2.2-2.1 0-1.2-1-2.3-2.2-2.3-1.2 0-2.2 1-2.2 2.3 0 1.4 1.4 2.1 2.2 2.1z" fill="#004186" p-id="24621"></path></svg>