<?xml version="1.0" standalone="no"?><!DOCTYPE svg PUBLIC "-//W3C//DTD SVG 1.1//EN" "http://www.w3.org/Graphics/SVG/1.1/DTD/svg11.dtd"><svg t="1542263390689" class="icon" style="" viewBox="0 0 2560 1024" version="1.1" xmlns="http://www.w3.org/2000/svg" p-id="25871" xmlns:xlink="http://www.w3.org/1999/xlink" width="500" height="200"><defs><style type="text/css"></style></defs><path d="M307.2 291.84c43.52 15.36 84.48 58.88 84.48 107.52v378.88c10.24 0 20.48 2.56 30.72 2.56 10.24 0 20.48 0 30.72-2.56V399.36c0-48.64 40.96-92.16 81.92-107.52 5.12-2.56 7.68-5.12 7.68-10.24s-2.56-10.24-7.68-12.8c-33.28-15.36-71.68-25.6-112.64-25.6-40.96 0-79.36 10.24-112.64 25.6-5.12 2.56-7.68 5.12-7.68 12.8-2.56 5.12 0 7.68 5.12 10.24z" fill="#D7000F" p-id="25872"></path><path d="M350.72 770.56V422.4c0-38.4-20.48-69.12-51.2-81.92v409.6c15.36 10.24 33.28 15.36 51.2 20.48z m192-20.48v-409.6c-30.72 12.8-51.2 46.08-51.2 81.92v348.16c17.92-5.12 35.84-10.24 51.2-20.48z m-332.8-286.72c2.56 0 5.12 2.56 5.12 5.12 5.12 15.36 17.92 28.16 33.28 28.16 5.12 0 10.24-2.56 12.8-5.12v-192C194.56 348.16 153.6 424.96 153.6 512c0 87.04 40.96 163.84 104.96 212.48v-192c-2.56-2.56-7.68-5.12-12.8-5.12-15.36 0-28.16 12.8-33.28 28.16 0 2.56-2.56 5.12-5.12 5.12s-2.56-2.56-5.12-2.56c-10.24-12.8-15.36-28.16-15.36-46.08s5.12-33.28 15.36-46.08c2.56 0 5.12-2.56 7.68-2.56z m460.8 64c-15.36 0-28.16 12.8-33.28 28.16 0 2.56-2.56 5.12-5.12 5.12s-2.56-2.56-5.12-2.56c-7.68-12.8-12.8-28.16-12.8-46.08s5.12-33.28 15.36-46.08c0 0 2.56-2.56 5.12-2.56s5.12 2.56 5.12 5.12c5.12 15.36 17.92 28.16 33.28 28.16 7.68 0 15.36-5.12 17.92-12.8-7.68-74.24-46.08-138.24-102.4-181.76v422.4c53.76-40.96 89.6-102.4 99.84-171.52v-10.24c-5.12-10.24-10.24-15.36-17.92-15.36z" fill="#D7000F" p-id="25873"></path><path d="M1285.12 778.24v-5.12c-5.12 0-7.68-2.56-7.68-2.56-2.56 0-2.56-2.56-2.56-5.12v-5.12l5.12-12.8h38.4l5.12 12.8v5.12c0 2.56 0 2.56-2.56 5.12-2.56 0-5.12 2.56-7.68 2.56v5.12h43.52v-5.12c-2.56 0-5.12 0-7.68-2.56-2.56-2.56-5.12-5.12-5.12-7.68l-33.28-74.24h-5.12l-35.84 76.8c-2.56 2.56-2.56 7.68-5.12 7.68-2.56 2.56-5.12 2.56-7.68 2.56v5.12h28.16v-2.56z m657.92 0c10.24 0 17.92-2.56 23.04-7.68 5.12-5.12 10.24-10.24 10.24-17.92 0-5.12-2.56-12.8-7.68-15.36-5.12-5.12-10.24-7.68-17.92-7.68 7.68-2.56 12.8-5.12 15.36-7.68 5.12-5.12 5.12-7.68 5.12-12.8 0-7.68-2.56-12.8-7.68-15.36-5.12-2.56-12.8-5.12-23.04-5.12h-43.52v2.56c5.12 0 7.68 0 7.68 2.56 2.56 2.56 2.56 5.12 2.56 7.68v61.44c0 2.56 0 5.12-2.56 7.68-2.56 2.56-5.12 2.56-7.68 2.56v5.12h46.08z m-20.48-84.48h12.8c7.68 0 12.8 2.56 15.36 5.12 2.56 2.56 5.12 7.68 5.12 12.8s-2.56 10.24-5.12 12.8c-5.12 2.56-10.24 5.12-17.92 5.12H1920v-35.84h2.56z m94.72 84.48v-5.12c-5.12 0-7.68-2.56-7.68-2.56-2.56 0-2.56-2.56-2.56-5.12v-5.12l5.12-12.8h38.4l5.12 12.8v5.12c0 2.56 0 2.56-2.56 5.12-2.56 0-5.12 2.56-7.68 2.56v5.12h40.96v-5.12c-2.56 0-5.12 0-7.68-2.56-2.56-2.56-5.12-5.12-5.12-7.68l-33.28-74.24h-5.12l-35.84 76.8c-2.56 2.56-2.56 7.68-5.12 7.68-2.56 2.56-5.12 2.56-7.68 2.56v5.12h30.72v-2.56zM1016.32 360.96v5.12c0 2.56 0 10.24-2.56 20.48-5.12 20.48-7.68 28.16-12.8 30.72-2.56 0-17.92 5.12-64 10.24 0-12.8 0-53.76 2.56-64 53.76-5.12 71.68-5.12 76.8-2.56z m-112.64 7.68v61.44c-10.24 0-51.2 5.12-61.44 5.12 0-10.24-5.12-51.2-5.12-58.88 7.68 0 53.76-7.68 66.56-7.68z m455.68 168.96c40.96-7.68 53.76-7.68 58.88-7.68-2.56 15.36-2.56 28.16-7.68 38.4-12.8 2.56-30.72 5.12-56.32 7.68 0-7.68-5.12-30.72-5.12-38.4h10.24z m465.92-168.96c2.56-2.56 2.56-2.56 5.12-2.56-2.56 10.24-2.56 20.48-5.12 33.28h-15.36c-5.12 0-12.8 2.56-23.04 7.68v-25.6c12.8-5.12 35.84-10.24 38.4-12.8z m7.68-53.76V320c0 5.12 0 10.24-2.56 20.48 0 2.56 0 7.68-2.56 12.8-5.12-5.12-7.68-7.68-17.92-7.68 0 0-20.48 7.68-28.16 10.24V332.8c35.84-15.36 48.64-17.92 51.2-17.92zM1664 258.56h-7.68c-2.56 2.56-2.56 12.8-2.56 23.04 0 12.8-2.56 20.48-5.12 30.72-15.36 51.2-40.96 94.72-74.24 135.68-7.68 7.68-17.92 17.92-7.68 17.92 5.12 0 15.36-5.12 23.04-7.68 10.24-5.12 23.04-15.36 40.96-33.28 2.56 2.56 5.12 5.12 10.24 5.12h12.8c2.56 2.56 2.56 7.68 2.56 12.8v17.92c-15.36 5.12-30.72 7.68-51.2 12.8-7.68 2.56-15.36 2.56-15.36 7.68 0 2.56 2.56 7.68 7.68 12.8 5.12 5.12 12.8 10.24 17.92 7.68 5.12 0 17.92-5.12 23.04-5.12 5.12-2.56 12.8-2.56 17.92-5.12v30.72c-2.56 15.36-7.68 23.04-12.8 25.6-5.12 2.56-7.68 5.12-10.24 7.68v5.12c0 5.12 5.12 20.48 10.24 30.72 2.56 5.12 5.12 5.12 5.12 5.12 7.68 2.56 12.8-2.56 20.48-10.24l15.36-15.36c7.68-7.68 20.48-17.92 33.28-30.72s20.48-17.92 23.04-23.04c5.12-5.12 7.68-7.68 7.68-10.24 0-2.56-10.24 0-56.32 20.48v-46.08c2.56 0 5.12-2.56 5.12-2.56 17.92-5.12 35.84-10.24 38.4-12.8 2.56 0 10.24 0 10.24-5.12 0-2.56-2.56-10.24-10.24-15.36-7.68-5.12-15.36-7.68-20.48-5.12l-5.12 2.56c-2.56 0 0 0-10.24 5.12 0 0-5.12 2.56-7.68 2.56v-5.12c0-2.56 2.56-7.68 2.56-10.24 2.56-7.68-5.12-10.24-5.12-10.24 12.8-2.56 33.28-10.24 33.28-10.24 5.12-2.56 12.8-5.12 12.8-7.68 2.56-2.56-2.56-7.68-7.68-12.8-5.12-5.12-12.8-10.24-25.6-5.12-7.68 2.56-20.48 5.12-20.48 5.12-17.92 5.12-28.16 10.24-38.4 12.8 7.68-10.24 12.8-20.48 20.48-33.28 10.24 2.56 20.48 0 64-10.24 5.12-2.56 12.8-2.56 15.36-7.68 0-2.56 0-7.68-5.12-12.8s-12.8-10.24-17.92-7.68c-12.8 2.56-20.48 5.12-35.84 10.24h-2.56c2.56-2.56 2.56-5.12 5.12-10.24 10.24-23.04 15.36-30.72 17.92-33.28 2.56-5.12 7.68-7.68 7.68-10.24 0-2.56-5.12-10.24-12.8-15.36-17.92-12.8-30.72-17.92-35.84-17.92z m171.52 17.92c-2.56 0-5.12 2.56-7.68 7.68l-2.56 2.56s-10.24 5.12-51.2 20.48c-15.36-5.12-25.6-5.12-30.72-2.56-5.12 2.56 0 15.36 2.56 20.48 2.56 7.68 7.68 15.36 7.68 40.96l2.56 156.16c-2.56 23.04-2.56 25.6-10.24 35.84-7.68 10.24-7.68 10.24-7.68 17.92 2.56 10.24 10.24 28.16 15.36 30.72 7.68 2.56 15.36-5.12 20.48-12.8 5.12-5.12 17.92-17.92 30.72-33.28 23.04-25.6 33.28-35.84 30.72-38.4 0-2.56-10.24-2.56-53.76 15.36v-84.48c12.8 12.8 23.04 23.04 30.72 33.28 15.36 17.92 33.28 35.84 51.2 53.76 20.48 20.48 38.4 20.48 87.04 0 10.24-5.12 20.48-10.24 20.48-15.36-2.56-2.56-10.24-5.12-23.04-7.68-38.4-7.68-71.68-23.04-102.4-43.52 12.8-10.24 23.04-17.92 28.16-25.6l12.8-12.8c5.12-5.12 10.24-2.56 10.24-7.68 0-5.12-7.68-15.36-12.8-20.48-10.24-7.68-23.04-7.68-25.6-5.12-5.12 2.56-2.56 2.56-2.56 5.12v10.24c0 2.56-2.56 17.92-25.6 43.52-5.12-5.12-17.92-15.36-28.16-23.04-5.12-2.56-7.68-5.12-10.24-10.24 5.12 0 10.24-2.56 10.24-2.56 10.24-2.56 15.36-2.56 17.92-5.12 2.56 2.56 5.12 2.56 7.68 5.12 5.12 2.56 10.24-2.56 12.8-5.12 2.56-2.56 7.68-12.8 10.24-20.48 2.56-12.8 7.68-28.16 10.24-48.64 2.56-7.68 2.56-12.8 2.56-15.36 2.56-5.12 5.12-10.24 10.24-17.92 2.56-7.68 7.68-10.24 7.68-15.36l-2.56-2.56c-10.24-10.24-23.04-17.92-46.08-20.48l2.56-2.56z m481.28 110.08c-10.24 2.56-71.68 17.92-145.92 30.72-7.68 2.56-17.92 2.56-17.92 5.12-2.56 5.12 2.56 10.24 5.12 12.8 5.12 2.56 12.8 7.68 25.6 10.24h2.56c5.12 0 10.24-2.56 17.92-2.56 5.12-2.56 17.92-5.12 53.76-10.24 5.12 15.36 7.68 40.96 7.68 79.36v10.24c0 35.84-2.56 46.08-2.56 51.2-2.56 0-7.68 0-15.36-2.56-17.92-5.12-38.4-15.36-35.84-7.68 0 5.12 12.8 15.36 23.04 28.16 7.68 10.24 12.8 15.36 17.92 25.6 5.12 10.24 7.68 20.48 17.92 15.36 7.68-2.56 20.48-10.24 28.16-23.04 5.12-7.68 7.68-15.36 10.24-23.04 0-12.8-5.12-33.28-5.12-48.64-2.56-20.48-2.56-35.84-2.56-43.52V473.6c0-7.68 0-10.24 2.56-17.92 2.56-2.56 2.56-5.12 2.56-10.24v-5.12c-2.56-5.12-5.12-10.24-10.24-12.8 17.92-2.56 38.4-2.56 56.32-2.56h30.72c5.12 0 20.48 0 25.6-5.12 5.12-7.68-2.56-20.48-15.36-28.16-10.24-7.68-25.6-10.24-43.52-7.68-5.12-5.12-25.6 0-33.28 2.56z m-181.76-30.72c5.12-2.56 7.68 0 10.24 0 5.12 2.56 17.92 12.8 25.6 30.72 0 0 2.56 2.56 0 5.12 0 2.56-2.56 5.12-7.68 7.68l-17.92 17.92c-7.68 7.68-15.36 15.36-17.92 20.48 7.68 10.24 12.8 17.92 12.8 28.16 0 2.56 0 10.24-2.56 15.36v92.16c0 20.48-5.12 40.96-10.24 43.52-5.12 2.56-10.24-2.56-12.8-7.68-2.56-5.12-10.24-12.8-12.8-20.48-2.56-5.12-5.12-12.8-5.12-15.36 0-2.56 0-5.12 2.56-7.68 0 0 2.56-5.12 2.56-10.24 7.68-23.04 5.12-46.08 5.12-71.68V460.8c-23.04 23.04-43.52 35.84-58.88 43.52-17.92 7.68-35.84 10.24-38.4 10.24-5.12-2.56 2.56-7.68 17.92-20.48 28.16-20.48 51.2-46.08 74.24-74.24 23.04-30.72 25.6-48.64 25.6-48.64 0-7.68 2.56-12.8 7.68-15.36z m158.72-53.76c-5.12 0-10.24 2.56-20.48 7.68-10.24 5.12-25.6 10.24-51.2 15.36-10.24 2.56-20.48 2.56-20.48 7.68 0 5.12 2.56 7.68 7.68 12.8 5.12 2.56 17.92 10.24 40.96 5.12 17.92-2.56 79.36-17.92 87.04-23.04l5.12-5.12c0-5.12-10.24-12.8-12.8-15.36-12.8-10.24-30.72-7.68-35.84-5.12z m-151.04-40.96c7.68 2.56 23.04 10.24 35.84 28.16 0 0 2.56 2.56 0 5.12 0 2.56-2.56 5.12-12.8 12.8s-17.92 15.36-25.6 23.04c-30.72 28.16-51.2 43.52-61.44 48.64-15.36 7.68-28.16 7.68-30.72 5.12-2.56-2.56 10.24-15.36 20.48-23.04 7.68-7.68 33.28-33.28 53.76-58.88 10.24-15.36 10.24-17.92 10.24-23.04 0-7.68 0-15.36 2.56-15.36 2.56-2.56 5.12-2.56 7.68-2.56zM1410.56 499.2s-38.4 12.8-74.24 15.36c0 0-2.56 0-7.68-2.56-15.36-2.56-23.04-2.56-25.6 0-5.12 5.12-2.56 7.68 0 10.24l2.56 7.68c0 2.56 5.12 10.24 15.36 61.44 2.56 12.8 7.68 20.48 12.8 25.6l2.56 2.56c2.56 0 5.12 0 7.68-2.56 2.56-2.56 2.56-5.12 7.68-12.8 30.72-2.56 53.76-5.12 66.56-5.12 28.16-2.56 33.28-2.56 33.28-7.68 0-2.56-2.56-10.24-7.68-17.92 12.8-17.92 10.24-17.92 15.36-23.04 5.12-5.12 12.8-10.24 12.8-17.92 0-5.12-15.36-23.04-46.08-33.28h-2.56c0-5.12-2.56-5.12-12.8 0z m-2.56-53.76c-2.56 0-5.12 0-46.08 10.24-23.04 5.12-28.16 5.12-28.16 5.12-12.8 2.56-20.48 0-20.48 7.68v5.12l7.68 7.68c7.68 5.12 12.8 5.12 25.6 5.12 35.84-2.56 61.44-7.68 79.36-10.24h5.12c7.68-2.56 12.8 0 12.8-7.68 0-5.12-5.12-10.24-7.68-15.36-5.12-5.12-12.8-10.24-28.16-7.68z m10.24-53.76c-7.68 0-23.04 2.56-43.52 7.68-20.48 5.12-38.4 7.68-48.64 7.68-5.12 0-12.8 2.56-15.36 5.12-2.56 2.56 0 7.68 5.12 12.8 0 0 10.24 10.24 30.72 7.68 0 0 30.72-2.56 71.68-10.24l15.36-2.56c7.68-2.56 17.92 0 20.48-5.12 2.56-2.56 0-10.24-7.68-15.36-5.12-2.56-15.36-7.68-28.16-7.68z m20.48-56.32c-12.8 2.56-84.48 15.36-158.72 23.04-7.68 0-15.36 2.56-15.36 2.56-2.56 2.56-7.68 5.12 0 10.24 0 0 17.92 15.36 30.72 17.92h2.56c10.24 0 15.36-2.56 23.04-5.12s23.04-5.12 23.04-5.12c46.08-10.24 66.56-15.36 135.68-12.8 0 0 15.36 2.56 20.48 2.56 5.12 0 15.36 0 17.92-5.12 2.56-5.12-2.56-12.8-7.68-17.92-5.12-5.12-25.6-17.92-46.08-15.36-12.8 0-12.8 0-25.6 5.12z m-204.8-61.44c0-7.68 7.68-5.12 7.68-5.12 23.04 5.12 38.4 15.36 43.52 35.84v2.56c0 2.56 0 2.56-7.68 12.8-5.12 7.68-12.8 17.92-17.92 25.6-5.12 5.12-10.24 15.36-17.92 28.16 10.24 10.24 15.36 20.48 15.36 28.16v10.24c0 2.56-2.56 30.72-2.56 156.16-2.56 20.48-5.12 28.16-10.24 35.84 0 0-5.12 10.24-10.24 7.68-5.12-2.56-20.48-20.48-23.04-43.52v-5.12c5.12-23.04 10.24-46.08 10.24-69.12 0-7.68 0-15.36 2.56-23.04v-28.16c0-12.8-2.56-25.6-2.56-35.84-23.04 28.16-40.96 43.52-56.32 53.76-20.48 12.8-35.84 15.36-38.4 15.36-2.56-2.56 2.56-5.12 5.12-10.24 5.12-5.12 7.68-5.12 17.92-17.92 20.48-25.6 43.52-58.88 58.88-81.92 15.36-25.6 25.6-61.44 28.16-66.56v-10.24c0-10.24-2.56-12.8-2.56-15.36z m112.64 0c7.68-2.56 15.36-5.12 30.72-2.56 12.8 2.56 20.48 5.12 28.16 7.68 7.68 7.68 12.8 15.36 12.8 25.6 0 17.92-7.68 23.04-12.8 23.04h-5.12c-23.04-12.8-38.4-25.6-56.32-46.08-2.56-2.56-5.12-7.68 2.56-7.68zM903.68 243.2c-15.36 0-15.36 2.56-15.36 5.12s2.56 7.68 5.12 15.36c2.56 5.12 5.12 10.24 7.68 43.52v33.28c-10.24 0-74.24 7.68-76.8 7.68-28.16-10.24-46.08-7.68-48.64 0 0 2.56 0 7.68 2.56 12.8 0 0 15.36 28.16 23.04 79.36 5.12 28.16 12.8 35.84 12.8 38.4 2.56 2.56 5.12 5.12 12.8 2.56 2.56-2.56 7.68-7.68 12.8-20.48 7.68 0 48.64-5.12 58.88-5.12-2.56 112.64 5.12 156.16 7.68 163.84 2.56 10.24 5.12 17.92 10.24 12.8 5.12-5.12 10.24-12.8 15.36-48.64 2.56-15.36 2.56-33.28 5.12-61.44v-71.68c35.84-2.56 66.56-2.56 79.36-2.56 15.36 0 30.72 2.56 33.28 0 5.12-2.56 2.56-10.24 0-15.36-2.56-2.56-5.12-7.68-7.68-15.36 20.48-33.28 30.72-40.96 33.28-46.08l5.12-5.12c5.12-5.12 7.68-7.68 7.68-10.24 0-2.56-2.56-7.68-2.56-7.68-10.24-12.8-25.6-23.04-51.2-33.28h-2.56c-2.56 0-10.24 2.56-10.24 2.56-2.56 2.56-23.04 5.12-81.92 12.8 2.56-46.08 5.12-51.2 7.68-53.76 0 0 0-2.56 2.56-5.12s2.56-5.12 2.56-5.12c0-2.56 0-5.12-2.56-5.12-15.36-12.8-33.28-15.36-46.08-17.92z m1328.64 491.52L2265.6 704l5.12-5.12 2.56-2.56c0-2.56 0-2.56-2.56-2.56s-5.12-2.56-7.68-2.56v-5.12h38.4v5.12c-2.56 0-5.12 2.56-7.68 2.56-2.56 2.56-5.12 2.56-7.68 5.12l-25.6 23.04 25.6 38.4c2.56 5.12 7.68 7.68 7.68 10.24 2.56 2.56 5.12 2.56 10.24 2.56v5.12h-40.96v-5.12h7.68c2.56 0 2.56-2.56 2.56-2.56V768s-2.56-2.56-2.56-5.12l-20.48-28.16-15.36 12.8v17.92c0 2.56 0 5.12 2.56 7.68 2.56 2.56 5.12 2.56 7.68 2.56v5.12h-35.84v-5.12c5.12 0 7.68 0 7.68-2.56 2.56-2.56 2.56-5.12 2.56-7.68V704c0-2.56 0-5.12-2.56-7.68-2.56-5.12-5.12-5.12-10.24-5.12v-5.12h35.84v5.12c-5.12 0-7.68 0-7.68 2.56-2.56 2.56-2.56 5.12-2.56 7.68v33.28z m-117.76 28.16c0 2.56 0 7.68 2.56 7.68 2.56 2.56 5.12 2.56 7.68 2.56v5.12h-30.72v-5.12c2.56 0 7.68 0 7.68-2.56 2.56-2.56 2.56-5.12 2.56-7.68v-66.56c0-2.56-2.56-2.56-5.12-2.56 0-2.56-2.56-2.56-5.12-2.56v-5.12h25.6l53.76 66.56v-51.2c0-2.56 0-7.68-2.56-7.68-2.56-2.56-5.12-2.56-10.24-2.56v-5.12h30.72v5.12c-5.12 0-7.68 0-7.68 2.56-2.56 2.56-2.56 5.12-2.56 7.68v76.8H2176l-61.44-76.8v61.44zM2032.64 704l15.36 35.84h-30.72l15.36-35.84z m-94.72 30.72c7.68 0 12.8 2.56 15.36 5.12 5.12 2.56 5.12 7.68 5.12 12.8s-2.56 10.24-7.68 12.8c-5.12 2.56-10.24 5.12-20.48 5.12-5.12 0-7.68 0-10.24-2.56-2.56 0-2.56-5.12-2.56-7.68v-28.16h20.48v2.56z m-122.88 20.48l5.12 2.56c-5.12 7.68-10.24 12.8-15.36 17.92-5.12 2.56-12.8 5.12-23.04 5.12-5.12 0-12.8 0-17.92-2.56-5.12-2.56-10.24-5.12-12.8-7.68-5.12-5.12-10.24-10.24-12.8-15.36-2.56-5.12-5.12-12.8-5.12-20.48 0-5.12 0-12.8 2.56-17.92l7.68-15.36c5.12-5.12 10.24-10.24 15.36-12.8 5.12-2.56 12.8-5.12 20.48-5.12 5.12 0 10.24 0 15.36 2.56 5.12 2.56 7.68 2.56 7.68 2.56h2.56l2.56-2.56h10.24v28.16h-5.12c-2.56-7.68-5.12-12.8-10.24-17.92-5.12-5.12-10.24-5.12-17.92-5.12-10.24 0-17.92 2.56-23.04 10.24-5.12 7.68-7.68 17.92-7.68 30.72s2.56 20.48 10.24 28.16c5.12 7.68 15.36 10.24 25.6 10.24 5.12 0 10.24-2.56 15.36-5.12 2.56 0 7.68-5.12 10.24-10.24z m-107.52 7.68c0 2.56 0 5.12 2.56 7.68 2.56 2.56 5.12 2.56 10.24 2.56v5.12h-38.4v-5.12c5.12 0 7.68 0 10.24-2.56 2.56-2.56 2.56-5.12 2.56-7.68v-61.44c0-2.56 0-5.12-2.56-7.68-2.56-2.56-5.12-2.56-10.24-2.56v-5.12h38.4v5.12c-5.12 0-7.68 0-10.24 2.56-2.56 2.56-2.56 5.12-2.56 7.68v61.44z m-38.4-76.8l2.56 23.04H1664c0-5.12-2.56-10.24-5.12-12.8-2.56-2.56-7.68-2.56-15.36-2.56h-10.24v69.12c0 2.56 0 5.12 2.56 7.68 2.56 2.56 5.12 2.56 10.24 2.56v5.12h-38.4v-5.12c5.12 0 7.68 0 10.24-2.56 2.56-2.56 2.56-5.12 2.56-7.68v-69.12h-7.68c-7.68 0-10.24 0-12.8 2.56-2.56 2.56-5.12 7.68-5.12 12.8h-7.68v-23.04h81.92z m-104.96 76.8c0 2.56 0 5.12 2.56 7.68 2.56 2.56 5.12 2.56 10.24 2.56v5.12H1536v-5.12c5.12 0 7.68 0 10.24-2.56 2.56-2.56 2.56-5.12 2.56-7.68v-61.44c0-2.56 0-5.12-2.56-7.68-2.56-2.56-5.12-2.56-10.24-2.56v-5.12h38.4v5.12c-5.12 0-7.68 0-10.24 2.56-2.56 2.56-2.56 5.12-2.56 7.68v61.44h2.56z m-46.08-7.68l5.12 2.56c-5.12 7.68-10.24 12.8-15.36 17.92-5.12 2.56-12.8 5.12-23.04 5.12-5.12 0-12.8 0-17.92-2.56-5.12-2.56-10.24-5.12-12.8-7.68-5.12-5.12-10.24-10.24-12.8-15.36-2.56-5.12-5.12-12.8-5.12-20.48 0-5.12 0-12.8 2.56-17.92l7.68-15.36c5.12-5.12 10.24-10.24 15.36-12.8 5.12-2.56 12.8-5.12 20.48-5.12 5.12 0 10.24 0 15.36 2.56 5.12 2.56 7.68 2.56 7.68 2.56h2.56l2.56-2.56h5.12v28.16h-5.12c-2.56-7.68-5.12-12.8-10.24-17.92 0-5.12-7.68-5.12-12.8-5.12-10.24 0-17.92 2.56-23.04 10.24-5.12 7.68-10.24 17.92-10.24 30.72s2.56 20.48 10.24 28.16c5.12 7.68 15.36 10.24 25.6 10.24 5.12 0 10.24-2.56 15.36-5.12 2.56 0 7.68-5.12 12.8-10.24zM1303.04 704l15.36 35.84h-30.72l15.36-35.84z m-133.12 58.88c0 2.56 0 7.68 2.56 7.68 2.56 2.56 5.12 2.56 7.68 2.56v5.12h-30.72v-5.12c2.56 0 7.68 0 7.68-2.56 2.56-2.56 2.56-5.12 2.56-7.68v-66.56c0-2.56-2.56-2.56-5.12-2.56 0-2.56-2.56-2.56-5.12-2.56v-5.12h25.6l53.76 66.56v-51.2c0-2.56 0-7.68-2.56-7.68-2.56-2.56-5.12-2.56-10.24-2.56v-5.12h30.72v5.12c-5.12 0-7.68 0-7.68 2.56-2.56 2.56-2.56 5.12-2.56 7.68v76.8h-5.12l-61.44-76.8v61.44z m-48.64 0c0 2.56 0 5.12 2.56 7.68 2.56 2.56 5.12 2.56 10.24 2.56v5.12h-38.4v-5.12c5.12 0 7.68 0 10.24-2.56 2.56-2.56 2.56-5.12 2.56-7.68v-61.44c0-2.56 0-5.12-2.56-7.68-2.56-2.56-5.12-2.56-10.24-2.56v-5.12h38.4v5.12c-5.12 0-7.68 0-10.24 2.56-2.56 2.56-2.56 5.12-2.56 7.68v61.44z m-66.56-35.84v-25.6c0-2.56 0-5.12-2.56-7.68 0-2.56-5.12-2.56-7.68-2.56v-5.12h38.4v5.12c-5.12 0-7.68 0-7.68 2.56-2.56 2.56-2.56 5.12-2.56 7.68v61.44c0 2.56 0 5.12 2.56 7.68 2.56 2.56 5.12 2.56 7.68 2.56v5.12h-38.4v-5.12c5.12 0 7.68 0 10.24-2.56 2.56-2.56 2.56-5.12 2.56-7.68v-28.16h-46.08v28.16c0 2.56 0 5.12 2.56 7.68 2.56 2.56 5.12 2.56 10.24 2.56v5.12h-38.4v-5.12c5.12 0 7.68 0 7.68-2.56 2.56-2.56 2.56-5.12 2.56-7.68v-61.44c0-2.56 0-5.12-2.56-7.68-2.56-2.56-5.12-2.56-7.68-2.56v-5.12h38.4v5.12c-5.12 0-7.68 0-10.24 2.56-2.56 2.56-2.56 5.12-2.56 7.68v25.6h43.52z m-89.6 28.16l5.12 2.56c-5.12 7.68-10.24 12.8-15.36 17.92-5.12 2.56-12.8 5.12-23.04 5.12-5.12 0-12.8 0-17.92-2.56-5.12-2.56-10.24-5.12-12.8-7.68-5.12-5.12-10.24-10.24-12.8-15.36-2.56-5.12-5.12-12.8-5.12-20.48 0-5.12 0-12.8 2.56-17.92l7.68-15.36c5.12-5.12 10.24-10.24 15.36-12.8 5.12-2.56 12.8-5.12 20.48-5.12 5.12 0 10.24 0 15.36 2.56 5.12 2.56 7.68 2.56 7.68 2.56h2.56l2.56-2.56h5.12v28.16h-5.12c-2.56-7.68-5.12-12.8-10.24-17.92 0-5.12-7.68-5.12-12.8-5.12-10.24 0-17.92 2.56-23.04 10.24-5.12 7.68-7.68 17.92-7.68 30.72s2.56 20.48 10.24 28.16c5.12 7.68 15.36 10.24 25.6 10.24 5.12 0 10.24-2.56 15.36-5.12l10.24-10.24z" fill="#004898" p-id="25874"></path></svg>