<?xml version="1.0" standalone="no"?><!DOCTYPE svg PUBLIC "-//W3C//DTD SVG 1.1//EN" "http://www.w3.org/Graphics/SVG/1.1/DTD/svg11.dtd"><svg t="1542262943444" class="icon" style="" viewBox="0 0 2560 1024" version="1.1" xmlns="http://www.w3.org/2000/svg" p-id="16856" xmlns:xlink="http://www.w3.org/1999/xlink" width="500" height="200"><defs><style type="text/css"></style></defs><path d="M865.28 762.88c-7.68 7.68-17.92 15.36-33.28 15.36-28.16 0-43.52-15.36-43.52-35.84 0-20.48 17.92-35.84 43.52-35.84 10.24 0 20.48 5.12 23.04 5.12 2.56 0 5.12-2.56 5.12-5.12h2.56v23.04h-2.56c-5.12-7.68-15.36-20.48-28.16-20.48-17.92 0-23.04 15.36-23.04 30.72 0 5.12 0 15.36 5.12 23.04 5.12 7.68 15.36 7.68 17.92 7.68 10.24 0 17.92-2.56 28.16-12.8l5.12 5.12zM962.56 775.68H921.6v-2.56c7.68 0 10.24 0 10.24-7.68V742.4h-30.72v23.04c0 5.12 5.12 7.68 10.24 7.68v2.56H870.4v-2.56c7.68 0 10.24 0 10.24-7.68V716.8c0-7.68-5.12-7.68-10.24-7.68v-2.56h40.96v2.56c-5.12 0-10.24 0-10.24 7.68v20.48h30.72V716.8c0-7.68-5.12-7.68-10.24-7.68v-2.56h40.96v2.56c-5.12 0-10.24 0-10.24 7.68v48.64c0 5.12 5.12 5.12 10.24 7.68v2.56zM1011.2 775.68h-43.52v-2.56c7.68 0 10.24 0 10.24-7.68V716.8c0-7.68-5.12-7.68-10.24-7.68v-2.56h43.52v2.56c-5.12 0-12.8 0-12.8 7.68v48.64c0 5.12 5.12 7.68 12.8 7.68v2.56zM1016.32 773.12c7.68 0 10.24-2.56 10.24-7.68V716.8c-7.68-7.68-7.68-7.68-10.24-7.68v-2.56h25.6l43.52 43.52v-30.72c0-5.12-2.56-10.24-10.24-10.24v-2.56h25.6v2.56c-7.68 0-10.24 2.56-10.24 7.68v58.88h-2.56l-53.76-53.76v40.96c0 7.68 2.56 10.24 12.8 10.24v2.56h-28.16v-2.56zM1123.84 752.64l12.8-23.04 12.8 23.04h-25.6z m61.44 20.48c-5.12 0-7.68-2.56-12.8-12.8l-28.16-51.2h-2.56l-28.16 53.76c-2.56 7.68-5.12 10.24-12.8 12.8v2.56h25.6v-2.56c-5.12 0-10.24 0-10.24-5.12 0-2.56 2.56-5.12 5.12-12.8h28.16c2.56 2.56 5.12 10.24 5.12 12.8 0 2.56-2.56 2.56-10.24 2.56v2.56h40.96v-2.56zM1333.76 775.68h-40.96v-2.56c7.68 0 10.24 0 10.24-7.68v-51.2l-30.72 58.88h-2.56L1239.04 716.8v46.08c0 7.68 2.56 10.24 12.8 10.24v2.56h-28.16v-2.56c10.24 0 10.24-2.56 10.24-7.68V716.8c0-5.12-2.56-7.68-10.24-7.68v-2.56H1254.4l25.6 46.08 25.6-46.08h30.72v2.56c-7.68 0-10.24 0-10.24 10.24v43.52c0 7.68 2.56 7.68 10.24 10.24v2.56zM1338.88 709.12h71.68v20.48H1408c-2.56-15.36-12.8-15.36-28.16-15.36-7.68 0-10.24 0-10.24 5.12v23.04c12.8 0 17.92-2.56 20.48-15.36h2.56v33.28h-2.56c-2.56-15.36-7.68-17.92-20.48-17.92v23.04c0 5.12 2.56 5.12 10.24 5.12 12.8 0 25.6-2.56 33.28-17.92h2.56l-5.12 20.48h-71.68v-2.56c7.68 0 10.24 0 10.24-7.68V716.8c0-5.12-5.12-5.12-10.24-7.68zM1454.08 714.24c0-2.56 0-5.12 7.68-5.12 10.24 0 15.36 5.12 15.36 15.36 0 12.8-5.12 15.36-23.04 15.36v-25.6z m53.76 58.88c-2.56 0-2.56 0-5.12-2.56l-25.6-28.16c7.68-2.56 20.48-5.12 20.48-17.92 0-17.92-25.6-17.92-35.84-17.92h-38.4v2.56c7.68 0 10.24 0 10.24 10.24v43.52c0 7.68-2.56 7.68-10.24 10.24v2.56h40.96v-2.56c-7.68 0-10.24 0-10.24-10.24V742.4h2.56l25.6 30.72h25.6zM1592.32 762.88c-10.24 7.68-17.92 15.36-33.28 15.36-28.16 0-43.52-15.36-43.52-35.84 0-20.48 17.92-35.84 43.52-35.84 10.24 0 20.48 5.12 23.04 5.12 2.56 0 5.12-2.56 5.12-5.12h2.56v23.04H1587.2c-5.12-7.68-15.36-20.48-28.16-20.48-17.92 0-23.04 15.36-23.04 30.72 0 5.12 0 15.36 5.12 23.04 5.12 7.68 15.36 7.68 17.92 7.68 10.24 0 17.92-2.56 28.16-12.8l5.12 5.12zM1692.16 775.68h-40.96v-2.56c7.68 0 10.24 0 10.24-7.68V742.4h-30.72v23.04c0 5.12 5.12 7.68 10.24 7.68v2.56h-40.96v-2.56c7.68 0 10.24 0 10.24-7.68V716.8c0-7.68-5.12-7.68-10.24-7.68v-2.56h40.96v2.56c-5.12 0-10.24 0-10.24 7.68v20.48h30.72V716.8c0-7.68-5.12-7.68-10.24-7.68v-2.56h40.96v2.56c-5.12 0-10.24 0-10.24 7.68v48.64c0 5.12 5.12 5.12 10.24 7.68v2.56zM1717.76 752.64l12.8-23.04 12.8 23.04h-25.6z m61.44 20.48c-5.12 0-7.68-2.56-12.8-12.8l-28.16-51.2h-2.56l-28.16 53.76c-2.56 7.68-5.12 10.24-12.8 12.8v2.56h25.6v-2.56c-5.12 0-10.24 0-10.24-5.12 0-2.56 2.56-5.12 5.12-12.8h28.16c2.56 2.56 5.12 10.24 5.12 12.8 0 2.56-2.56 2.56-10.24 2.56v2.56h40.96v-2.56zM1784.32 773.12c7.68 0 10.24-2.56 10.24-7.68V716.8c-7.68-7.68-7.68-7.68-10.24-7.68v-2.56h25.6l43.52 43.52v-30.72c0-5.12-2.56-10.24-12.8-10.24v-2.56h25.6v2.56c-10.24 0-10.24 2.56-10.24 7.68v58.88h-2.56l-53.76-53.76v40.96c0 7.68 2.56 10.24 12.8 10.24v2.56h-28.16v-2.56zM1935.36 775.68h-43.52v-2.56c10.24 0 12.8 0 12.8-10.24v-51.2c-7.68 0-20.48 0-23.04 17.92h-2.56v-20.48h74.24v20.48h-2.56c-2.56-15.36-15.36-15.36-23.04-17.92v51.2c0 7.68 2.56 7.68 12.8 10.24v2.56zM2012.16 727.04c-2.56-7.68-10.24-17.92-23.04-17.92-5.12 0-12.8 2.56-12.8 10.24 0 5.12 2.56 7.68 12.8 12.8l17.92 7.68c5.12 2.56 12.8 7.68 12.8 17.92 0 7.68-7.68 20.48-30.72 20.48-12.8 0-17.92-2.56-20.48-2.56-2.56 0-2.56 2.56-2.56 2.56h-2.56v-25.6h2.56c2.56 10.24 10.24 20.48 25.6 20.48s15.36-10.24 15.36-10.24c0-7.68-5.12-10.24-12.8-12.8l-7.68-2.56c-20.48-7.68-20.48-17.92-20.48-20.48 0-5.12 2.56-20.48 28.16-20.48 10.24 0 15.36 2.56 20.48 2.56 2.56 0 2.56-2.56 5.12-2.56h2.56v20.48h-10.24zM2086.4 739.84h2.56c7.68 0 17.92 2.56 17.92 15.36 0 5.12-2.56 15.36-15.36 15.36-5.12 0-7.68-2.56-7.68-5.12v-25.6z m0-23.04c0-2.56 0-5.12 7.68-5.12 10.24 0 12.8 5.12 12.8 12.8 0 10.24-2.56 15.36-17.92 15.36V716.8z m-30.72 58.88h40.96c25.6 0 35.84-10.24 35.84-17.92 0-10.24-12.8-15.36-23.04-17.92 5.12 0 17.92-2.56 17.92-15.36 0-15.36-25.6-15.36-33.28-15.36h-38.4v2.56c5.12 0 10.24 0 10.24 7.68V768c0 5.12-5.12 7.68-10.24 7.68zM2155.52 752.64l12.8-23.04 12.8 23.04h-25.6z m61.44 20.48c-5.12 0-7.68-2.56-12.8-12.8l-28.16-51.2h-2.56l-28.16 53.76c-2.56 7.68-5.12 10.24-12.8 12.8v2.56h25.6v-2.56c-5.12 0-10.24 0-10.24-5.12 0-2.56 2.56-5.12 5.12-12.8h28.16c2.56 2.56 5.12 10.24 5.12 12.8 0 2.56-2.56 2.56-10.24 2.56v2.56h40.96v-2.56zM2224.64 773.12c7.68 0 10.24-2.56 10.24-7.68V716.8c-7.68-7.68-7.68-7.68-10.24-7.68v-2.56h25.6l43.52 43.52v-30.72c0-5.12-2.56-10.24-10.24-10.24v-2.56h25.6v2.56c-7.68 0-10.24 2.56-10.24 7.68v58.88h-2.56l-53.76-53.76v40.96c0 7.68 2.56 10.24 12.8 10.24v2.56H2227.2v-2.56zM2406.4 775.68h-40.96v-2.56c7.68 0 10.24 0 10.24-2.56s0-2.56-2.56-5.12l-23.04-23.04-2.56 2.56v20.48c0 5.12 5.12 5.12 10.24 7.68v2.56h-40.96v-2.56c7.68 0 10.24 0 10.24-7.68V716.8c0-7.68-5.12-7.68-10.24-7.68v-2.56h40.96v2.56c-7.68 0-10.24 0-10.24 10.24v20.48l25.6-20.48c2.56-2.56 5.12-2.56 5.12-5.12s-2.56-2.56-10.24-2.56v-2.56h35.84v2.56c-12.8 0-17.92 5.12-38.4 23.04l38.4 38.4c2.56 2.56 2.56 2.56 5.12 2.56z" fill="#231815" p-id="16857"></path><path d="M901.12 279.04c0 23.04-2.56 53.76 2.56 74.24h10.24v2.56h2.56v-2.56h10.24c2.56-5.12 5.12-10.24 5.12-20.48h-2.56v-7.68h-2.56v-7.68h-2.56v-7.68H921.6c0-2.56 2.56-7.68 2.56-10.24 17.92 2.56 33.28 5.12 51.2 7.68h23.04c5.12 2.56 15.36 7.68 25.6 5.12v-2.56h10.24V307.2h10.24v-2.56h7.68v-2.56h51.2c2.56 7.68 5.12 5.12 5.12 15.36-5.12 5.12-2.56 10.24-5.12 17.92H1100.8v7.68h-2.56v7.68h-2.56v7.68h-2.56v7.68h-2.56v7.68h-2.56c0 5.12-2.56 7.68-2.56 12.8h-2.56c0 7.68-2.56 12.8-2.56 20.48h-2.56v7.68H1075.2v5.12h-2.56c0 2.56-2.56 5.12-2.56 10.24h-2.56v7.68c-2.56 0-2.56 2.56-5.12 2.56-5.12 5.12-10.24 10.24-12.8 17.92-5.12 0-7.68 2.56-12.8 2.56 0 7.68 0 10.24 2.56 15.36 7.68 0 12.8 2.56 20.48 2.56v-2.56c7.68 0 15.36-2.56 25.6-2.56 0 7.68-2.56 12.8-2.56 20.48h-2.56v28.16h-2.56c-2.56 7.68 2.56 20.48 2.56 25.6v33.28h2.56v12.8h2.56c0 10.24-2.56 20.48-2.56 28.16-7.68 2.56-12.8 2.56-23.04 0v-2.56c-12.8 0-25.6 2.56-38.4 2.56v2.56c-5.12 0-15.36-2.56-17.92-5.12H942.08v2.56h-7.68v2.56c-5.12 0-2.56 0-5.12-2.56-12.8-10.24-2.56-25.6-7.68-43.52-5.12-23.04 0-56.32 0-79.36-7.68-5.12-7.68-12.8-17.92-15.36v-2.56H896c0 2.56-2.56 5.12-2.56 10.24h-2.56v53.76h2.56v7.68h2.56v30.72h-2.56c0 7.68 2.56 12.8 2.56 20.48h-2.56c0 5.12-2.56 10.24-2.56 12.8-12.8 5.12-38.4 2.56-56.32 2.56v-2.56h-5.12V614.4c-5.12-2.56-7.68-7.68-12.8-10.24v-5.12h2.56v-5.12c5.12-2.56 7.68-7.68 12.8-10.24v-2.56h5.12v-2.56h10.24v-2.56h2.56v-40.96l-7.68-23.04h-10.24c-2.56 5.12-7.68 10.24-12.8 12.8-2.56 0-7.68 2.56-10.24 2.56 0 2.56-2.56 2.56-2.56 5.12h-5.12v2.56c-2.56 2.56-5.12 2.56-10.24 5.12-5.12-25.6-20.48-38.4-23.04-69.12 12.8 0 20.48-2.56 30.72-7.68h23.04V460.8h5.12c5.12-2.56 7.68-7.68 15.36-7.68 2.56-5.12 2.56-5.12 5.12-7.68h2.56v-23.04c-7.68-5.12-5.12-10.24-17.92-10.24-5.12 7.68-17.92 5.12-25.6 2.56l-2.56-2.56v-12.8h-2.56v-7.68h-2.56v-5.12h-2.56v-5.12c-2.56-7.68-5.12-12.8-7.68-25.6 20.48 0 38.4-2.56 56.32-2.56 2.56-2.56 5.12-10.24 7.68-10.24-5.12-25.6-10.24-48.64-10.24-71.68 2.56-2.56 5.12-2.56 10.24-2.56 15.36 5.12 35.84 10.24 48.64 10.24z m509.44 17.92h-5.12c-2.56 5.12-2.56 7.68-7.68 10.24h-2.56v5.12h-2.56v10.24c5.12 2.56 15.36 2.56 25.6 2.56 5.12 5.12 12.8 0 20.48 0 15.36 0 33.28-2.56 48.64-2.56v-2.56h5.12v-2.56h7.68v-2.56c7.68 0 15.36 2.56 25.6 2.56 0 2.56 2.56 5.12 2.56 7.68 5.12 5.12 2.56 28.16 0 35.84-2.56 0-2.56 2.56-5.12 2.56v10.24l-2.56 5.12c-2.56 2.56-5.12 2.56-10.24 2.56-5.12-5.12-15.36-5.12-23.04-2.56-2.56 0 0 2.56-2.56 2.56-12.8 0-25.6-2.56-40.96-2.56-2.56 7.68-7.68 12.8-7.68 25.6 5.12 2.56 7.68 2.56 15.36 2.56 7.68-7.68 28.16 0 33.28 2.56 2.56 5.12 2.56 12.8 2.56 23.04h2.56v10.24h2.56c5.12 15.36-10.24 28.16-5.12 43.52 2.56 10.24 0 30.72 2.56 43.52h2.56c0 2.56-2.56 0-2.56 2.56 0 5.12 2.56 5.12 2.56 5.12v33.28h2.56v17.92c-2.56 10.24-5.12 20.48-7.68 33.28-12.8 0-33.28 0-43.52-2.56h-12.8v2.56c-7.68 0-12.8-2.56-20.48-2.56v-2.56h-5.12V614.4c-5.12 0-7.68-2.56-12.8-2.56v-2.56c-2.56-2.56 0 0-2.56-5.12 5.12-2.56 7.68-7.68 7.68-15.36-17.92-7.68-35.84-7.68-61.44-7.68l-5.12-10.24c2.56-5.12 0-12.8 0-23.04 0-12.8 0-30.72-2.56-43.52-5.12 0-7.68-2.56-15.36-2.56 0 23.04 2.56 48.64 2.56 71.68 0 12.8 2.56 25.6-7.68 30.72v2.56h-7.68v2.56c0 5.12-2.56 5.12-7.68 5.12-2.56-5.12-12.8-5.12-20.48-7.68 0-28.16-2.56-56.32-2.56-81.92 0-12.8 2.56-25.6 2.56-38.4h-2.56v-20.48c0-15.36-5.12-48.64 2.56-58.88 5.12-5.12 20.48-2.56 28.16-2.56 5.12 5.12 17.92 2.56 25.6 0 0-7.68-5.12-20.48-7.68-23.04h-7.68v2.56h-12.8v2.56h-25.6v2.56c-7.68 0-17.92 2.56-25.6 2.56-2.56-5.12-2.56-5.12-5.12-7.68h-2.56v-12.8h-2.56c0-2.56-2.56-7.68-2.56-10.24-2.56-2.56-5.12-2.56-7.68-2.56v-7.68h-2.56c0-10.24 2.56-17.92 2.56-28.16 2.56 0 2.56-2.56 10.24-2.56 5.12 10.24 10.24 2.56 23.04 7.68v2.56h38.4c17.92 5.12 38.4 0 61.44 0 2.56-5.12 2.56-2.56 5.12-7.68-7.68-5.12-12.8-12.8-20.48-17.92v-12.8h-2.56c0-5.12-2.56-10.24-2.56-15.36 2.56 0 5.12-2.56 7.68-2.56v-2.56c2.56 0 2.56 2.56 5.12 2.56 7.68-2.56 12.8 2.56 23.04 0v-2.56h7.68v-2.56c2.56 0 0 2.56 2.56 2.56h2.56v-2.56h2.56v2.56h12.8v2.56h5.12v2.56c5.12 2.56 7.68 2.56 12.8 5.12-5.12 5.12-7.68 7.68-10.24 15.36z m332.8-25.6c2.56 0 7.68 2.56 10.24 2.56 2.56 2.56 2.56 5.12 5.12 7.68h2.56c0 2.56 2.56 5.12 2.56 7.68 2.56 2.56 5.12 5.12 10.24 7.68 0 2.56 2.56 5.12 2.56 7.68 2.56 2.56 5.12 2.56 10.24 5.12v5.12h2.56c5.12 15.36-10.24 28.16 12.8 28.16 2.56 2.56 0 0 5.12 2.56 0-2.56 7.68-7.68 7.68-7.68v-33.28h10.24v5.12c7.68 0 10.24 2.56 15.36 7.68 0 2.56 2.56 2.56 2.56 5.12h12.8v2.56c2.56 0 5.12-2.56 10.24-2.56 0 0 0 2.56 5.12 2.56 0 0 0-2.56 5.12-2.56 0 0 0 2.56 5.12 2.56v-2.56h2.56v2.56h25.6v-2.56h5.12v-2.56h7.68c5.12-2.56 5.12-5.12 15.36-7.68v5.12h5.12v7.68h5.12c0 12.8 2.56 23.04 2.56 35.84h-2.56v5.12H1945.6v10.24h-2.56v12.8h-2.56v12.8h-2.56v56.32h-2.56c0 7.68-2.56 12.8-2.56 20.48 5.12 0 7.68-2.56 12.8-2.56 2.56-7.68 2.56-12.8 12.8-12.8 2.56 5.12 2.56 2.56 7.68 5.12v35.84s2.56 0 2.56 5.12h-2.56v2.56h-5.12c-2.56 2.56-2.56 5.12-5.12 7.68-5.12 2.56-38.4 0-40.96 0 0 2.56-2.56 5.12-2.56 10.24 5.12 2.56 10.24 7.68 15.36 7.68 7.68 2.56 15.36 2.56 23.04 5.12v2.56h5.12v2.56c7.68 2.56 17.92 2.56 25.6 5.12-2.56 7.68-5.12 12.8-7.68 20.48v7.68l-7.68 7.68v5.12c-7.68 7.68-15.36 15.36-25.6 23.04-12.8-2.56-17.92-12.8-28.16-15.36v-5.12c-5.12-2.56-5.12-7.68-7.68-10.24-2.56 0-2.56-2.56-5.12-2.56-5.12-7.68 0-12.8-12.8-12.8-5.12 10.24-7.68 7.68-15.36 15.36v2.56c-2.56 0-2.56 2.56-5.12 2.56v5.12c-2.56 2.56-7.68 5.12-10.24 10.24 0 2.56-2.56 2.56-2.56 5.12h-7.68v2.56h-5.12v2.56h-7.68v2.56h-7.68v2.56h-5.12v2.56h-10.24v2.56h-5.12v2.56H1792c-2.56-10.24-5.12-20.48-7.68-28.16-2.56-2.56-7.68-5.12-10.24-7.68-7.68 2.56-10.24 5.12-15.36 10.24v2.56c-2.56 0-7.68 2.56-10.24 2.56v2.56h-5.12c0 2.56-2.56 2.56-2.56 5.12h-5.12v2.56h-5.12c0 2.56-2.56 2.56-2.56 5.12h-5.12v2.56c-5.12-2.56-2.56 0-5.12-2.56s-5.12-5.12-10.24-7.68v-5.12c-5.12-5.12-7.68-5.12-10.24-12.8-5.12-2.56-5.12 0-7.68-7.68h-2.56v-7.68h-2.56v-5.12h-2.56c0-5.12-2.56-10.24-2.56-12.8 15.36 5.12 43.52-2.56 48.64-10.24h2.56c0-2.56 2.56-7.68 2.56-10.24h-2.56c-2.56-7.68-2.56-7.68-10.24-7.68-5.12 7.68-10.24 15.36-23.04 15.36-2.56-15.36-2.56-28.16-5.12-43.52h35.84c2.56-5.12 2.56-10.24 2.56-17.92-7.68 0-17.92 2.56-25.6 2.56-2.56-5.12-5.12-10.24-10.24-12.8l-2.56 2.56c-7.68 5.12-7.68 15.36-10.24 23.04h-2.56v5.12c-2.56 2.56-5.12 2.56-7.68 5.12v7.68c-5.12 0-7.68 0-10.24-2.56v-2.56c-2.56 0-5.12-2.56-7.68-2.56 0-2.56-2.56-5.12-2.56-7.68h-10.24l-5.12-2.56v-23.04c10.24-2.56 28.16-7.68 35.84-12.8 0-2.56 2.56-5.12 2.56-7.68 2.56 0 2.56-2.56 5.12-2.56 0-2.56 2.56-5.12 2.56-7.68l5.12-5.12v-5.12c2.56 0 2.56-2.56 5.12-2.56 2.56-5.12 2.56-7.68 5.12-12.8h2.56v-5.12h2.56v-5.12h2.56v-5.12h2.56v-5.12h2.56v-5.12h2.56v-5.12h2.56v-5.12h2.56c5.12-20.48 7.68-40.96 12.8-61.44 7.68-23.04 12.8-35.84 12.8-58.88z m476.16 115.2c-7.68 0-10.24 0-15.36 2.56-2.56 5.12-2.56 10.24-2.56 17.92 10.24 5.12 17.92 7.68 20.48 17.92h5.12c2.56 7.68 2.56 5.12 10.24 7.68v-2.56h2.56v-15.36h2.56v-2.56h10.24c5.12 5.12 25.6 0 35.84 0 30.72-2.56 58.88-2.56 89.6-5.12 5.12 0 7.68-2.56 12.8-2.56v-2.56h5.12c2.56 0 0-5.12 7.68-5.12v2.56h5.12v10.24H2406.4c0 2.56 2.56 5.12 2.56 7.68v28.16H2406.4c0 5.12 2.56 7.68 2.56 12.8h-15.36v2.56c-7.68 2.56-17.92 0-23.04-2.56-7.68 0-17.92 2.56-25.6 2.56-2.56 5.12-5.12 7.68-5.12 17.92 7.68 7.68-2.56 20.48 0 30.72 2.56 10.24 0 30.72 2.56 43.52 5.12 17.92 2.56 46.08 2.56 66.56-28.16 5.12-53.76 0-79.36-2.56-5.12-7.68-10.24-7.68-12.8-15.36h-2.56v-10.24c2.56-2.56 0 0 2.56-5.12 7.68 2.56 12.8 2.56 20.48 5.12 5.12-5.12 7.68-10.24 12.8-15.36h2.56v-23.04c2.56-2.56 7.68-20.48 5.12-28.16-2.56-12.8 0-40.96-2.56-58.88-5.12-2.56-12.8-2.56-20.48-2.56-5.12 5.12-30.72 0-38.4 0 0-5.12 2.56-7.68 2.56-12.8-2.56-2.56-7.68-2.56-12.8-2.56v5.12h-5.12c-2.56 5.12-5.12 5.12-7.68 10.24h-2.56c-5.12 10.24 5.12 25.6 5.12 33.28h-2.56c0 5.12 2.56 10.24 2.56 12.8h-2.56c0 17.92-2.56 33.28-2.56 51.2v35.84h-2.56c-2.56 5.12-2.56 10.24-5.12 12.8-5.12 2.56-7.68 2.56-10.24 7.68v2.56h-20.48c-5.12-5.12-5.12-2.56-10.24-5.12v-2.56h-5.12c0-2.56-2.56-2.56-2.56-5.12-5.12 0-10.24-2.56-15.36-2.56v-2.56c-2.56-2.56 0 0-2.56-5.12h5.12c5.12-10.24 12.8-7.68 12.8-25.6h2.56V563.2h2.56v-20.48c0-17.92 2.56-35.84 0-46.08-5.12-2.56-2.56-2.56-7.68-5.12-2.56 5.12-2.56 2.56-7.68 5.12 0 2.56-2.56 2.56-2.56 5.12h-2.56v5.12c-2.56 0-2.56 2.56-5.12 2.56-5.12 5.12-5.12 7.68-15.36 10.24-5.12-5.12-5.12-2.56-12.8-5.12V512h-5.12v-2.56c-2.56 0-5.12-2.56-7.68-2.56-2.56-7.68-5.12-7.68-7.68-17.92 2.56 0 5.12-5.12 5.12-5.12 7.68-2.56 12.8-5.12 20.48-7.68v-2.56h7.68c2.56-2.56 2.56-5.12 5.12-7.68 15.36-10.24 38.4-23.04 40.96-48.64-5.12-5.12-2.56-7.68-12.8-7.68-5.12 10.24-15.36 17.92-28.16 17.92-2.56-2.56-5.12-2.56-7.68-5.12-5.12-10.24-7.68-20.48-10.24-35.84 5.12-2.56 10.24-7.68 12.8-7.68h7.68c2.56-2.56 2.56-5.12 5.12-7.68h10.24v-2.56h5.12c10.24-7.68 17.92-15.36 25.6-25.6v-5.12c2.56-2.56 5.12-2.56 7.68-5.12v-5.12h2.56c0-2.56 2.56-5.12 2.56-10.24h2.56c0-5.12 2.56-7.68 2.56-12.8 2.56 0 2.56-2.56 5.12-2.56v-5.12c2.56 0 2.56-2.56 5.12-2.56v-5.12c2.56 0 2.56-2.56 5.12-2.56 5.12-5.12-2.56-5.12 7.68-7.68v-2.56c2.56 0 7.68-2.56 10.24-2.56 2.56 5.12 7.68 5.12 10.24 12.8h2.56v7.68h2.56l-7.68 23.04v2.56h2.56c0 12.8 2.56 25.6 2.56 40.96h-2.56c-7.68 15.36-7.68 20.48-10.24 25.6z m158.72-2.56c-17.92 0-33.28-2.56-51.2-2.56v2.56h-43.52v2.56c-2.56 0-5.12-2.56-7.68-2.56v2.56c-12.8 2.56-25.6 0-35.84 2.56v-15.36c-5.12-5.12 0-20.48-2.56-28.16-2.56-5.12-5.12-10.24-5.12-17.92 15.36 0 28.16 2.56 43.52 2.56 5.12 0 15.36-5.12 23.04-2.56v2.56h12.8v2.56c2.56 0 7.68-2.56 10.24-2.56 0 0 0 2.56 5.12 2.56v-2.56c5.12 0 12.8-2.56 17.92-2.56 10.24-5.12 17.92-12.8 33.28-15.36 5.12 7.68 7.68 0 7.68 15.36-2.56 2.56-5.12 20.48-5.12 25.6h2.56v17.92c-2.56 0-2.56 2.56-5.12 2.56 2.56 2.56 2.56 7.68 0 10.24z m-599.04 0c2.56-7.68 5.12-7.68 7.68-20.48-2.56 0-5.12-2.56-7.68-2.56-2.56-2.56-2.56-5.12-5.12-7.68H1766.4c-5.12 7.68-7.68 7.68-10.24 23.04 2.56 0 5.12 2.56 7.68 2.56v2.56c7.68 0 10.24 0 15.36 2.56z m-844.8-23.04c-5.12 12.8-10.24 38.4-20.48 46.08v2.56c-10.24 5.12-10.24-7.68-15.36 7.68H896v2.56h2.56c2.56 2.56 5.12 5.12 7.68 10.24h5.12l5.12 5.12v5.12h2.56c0 2.56 2.56 2.56 2.56 5.12h7.68c0-2.56 5.12-5.12 5.12-5.12v-7.68h2.56c0-5.12 2.56-7.68 2.56-12.8 2.56 0 2.56-2.56 5.12-2.56v-5.12c2.56 0 2.56-2.56 5.12-2.56v-5.12c2.56 0 2.56-2.56 5.12-2.56v-5.12c2.56-7.68 7.68-10.24 10.24-20.48-2.56-2.56-5.12-7.68-7.68-10.24-12.8-2.56-17.92-5.12-23.04-5.12z m97.28 2.56c-2.56 2.56-15.36 2.56-23.04 2.56 0 2.56-2.56 5.12-2.56 7.68-5.12 5.12-2.56 20.48-5.12 25.6H998.4v5.12c-2.56 0-2.56 2.56-5.12 2.56-5.12 5.12-5.12 10.24-7.68 20.48 2.56 2.56 7.68 12.8 15.36 7.68v-2.56h5.12c2.56-2.56 2.56-5.12 5.12-7.68h2.56v-5.12c2.56-2.56 5.12-2.56 7.68-5.12 2.56-5.12 2.56-10.24 5.12-15.36 5.12-10.24 15.36-17.92 15.36-33.28-5.12-2.56-5.12-2.56-10.24-2.56z m855.04 2.56c0 2.56 0 2.56 0 0-2.56 2.56-7.68 2.56-10.24 2.56-5.12 0-17.92 2.56-20.48 7.68-2.56 2.56-2.56 5.12-5.12 10.24 5.12 2.56 12.8 2.56 23.04 2.56v2.56h10.24c5.12-7.68 12.8-7.68 12.8-20.48-2.56-2.56-2.56-2.56-10.24-5.12z m-509.44 10.24c-2.56 2.56-5.12 2.56-7.68 2.56-5.12 7.68-7.68 5.12-10.24 17.92 7.68 7.68 7.68 15.36 25.6 15.36 2.56-2.56 7.68-5.12 7.68-7.68v-10.24h2.56c0-5.12 2.56-10.24 2.56-15.36-7.68 0-12.8-2.56-20.48-2.56z m417.28 38.4c-10.24-2.56-12.8-2.56-23.04 0-2.56 2.56-2.56 5.12-2.56 10.24 2.56 0 5.12 5.12 5.12 5.12 10.24 5.12 17.92-2.56 25.6 7.68 10.24 10.24 2.56 28.16 0 38.4v25.6h2.56c0 7.68-2.56 15.36-2.56 25.6v23.04h-2.56v5.12c-2.56 2.56-5.12 2.56-7.68 5.12-2.56 5.12 2.56 12.8 2.56 15.36 5.12 2.56 7.68 2.56 12.8 2.56 0-2.56 5.12-5.12 5.12-5.12 2.56-7.68 2.56-15.36 5.12-23.04h2.56v-5.12h2.56c0-7.68-2.56-15.36-2.56-23.04h2.56c2.56-12.8 0-33.28-2.56-43.52v-40.96h-2.56c0-15.36-2.56-33.28-2.56-48.64-5.12 0-5.12 0-7.68 2.56-5.12 5.12-7.68 10.24-10.24 23.04z m-58.88-2.56c-2.56 5.12-5.12 7.68-7.68 12.8h10.24c2.56-2.56 2.56-5.12 2.56-10.24-2.56-2.56-2.56-2.56-5.12-2.56z m158.72 30.72c0-5.12 2.56-7.68 2.56-12.8-7.68-5.12-7.68-7.68-17.92-7.68-5.12 5.12-10.24 5.12-20.48 5.12-2.56 5.12-5.12 5.12-7.68 12.8 2.56 2.56 5.12 5.12 7.68 10.24 5.12 0 5.12-2.56 5.12-2.56h20.48v-2.56c2.56 0 5.12-2.56 10.24-2.56z m-883.2 28.16V460.8l-5.12-5.12c-2.56 0-5.12-2.56-7.68-2.56-7.68-5.12-12.8-12.8-15.36-20.48h-5.12c-7.68 12.8-15.36 17.92-17.92 35.84l2.56 2.56c15.36 5.12 30.72 5.12 48.64 0z m404.48 0c7.68 2.56 7.68 5.12 17.92 7.68 5.12-7.68 10.24-10.24 10.24-25.6-2.56-2.56-7.68-2.56-12.8-2.56v-2.56c-2.56-2.56-12.8 2.56-15.36 2.56-2.56 5.12-2.56 7.68-2.56 15.36 2.56 5.12 0 2.56 2.56 5.12z m-99.84-15.36c-2.56 10.24-5.12 17.92-5.12 28.16 2.56 2.56 7.68 2.56 12.8 2.56v-2.56h5.12v-2.56h5.12v-2.56c7.68-5.12 7.68-5.12 7.68-20.48-5.12-5.12-2.56-7.68-12.8-10.24v2.56c-7.68 5.12-10.24 5.12-12.8 5.12z m53.76 43.52h25.6c2.56-2.56 2.56-2.56 2.56-10.24-7.68-7.68-2.56-25.6-7.68-35.84-12.8-2.56-23.04-5.12-23.04 12.8 0 2.56 5.12 15.36 5.12 20.48h-2.56c0 5.12 2.56 7.68 0 12.8z m417.28-10.24v-5.12c2.56 0 2.56-2.56 5.12-2.56v-7.68c-5.12-2.56-7.68-2.56-15.36-2.56-2.56 5.12-5.12 7.68-7.68 15.36 2.56 0 5.12 2.56 7.68 2.56v2.56c2.56 0 5.12 0 10.24-2.56z m133.12-7.68c-2.56 0-7.68-2.56-10.24-2.56v-2.56c-5.12-2.56-38.4 5.12-40.96 7.68h-2.56v7.68h2.56c0 2.56 2.56 5.12 2.56 10.24 2.56 0 2.56 2.56 5.12 2.56 0 2.56 2.56 5.12 2.56 7.68h7.68c7.68-15.36 30.72-17.92 33.28-30.72z m-496.64 102.4h5.12v2.56h2.56v-2.56h7.68v-2.56c5.12-5.12 2.56-15.36 2.56-25.6 0-15.36 7.68-51.2 0-58.88v-2.56H1433.6c-2.56 2.56-5.12 7.68-7.68 10.24-2.56 28.16-2.56 53.76-2.56 79.36z m424.96-35.84h5.12v2.56c2.56 0 7.68-2.56 10.24-5.12 2.56-7.68 7.68-10.24 10.24-20.48-7.68-5.12-10.24-15.36-15.36-25.6-12.8 2.56-10.24 12.8-10.24 25.6-5.12 7.68 0 17.92 0 23.04z m-76.8-28.16c-2.56 5.12-5.12 2.56-5.12 12.8 7.68 5.12 7.68 7.68 20.48 7.68 2.56 0 0 2.56 5.12 2.56v-2.56c7.68-2.56 5.12-2.56 7.68-7.68-2.56-2.56-5.12-2.56-7.68-5.12 0-2.56-2.56-5.12-2.56-7.68h-17.92z m-796.16 48.64h20.48v-2.56c5.12 0 2.56 2.56 5.12 2.56h2.56v-2.56c10.24 0 20.48 2.56 28.16 2.56 2.56-5.12 2.56-10.24 2.56-17.92 0-2.56 2.56-12.8 2.56-23.04-2.56 0-5.12-2.56-7.68-2.56-5.12-5.12-40.96-2.56-51.2-2.56-5.12 7.68-5.12 5.12-5.12 17.92-5.12 5.12 0 20.48 2.56 28.16z m389.12-10.24l23.04 7.68c5.12-7.68 10.24-10.24 12.8-17.92h-2.56v-17.92c-10.24-2.56-17.92 0-30.72 0-2.56 5.12-2.56 17.92-2.56 28.16z" fill="#231815" p-id="16858"></path><path d="M570.88 463.36h112.64c0-5.12-2.56-7.68-2.56-12.8h-115.2l5.12 12.8z" fill="#E50012" p-id="16859"></path><path d="M632.32 622.08l-56.32 79.36H261.12L204.8 619.52l140.8-345.6 74.24 184.32 79.36-184.32L563.2 435.2h117.76c-33.28-110.08-135.68-192-256-192C273.92 245.76 153.6 363.52 153.6 512s120.32 266.24 266.24 266.24c115.2 0 215.04-74.24 250.88-176.64h-46.08l7.68 20.48z" fill="#E50012" p-id="16860"></path><path d="M396.8 616.96l-76.8-181.76-74.24 184.32 296.96 2.56-74.24-186.88zM578.56 488.96h107.52c0-5.12 0-7.68-2.56-12.8h-110.08l5.12 12.8zM599.04 540.16h87.04v-12.8h-92.16l5.12 12.8zM686.08 501.76h-102.4l5.12 12.8h97.28V512v-10.24zM619.52 588.8h56.32c0-5.12 2.56-7.68 2.56-12.8H614.4l5.12 12.8zM609.28 563.2h71.68c0-5.12 2.56-7.68 2.56-12.8h-79.36l5.12 12.8z" fill="#E50012" p-id="16861"></path></svg>