<?xml version="1.0" standalone="no"?><!DOCTYPE svg PUBLIC "-//W3C//DTD SVG 1.1//EN" "http://www.w3.org/Graphics/SVG/1.1/DTD/svg11.dtd"><svg t="1542263114040" class="icon" style="" viewBox="0 0 2560 1024" version="1.1" xmlns="http://www.w3.org/2000/svg" p-id="21746" xmlns:xlink="http://www.w3.org/1999/xlink" width="500" height="200"><defs><style type="text/css"></style></defs><path d="M599.04 537.6c-40.96-53.76-156.16-66.56-156.16-66.56l46.08-28.16-102.4-56.32-102.4 51.2 81.92 46.08c133.12-2.56 171.52 69.12 171.52 69.12C570.88 657.92 378.88 665.6 378.88 665.6 268.8 678.4 217.6 581.12 217.6 581.12l-66.56 2.56c79.36 158.72 363.52 89.6 363.52 89.6 148.48-46.08 84.48-135.68 84.48-135.68z m-212.48-66.56L340.48 448 384 417.28l46.08 25.6-43.52 28.16z" fill="#1D2088" p-id="21747"></path><path d="M394.24 335.36c-74.24-5.12-220.16 2.56-238.08 92.16-15.36 71.68 92.16 112.64 168.96 120.32-15.36 10.24-30.72 17.92-46.08 28.16 35.84 20.48 69.12 40.96 102.4 58.88l92.16-53.76-92.16-48.64c-17.92-2.56-35.84 2.56-46.08 2.56-51.2 0-125.44-56.32-104.96-107.52 38.4-110.08 291.84-94.72 317.44 15.36h71.68c-33.28-84.48-153.6-102.4-225.28-107.52zM384 552.96l46.08 25.6-48.64 25.6-43.52-25.6 46.08-25.6z" fill="#5AA572" p-id="21748"></path><path d="M825.344 360.96c4.096 5.12 8.192 9.728 12.288 14.848 32.768 3.072 66.048 6.656 98.816 9.728 1.024 9.728-11.776 24.576-19.456 41.984-5.12 11.264-1.024 26.624-4.096 33.28-30.72-1.024-52.224-8.192-73.216-3.584-11.776 19.456-2.048 66.56-12.288 90.112-3.072-1.024-9.216 1.536-12.8-0.512-2.56-1.536-2.56-7.168-4.608-7.68 2.048-11.264 3.072-33.792 3.072-53.76 0-8.704 2.048-16.384-0.512-22.528-1.536-2.56-3.072-5.12-5.12-7.168-28.672 6.656-57.856 13.312-86.528 19.968l-2.56-2.56c3.072-25.088 15.36-25.6 17.408-54.272-5.632-8.192-11.776-16.384-17.408-24.576 1.024-2.56 1.536-5.12 2.56-7.168 14.848 0.512 32.256-3.072 48.64-4.608 17.92-2.048 35.328-2.048 42.496-7.68 6.656-5.12 9.216-8.704 13.312-13.824z m304.128 7.68c24.576 2.56 50.688 0.512 75.264 3.072 8.704 1.024 22.528 0.512 23.552 7.168v2.56c-5.632 16.384-6.144 16.896-11.776 33.28-6.144 36.864 4.096 89.6-5.632 122.88h-2.56c-27.648-10.752-60.928-13.312-94.72-14.336-36.864-1.024-74.752 0.512-105.984 6.656-1.024-2.56-1.536-5.12-2.56-7.168 2.048-8.704 0.512-18.432 1.536-29.184 2.048-17.408 5.632-36.352 5.12-54.272-1.024-28.16-5.12-54.272 0.512-67.072 39.936-2.048 78.848-2.56 117.248-3.584z m254.976 2.56c28.16 4.608 76.8 7.168 111.104 2.56-1.024 3.072-1.536 6.656-2.56 9.728-23.04 8.704-17.92 26.112-32.256 41.984-18.432-2.56-37.376-4.608-49.664 5.12v2.56c3.072 2.56 6.656 5.12 9.728 7.68 14.848 7.68 60.416-7.168 76.288 6.656 1.536 1.536 1.024 5.12 2.048 7.168-1.536 4.608-3.584 4.096-12.8 5.12-15.36 1.024-43.52-1.024-50.688 6.144 12.288 23.04 25.6 37.888 44.544 46.08 8.704 3.584 23.04 1.536 33.792 3.584 7.168 1.536 10.752 6.656 18.432 9.728-2.56 3.072-5.12 6.656-7.168 9.728-8.192 1.536-16.384 8.192-24.064 9.216-6.656 1.024-13.312-3.072-20.48-2.048-10.24-7.168-19.968-14.848-26.624-24.576-8.192-11.776-13.312-26.624-25.088-34.816-7.168 5.12-8.704 12.8-18.432 16.384-18.432 6.656-46.592 7.68-65.024 15.36-14.848 5.632-24.064 15.872-35.328 22.528-2.56-1.536-5.12-3.072-7.68-5.12v-2.56c1.024-4.608-1.024-9.216 0.512-12.8 4.096-9.216 12.8-14.336 15.872-24.576 7.68-29.696 8.192-64.512-1.536-111.104l2.56-2.56c22.016 1.536 45.056 1.536 64.512-7.168z m529.408 2.56c4.608 4.096 6.656 9.728 9.728 14.848h41.984v9.728c-5.632 1.024-1.024 6.144-7.168 7.168-12.8 2.048-34.304-2.048-47.616 1.536-7.168 2.048-8.704 9.216-12.288 13.824 1.024 2.56 1.536 5.12 2.56 7.68 13.312-2.56 45.568-10.752 59.392-3.072 2.56 1.536 1.024 5.632 2.56 8.192-2.56 0.512-4.096 5.632-7.168 6.144-6.656 2.048-17.408-1.024-23.552 1.024-3.072 1.024-2.56 5.632-4.096 7.68 2.56 3.072 5.12 6.656 7.168 9.728h24.576c-2.56 3.072-5.12 6.656-7.168 9.728-15.872 2.048-21.504 5.12-27.136 17.408-1.024 5.12-1.536 9.728-2.56 14.848 2.56 1.536 5.12 3.072 7.168 5.12 5.12-2.56 10.24-10.24 15.36-12.8 3.072-1.536 6.144 1.536 9.728 0-2.56 2.56 1.024 4.608-1.536 7.168-12.288 12.288-30.208 26.624-43.52 38.4-3.072 3.072-8.704 3.072-11.776 6.144 1.024-4.608-1.536-6.656-0.512-10.24 2.56-6.656 8.192-12.288 10.752-18.432 5.12-11.776 6.656-24.064 1.536-39.936-8.192 1.024-16.384 1.536-24.576 2.56v-7.68c1.024-1.536 1.536-3.072 2.56-5.12 15.36-2.048 22.016-5.632 29.696-14.848-1.536-1.536-4.096-4.608-7.68-6.144-5.632-1.536-13.824-0.512-16.384-3.584-4.096-4.608 3.072-13.312-2.048-16.896-2.56-1.536-9.216 0-11.264-1.536-2.56-1.536 1.024-3.072-1.536-4.096 3.072-9.728 3.584-9.216 9.728-14.848 2.048-2.56 1.536-6.144 3.584-8.704 6.144-7.68 14.848-13.824 21.504-20.992z m-212.992 2.048c1.536 2.56 5.12-0.512 6.656 1.536 3.072 7.68 2.56 20.48 10.752 25.6 16.384 7.68 53.248 1.024 72.192 8.192 3.584 1.536 2.048 6.656 4.608 9.216v2.56c-11.264 0.512-25.6 2.048-39.424 2.048-14.336-0.512-32.256-2.56-41.472 2.048-5.12 2.56-4.608 9.216-5.632 15.872 1.536 2.56 3.072 5.12 5.12 7.168 25.6 2.56 53.248 2.56 76.8 9.728-1.024 3.072-1.536 6.656-2.56 9.728-25.088-0.512-57.344-7.68-79.36 2.56v14.848c1.536 4.096 3.072 8.192 5.12 12.288 34.816 6.144 63.488 16.384 96.256 9.728-2.048 12.8-5.12 19.456-14.848 24.576-12.8 7.168-30.208-3.072-53.248-9.728-16.384-4.608-37.376-5.632-53.248-5.12-32.256 4.096-64.512 8.192-96.256 12.288-1.024-2.56-1.536-5.12-2.56-7.168v-5.12l9.728-9.728c13.824 1.536 29.696-2.56 45.056-4.608 19.968-2.56 37.888-4.096 46.592-10.24-1.536-8.192-3.072-16.384-5.12-24.576-27.136 0.512-52.736 8.704-71.68 0 1.024-2.56 1.536-5.12 2.56-7.168l5.12-5.12c14.336 1.536 53.248-0.512 66.56-9.728 5.12-5.12 4.096-4.608 5.12-14.848-1.536-2.56-3.072-5.12-5.12-7.168-30.208 1.024-58.88 12.288-78.848 22.016-6.144 3.072-10.752-0.512-17.92-2.048v-7.168c15.872-12.8 25.088-27.648 34.816-47.104 2.56 1.536 5.12 3.072 7.68 5.12 1.536 5.632 3.072 11.776 5.12 17.408 23.04 0 39.936-4.096 56.832-14.848 1.024-4.608-1.536-10.752-0.512-15.36 0.512-3.584 4.608-4.608 5.12-7.68z m509.44 2.56c17.408-1.024 33.28 0 41.984 7.168-1.536 2.56-3.072 5.12-5.12 7.168-17.408 7.168-34.816 14.848-51.712 22.016-2.56-1.024-6.144 0.512-9.216-0.512-3.072-1.536-5.12-5.632-8.192-7.168v-19.968c1.024-1.536 1.536-3.072 2.56-5.12 10.24 0 19.968-2.048 29.696-3.584z m103.936 0c14.336 0.512 33.792-2.048 50.688 0.512 9.216 1.536 16.896 6.144 23.552 9.728-1.024 2.56-1.536 5.12-2.56 7.168l-5.12 5.12c-18.944-1.024-43.008-3.072-63.488-1.024-17.408 1.536-32.768 7.168-43.008 6.144-1.024-2.56-1.536-5.12-2.56-7.168 2.56-4.096 5.12-8.192 7.168-12.288 5.12-1.024 8.192-4.096 13.312-5.12 7.168-2.048 15.36-1.536 22.016-3.072z m-1231.36 2.56c-16.896 5.632-40.96 1.024-51.712 12.288-6.656 7.168-5.12 28.672-5.632 50.688-0.512 28.672-1.536 58.88 3.072 67.584 13.824-1.536 17.92-6.144 30.72-8.704 14.336-2.56 33.28-2.56 50.688-2.048 9.728 0 18.432-0.512 27.136 0.512 17.92 3.072 36.352 6.656 54.272 9.728l2.56-2.56c2.56-1.536 5.12-3.072 7.168-5.12v-54.272c1.024-19.968 7.168-46.592-5.12-64.512-37.376 0-75.264-2.048-113.152-3.584z m934.4 0c23.04-1.024 55.296-1.024 64.512 7.168-2.56 8.704-8.704 21.504-11.264 35.328-2.56 11.264-0.512 23.552-3.072 33.28-2.048 8.704-8.192 15.36-12.8 19.968 13.312 27.648 40.96 39.424 51.712 64.512-8.192 1.536-16.384 3.072-24.576 5.12-5.12-3.072-12.8-7.168-16.896-13.824-4.096-6.144-4.608-14.848-8.192-17.408-4.096-3.072-5.12 7.168-10.752 5.632-14.336 4.096-29.184 4.096-42.496 7.168-18.432 4.096-35.328 10.24-54.784 16.384-1.024-1.536-1.536-3.072-2.56-5.12 10.752-13.824 38.4-18.944 34.816-39.424 3.584-14.848 6.144-39.936 5.12-62.976-0.512-17.92-5.12-34.304-2.048-45.568 1.024-4.096 5.12-5.12 6.656-7.68 9.728 3.584 19.456 2.56 26.624-2.56z m-610.816 4.608c-10.752 4.096-25.088 2.56-35.84 4.096-12.288 2.048-21.504 5.632-31.232 11.264v2.56c2.048 11.264 2.048 8.704 7.168 14.848 30.72-9.728 75.264-1.536 111.104-9.728v-12.288c-1.536-2.56-3.072-5.12-5.12-7.168-14.336-2.56-30.208-2.048-46.08-3.584z m-563.712 7.68c-2.56 5.12-5.12 9.728-7.168 14.848v19.968c3.584 4.608 0 1.536 5.12 5.12 20.992 16.384 81.408 3.584 59.392-34.816-19.456-1.536-38.4-3.584-57.344-5.12z m-44.544 2.56l-36.864 12.288c-5.12 9.216-12.288 17.408-7.168 29.696 1.536 2.56 3.072 5.12 5.12 7.168 20.992-0.512 43.008-6.656 56.832-14.848 1.536-8.192 3.072-16.384 5.12-24.576-1.536-2.56-3.072-5.12-5.12-7.168-6.144-1.024-12.288-1.536-17.92-2.56z m1233.92 2.56c-6.144 2.56-14.336 2.56-20.48 4.608-4.608 1.536-7.168 6.144-11.264 7.68 1.024 4.096 1.536 8.192 2.56 12.288 23.04 0.512 44.032 2.048 59.392-7.168v-9.728l-7.168-7.168c-8.192-0.512-15.36-0.512-23.04-0.512z m-944.64 2.56c30.208-1.024 77.312-5.12 96.256 7.168 1.536 1.024 3.072 1.536 5.12 2.56l-7.168 7.168c-9.216-2.56-22.016-2.56-33.28-2.56-10.752 0-19.968-0.512-31.232 2.56v12.288h5.12c19.968 2.56 39.424 5.12 59.392 7.168v7.68c-14.336 3.584-21.504 3.584-29.696 12.288l5.12 5.12c6.656 7.168 22.016 9.216 29.696 14.848-1.536 2.56-3.072 5.12-5.12 7.168-44.544-6.656-96.256-0.512-136.192 2.56-2.048-8.704-2.56-8.192 2.56-14.848 17.408 4.096 39.424-6.144 54.272-12.288-1.536-4.096-3.072-8.192-5.12-12.288-20.992 1.536-45.056 11.264-51.712-5.12h5.12c13.824-6.656 38.912-6.656 49.664-17.408-1.024-3.072-1.536-6.656-2.56-9.728-17.408 1.024-34.816 1.536-51.712 2.56-1.024-1.536-1.536-3.072-2.56-5.12 1.024-1.536 1.536-3.072 2.56-5.12 16.384 1.024 31.232-0.512 41.472-6.656z m287.232 24.576c-8.192 1.536-16.384 3.072-24.576 5.12-4.096 6.656-1.024 3.584-7.168 7.168 1.024 3.072 1.536 6.656 2.56 9.728 3.584 5.12 2.56 4.096 7.168 7.68 14.336-3.584 40.448-7.168 49.664-17.408-2.56-4.096-5.12-8.192-7.168-12.288h-20.48z m865.28 0c5.12 3.584 4.096 2.56 7.168 7.168-5.12 8.704-10.752 15.872-14.336 26.112-4.096 11.776-4.096 27.136-8.704 38.912-5.12 13.312-15.36 23.552-26.624 31.232-12.288-3.584-15.872-5.12-19.968-17.408 30.208-1.024 54.272-32.768 39.424-61.952-13.312 3.072-26.624 6.656-39.424 9.728v-17.408c1.024-1.536 1.536-3.072 2.56-5.12 20.48-3.072 40.448-7.168 59.904-11.264z m61.952 0c29.184 1.536 93.696-1.536 94.208 9.728 0.512 12.288-9.216 14.848-16.384 16.384-10.752 2.048-27.136-2.048-40.448 3.584-3.584 26.624 11.776 85.504-7.168 94.208 5.12 1.024-2.048-1.024-5.12-3.584-7.168-35.328 6.144-73.728-8.704-97.792-1.024 0-5.12-3.072-6.144-3.072-16.896 3.072-28.16 10.752-44.544 7.68-2.56-9.728-2.56-5.632-2.56-14.848 7.68-10.24 24.576-8.192 36.864-12.288z m-264.704 7.168c-14.336 5.632-28.16 3.584-36.864 14.848-1.024 4.096-1.536 8.192-2.56 12.288h5.12c12.8 4.608 42.496-1.536 51.712-7.168v-2.56c-3.072-9.728-2.048-10.24-9.728-14.848-2.56-0.512-5.12-1.536-7.68-2.56z m-914.944 12.8c-8.704 17.92 4.608 27.136 22.016 17.408v-2.56c-1.536-4.096-3.072-8.192-5.12-12.288-5.12-1.024-11.264-2.048-16.896-2.56z m282.112 9.728c-19.968 4.096-39.424 8.192-59.392 12.288-2.56 5.12-5.12 9.728-7.168 14.848 1.024 4.096 1.536 8.192 2.56 12.288 26.624-5.12 52.736-9.728 79.36-14.848 5.12-4.608 2.56-1.024 5.12-9.728-2.56-3.072-5.12-6.656-7.168-9.728-5.12-2.048-9.216-3.584-13.312-5.12z m605.696 14.848c-5.632 5.12-11.776 9.728-17.408 14.848-1.024 18.432 0.512 20.992 9.728 28.672 1.536-1.536 3.072 0 5.12-1.536 11.264-6.144 14.336-15.36 19.968-27.136-1.536-5.12-3.072-9.728-5.12-14.848h-12.288z m27.136 17.408c-3.072 4.096-6.656 8.192-9.728 12.288 1.024 4.096 1.536 8.192 2.56 12.288 6.656-1.024 13.312-1.536 19.968-2.56 1.024-1.536 1.536-3.072 2.56-5.12-1.536-5.12-3.072-9.728-5.12-14.848-3.584-0.512-6.656-1.536-10.24-2.048z m-1281.536 153.6l1.536-0.512-3.072 15.872c-4.608 2.56-8.704 4.608-13.312 6.144-4.096 1.536-8.192 2.048-12.288 2.048s-7.68-0.512-10.24-2.048c-2.56-1.536-4.608-3.584-6.144-6.656-1.536-3.072-2.048-6.656-2.048-10.752s1.024-8.192 2.56-12.288 3.584-7.68 6.656-11.776c2.56-3.584 5.632-7.168 9.216-10.24 4.096-3.584 8.704-6.144 13.312-8.192 4.608-2.048 9.216-3.072 13.824-3.072 3.584 0 6.656 0.512 9.728 2.048 3.072 1.024 5.632 3.072 7.68 5.632l-11.776 18.432-1.024-0.512c2.048-7.68 2.56-13.312 2.048-16.896-0.512-3.072-3.072-5.12-6.656-5.12-4.608 0-9.216 2.56-14.336 8.192-5.12 5.632-9.216 12.8-12.8 21.504-3.072 8.192-4.096 14.336-3.584 19.456 1.024 5.12 3.584 7.168 7.68 7.168 3.584 0 7.168-1.536 10.752-4.608 4.608-2.56 8.192-7.168 12.288-13.824z m3.584 22.016l0.512-1.536c2.56-1.024 4.608-3.072 6.656-5.632 2.048-2.56 4.096-7.68 7.168-15.872l1.536-3.584 10.24-26.112c1.024-2.56 1.536-4.608 1.536-5.632s-0.512-1.536-1.536-2.048l0.512-1.024c3.072 0 5.12 0 6.656 0.512h8.192c1.536 0 3.584 0 6.656-0.512l-0.512 1.024c-1.536 0.512-2.56 1.024-3.072 2.048-1.024 1.024-1.536 2.56-2.56 5.632l-7.168 18.432h18.432l7.168-18.432c1.024-2.56 1.536-4.608 1.536-5.12 0-1.024-0.512-1.536-1.536-2.048l0.512-1.024c3.072 0 5.12 0 6.656 0.512h8.192c1.536 0 3.584 0 6.656-0.512l-0.512 1.024c-1.536 0.512-2.56 1.024-3.072 2.048-1.024 1.024-1.536 2.56-2.56 5.632l-11.264 28.672c-3.072 8.192-5.12 13.824-5.632 16.896-0.512 2.56 0.512 4.608 1.536 6.144l-0.512 1.536c-2.048 0-4.096 0-6.144-0.512h-13.312c-2.048 0-4.096 0-6.144 0.512l0.512-1.536c2.56-1.536 4.608-3.072 6.656-6.144 2.048-2.56 4.608-8.192 7.68-16.896l1.024-2.56 1.536-4.096H793.6l-3.072 7.68c-3.072 7.68-4.608 13.312-5.12 15.872-0.512 2.56 0.512 4.608 2.048 5.632l-0.512 1.536c-2.048 0-4.096 0-6.144-0.512h-21.504z m67.584 0l0.512-1.536c2.56-1.024 4.608-3.072 6.656-5.632 2.048-2.56 4.096-7.68 7.168-15.872l1.536-3.584 10.24-26.112c1.024-2.56 1.536-4.608 1.536-5.632s-0.512-1.536-1.536-2.048l0.512-1.024c3.072 0 5.12 0 6.656 0.512h8.192c1.536 0 3.584 0 6.656-0.512l-0.512 1.024c-1.536 0.512-2.56 1.024-3.072 2.048-1.024 1.024-1.536 2.56-2.56 5.632L857.088 640c-3.072 7.68-4.608 13.312-5.12 15.872-0.512 2.56 0.512 4.608 2.048 5.632l-0.512 1.536c-2.048 0-4.096 0-6.144-0.512h-13.312c-3.584 0.512-5.632 0.512-7.168 0.512z m61.44-48.128l-7.68 19.456c-4.096 10.24-6.144 16.896-6.144 20.48 0 3.072 1.024 5.632 3.584 7.168l-0.512 1.536c-1.536 0-3.072 0-4.608-0.512h-10.752c-1.536 0-3.072 0-5.12 0.512l0.512-1.536c3.584-1.024 6.656-3.584 9.216-6.656 2.56-3.072 5.632-10.24 9.728-20.48l7.68-19.968c1.536-4.096 2.048-6.656 2.048-8.192-0.512-1.536-1.536-2.56-3.584-3.584l0.512-1.024h18.944l12.288 34.816 2.56-6.144c4.096-10.24 6.144-16.896 6.144-20.48 0-3.072-1.024-5.632-3.584-6.656l0.512-1.536h19.968l-0.512 1.536c-3.584 1.024-6.656 3.584-9.216 6.656-2.56 3.584-5.632 10.24-9.728 20.48l-13.824 34.304h-2.048l-16.384-50.176z m69.12 19.968l0.512-13.824L947.2 634.88h10.24z m-41.984 28.16l0.512-1.536c4.096-1.024 10.24-7.168 18.944-17.408l1.536-1.536 34.816-42.496h1.024l2.048 52.736c0 3.584 0.512 5.632 1.024 7.168 0.512 1.024 1.536 1.536 3.072 2.048l-0.512 1.536h-1.024c-5.12 0-9.216-0.512-11.776-0.512-3.072 0-7.68 0-14.336 0.512h-1.536l0.512-1.536c1.536 0 2.56-0.512 3.584-1.536s2.048-2.048 2.56-3.584c0.512-1.024 0.512-1.536 0.512-2.56s0.512-2.048 0.512-3.584l0.512-12.288h-12.8c-3.072 4.096-5.632 7.168-7.168 9.728-1.536 2.56-3.072 4.608-3.584 6.656-1.024 2.048-1.024 3.584-0.512 5.12 0.512 1.024 1.536 2.048 2.56 2.048l-0.512 1.536h-14.336c-1.536-0.512-3.584-0.512-5.632-0.512z m83.456 0l0.512-1.536c3.584-1.536 6.656-3.584 9.216-6.656 2.56-3.072 5.632-10.24 9.728-20.48l7.68-19.968c1.536-4.096 2.048-6.656 2.048-8.192-0.512-1.536-1.536-2.56-3.584-3.584l0.512-1.024h21.504l-2.56 34.816 26.112-34.816h6.656c2.56 0 5.632 0 10.752-0.512h0.512l-0.512 1.536c-1.536 0.512-2.56 1.024-3.072 2.048-1.024 1.024-1.536 2.56-2.56 5.632l-11.264 28.672c-3.072 8.192-5.12 13.824-5.632 16.896-0.512 2.56 0.512 4.608 2.048 6.144l-0.512 1.536c-2.048 0-4.096 0-6.144-0.512h-13.312c-2.048 0-4.096 0-6.144 0.512l0.512-1.536c2.56-1.536 4.608-3.072 6.656-6.144 2.048-2.56 4.608-8.192 7.68-16.896l1.024-2.56 8.704-22.016-36.864 49.664h-1.024l2.56-48.128-7.168 18.432c-4.096 10.24-6.144 17.408-6.144 20.48 0 3.072 1.024 5.632 3.584 7.168l-0.512 1.536c-1.536 0-3.072 0-4.608-0.512h-16.384z m74.752 0l0.512-1.536c2.56-1.024 4.608-3.072 6.656-5.632 2.048-2.56 4.096-7.68 7.168-15.872l1.536-3.584 10.24-26.112c1.024-2.56 1.536-4.608 1.536-5.632s-0.512-1.536-1.536-2.048l0.512-1.024c3.072 0 5.12 0 6.656 0.512h8.192c1.536 0 3.584 0 6.656-0.512l-0.512 1.024c-1.536 0.512-2.56 1.024-3.072 2.048-1.024 1.024-1.536 2.56-2.56 5.632L1103.872 640c-3.072 7.68-4.608 13.312-5.12 15.872-0.512 2.56 0.512 4.608 2.048 5.632l-0.512 1.536c-2.048 0-4.096 0-6.144-0.512h-13.312c-3.072 0.512-5.12 0.512-7.168 0.512z m61.952-48.128l-7.68 19.456c-4.096 10.24-6.144 16.896-6.144 20.48 0 3.072 1.024 5.632 3.584 7.168l-0.512 1.536c-1.536 0-3.072 0-4.608-0.512h-10.752c-1.536 0-3.072 0-5.12 0.512l0.512-1.536c3.584-1.024 6.656-3.584 9.216-6.656 2.56-3.072 5.632-10.24 9.728-20.48l7.68-19.968c1.536-4.096 2.048-6.656 2.048-8.192-0.512-1.536-1.536-2.56-3.584-3.584l0.512-1.024h18.944l12.288 34.816 2.56-6.144c4.096-10.24 6.144-16.896 6.144-20.48 0-3.072-1.024-5.632-3.584-6.656l0.512-1.536h19.968l-0.512 1.536c-3.584 1.024-6.656 3.584-9.216 6.656-2.56 3.584-5.632 10.24-9.728 20.48l-13.824 34.304H1152l-16.384-50.176z m34.816 43.008l11.264-16.896 1.024 0.512c-1.536 5.632-1.536 10.24 0 13.824 1.536 3.584 4.096 5.12 7.68 5.12 3.072 0 6.144-1.024 9.216-3.072 3.072-2.048 5.12-5.12 6.656-8.704 1.024-3.072 1.536-5.12 0.512-7.168-1.024-1.536-2.56-3.072-5.632-4.096-0.512 0-1.536-0.512-2.56-0.512-5.632-1.536-8.704-3.072-10.24-5.12-1.024-1.536-1.536-3.072-1.536-5.12s0.512-4.608 1.536-7.168c2.048-5.632 6.144-10.752 11.776-14.336 5.632-3.584 11.776-5.632 18.944-5.632 3.072 0 6.144 0.512 8.704 1.536 3.072 1.024 5.632 2.048 8.192 4.096l-10.24 14.848h-1.024c1.536-4.608 1.536-8.704 0.512-11.776-1.024-3.072-3.584-4.608-7.168-4.608-2.56 0-5.12 1.024-7.68 3.072-2.56 2.048-4.096 4.096-5.12 7.168-1.024 2.56-1.024 5.12-0.512 6.144 1.024 1.536 3.584 2.56 7.68 4.096 5.632 1.536 9.728 3.584 10.752 6.656 1.536 2.56 1.024 6.656-1.024 11.776-2.56 6.656-6.656 11.776-12.8 15.36-6.144 4.096-12.8 5.632-20.48 5.632-4.096 0-8.192-0.512-11.264-1.536-2.048-0.512-5.12-2.048-7.168-4.096z m54.784 5.12l0.512-1.536c2.56-1.024 4.608-3.072 6.656-5.632 2.048-2.56 4.096-7.68 7.168-15.872l1.536-3.584 10.24-26.112c1.024-2.56 1.536-4.608 1.536-5.632s-0.512-1.536-1.536-2.048l0.512-1.024c3.072 0 5.12 0 6.656 0.512h8.192c1.536 0 3.584 0 6.656-0.512l-0.512 1.024c-1.536 0.512-2.56 1.024-3.072 2.048-1.024 1.024-1.536 2.56-2.56 5.632l-7.168 18.432h18.432l7.168-18.432c1.024-2.56 1.536-4.608 1.536-5.12 0-1.024-0.512-1.536-1.536-2.048l0.512-1.024c3.072 0 5.12 0 6.656 0.512h8.192c1.536 0 3.584 0 6.656-0.512l-0.512 1.024c-1.536 0.512-2.56 1.024-3.072 2.048-1.024 1.024-1.536 2.56-2.56 5.632l-11.264 28.672c-3.072 8.192-5.12 13.824-5.632 16.896-0.512 2.56 0.512 4.608 1.536 6.144l-0.512 1.536c-2.048 0-4.096 0-6.144-0.512h-13.312c-2.048 0-4.096 0-6.144 0.512l0.512-1.536c2.56-1.536 4.608-3.072 6.656-6.144 2.048-2.56 4.608-8.192 7.68-16.896l1.024-2.56 1.536-4.096h-17.92l-3.072 7.68c-3.072 7.68-4.608 13.312-5.12 15.872-0.512 2.56 0.512 4.608 2.048 5.632l-0.512 1.536c-2.048 0-4.096 0-6.144-0.512h-21.504z m67.584 0l0.512-1.536c2.56-1.024 4.608-3.072 6.144-5.632 2.048-2.56 3.584-6.656 6.144-12.288l13.312-33.28c1.024-2.56 1.536-4.608 1.536-5.632s-0.512-1.536-1.536-2.048l0.512-1.024c3.584 0 7.168 0 10.24 0.512h30.72l-3.072 16.384h-1.536a27.584 27.584 0 0 0-6.656-10.752c-2.56-2.048-6.144-3.072-10.24-3.072h-2.56l-9.728 24.064h3.072c4.096 0 7.168-1.024 10.24-2.56s5.632-4.096 7.68-7.68h1.536l-9.216 23.04h-1.536c0.512-3.584-0.512-6.144-2.048-7.68-1.536-1.536-4.608-2.56-8.192-2.56h-3.072l-5.632 14.336c-1.536 4.608-2.56 7.68-2.048 9.728s2.048 3.072 5.12 3.072 7.168-1.536 12.288-4.608c4.608-3.072 10.24-7.168 16.384-12.8l1.024 0.512-12.8 20.48H1305.6c-4.096 1.024-8.192 1.024-12.8 1.024z m85.504-48.128l-7.68 19.456c-4.096 10.24-6.144 16.896-6.144 20.48 0 3.072 1.024 5.632 3.584 7.168l-0.512 1.536c-1.536 0-3.072 0-4.608-0.512h-10.752c-1.536 0-3.072 0-5.12 0.512l0.512-1.536c3.584-1.024 6.656-3.584 9.216-6.656 2.56-3.072 5.632-10.24 9.728-20.48l7.68-19.968c1.536-4.096 2.048-6.656 2.048-8.192-0.512-1.536-1.536-2.56-3.584-3.584l0.512-1.024h18.944l12.288 34.816 2.56-6.144c4.096-10.24 6.144-16.896 6.144-20.48 0-3.072-1.024-5.632-3.584-6.656l0.512-1.536h19.968l-0.512 1.536c-3.584 1.024-6.656 3.584-9.216 6.656-2.56 3.584-5.632 10.24-9.728 20.48l-13.824 34.304h-2.048l-16.384-50.176z m103.936 16.384l-0.512 1.024c-2.048 0.512-4.096 2.048-5.632 4.608-1.536 2.048-3.584 6.656-6.656 14.336l-1.024 2.56-1.024 3.072c-4.608 2.56-9.216 4.608-13.824 6.144-4.608 1.536-9.216 2.048-13.312 2.048s-7.68-0.512-10.24-2.048c-2.56-1.536-4.608-3.584-6.144-6.656-1.536-3.072-2.048-6.656-2.048-10.752s1.024-8.192 2.56-12.288 3.584-8.192 6.656-11.776c2.56-3.584 5.632-7.168 9.216-10.24 4.096-3.584 8.704-6.144 13.312-8.192 4.608-2.048 9.216-3.072 13.824-3.072 3.584 0 7.168 0.512 10.24 1.536s6.144 3.072 9.216 5.632l-10.752 16.384-1.024-0.512c1.536-6.656 2.048-11.776 0.512-14.848-1.024-3.072-3.584-5.12-7.168-5.12-4.608 0-9.728 2.56-14.336 7.68-5.12 5.12-9.216 12.288-12.8 21.504-3.584 8.704-5.12 15.36-4.608 20.48 0.512 4.608 2.56 7.168 6.656 7.168 2.56 0 5.12-1.024 7.68-3.072 2.048-2.048 4.096-5.12 5.632-9.216 2.56-6.144 3.584-10.24 3.584-12.288s-1.024-3.072-3.584-4.096l0.512-1.024h18.944c1.536 1.024 4.096 1.024 6.144 1.024z m50.176-3.584h4.608c3.072 0 6.144-1.024 8.704-3.072 2.56-2.048 4.608-5.12 6.144-8.704 1.536-3.584 2.048-6.656 1.024-8.192-1.024-1.536-3.072-2.56-6.656-2.56h-5.12l-8.704 22.528z m-34.304 35.328l0.512-1.536c2.56-1.024 4.608-3.072 6.656-5.632 2.048-2.56 4.096-7.68 7.168-15.872l1.536-3.584 10.24-26.112c1.024-2.56 1.536-4.608 1.536-5.632s-0.512-1.536-1.536-2.048l0.512-1.024c2.56 0 5.12 0 7.168 0.512h19.456c7.68 0 12.8 1.024 15.36 3.584 2.56 2.048 3.072 5.632 1.024 10.24-1.536 4.096-4.096 7.168-7.168 9.216-3.584 2.048-7.68 4.096-13.312 4.608 6.144 0.512 10.24 2.56 12.288 5.12s2.048 6.144 0.512 10.752c-2.048 5.632-6.144 10.24-11.264 13.312-5.12 3.072-11.776 4.608-19.968 4.608h-23.552c-2.048-0.512-4.608-0.512-7.168-0.512z m32.768-31.232l-7.168 17.92c-1.536 4.096-2.56 7.168-2.048 8.192s1.536 1.536 4.096 1.536c4.096 0 7.168-1.024 10.24-3.584 3.072-2.048 5.12-5.632 7.168-10.24 2.048-5.12 2.56-8.704 1.536-10.752s-3.584-3.584-8.192-3.584h-4.096c-0.512 0.512-1.024 0.512-1.536 0.512z m66.56 3.072l0.512-13.824-10.752 13.824h10.24z m-41.984 28.16l0.512-1.536c4.096-1.024 10.24-7.168 18.944-17.408l1.536-1.536 34.816-42.496h1.024l2.048 52.736c0 3.584 0.512 5.632 1.024 7.168 0.512 1.024 1.536 1.536 3.072 2.048l-0.512 1.536h-1.024c-5.12 0-9.216-0.512-11.776-0.512-3.072 0-7.68 0-14.336 0.512h-1.536l0.512-1.536c1.536 0 2.56-0.512 3.584-1.536s2.048-2.048 2.56-3.584c0.512-1.024 0.512-1.536 0.512-2.56s0.512-2.048 0.512-3.584l0.512-12.288h-12.8c-3.072 4.096-5.632 7.168-7.168 9.728-1.536 2.56-3.072 4.608-3.584 6.656-1.024 2.048-1.024 3.584-0.512 5.12 0.512 1.024 1.536 2.048 2.56 2.048l-0.512 1.536h-14.336c-1.536-0.512-3.584-0.512-5.632-0.512z m93.184-48.128l-7.68 19.456c-4.096 10.24-6.144 16.896-6.144 20.48 0 3.072 1.024 5.632 3.584 7.168l-0.512 1.536c-1.536 0-3.072 0-4.608-0.512h-10.752c-1.536 0-3.072 0-5.12 0.512l0.512-1.536c3.584-1.024 6.656-3.584 9.216-6.656 2.56-3.072 5.632-10.24 9.728-20.48l7.68-19.968c1.536-4.096 2.048-6.656 2.048-8.192-0.512-1.536-1.536-2.56-3.584-3.584l0.512-1.024h18.432l12.288 34.816 2.56-6.144c4.096-10.24 6.144-16.896 6.144-20.48 0-3.072-1.024-5.632-3.584-6.656l0.512-1.536h19.968l-0.512 1.536c-3.584 1.024-6.656 3.584-9.216 6.656-2.56 3.584-5.632 10.24-9.728 20.48l-13.824 34.304h-2.048l-15.872-50.176z m33.792 46.592c2.56-1.024 4.608-3.072 6.656-5.632 2.048-2.56 4.096-7.68 7.168-15.872l1.536-3.584 10.24-26.112c1.024-2.56 1.536-4.608 1.536-5.632s-0.512-1.536-1.536-2.048l0.512-1.024c3.072 0 5.12 0 6.656 0.512h8.192c1.536 0 3.584 0 6.656-0.512l-0.512 1.024c-1.536 0.512-2.56 1.024-3.072 2.048-1.024 1.024-1.536 2.56-2.56 5.632l-7.168 17.92 14.848-11.776c2.56-2.048 4.608-3.584 5.632-5.12s2.048-2.56 2.56-3.584c0.512-1.536 0.512-2.56 0.512-3.072-0.512-1.024-1.024-1.536-2.56-1.536l0.512-1.024h0.512c4.096 0 7.68 0.512 9.728 0.512h4.096c1.536 0 3.584 0 6.144-0.512l-0.512 1.024c-4.608 2.048-11.264 6.656-20.992 13.824l-0.512 0.512-16.896 12.8h4.096c2.048 0 3.584 0 4.608 0.512 1.536 0 2.56 0.512 3.072 1.024 2.56 1.536 4.096 5.12 4.096 10.752v1.024l0.512 8.704c0 4.096 0.512 6.656 1.024 8.192 0.512 1.536 1.536 2.048 3.072 2.56l-0.512 1.024c-1.536 0-3.072 0-4.608-0.512h-11.264c-2.048 0-3.584 0-5.12 0.512l1.536-21.504v-1.536c0.512-4.608-0.512-7.168-2.048-7.168-1.024 0-2.048 0.512-2.56 1.536l-3.072 6.144-2.048 4.608c-2.048 4.608-3.072 8.704-3.072 11.264 0 2.56 0.512 4.608 2.048 5.632l-0.512 1.536c-2.048 0-4.096 0-6.144-0.512H1689.6c-2.048 0-4.096 0-6.144 0.512l-1.024-3.072z m60.928 1.536l0.512-1.536c2.56-1.024 4.608-3.072 6.656-5.632 2.048-2.56 4.096-7.68 7.168-15.872l1.536-3.584 10.24-26.112c1.024-2.56 1.536-4.608 1.536-5.632s-0.512-1.536-1.536-2.048l0.512-1.024c3.072 0 5.12 0 6.656 0.512h8.192c1.536 0 3.584 0 6.656-0.512l-0.512 1.024c-1.536 0.512-2.56 1.024-3.072 2.048-1.024 1.024-1.536 2.56-2.56 5.632L1773.568 640c-3.072 7.68-4.608 13.312-5.12 15.872-0.512 2.56 0.512 4.608 2.048 5.632l-0.512 1.536c-2.048 0-4.096 0-6.144-0.512h-13.312c-3.072 0.512-5.12 0.512-7.168 0.512z m61.44-48.128l-7.68 19.456c-4.096 10.24-6.144 16.896-6.144 20.48 0 3.072 1.024 5.632 3.584 7.168l-0.512 1.536c-1.536 0-3.072 0-4.608-0.512h-10.752c-1.536 0-3.072 0-5.12 0.512l0.512-1.536c3.584-1.024 6.656-3.584 9.216-6.656 2.56-3.072 5.632-10.24 9.728-20.48l7.68-19.968c1.536-4.096 2.048-6.656 2.048-8.192-0.512-1.536-1.536-2.56-3.584-3.584l0.512-1.024h18.944l12.288 34.816 2.56-6.144c4.096-10.24 6.144-16.896 6.144-20.48 0-3.072-1.024-5.632-3.584-6.656l0.512-1.536h19.968l-0.512 1.536c-3.584 1.024-6.656 3.584-9.216 6.656-2.56 3.584-5.632 10.24-9.728 20.48l-13.824 34.304h-0.512l-17.92-50.176z m103.936 16.384l-0.512 1.024c-2.048 0.512-4.096 2.048-5.632 4.608-1.536 2.048-3.584 6.656-6.656 14.336l-1.024 2.56-1.024 3.072c-4.608 2.56-9.216 4.608-13.824 6.144-4.608 1.536-9.216 2.048-13.312 2.048s-7.68-0.512-10.24-2.048c-2.56-1.536-4.608-3.584-6.144-6.656-1.536-3.072-2.048-6.656-2.048-10.752s1.024-8.192 2.56-12.288 3.584-8.192 6.656-11.776c2.56-3.584 5.632-7.168 9.216-10.24 4.096-3.584 8.192-6.144 13.312-8.192 4.608-2.048 9.216-3.072 13.824-3.072 3.584 0 7.168 0.512 10.24 1.536s6.144 3.072 9.216 5.632l-10.752 16.384-1.024-0.512c1.536-6.656 2.048-11.776 0.512-14.848-1.024-3.072-3.584-5.12-7.168-5.12-4.608 0-9.728 2.56-14.336 7.68-5.12 5.12-9.216 12.288-12.8 21.504-3.584 8.704-5.12 15.36-4.608 20.48 0.512 4.608 2.56 7.168 6.656 7.168 2.56 0 5.12-1.024 7.68-3.072 2.048-2.048 4.096-5.12 5.632-9.216 2.56-6.144 3.584-10.24 3.584-12.288s-1.024-3.072-3.584-4.096l0.512-1.024h18.944c1.536 1.024 4.096 1.024 6.144 1.024z m71.68 9.728l1.536-0.512-3.072 15.872c-4.608 2.56-8.704 4.608-13.312 6.144-4.096 1.536-8.192 2.048-12.288 2.048s-7.68-0.512-10.24-2.048c-2.56-1.536-4.608-3.584-6.144-6.656-1.536-3.072-2.048-6.656-2.048-10.752s1.024-8.192 2.56-12.288 3.584-7.68 6.656-11.776c2.56-3.584 5.632-7.168 9.216-10.24 4.096-3.584 8.704-6.144 13.312-8.192 4.608-2.048 9.216-3.072 13.824-3.072 3.584 0 7.168 0.512 9.728 2.048 3.072 1.024 5.632 3.072 7.68 5.632l-11.776 18.432-1.024-0.512c2.048-7.68 2.56-13.312 2.048-16.896-0.512-3.072-3.072-5.12-6.656-5.12-4.608 0-9.216 2.56-14.336 8.192-5.12 5.632-9.216 12.8-12.8 21.504-3.072 8.192-4.096 14.336-3.584 19.456 1.024 5.12 3.584 7.168 7.68 7.168 3.584 0 7.168-1.536 10.752-4.608 4.608-2.56 8.704-7.168 12.288-13.824z m34.816 20.48c4.096 0 8.192-2.56 12.288-7.168 4.096-4.608 8.192-12.288 11.776-22.016 4.096-9.728 5.632-16.896 5.632-22.016 0-4.608-2.56-7.168-6.656-7.168s-8.192 2.56-12.288 7.168c-4.096 4.608-7.68 11.776-11.776 22.016-4.096 9.728-5.632 17.408-5.632 22.016 0 4.608 2.048 7.168 6.656 7.168z m-17.408-29.184c2.048-4.608 4.608-9.216 7.68-13.312s6.656-7.68 10.752-10.752c3.584-2.56 7.68-4.608 11.264-6.144 4.096-1.536 7.68-2.048 11.776-2.048s7.168 0.512 10.24 2.048c2.56 1.536 5.12 3.584 6.656 6.144 2.048 3.072 2.56 6.656 2.56 10.752s-1.024 8.192-3.072 12.8c-1.536 3.584-3.072 6.656-5.12 9.728s-4.608 6.144-7.168 8.704c-4.608 4.608-9.216 7.68-14.336 10.24-5.12 2.56-10.24 3.584-14.848 3.584-4.096 0-7.168-0.512-10.24-2.048s-5.12-3.584-6.656-6.656c-1.536-3.072-2.56-6.656-2.56-10.752 0-3.584 1.024-7.68 3.072-12.288z m54.784 30.72l0.512-1.536c2.56-1.024 4.608-3.072 6.656-5.632 2.048-2.56 4.096-7.68 7.168-15.872l1.536-3.584 10.24-26.112c1.024-2.56 1.536-4.608 1.536-5.632s-0.512-1.536-1.536-2.048l0.512-1.536h22.528c9.216 0 15.872 1.024 18.944 3.584 3.072 2.56 3.584 6.144 1.536 11.264-1.536 4.096-4.096 7.168-8.192 9.728s-9.216 4.096-15.36 5.12c3.584 0.512 6.144 2.048 7.68 3.584 1.536 2.048 2.56 4.608 2.56 8.192 0 1.536 0 3.072-0.512 5.632-0.512 8.192 0.512 12.288 3.584 12.8l-0.512 1.024h-20.992c0-1.536 0.512-3.072 1.024-5.632 2.56-16.384 1.024-24.576-4.096-24.576h-2.048l-2.56 7.168c-3.072 8.192-5.12 13.312-5.12 15.872-0.512 2.56 0.512 4.608 2.048 5.632l-0.512 1.536c-2.048 0-4.096 0-6.144-0.512h-13.312c-3.072 1.536-5.12 1.536-7.168 1.536z m34.304-34.304h3.584c3.584 0 6.656-1.024 9.216-2.56 2.56-2.048 4.608-5.12 6.144-9.216 1.536-4.096 2.048-6.656 1.024-8.704-1.024-2.048-3.072-3.072-6.144-3.072h-4.608l-9.216 23.552z m60.416 1.536c1.024 0.512 1.536 0.512 2.048 0.512h2.048c3.072 0 6.144-1.024 8.704-3.584 2.56-2.56 5.12-5.632 6.656-9.728 1.536-4.096 2.048-7.68 1.024-9.728s-3.584-3.072-7.168-3.072h-3.584l-9.728 25.6z m-33.28 32.768l0.512-1.536c2.56-1.024 4.608-3.072 6.656-5.632 2.048-2.56 4.096-7.68 7.168-15.872l1.536-3.584 10.24-26.112c1.024-2.56 1.536-4.608 1.536-5.632s-0.512-1.536-1.536-2.048l0.512-1.024c2.56 0 4.608 0 7.168 0.512h15.36c9.216 0 15.36 1.024 18.432 3.584 3.072 2.56 3.584 6.656 1.024 12.288-2.048 5.12-5.632 9.216-11.264 12.288-5.632 3.072-11.776 4.608-18.944 4.608h-3.072c-1.024 0-2.56-0.512-3.584-0.512l-2.56 6.144c-3.072 8.192-5.12 13.312-5.12 15.872-0.512 2.56 0.512 4.608 2.048 5.632l-0.512 1.536c-2.048 0-4.096 0-6.144-0.512h-19.456z m46.592-6.656c1.024-2.048 2.048-3.584 4.096-5.12s3.584-2.048 5.632-2.048c2.048 0 3.072 0.512 4.096 2.048s1.024 3.072 0 5.12-2.048 4.096-4.096 5.12c-2.048 1.536-4.096 2.048-5.632 2.048s-3.072-0.512-4.096-2.048c-1.024-1.024-0.512-3.072 0-5.12z m28.672 19.968l-1.024-1.536c2.048-2.048 3.584-4.096 5.12-5.632 1.536-2.048 2.56-3.584 3.072-5.12-2.56 0-4.096-1.024-4.608-2.048-0.512-1.024-0.512-2.56 0-5.12 1.024-2.56 2.048-4.096 4.096-5.632 1.536-1.536 3.584-2.048 5.632-2.048 2.56 0 3.584 1.024 4.608 2.56 0.512 1.536 0.512 4.096-1.024 7.168-1.024 2.56-3.072 5.632-5.632 8.192-2.56 3.072-6.144 6.144-10.24 9.216z m29.184-13.312l0.512-1.536c2.56-1.024 4.608-3.072 6.144-5.632 2.048-2.56 3.584-6.656 6.144-12.288l13.312-33.28c1.024-2.56 1.536-4.608 1.536-5.632s-0.512-1.536-1.536-2.048l0.512-1.024c3.072 0 5.12 0 6.656 0.512h8.192c1.536 0 3.584 0 6.656-0.512l-0.512 1.024c-1.536 0.512-2.56 1.024-3.072 2.048-1.024 1.024-1.536 2.56-2.56 5.632l-14.336 36.352c-1.536 4.608-2.56 7.68-2.048 9.728s2.048 3.072 4.608 3.072c3.072 0 6.656-1.536 11.264-4.608 4.608-3.072 9.728-7.168 15.36-12.8l1.024 0.512-12.288 20.48h-45.568z m58.88 0l0.512-1.536c2.56-1.024 4.608-3.072 6.656-5.632 2.048-2.56 4.096-7.68 7.168-15.872l1.536-3.584L2304 608.768c0.512-1.024 0.512-2.048 0.512-2.56s-0.512-0.512-1.024-0.512c-2.048 0-4.608 1.024-8.192 3.584-3.584 2.56-7.68 5.632-12.288 9.728h-1.536l10.24-17.408h45.056l-3.584 17.408h-1.536c-1.024-4.096-3.072-7.68-4.608-9.728-2.048-2.56-3.584-3.584-5.632-3.584-0.512 0-1.024 0-1.536 0.512s-0.512 1.024-1.024 2.56l-1.024 2.56-11.264 29.184c-3.072 7.68-4.608 13.312-5.12 15.872-0.512 2.56 0.512 4.608 2.048 5.632l-0.512 1.536c-2.048 0-4.096 0-6.144-0.512h-19.456z m88.576-57.856l-16.384 40.96c-2.56 6.144-3.584 9.728-3.072 11.264 0 1.536 1.536 2.56 3.584 2.56 4.608 0 9.216-2.56 13.312-7.168 4.096-4.608 8.192-11.776 11.776-20.992 3.584-9.216 5.12-16.384 4.608-20.48-0.512-4.096-3.584-6.656-8.192-6.656h-2.56c-1.024 0.512-2.048 0.512-3.072 0.512z m-43.52 57.856l0.512-1.536c2.56-1.536 4.608-3.072 6.656-6.144 2.048-2.56 4.608-8.192 7.68-16.896l1.024-2.56 10.24-26.112c1.024-2.56 1.536-4.608 1.536-5.12 0-1.024-0.512-1.536-1.536-2.048l0.512-1.024c2.048 0 4.608 0 6.656 0.512h18.432c9.728 0 15.872 2.56 18.944 7.68 3.072 5.12 2.56 12.288-1.024 21.504-4.096 10.24-9.728 18.432-16.896 24.064s-15.36 8.192-24.064 8.192c-1.024 0-3.072 0-6.144-0.512-3.072 0-5.12-0.512-7.168-0.512h-4.608c-2.048 0-5.632 0.512-10.752 0.512z m66.048-6.656c1.024-2.048 2.048-3.584 4.096-5.12s3.584-2.048 5.632-2.048c2.048 0 3.072 0.512 4.096 2.048s1.024 3.072 0 5.12-2.048 4.096-4.096 5.12c-2.048 1.536-4.096 2.048-5.632 2.048s-3.072-0.512-4.096-2.048c-1.024-1.024-1.024-3.072 0-5.12z" fill="#231815" p-id="21749"></path></svg>