<?xml version="1.0" standalone="no"?><!DOCTYPE svg PUBLIC "-//W3C//DTD SVG 1.1//EN" "http://www.w3.org/Graphics/SVG/1.1/DTD/svg11.dtd"><svg t="1542263081105" class="icon" style="" viewBox="0 0 5535 1024" version="1.1" xmlns="http://www.w3.org/2000/svg" p-id="20231" xmlns:xlink="http://www.w3.org/1999/xlink" width="1081.0546875" height="200"><defs><style type="text/css"></style></defs><path d="M2123.800808 664.290713c-180.543742-34.454913-315.606999-130.928668-315.606999-132.306864-1.378197-1.378197-16.538358-8.269179-13.781965-19.294751 6.890983-28.942127 49.615074-89.582773 53.749663-97.851951 4.13459-8.269179 1.378197-23.429341-8.269179-24.807537-66.153432-13.781965-67.531629-15.160162-67.531628-15.160162-17.916555-1.378197-19.294751 8.269179-19.294751 8.269179l1.378196 46.858681c-12.403769 41.345895-19.294751 38.589502-19.294751 38.589502s-53.749664-39.967699-56.506056-42.724091c-4.13459-2.756393-45.480485-6.890983-45.480485-6.890983s4.13459-6.890983 8.269179-9.647375c60.640646-52.371467 77.179004-99.230148 77.179004-100.608345 0-1.378197-1.378197-27.56393-1.378196-27.56393l-20.672948-27.56393 53.749664-15.160161s31.69852-9.647376 37.211305-2.756393c11.025572 12.403769 13.781965 66.153432 13.781965 66.153432 17.916555 39.967699 77.179004 55.12786 81.313594 56.506056 4.13459 1.378197 104.742934 30.320323 104.742934 30.320323 24.807537-19.294751 20.672948-46.858681 20.672947-46.858681 5.512786-15.160162-49.615074-38.589502-70.288021-42.724091-75.800808-17.916555-89.582773-30.320323-108.877524-45.480485-20.672948-15.160162-5.512786-30.320323-5.512786-30.320323s39.967699-12.403769 50.993271-13.781965c16.538358-2.756393 107.499327-8.269179 107.499327-8.269179 26.185734 2.756393 26.185734-8.269179 26.185733-8.269179l-8.269179-60.640646c2.756393-8.269179-4.13459-23.429341-9.647375-22.051144-111.633917 33.076716-183.300135 38.589502-183.300135 38.589502-9.647376 1.378197-11.025572-48.236878-6.890982-70.288021 4.13459-26.185734-20.672948-42.724092-37.211306-42.724092-16.538358-1.378197-41.345895-16.538358-41.345895-16.538358-63.397039 85.448183 20.672948 106.121131 26.185734 107.499327 22.051144 8.269179 17.916555 11.025572 24.807537 20.672948 8.269179 11.025572-16.538358 19.294751-33.076716 23.42934-148.845222 39.967699-202.594886 41.345895-217.755047 41.345895-33.076716-1.378197-22.051144 30.320323-22.051144 30.320323s11.025572 13.781965 17.916554 28.942127c11.025572 26.185734 67.531629 6.890983 78.557201 4.134589 62.018843-16.538358 62.018843-11.025572 62.018842-11.025572 9.647376 11.025572-8.269179 44.102288-8.269179 44.102288-39.967699 53.749664-97.851952 85.448183-108.877523 89.582773-11.025572 4.13459-16.538358 1.378197-16.538358 1.378196-5.512786 15.160162 11.025572 38.589502 17.916554 38.589502 5.512786 0 56.506057-1.378197 56.506057-1.378196l6.890982-2.756393c5.512786 0 4.13459 8.269179 4.13459 8.269179 2.756393 38.589502 26.185734 48.236878 39.967698 50.99327 44.102288 11.025572 55.12786 33.076716 55.12786 33.076716-97.851952 132.306864-277.017497 119.903096-277.017496 119.903096 5.512786 5.512786 20.672948 13.781965 50.99327 20.672947 99.230148 19.294751 190.191117-33.076716 197.0821-39.967698 6.890983-5.512786 60.640646-46.858681 68.909825-55.12786 12.403769-13.781965 20.672948-6.890983 20.672947-6.890983s86.82638 73.044415 114.39031 96.473755c152.979812 129.550471 246.697174 12.403769 246.697174 12.403769l-2.756393-9.647376zM2648.893674 223.267833c16.538358-28.942127-8.269179-62.018843-23.42934-71.666218-55.12786-34.454913-60.640646-52.371467-60.640646-52.371467-31.69852 15.160162-31.69852 50.993271-23.429341 71.666218 27.56393 68.909825 101.986541 62.018843 107.499327 52.371467z" fill="#00397A" p-id="20232"></path><path d="M2986.551817 628.457604s-6.890983-4.13459-2.756393-13.781965 9.647376-34.454913 8.269179-38.589502c0 0-12.403769-152.979812-1.378197-224.646029 4.13459-30.320323 9.647376-79.935397 13.781965-82.69179 0 0-8.269179-26.185734-74.422611-23.429341-22.051144 1.378197-49.615074 19.294751-64.775235 8.269179-11.025572-8.269179-8.269179-15.160162 0-23.42934 8.269179-8.269179 99.230148-106.121131 118.524899-110.25572 0 0 22.051144-28.942127-26.185734-55.12786-27.56393-15.160162-34.454913-26.185734-70.288021-2.756393-20.672948 13.781965-79.935397 66.153432-117.146703 71.666218-19.294751 2.756393-22.051144-13.781965-24.807537-15.160162l-8.269179-5.512786s-33.076716 30.320323-30.320323 74.422611c1.378197 22.051144 60.640646 2.756393 77.179004-11.025572 12.403769-9.647376 88.204576-55.12786 73.044415-15.160161l-46.858681 52.371467-37.211306 9.647375s-20.672948 8.269179-2.756393 26.185734c0 0 28.942127 19.294751 26.185734 27.56393 0 0-4.13459 11.025572-44.102288 30.320323-8.269179 4.13459-19.294751 12.403769-20.672948 15.160161 0 1.378197 0 1.378197-1.378196 1.378197l-28.942127-17.916555h-22.051144s6.890983 53.749664 6.890983 59.26245c0 6.890983-1.378197 209.485868 13.781965 239.806191l-74.422611-5.512786s-111.633917-117.146703-27.56393-277.017497c11.025572-19.294751 24.807537-45.480485-13.781965-62.018842-16.538358-6.890983-53.749664-12.403769-60.640646-19.294751 0 0-24.807537-9.647376-22.051144 23.42934l17.916554 39.967699s-2.756393 23.429341-13.781965 77.179004c-2.756393 12.403769-13.781965 81.313594 45.480485 179.165545 0 0 11.025572 19.294751 8.269179 24.807537-2.756393 6.890983-6.890983 2.756393-6.890983 2.756393l-77.179004-8.269179s-17.916555-5.512786-20.672947 13.781965c-2.756393 12.403769-16.538358 57.884253 8.269179 62.018842 0 0 146.088829-31.69852 365.222072 26.185734 38.589502 11.025572 96.473755 20.672948 208.107672 17.916554 0 0 141.95424-19.294751 141.95424-103.364737-2.756393 1.378197-33.076716-23.429341-191.569314 31.698519z m-190.191117-151.601615s-44.102288 6.890983-46.858681 5.512786c0 0-1.378197-44.102288-1.378197-48.236877 0 0 13.781965 6.890983 23.429341 8.269179 9.647376 0 17.916555 2.756393 30.320323 0 0 0 5.512786 0 5.512786 13.781965 1.378197 17.916555 2.756393 19.294751-11.025572 20.672947z m-56.506057-82.69179s-13.781965-37.211306-2.756393-44.102288c0 0 16.538358 4.13459 63.397039-12.403768 0 0 6.890983 15.160162 5.512786 33.076716-1.378197 8.269179-6.890983 6.890983-6.890982 6.890982s-34.454913 12.403769-44.102288 20.672948c-5.512786 5.512786-12.403769 12.403769-15.160162-4.13459z m68.909825 230.158816c-49.615074-2.756393-63.397039-12.403769-63.397039-12.403769 1.378197-2.756393 5.512786-78.557201 5.512786-78.5572 60.640646-2.756393 60.640646 2.756393 60.640646 2.756393 4.13459 45.480485-2.756393 88.204576-2.756393 88.204576z m135.063257-300.446837c0 5.512786-1.378197 226.024226-1.378196 226.024226-2.756393 5.512786-46.858681 8.269179-46.858681 8.269179-4.13459 17.916555 45.480485 75.800808 45.480484 75.800807s-1.378197 4.13459-16.538358 4.13459c-74.422611 1.378197-89.582773-9.647376-89.582772-9.647376 5.512786 0 28.942127-28.942127 28.942126-28.942126v-68.909825c39.967699-13.781965 52.371467-34.454913 52.371467-34.454913 6.890983-37.211306-6.890983-39.967699-6.890982-39.967698l-33.076716 5.512786c-15.160162 1.378197-12.403769-8.269179-12.403769-8.269179v-27.56393c0-2.756393 55.12786-27.56393 55.12786-27.56393s5.512786-15.160162 1.378197-35.833109c-2.756393-22.051144-56.506057-2.756393-56.506057-2.756393l-2.756393-37.211306s26.185734-4.13459 34.454913-8.269179c8.269179-4.13459 41.345895-9.647376 41.345895-9.647375 8.269179 1.378197 8.269179 13.781965 6.890982 19.294751zM4627.983849 228.780619c57.884253-1.378197 86.82638-30.320323 86.82638-30.320323s16.538358-15.160162 35.833109-34.454912c22.051144-22.051144 45.480485-48.236878 45.480484-48.236878l16.538358-9.647375v-8.269179c-26.185734-28.942127-73.044415-39.967699-73.044414-39.967699-1.378197-2.756393-8.269179 1.378197-8.269179 1.378197-15.160162 28.942127-59.26245 71.666218-70.288022 81.313593-44.102288 39.967699-57.884253 75.800808-57.884253 75.800808s8.269179 12.403769 24.807537 12.403768zM4816.79677 245.318977c5.512786-11.025572 0-17.916555 0-17.916554-49.615074-20.672948-88.204576-19.294751-88.204576-19.294751l-16.538358 5.512786c-124.037685 184.678331-263.235532 245.318977-263.235532 245.318977-5.512786 5.512786 9.647376 41.345895 9.647376 41.345895s8.269179 4.13459 20.672947 4.134589c45.480485 2.756393 144.710633-77.179004 144.710633-77.179004 15.160162-1.378197 20.672948 20.672948 20.672947 20.672948-2.756393 6.890983-5.512786 169.51817-5.512786 181.921938-1.378197 37.211306 15.160162 63.397039 28.942127 63.397039s39.967699-23.429341 39.967698-23.429341l-2.756393-132.306864c-2.756393-8.269179-17.916555-152.979812-17.916554-152.979811 97.851952-82.69179 124.037685-128.172275 129.550471-139.197847zM4847.117093 162.627187c13.781965 39.967699 33.076716 60.640646 33.076716 60.640646 84.069987 37.211306 194.325707-39.967699 199.838492-44.102288 5.512786-4.13459 8.269179-30.320323 8.269179-30.320323-2.756393-5.512786-28.942127-24.807537-28.942126-24.807537l-13.781965-4.134589c-93.717362 15.160162-201.216689 12.403769-201.216689 12.403768l-4.13459 16.538358c1.378197 2.756393 2.756393 1.378197 6.890983 13.781965z" fill="#00397A" p-id="20233"></path><path d="M5157.211306 238.427995s-144.710633 33.076716-183.300135 34.454912c-22.051144 1.378197-144.710633 15.160162-144.710633 15.160162s-52.371467 5.512786-56.506056 55.12786c-1.378197 12.403769-1.378197 44.102288 2.756393 48.236877 0 0 46.858681-13.781965 107.499327-26.185733 20.672948-4.13459 49.615074-5.512786 55.12786-5.512786 0 0 9.647376 230.158816 5.512786 238.427994 0 0 2.756393 34.454913-35.833109 20.672948 0 0-39.967699-24.807537-78.557201-23.429341 0 0-1.378197 5.512786 6.890983 13.781965s64.775236 53.749664 90.960969 86.82638c8.269179 11.025572 101.986541 46.858681 107.499327-55.12786 1.378197-17.916555-19.294751-195.703903-20.672948-206.729475-1.378197-11.025572-5.512786-79.935397 0-84.069987 0 0 151.601615-20.672948 180.543742-53.749663 9.647376-9.647376-1.378197-41.345895-37.211305-57.884253z" fill="#00397A" p-id="20234"></path><path d="M3799.687752 549.900404s-70.288022 11.025572-71.666218 9.647375c-1.378197-2.756393 8.269179-12.403769 19.294751-20.672947 31.69852-23.429341 44.102288-41.345895 44.102288-41.345895 20.672948-42.724092-4.13459-41.345895-4.134589-41.345895-20.672948-6.890983-33.076716 11.025572-37.211306 17.916554-34.454913 48.236878-35.833109 44.102288-35.833109 44.102288-5.512786-27.56393-1.378197-86.82638-1.378196-86.826379l52.371467-28.942127c15.160162-5.512786 17.916555-37.211306 8.269179-42.724091-8.269179-5.512786-57.884253 1.378197-57.884253 1.378196s-6.890983 2.756393-9.647376 0c-2.756393-2.756393 1.378197-23.429341 1.378197-23.42934l44.102288-20.672948c11.025572-9.647376 8.269179-35.833109 8.269179-35.833109-8.269179-11.025572-33.076716-15.160162-33.076716-15.160161l-63.397039 1.378196s-16.538358 4.13459-15.160162-5.512786c4.13459-20.672948 48.236878-60.640646 48.236878-60.640646 23.429341 0 55.12786 24.807537 60.640646 28.942127 24.807537 22.051144 49.615074 39.967699 49.615074 39.967698 4.13459-110.25572-46.858681-129.550471-55.12786-135.063257-9.647376-5.512786-8.269179-13.781965-8.269179-13.781965 27.56393-19.294751 24.807537-24.807537 24.807537-24.807537-28.942127-74.422611-79.935397-56.506057-79.935397-56.506056 0 2.756393-30.320323 62.018843-41.345895 81.313593-78.557201 143.332436-210.864065 246.697174-214.998654 250.831763-4.13459 5.512786-50.993271 27.56393-50.993271 27.56393 23.429341 56.506057 78.557201 48.236878 89.582773 45.480485 34.454913-8.269179 121.281292-118.524899 121.281292-118.524899 2.756393 6.890983 16.538358 6.890983 23.42934 8.269179 24.807537 5.512786 44.102288 6.890983 44.102288 6.890982l2.756393 31.69852-50.99327 15.160161s-23.429341 5.512786-23.429341 31.69852c-2.756393 53.749664 37.211306 37.211306 37.211306 37.211305l42.724091-13.781965c2.756393 2.756393 6.890983 68.909825 6.890983 68.909825L3624.656797 482.368775c-26.185734 15.160162-27.56393 39.967699-27.56393 39.967699 12.403769 35.833109 34.454913 37.211306 45.480484 41.345895 8.269179 4.13459 6.890983 13.781965 1.378197 16.538358-111.633917 59.26245-119.903096 55.12786-119.903096 55.12786l-8.269179 19.294751c0 50.993271 68.909825 34.454913 73.044415 31.698519 113.012113-60.640646 191.569314-79.935397 191.569313-79.935397 13.781965 0 26.185734-27.56393 26.185734-27.56393l9.647375-16.538358c9.647376-15.160162-16.538358-12.403769-16.538358-12.403768zM4123.56393 494.772544c-37.211306-12.403769-79.935397-39.967699-79.935397-39.967699 1.378197-1.378197 135.063257-81.313594 135.063257-81.313593-33.076716-39.967699-74.422611-62.018843-74.422611-62.018843-73.044415 117.146703-176.409152 125.415882-192.94751 126.794078-16.538358 0-19.294751 0-20.672948-15.160161-1.378197-49.615074 6.890983-50.993271 6.890983-50.993271s12.403769 0 20.672947 8.269179c17.916555 16.538358 56.506057 4.13459 56.506057 4.13459l26.185733-23.429341c27.56393-31.69852 31.69852-42.724092 33.076716-68.909825 5.512786-64.775236 16.538358-89.582773 23.429341-110.25572 19.294751-52.371467 16.538358-63.397039 16.538358-63.397039-4.13459-56.506057-59.26245-38.589502-66.153432-35.833109-42.724092 16.538358-97.851952 23.429341-114.39031 27.56393-45.480485 13.781965-38.589502 22.051144-38.589502 22.051144l-2.756393 44.102288s-6.890983 232.915209-8.269179 250.831763c-6.890983 180.543742 6.890983 268.748318 6.890983 268.748318-1.378197 15.160162 19.294751 23.429341 19.294751 23.42934 66.153432-4.13459 118.524899-122.659489 122.659488-137.81965 20.672948-71.666218 26.185734-63.397039 26.185734-63.397039 50.993271 20.672948 111.633917 93.717362 115.768506 96.473755 4.13459 2.756393 9.647376 1.378197 15.160162-8.269179 4.13459-9.647376 38.589502-52.371467 38.589502-52.371467 2.756393-13.781965-42.724092-52.371467-64.775236-59.262449z m-212.242261-330.76716c1.378197-11.025572 71.666218-12.403769 79.935397-9.647376 8.269179 2.756393 9.647376 26.185734 9.647375 26.185734-6.890983 34.454913-12.403769 31.69852-12.403768 31.698519-42.724092 9.647376-79.935397 1.378197-79.935397 1.378197-4.13459-11.025572 2.756393-49.615074 2.756393-49.615074z m-15.160162 108.877523l5.512786-8.269179 82.69179-2.756393s5.512786 4.13459 2.756393 13.781965c-4.13459 11.025572-15.160162 50.993271-48.236877 49.615074 0 0-44.102288 8.269179-45.480485-5.512786l2.756393-46.858681z m44.102288 292.177658c-22.051144 9.647376-34.454913 2.756393-34.454912 2.756393s-20.672948-38.589502-13.781965-104.742934c0 0 4.13459-2.756393 8.269179-1.378196 0 0 44.102288 6.890983 99.230148 39.967698 0-1.378197 5.512786 34.454913-59.26245 63.397039z" fill="#00397A" p-id="20235"></path><path d="M1172.845222 910.987887h57.884253c16.538358 0 33.076716 5.512786 33.076716 22.051144 0 17.916555-12.403769 26.185734-34.454912 26.185733h-55.12786v-48.236877zM1130.121131 990.923284h92.339165c44.102288 0 56.506057-6.890983 68.909825-16.538358C1302.395693 964.73755 1309.286676 950.955585 1309.286676 937.17362c0-17.916555-6.890983-35.833109-33.076716-44.102288 9.647376-4.13459 26.185734-11.025572 26.185733-37.211305 0-19.294751-13.781965-46.858681-67.531628-46.858681H1130.121131v181.921938zM1172.845222 840.699865h52.371467c20.672948 0 33.076716 4.13459 33.076716 19.294751 0 15.160162-13.781965 20.672948-31.698519 20.672948h-53.749664V840.699865zM1425.055182 850.347241l27.56393 71.666218h-55.12786l27.56393-71.666218z m-39.967699 103.364737h79.935397l13.781965 37.211306h49.615074l-75.800807-180.543742h-52.371467L1323.068641 990.923284h48.236877l13.781965-37.211306zM1689.66891 809.001346h42.724091v180.543741h-45.480484l-88.204576-129.550471v129.550471h-42.724092V809.001346h48.236878l85.448183 125.415881v-125.415881zM1824.732167 990.923284h-45.480485V809.001346h45.480485V882.04576l82.69179-73.044414h59.262449l-88.204576 74.422611 93.717362 107.499327h-57.884253l-67.531628-79.935397-20.672948 17.916554v62.018843zM2198.223419 899.962315c0-50.993271 34.454913-63.397039 59.262449-63.397039 24.807537 0 59.26245 12.403769 59.26245 63.397039s-34.454913 63.397039-59.26245 63.397039c-24.807537 0-59.26245-12.403769-59.262449-63.397039z m-45.480485 0c0 85.448183 75.800808 95.095559 104.742934 95.095558 28.942127 0 104.742934-9.647376 104.742934-95.095558s-75.800808-95.095559-104.742934-95.095559c-28.942127 0-104.742934 9.647376-104.742934 95.095559zM2442.164199 990.923284h-45.480484V809.001346h154.358008V840.699865h-108.877524v41.345895h95.095559v31.69852h-95.095559v77.179004zM2876.296097 868.263795c-4.13459-11.025572-11.025572-31.69852-48.236878-31.698519-22.051144 0-53.749664 12.403769-53.749663 63.397039 0 33.076716 15.160162 62.018843 53.749663 62.018842 24.807537 0 42.724092-12.403769 48.236878-34.454912h45.480484c-9.647376 38.589502-39.967699 66.153432-95.095558 66.153432-57.884253 0-99.230148-31.69852-99.230148-95.095559 0-63.397039 44.102288-95.095559 99.230148-95.095558 64.775236 0 90.960969 37.211306 93.717362 63.397039h-44.102288zM2990.686406 899.962315c0-50.993271 34.454913-63.397039 59.26245-63.397039 24.807537 0 59.26245 12.403769 59.26245 63.397039s-34.454913 63.397039-59.26245 63.397039c-24.807537 0-59.26245-12.403769-59.26245-63.397039z m-45.480484 0c0 85.448183 75.800808 95.095559 104.742934 95.095558 28.942127 0 104.742934-9.647376 104.742934-95.095558s-75.800808-95.095559-104.742934-95.095559c-28.942127 0-104.742934 9.647376-104.742934 95.095559zM3398.632571 990.923284h-42.724092v-151.601615l-39.967698 151.601615h-44.102288l-39.967699-151.601615v151.601615h-42.724091V809.001346h66.153432l39.967698 143.332436 38.589502-143.332436h66.153432v181.921938zM3650.84253 990.923284h-42.724091v-151.601615l-39.967699 151.601615h-44.102288l-39.967698-151.601615v151.601615h-42.724092V809.001346h66.153432l39.967699 143.332436 38.589502-143.332436h66.153432v181.921938zM3868.597577 927.526245c0 48.236878-34.454913 67.531629-89.582772 67.531628-20.672948 0-49.615074-4.13459-68.909825-22.051144-12.403769-11.025572-16.538358-26.185734-16.538358-44.102288v-119.903095h46.858681v117.146702c0 24.807537 17.916555 35.833109 38.589502 35.833109 31.69852 0 44.102288-12.403769 44.102288-34.454912v-119.903096h46.858681v119.903096zM4045.006729 809.001346h42.724092v180.543741h-45.480485l-88.204576-129.550471v129.550471h-42.724091V809.001346h48.236877l85.448183 125.415881v-125.415881zM4173.179004 990.923284h-45.480484V809.001346h45.480484v181.921938zM4353.722746 868.263795c-4.13459-11.025572-11.025572-31.69852-48.236878-31.698519-22.051144 0-53.749664 12.403769-53.749663 63.397039 0 33.076716 15.160162 62.018843 53.749663 62.018842 24.807537 0 42.724092-12.403769 48.236878-34.454912h45.480484c-9.647376 38.589502-39.967699 66.153432-95.095558 66.153432-57.884253 0-99.230148-31.69852-99.230148-95.095559 0-63.397039 44.102288-95.095559 99.230148-95.095558 64.775236 0 90.960969 37.211306 93.717362 63.397039h-44.102288zM4519.106326 850.347241l27.56393 71.666218h-55.12786l27.56393-71.666218z m-39.967699 103.364737h79.935397l13.781965 37.211306h49.615074l-75.800807-180.543742h-52.371467l-77.179004 180.543742h48.236877l13.781965-37.211306zM4717.566622 990.923284H4672.086137V840.699865h-66.153432v-31.698519H4782.341857V840.699865h-66.153432v150.223419zM4851.251682 990.923284h-45.480484V809.001346h45.480484v181.921938zM4929.808883 899.962315c0-50.993271 34.454913-63.397039 59.262449-63.397039 24.807537 0 59.26245 12.403769 59.26245 63.397039s-34.454913 63.397039-59.26245 63.397039c-24.807537 0-59.26245-12.403769-59.262449-63.397039z m-45.480485 0c0 85.448183 75.800808 95.095559 104.742934 95.095558 28.942127 0 104.742934-9.647376 104.742934-95.095558s-75.800808-95.095559-104.742934-95.095559c-28.942127 0-104.742934 9.647376-104.742934 95.095559zM5260.576043 809.001346h42.724092v180.543741h-45.480485l-88.204576-129.550471v129.550471H5126.890983V809.001346h48.236877l85.448183 125.415881v-125.415881zM5379.100942 934.417227c0 9.647376 6.890983 28.942127 45.480485 28.942127 22.051144 0 45.480485-4.13459 45.480484-23.429341 0-13.781965-16.538358-17.916555-38.589502-22.051144l-23.42934-4.134589c-34.454913-6.890983-68.909825-13.781965-68.909825-53.749664 0-20.672948 12.403769-55.12786 82.69179-55.12786 66.153432 0 84.069987 35.833109 84.069986 57.884253h-44.102288c-1.378197-8.269179-5.512786-27.56393-44.102288-27.56393-17.916555 0-37.211306 5.512786-37.211305 22.051144 0 13.781965 13.781965 16.538358 23.42934 19.294751l52.371467 11.025572c28.942127 5.512786 56.506057 16.538358 56.506057 48.236878 0 53.749664-66.153432 59.26245-85.448183 59.262449-78.557201 0-92.339166-38.589502-92.339166-60.640646h44.102288z" fill="#00397A" p-id="20236"></path><path d="M1.378197 722.174966v-11.025572zM622.944818 216.376851c-62.018843 0-118.524899 17.916555-168.139973 49.615074L292.177658 372.113055V2.756393L1.378197 248.07537v463.074024c0 137.81965 89.582773 254.966353 213.620457 294.934051l55.12786 17.916555c-113.012113-56.506057-190.191117-170.896366-190.191117-303.20323 0-187.434724 157.114401-340.414536 351.440108-340.414536 180.543742 0 330.76716 132.306864 348.683714 303.20323H580.220727c-17.916555-67.531629-78.557201-115.768506-150.223419-115.768506-85.448183 0-155.736205 70.288022-155.736204 155.736205 0 85.448183 68.909825 155.736205 155.736204 155.736204 79.935397 0 144.710633-59.26245 154.358008-136.441453h197.0821c-4.13459 68.909825-30.320323 132.306864-70.288022 183.300134 0 0 122.659489-143.332436 165.38358-208.107671 38.589502-59.26245 59.26245-119.903096 59.26245-188.812921-1.378197-173.652759-140.576043-312.850606-312.850606-312.850605z" fill="#00397A" p-id="20237"></path></svg>