<svg class="icon" viewBox="0 0 1024 1024" xmlns="http://www.w3.org/2000/svg" width="16" height="16"><defs><style/></defs><path d="M1021.376 654.144c1.472 8.768 1.152 19.264-1.152 31.616-2.112 12.352-5.76 24.96-10.88 37.632-5.12 12.736-11.264 24.192-18.496 34.368-7.232 10.24-15.36 17.472-24 21.824-8.768 4.416-16.384 6.592-22.976 6.592-6.528 0-13.76-1.408-21.76-4.352-7.232-2.176-16.384-4.16-27.264-6.016-11.008-1.792-22.016-2.112-33.344-1.088-11.264 1.088-22.528 3.456-33.728 7.04s-20.992 9.856-28.864 18.56c-17.472 18.176-27.776 38.912-30.656 62.208s.384 45.44 9.856 66.56c7.232 14.592 6.144 29.056-3.264 43.648-4.352 5.824-11.392 11.84-20.736 17.984-9.472 6.208-19.904 11.84-31.104 16.96s-23.104 9.088-35.52 12.032c-12.352 2.816-23.232 4.288-32.768 4.288-6.528 0-12.608-2.56-18.496-7.616-5.76-5.12-9.728-10.624-12.032-16.384h-1.088c-8-22.592-21.632-41.984-40.896-58.368s-41.6-24.576-67.136-24.576c-24.704 0-47.104 8.192-67.072 24.576-20.032 16.384-34.048 35.456-42.048 57.28-3.648 8.768-9.088 15.104-16.384 19.136-7.168 3.968-15.168 5.952-23.936 5.952-10.176 0-21.632-1.792-34.368-5.504-12.736-3.648-25.472-8.192-38.208-13.632s-24.192-11.84-34.368-19.136c-10.176-7.232-17.792-14.528-22.912-21.76-3.648-5.12-5.632-11.136-6.016-17.984-.384-6.912 2.368-16.576 8.192-28.928 8-16.768 11.072-35.84 9.28-57.344-1.792-21.44-11.072-41.28-27.84-59.456-10.176-10.944-22.528-17.984-37.056-21.248-14.592-3.328-28.352-4.544-41.472-3.84-15.296.704-30.912 3.648-46.912 8.768-10.176 2.88-20.352 2.112-30.592-2.24-8-2.88-15.424-9.6-22.4-20.096-6.912-10.56-13.056-22.272-18.56-34.944A217.687 217.687 0 0 1 9.856 687.36c-2.88-13.44-3.648-24.512-2.176-33.28 2.176-16 9.408-26.176 21.824-30.528 21.824-8.768 41.408-23.104 58.88-43.136s26.176-42.368 26.176-67.136c0-25.408-8.704-47.616-26.176-66.56s-37.12-32.704-58.88-41.472c-6.4-2.048-11.84-7.296-16.192-15.68s-6.592-16.96-6.592-25.6c0-9.472 1.472-20.032 4.352-31.68s6.72-22.912 11.456-33.856c4.736-10.88 10.24-20.864 16.384-30.016 6.208-9.024 12.928-15.808 20.16-20.16 5.824-3.648 11.52-5.056 16.96-4.352 5.44.704 11.456 2.176 17.984 4.352 21.824 8.768 44.544 11.456 68.224 8.192 23.616-3.264 44.544-13.632 62.72-31.04 8.704-8.768 15.04-19.52 19.072-32.192 3.968-12.8 6.592-25.344 7.616-37.696 1.152-12.352 1.152-23.616 0-33.792-1.024-10.24-1.984-17.472-2.688-21.824-1.472-4.352-2.752-9.472-3.84-15.296s-.512-10.944 1.6-15.296c4.352-10.176 12.16-19.072 23.488-26.688 11.264-7.616 23.424-14.016 36.544-19.136 13.12-5.056 25.856-8.832 38.208-11.456 12.352-2.56 22.208-3.84 29.44-3.84 9.408 0 16.896 3.072 22.4 9.28 5.44 6.208 9.216 12.608 11.392 19.136 8 19.648 21.12 36.864 39.296 51.84 18.176 14.912 39.68 22.4 64.384 22.4 25.472 0 48-7.104 67.648-21.312 19.648-14.208 33.472-32.192 41.472-54.016 2.88-5.824 7.488-11.84 13.632-17.984 6.144-6.208 12.48-9.28 19.136-9.28 10.112 0 21.248 1.408 33.28 4.352 12.032 2.88 23.872 6.912 35.392 12.032a133.501 133.501 0 0 1 32.256 19.648c9.856 8 17.6 16.704 23.488 26.176 3.648 5.824 4.736 12.16 3.264 19.072s-2.88 11.84-4.352 14.72c-9.472 21.12-12.352 43.264-8.768 66.56 3.648 23.232 14.272 43.648 31.616 61.12 17.472 17.472 38.976 27.072 64.384 28.928 25.472 1.792 49.152-2.368 70.976-12.544 5.76-3.648 12.864-5.12 21.248-4.352s15.36 4.032 21.248 9.792c10.88 10.176 20.48 25.664 28.864 46.4s14.016 41.664 16.896 62.72c1.472 12.352-.512 22.016-5.888 28.928-5.504 6.848-11.136 11.456-17.024 13.632-22.528 8-41.728 22.016-57.728 41.984s-24 42.752-24 68.16c0 24.768 6.72 46.4 20.096 64.96 13.504 18.496 31.104 31.808 52.864 39.808 5.12 2.88 9.472 5.824 13.12 8.704 8 6.528 13.504 14.912 16.384 25.088zM514.048 752.32c32.704 0 63.68-6.208 92.672-18.56 29.12-12.352 54.4-29.44 75.904-51.264 21.504-21.888 38.4-47.104 50.752-75.84 12.352-28.736 18.496-59.52 18.496-92.16 0-32.768-6.144-63.488-18.496-92.16-12.352-28.736-29.248-53.888-50.752-75.328s-46.72-38.4-75.904-50.752c-28.992-12.352-60.032-18.56-92.672-18.56-32.704 0-63.488 6.208-92.224 18.56-28.672 12.352-53.824 29.312-75.2 50.752-21.44 21.44-38.4 46.592-50.752 75.328-12.352 28.672-18.56 59.456-18.56 92.16 0 32.704 6.208 63.424 18.56 92.16 12.352 28.672 29.312 53.952 50.752 75.84 21.44 21.824 46.592 38.848 75.264 51.264 28.736 12.352 59.456 18.56 92.16 18.56zm0 0"/></svg>