<?xml version="1.0" standalone="no"?><!DOCTYPE svg PUBLIC "-//W3C//DTD SVG 1.1//EN" "http://www.w3.org/Graphics/SVG/1.1/DTD/svg11.dtd"><svg t="1542263516422" class="icon" style="" viewBox="0 0 2560 1024" version="1.1" xmlns="http://www.w3.org/2000/svg" p-id="31418" xmlns:xlink="http://www.w3.org/1999/xlink" width="500" height="200"><defs><style type="text/css"></style></defs><path d="M752.64 453.12l-217.6-217.6c-15.36-15.36-15.36-38.4 0-53.76 15.36-15.36 38.4-15.36 53.76 0l217.6 217.6c15.36 15.36 15.36 38.4 0 53.76-12.8 15.36-38.4 15.36-53.76 0zM514.56 363.52l-122.88-122.88c-15.36-15.36-15.36-38.4 0-53.76 15.36-15.36 38.4-15.36 53.76 0l122.88 122.88c15.36 15.36 15.36 38.4 0 53.76-15.36 15.36-38.4 15.36-53.76 0zM440.32 437.76l-122.88-122.88c-15.36-15.36-15.36-38.4 0-53.76 15.36-15.36 38.4-15.36 53.76 0l122.88 122.88c15.36 15.36 15.36 38.4 0 53.76-15.36 12.8-38.4 12.8-53.76 0zM366.08 509.44l-122.88-122.88c-15.36-15.36-15.36-38.4 0-53.76 15.36-15.36 38.4-15.36 53.76 0l122.88 122.88c15.36 15.36 15.36 38.4 0 53.76-12.8 15.36-38.4 15.36-53.76 0zM291.84 583.68L168.96 460.8c-15.36-15.36-15.36-38.4 0-53.76 15.36-15.36 38.4-15.36 53.76 0l122.88 122.88c15.36 15.36 15.36 38.4 0 53.76-12.8 15.36-38.4 15.36-53.76 0zM752.64 599.04l-122.88-122.88c-15.36-15.36-15.36-38.4 0-53.76 15.36-15.36 38.4-15.36 53.76 0l122.88 122.88c15.36 15.36 15.36 38.4 0 53.76-15.36 15.36-40.96 15.36-53.76 0zM678.4 673.28l-122.88-122.88c-15.36-15.36-15.36-38.4 0-53.76 15.36-15.36 38.4-15.36 53.76 0l122.88 122.88c15.36 15.36 15.36 38.4 0 53.76-15.36 15.36-38.4 15.36-53.76 0zM604.16 747.52l-122.88-122.88c-15.36-15.36-15.36-38.4 0-53.76 15.36-15.36 38.4-15.36 53.76 0l122.88 122.88c15.36 15.36 15.36 38.4 0 53.76-15.36 15.36-38.4 15.36-53.76 0zM529.92 821.76l-122.88-122.88c-15.36-15.36-15.36-38.4 0-53.76 15.36-15.36 38.4-15.36 53.76 0l122.88 122.88c15.36 15.36 15.36 38.4 0 53.76-15.36 15.36-38.4 15.36-53.76 0zM384 824.32l-217.6-217.6c-15.36-15.36-15.36-38.4 0-53.76 15.36-15.36 38.4-15.36 53.76 0l217.6 217.6c15.36 15.36 15.36 38.4 0 53.76-15.36 15.36-38.4 15.36-53.76 0z" fill="#E60012" p-id="31419"></path><path d="M934.4 389.12v2.56H972.8v-5.12c-10.24-23.04-20.48-46.08-30.72-66.56l-2.56-2.56h-35.84l2.56 7.68c12.8 20.48 20.48 40.96 28.16 64z" fill="#040000" p-id="31420"></path><path d="M1111.04 291.84c0-5.12 2.56-10.24 10.24-10.24 23.04-5.12 48.64-7.68 74.24-12.8h5.12l-5.12-30.72-5.12 2.56c-23.04 5.12-51.2 10.24-81.92 15.36-23.04 5.12-28.16 23.04-28.16 33.28v2.56h-33.28V232.96h-35.84v56.32H972.8v12.8c-7.68-23.04-17.92-46.08-28.16-64l-2.56-2.56h-35.84l2.56 7.68c7.68 15.36 15.36 38.4 25.6 69.12v2.56h71.68V384c-10.24 5.12-20.48 7.68-30.72 12.8h-38.4v5.12c-7.68 35.84-20.48 76.8-33.28 120.32l-2.56 7.68h38.4v-2.56c10.24-35.84 20.48-74.24 30.72-107.52l5.12 15.36 5.12-2.56c7.68-2.56 15.36-7.68 25.6-10.24v71.68c0 2.56 0 5.12-7.68 5.12h-30.72l10.24 30.72h28.16c23.04 0 35.84-12.8 35.84-33.28V409.6c10.24-5.12 20.48-10.24 33.28-15.36v5.12c0 40.96-7.68 79.36-23.04 120.32l-2.56 5.12 35.84 10.24 2.56-5.12c15.36-43.52 23.04-87.04 23.04-133.12v-30.72h33.28v166.4h35.84v-166.4h25.6v-28.16h-92.16l-2.56-46.08z m-33.28 64l-15.36 7.68c-7.68 2.56-12.8 5.12-17.92 7.68v-53.76h33.28v46.08-7.68zM1459.2 232.96V230.4h-38.4l2.56 7.68c0 2.56 2.56 7.68 5.12 12.8 0 2.56 2.56 2.56 2.56 5.12h-128v30.72h64c5.12 7.68 10.24 17.92 15.36 25.6h-30.72c-30.72 0-35.84 20.48-35.84 30.72v189.44h35.84v-179.2c0-5.12 2.56-7.68 10.24-10.24h181.76c7.68 0 10.24 2.56 10.24 7.68v143.36s0 2.56-7.68 2.56h-43.52l7.68 30.72h46.08c28.16 0 33.28-17.92 33.28-28.16v-151.04c0-15.36-7.68-35.84-38.4-35.84h-28.16c5.12-7.68 7.68-12.8 10.24-17.92 2.56-5.12 2.56-7.68 5.12-10.24h64V253.44h-125.44c-12.8-7.68-15.36-15.36-17.92-20.48z m30.72 51.2c-5.12 7.68-10.24 17.92-15.36 25.6h-58.88c-5.12-10.24-10.24-17.92-15.36-25.6h89.6z" fill="#040000" p-id="31421"></path><path d="M1518.08 468.48v-46.08c0-10.24-5.12-17.92-12.8-23.04h28.16l-5.12-7.68c-10.24-12.8-17.92-28.16-28.16-48.64l-2.56-2.56h-35.84l2.56 7.68c5.12 12.8 15.36 28.16 25.6 48.64h-87.04c10.24-15.36 20.48-30.72 28.16-48.64l2.56-7.68h-35.84l-2.56 2.56c-7.68 15.36-15.36 30.72-28.16 48.64l-5.12 7.68h25.6c-7.68 5.12-10.24 12.8-12.8 23.04v46.08c0 15.36 10.24 23.04 25.6 25.6h89.6c17.92 0 28.16-10.24 28.16-25.6zM1408 430.08c0-5.12 2.56-7.68 7.68-7.68h58.88c5.12 0 5.12 2.56 7.68 5.12v28.16c0 5.12-2.56 5.12-5.12 5.12h-58.88c-5.12 0-7.68-2.56-7.68-5.12v-25.6zM1763.84 358.4h38.4v-30.72H1715.2l15.36-30.72h76.8v-28.16h-64c0-2.56 2.56-5.12 2.56-7.68l12.8-30.72h-35.84v2.56c-10.24 33.28-23.04 61.44-38.4 84.48l-2.56 5.12 15.36 7.68v25.6h35.84v40.96H1689.6v28.16h43.52v69.12c0 20.48 10.24 30.72 30.72 30.72h38.4l7.68-30.72h-35.84c-7.68 0-7.68-2.56-7.68-5.12v-64h46.08v-28.16H1766.4V358.4zM1930.24 453.12h15.36l2.56-2.56c12.8-17.92 25.6-35.84 35.84-53.76l5.12-7.68h-35.84l-7.68 2.56c-10.24 17.92-20.48 33.28-28.16 43.52-7.68-12.8-17.92-28.16-25.6-43.52l-2.56-2.56h-33.28l2.56 7.68c23.04 53.76 56.32 99.84 99.84 135.68l2.56 2.56 25.6-20.48-2.56-2.56c-20.48-17.92-38.4-35.84-53.76-58.88z" fill="#040000" p-id="31422"></path><path d="M1848.32 491.52v-104.96h99.84c23.04 0 33.28-12.8 33.28-35.84v-79.36c-2.56-20.48-12.8-33.28-33.28-35.84h-99.84c-23.04 0-35.84 15.36-35.84 38.4v220.16c2.56 17.92 12.8 28.16 33.28 30.72h51.2l10.24-30.72h-48.64c-10.24 5.12-10.24 0-10.24-2.56z m0-192v-20.48c0-5.12 2.56-10.24 10.24-10.24h76.8c7.68 0 10.24 5.12 10.24 7.68v23.04h-97.28z m97.28 28.16v20.48c0 7.68-2.56 10.24-10.24 10.24h-87.04v-30.72H1945.6zM2106.88 332.8c23.04-28.16 43.52-58.88 61.44-94.72l2.56-7.68h-35.84l-2.56 2.56c-15.36 30.72-33.28 56.32-53.76 79.36l-5.12 5.12 28.16 17.92 5.12-2.56zM2188.8 240.64h179.2v30.72h-179.2zM2173.44 330.24v30.72h120.32v128c0 2.56 0 5.12-2.56 5.12-2.56 2.56-5.12 2.56-7.68 0h-53.76l10.24 30.72H2298.88c17.92-2.56 25.6-10.24 28.16-28.16V358.4h51.2v-30.72h-204.8zM2135.04 317.44c-15.36 30.72-35.84 61.44-58.88 87.04l-5.12 5.12 28.16 17.92 2.56-2.56s2.56-2.56 2.56-5.12c2.56-2.56 5.12-7.68 7.68-10.24v117.76H2150.4v-151.04h-12.8c10.24-17.92 20.48-35.84 30.72-56.32l2.56-7.68h-35.84v5.12z" fill="#040000" p-id="31423"></path><path d="M1090.56 683.52c-15.36-20.48-40.96-38.4-79.36-38.4-53.76 0-81.92 35.84-81.92 76.8v23.04c0 40.96 28.16 74.24 84.48 74.24 35.84 0 61.44-17.92 76.8-40.96l28.16 20.48c-20.48 28.16-58.88 53.76-110.08 53.76-79.36 0-122.88-51.2-122.88-110.08v-23.04c0-58.88 48.64-112.64 125.44-112.64 48.64 0 89.6 25.6 107.52 53.76l-28.16 23.04zM1208.32 811.52h153.6v35.84h-217.6v-12.8l156.16-181.76H1152v-35.84h212.48v12.8l-156.16 181.76zM1525.76 847.36h-122.88v-230.4h122.88c53.76 0 81.92 23.04 81.92 58.88v5.12c0 25.6-15.36 46.08-43.52 51.2 33.28 5.12 48.64 28.16 48.64 48.64v5.12c-2.56 35.84-33.28 61.44-87.04 61.44z m40.96-166.4c0-15.36-10.24-30.72-38.4-30.72h-84.48V716.8h79.36c28.16 0 40.96-12.8 40.96-30.72v-5.12z m0 97.28c0-17.92-12.8-30.72-40.96-30.72h-81.92v66.56h84.48c28.16 0 38.4-12.8 38.4-30.72v-5.12zM1838.08 847.36l-25.6-56.32h-115.2l-25.6 56.32h-43.52l107.52-230.4h35.84l110.08 230.4h-43.52z m-84.48-184.32l-43.52 94.72h87.04l-43.52-94.72zM2096.64 847.36l-128-145.92-15.36-20.48v166.4h-40.96v-230.4h38.4l125.44 145.92 17.92 20.48v-166.4h40.96v230.4h-38.4zM2355.2 847.36l-94.72-99.84-33.28 30.72v71.68h-40.96v-230.4H2227.2v115.2l125.44-115.2H2406.4l-117.76 104.96c23.04 23.04 120.32 125.44 120.32 125.44H2355.2z" fill="" p-id="31424"></path></svg>