<?xml version="1.0" standalone="no"?><!DOCTYPE svg PUBLIC "-//W3C//DTD SVG 1.1//EN" "http://www.w3.org/Graphics/SVG/1.1/DTD/svg11.dtd"><svg t="1542263502836" class="icon" style="" viewBox="0 0 2560 1024" version="1.1" xmlns="http://www.w3.org/2000/svg" p-id="30719" xmlns:xlink="http://www.w3.org/1999/xlink" width="500" height="200"><defs><style type="text/css"></style></defs><path d="M581.12 545.28H857.6L890.88 512l-33.28-33.28H514.56z m99.84-243.2l-64-66.56-66.56 66.56zM762.88 640h-166.4l-64 64 2.56 2.56h161.28zM535.04 317.44l-64 66.56h291.84l-66.56-66.56z m61.44 243.2l40.96 40.96-25.6 23.04h166.4l64-64zM550.4 721.92l66.56 66.56 64-66.56z m-94.72-322.56l-12.8 10.24 56.32 53.76h343.04l-64-64z" fill="#A88249" p-id="30720"></path><path d="M409.6 422.4L512 320l-81.92-84.48L153.6 512l276.48 276.48L601.6 614.4z m734.72 238.08c-12.8 0-12.8 2.56-12.8 15.36v61.44c0 12.8 0 15.36 12.8 15.36v5.12h-48.64v-5.12c12.8 0 12.8-2.56 12.8-15.36v-30.72h-43.52v30.72c0 12.8 0 15.36 12.8 15.36v5.12h-48.64v-5.12c12.8 0 12.8-2.56 12.8-15.36v-61.44c0-12.8-2.56-15.36-12.8-15.36v-5.12h48.64v5.12c-12.8 0-12.8 2.56-12.8 15.36v23.04h43.52v-23.04c0-12.8 0-15.36-12.8-15.36v-5.12h48.64v5.12z m97.28 71.68c0 7.68-5.12 23.04-5.12 25.6H1152v-5.12c12.8 0 15.36-2.56 15.36-15.36v-61.44c0-15.36-2.56-15.36-12.8-15.36v-5.12h76.8c0 2.56 0 15.36 2.56 23.04h-5.12c-2.56-5.12-2.56-10.24-7.68-12.8-2.56-2.56-7.68-5.12-15.36-5.12h-7.68c-5.12 0-7.68 0-7.68 5.12v33.28h10.24c12.8 0 15.36 0 17.92-12.8h5.12v33.28h-5.12c-2.56-12.8-5.12-12.8-17.92-12.8h-10.24v28.16c0 7.68 0 12.8 5.12 12.8 2.56 2.56 7.68 2.56 15.36 2.56s15.36 0 17.92-5.12c2.56-2.56 5.12-7.68 10.24-15.36l2.56 2.56z m115.2-71.68c-7.68 0-12.8 2.56-12.8 10.24 0 5.12-2.56 12.8-2.56 25.6v64h-7.68l-66.56-79.36v35.84c0 15.36 0 20.48 2.56 25.6 0 7.68 2.56 10.24 15.36 10.24v5.12h-38.4v-5.12c10.24 0 12.8-2.56 12.8-10.24 0-5.12 2.56-12.8 2.56-25.6v-33.28c0-10.24 0-12.8-2.56-17.92-2.56-5.12-7.68-5.12-12.8-5.12v-5.12h30.72l61.44 71.68v-28.16c0-15.36 0-23.04-2.56-25.6 0-7.68-5.12-10.24-15.36-10.24v-5.12h35.84v2.56z m110.08 53.76c-7.68 2.56-7.68 2.56-7.68 12.8v28.16c-10.24 2.56-23.04 5.12-35.84 5.12-38.4 0-61.44-20.48-61.44-53.76 0-35.84 30.72-56.32 64-56.32 12.8 0 25.6 2.56 30.72 5.12 0 5.12 2.56 12.8 2.56 25.6h-5.12c-5.12-17.92-15.36-25.6-30.72-25.6-20.48 0-35.84 17.92-35.84 46.08 0 25.6 12.8 48.64 38.4 48.64 2.56 0 7.68 0 10.24-2.56 2.56-2.56 2.56-5.12 2.56-7.68v-15.36c0-10.24 0-12.8-17.92-12.8v-5.12h48.64v7.68z m84.48-33.28c-2.56-5.12-2.56-10.24-7.68-12.8-2.56-2.56-7.68-5.12-17.92-5.12h-7.68c-5.12 0-5.12 0-5.12 5.12V704h12.8c15.36 0 15.36-2.56 17.92-12.8h5.12v33.28h-5.12c-2.56-10.24-2.56-12.8-17.92-12.8h-12.8v25.6c0 15.36 0 15.36 15.36 17.92v5.12h-51.2v-5.12c12.8 0 12.8-2.56 12.8-17.92V678.4c0-15.36-2.56-15.36-12.8-15.36v-5.12h76.8c0 2.56 0 15.36 2.56 25.6l-5.12-2.56z m99.84 51.2c0 7.68-5.12 23.04-5.12 28.16h-81.92v-5.12c12.8 0 15.36-2.56 15.36-15.36V678.4c0-12.8-2.56-15.36-12.8-15.36v-5.12h76.8c0 2.56 0 15.36 2.56 23.04h-5.12c-2.56-5.12-2.56-10.24-7.68-12.8-2.56-2.56-7.68-5.12-15.36-5.12h-7.68c-5.12 0-7.68 0-7.68 5.12v33.28h10.24c12.8 0 15.36 0 17.92-12.8h5.12v33.28h-5.12c-2.56-12.8-5.12-12.8-17.92-12.8h-10.24v28.16c0 7.68 0 12.8 2.56 12.8 2.56 2.56 7.68 2.56 15.36 2.56s15.36 0 17.92-5.12c2.56-2.56 5.12-7.68 10.24-15.36h2.56z m115.2-71.68c-7.68 0-12.8 2.56-12.8 10.24 0 5.12-2.56 12.8-2.56 25.6v61.44h-7.68l-66.56-79.36v64c0 7.68 2.56 10.24 15.36 10.24v5.12h-38.4v-5.12c10.24 0 12.8-2.56 12.8-10.24 0-5.12 2.56-12.8 2.56-25.6v-33.28c0-10.24 0-12.8-2.56-17.92-2.56-5.12-7.68-5.12-12.8-5.12v-5.12h30.72l61.44 71.68V673.28c0-7.68-5.12-10.24-15.36-10.24v-5.12h38.4v2.56z m112.64 53.76c-7.68 2.56-10.24 2.56-10.24 12.8v28.16c-10.24 2.56-23.04 5.12-35.84 5.12-38.4 0-61.44-20.48-61.44-53.76 0-35.84 30.72-56.32 64-56.32 12.8 0 25.6 2.56 30.72 5.12 0 5.12 2.56 12.8 2.56 25.6h-5.12c-5.12-17.92-15.36-25.6-30.72-25.6-20.48 0-35.84 17.92-35.84 46.08 0 25.6 12.8 48.64 38.4 48.64 2.56 0 7.68 0 10.24-2.56 2.56-2.56 2.56-5.12 2.56-7.68v-15.36c0-10.24 0-12.8-17.92-12.8v-5.12h48.64v7.68z" fill="#003D75" p-id="30721"></path><path d="M1978.88 737.28c0 12.8 2.56 15.36 12.8 15.36s17.92-7.68 17.92-23.04-10.24-23.04-28.16-23.04h-2.56v30.72z m2.56-35.84c15.36 0 23.04-5.12 23.04-20.48s-7.68-20.48-17.92-20.48c-2.56 0-5.12 0-7.68 2.56 0 0-2.56 2.56-2.56 7.68v30.72h5.12z m20.48 2.56c17.92 2.56 30.72 10.24 30.72 25.6 0 10.24-5.12 20.48-15.36 23.04-7.68 5.12-20.48 7.68-33.28 7.68h-40.96v-5.12c12.8 0 12.8-2.56 12.8-15.36V678.4c0-12.8-2.56-15.36-12.8-15.36v-5.12h46.08c12.8 0 20.48 2.56 25.6 5.12 5.12 5.12 10.24 10.24 10.24 17.92 2.56 12.8-10.24 20.48-23.04 23.04z m79.36-23.04c-5.12 12.8-10.24 23.04-12.8 35.84h25.6l-12.8-35.84z m15.36 79.36v-5.12c10.24-2.56 10.24-2.56 7.68-10.24-2.56-5.12-5.12-12.8-7.68-17.92h-30.72c-2.56 5.12-2.56 10.24-5.12 17.92-2.56 7.68-2.56 10.24 10.24 10.24v5.12h-35.84v-5.12c10.24 0 12.8-2.56 17.92-15.36l33.28-81.92h7.68c10.24 28.16 20.48 53.76 30.72 81.92 5.12 15.36 7.68 15.36 17.92 17.92v5.12l-46.08-2.56z m161.28-99.84c-7.68 0-12.8 2.56-12.8 10.24 0 5.12-2.56 12.8-2.56 28.16v61.44h-10.24l-66.56-79.36v61.44c0 7.68 2.56 10.24 15.36 10.24v5.12h-38.4v-5.12c10.24 0 12.8-2.56 12.8-10.24 0-5.12 2.56-12.8 2.56-25.6v-33.28c0-10.24 0-12.8-2.56-17.92-2.56-5.12-7.68-5.12-12.8-5.12v-5.12h30.72l61.44 71.68v-28.16c0-15.36 0-23.04-2.56-25.6 0-7.68-5.12-10.24-15.36-10.24v-5.12h38.4v2.56z m81.92 99.84c-7.68-10.24-20.48-28.16-30.72-46.08-2.56-5.12-5.12-5.12-7.68-5.12v28.16c0 12.8 2.56 15.36 12.8 15.36v5.12h-48.64v-5.12c12.8 0 12.8-2.56 12.8-15.36v-61.44c0-12.8-2.56-15.36-12.8-15.36v-5.12h48.64v5.12c-10.24 0-12.8 2.56-12.8 15.36V704c2.56 0 7.68-2.56 12.8-7.68 10.24-10.24 17.92-17.92 23.04-25.6 2.56-5.12 2.56-7.68-5.12-7.68h-2.56v-5.12h40.96v5.12c-10.24 0-17.92 2.56-25.6 10.24-10.24 7.68-15.36 15.36-23.04 23.04 10.24 15.36 23.04 30.72 33.28 46.08 7.68 7.68 10.24 10.24 17.92 12.8v5.12h-33.28z" fill="#A88249" p-id="30722"></path><path d="M2391.04 307.2l-40.96-25.6-12.8 12.8h-130.56V320h176.64z m-25.6 56.32l-15.36 12.8h-153.6v25.6h102.4v128c0 12.8-7.68 17.92-20.48 17.92l-53.76-2.56v7.68c10.24 2.56 12.8 2.56 20.48 5.12 5.12 2.56 10.24 5.12 12.8 7.68 2.56 5.12 5.12 7.68 7.68 12.8 2.56 5.12 2.56 10.24 2.56 15.36 15.36 0 28.16-2.56 38.4-5.12 10.24-2.56 15.36-5.12 20.48-10.24 5.12-2.56 10.24-7.68 12.8-12.8 2.56-5.12 2.56-10.24 2.56-20.48V396.8h51.2l7.68-12.8-35.84-20.48z m-266.24 7.68c10.24-7.68 17.92-12.8 28.16-20.48l23.04-23.04c7.68-7.68 15.36-17.92 20.48-28.16l15.36-12.8-53.76-20.48c-2.56 7.68-5.12 17.92-10.24 28.16l-15.36 30.72c-5.12 10.24-12.8 20.48-20.48 30.72-7.68 10.24-12.8 17.92-20.48 28.16l5.12 5.12c12.8-5.12 17.92-10.24 28.16-17.92z m33.28-2.56c-5.12 12.8-12.8 23.04-20.48 35.84-7.68 12.8-15.36 20.48-25.6 38.4-10.24 12.8-15.36 17.92-25.6 30.72l5.12 5.12c7.68-5.12 12.8-7.68 20.48-12.8 7.68-5.12 17.92-12.8 25.6-17.92v151.04h23.04c2.56 0 7.68 0 10.24-2.56 5.12 0 7.68-2.56 7.68-5.12 2.56-2.56 2.56-5.12 2.56-10.24v-140.8l7.68-10.24-23.04-5.12c15.36-12.8 28.16-30.72 40.96-48.64l12.8-12.8-51.2-23.04c0 7.68-5.12 17.92-10.24 28.16z m-803.84-61.44l-40.96-25.6-15.36 10.24h-163.84V320h209.92z m-51.2 245.76h-184.32v25.6h230.4l10.24-12.8-40.96-23.04z m-23.04-138.24h-89.6v-46.08h89.6v46.08z m0 74.24h-89.6v-48.64h89.6v48.64z m56.32-135.68l-38.4-23.04-10.24 15.36h-94.72v-7.68l-46.08-5.12v199.68c5.12 0 7.68 0 12.8-2.56 5.12 0 12.8-2.56 17.92-2.56 5.12 0 7.68-2.56 7.68-2.56 2.56-2.56 2.56-5.12 2.56-7.68v-2.56h92.16v17.92c5.12 0 12.8 0 17.92-2.56 5.12 0 12.8-2.56 17.92-2.56 2.56 0 5.12-2.56 7.68-2.56 2.56-2.56 2.56-2.56 2.56-7.68V368.64v7.68-10.24l10.24-12.8z m-304.64-25.6s-15.36 87.04-23.04 99.84l35.84 15.36s15.36-58.88-2.56-115.2h-10.24z m74.24 0l-7.68 5.12v-46.08l7.68-10.24-51.2-12.8v330.24h20.48c7.68 0 10.24 0 15.36-2.56 2.56 0 5.12-2.56 7.68-2.56 0-2.56 2.56-5.12 2.56-7.68V355.84l15.36 58.88 28.16-20.48c-7.68-33.28-38.4-66.56-38.4-66.56z m540.16 153.6h-94.72v-56.32h107.52l7.68-12.8-38.4-23.04-15.36 12.8h-61.44v-53.76h115.2l7.68-12.8-35.84-28.16-15.36 10.24h-71.68v-28.16l7.68-7.68-56.32-12.8V320h-112.64v25.6h112.64v53.76h-104.96v25.6h104.96v56.32h-128v25.6h128v89.6c17.92 0 30.72-2.56 40.96-5.12 7.68-2.56 10.24-5.12 7.68-10.24V504.32H1664l7.68-12.8-38.4-23.04-12.8 12.8z m337.92-2.56c-15.36-23.04-17.92-43.52-20.48-46.08h28.16v5.12c5.12 0 12.8 0 17.92-2.56 2.56 0 5.12 0 7.68-2.56-2.56 5.12-5.12 10.24-10.24 15.36-5.12 7.68-12.8 15.36-17.92 23.04 0 2.56-2.56 5.12-5.12 7.68z m-64 51.2v-99.84h17.92c0 7.68 2.56 46.08 28.16 87.04l-46.08 12.8z m0-158.72h71.68v33.28h-71.68V371.2z m0-56.32h71.68v30.72h-71.68v-30.72z m117.76 212.48c-2.56-2.56-5.12-2.56-7.68-5.12-12.8-7.68-23.04-15.36-30.72-25.6 7.68-5.12 15.36-7.68 23.04-12.8 7.68-5.12 15.36-10.24 23.04-17.92l12.8-7.68-30.72-25.6c2.56 0 5.12-2.56 5.12-2.56 2.56-2.56 2.56-2.56 2.56-7.68V314.88l12.8-17.92-43.52-25.6-12.8 15.36h-71.68v-7.68l-43.52-5.12v240.64c0 5.12 0 10.24-2.56 15.36-2.56 5.12-7.68 7.68-12.8 10.24l28.16 53.76 10.24-10.24 56.32-46.08 15.36-15.36c15.36 23.04 35.84 46.08 64 66.56 7.68-12.8 12.8-23.04 17.92-30.72 7.68-7.68 12.8-12.8 20.48-17.92v-7.68c-15.36 2.56-25.6 0-35.84-5.12z" fill="#003D75" p-id="30723"></path><path d="M1843.2 514.56l-2.56-5.12-46.08 17.92v-61.44h43.52l7.68-12.8-30.72-20.48-12.8 10.24h-7.68V396.8h35.84l7.68-12.8-30.72-20.48-10.24 7.68h-53.76c2.56-2.56 2.56-5.12 5.12-5.12l2.56-2.56c7.68-12.8 12.8-20.48 12.8-20.48h76.8l7.68-12.8-30.72-20.48-10.24 7.68h-30.72c2.56-7.68 5.12-17.92 7.68-23.04l7.68-10.24-51.2-12.8c0 10.24-2.56 23.04-5.12 33.28-2.56 12.8-5.12 25.6-10.24 38.4s-7.68 28.16-12.8 40.96c-5.12 15.36-7.68 17.92-15.36 33.28l5.12 5.12c12.8-10.24 23.04-23.04 33.28-35.84v10.24h20.48v46.08h-30.72v25.6h30.72v64c0 5.12 0 7.68-2.56 12.8-2.56 2.56-12.8 5.12-17.92 7.68l28.16 46.08 7.68-12.8 40.96-35.84c7.68-5.12 12.8-10.24 17.92-17.92 2.56-10.24 7.68-12.8 12.8-17.92z" fill="#003D75" p-id="30724"></path></svg>