<svg class="icon" viewBox="0 0 1024 1024" xmlns="http://www.w3.org/2000/svg" width="48" height="48"><defs><style/></defs><path d="M0 993.28c0 16.896 13.824 30.72 30.72 30.72h102.4c16.896 0 30.72-13.824 30.72-30.72V440.32c0-16.896-13.824-30.72-30.72-30.72H30.72C13.824 409.6 0 423.424 0 440.32v552.96zM286.72 993.28c0 16.896 13.824 30.72 30.72 30.72h102.4c16.896 0 30.72-13.824 30.72-30.72V624.64c0-16.896-13.824-30.72-30.72-30.72h-102.4c-16.896 0-30.72 13.824-30.72 30.72v368.64zM573.44 993.28c0 16.896 13.824 30.72 30.72 30.72h102.4c16.896 0 30.72-13.824 30.72-30.72V624.64c0-16.896-13.824-30.72-30.72-30.72h-102.4c-16.896 0-30.72 13.824-30.72 30.72v368.64zM890.88 409.6c-16.896 0-30.72 13.824-30.72 30.72v552.96c0 16.896 13.824 30.72 30.72 30.72h102.4c16.896 0 30.72-13.824 30.72-30.72V440.32c0-16.896-13.824-30.72-30.72-30.72h-102.4zM512 0C376.27 0 266.24 110.03 266.24 245.76S376.27 491.52 512 491.52s245.76-110.03 245.76-245.76S647.73 0 512 0zm107.49 310.772c-3.628 51.62-35.81 79.196-93.154 82.78v28.336h-30.72v-29.137c-51.2-5.908-82.045-35.096-91.888-87.611l45.095-12.673c3.742 41.322 26.753 61.497 69.002 60.55 36.614 0 54.913-14.544 54.913-43.654 4.687-20.638-16.442-36.13-63.378-46.471-67.592-14.083-99.537-41.761-95.773-83.084 2.595-48.478 28.781-75.378 82.029-80.756V71.68h30.72v27.23c47.104 4.731 76.786 31.224 86.114 79.49l-45.338 12.672c-6.576-34.724-25.344-51.622-56.33-50.696-33.795.948-51.178 14.082-52.1 39.43-1.892 16.896 17.361 30.057 57.736 39.428 70.41 14.084 104.943 44.606 103.071 91.538z"/></svg>