<svg class="icon" viewBox="0 0 1024 1024" xmlns="http://www.w3.org/2000/svg" width="16" height="16"><defs><style/></defs><path d="M960 0H64C25.6 0 0 25.6 0 64v640c0 38.4 25.6 64 64 64h384v128H256c-38.4 0-64 25.6-64 64s25.6 64 64 64h512c38.4 0 64-25.6 64-64s-25.6-64-64-64H576V768h384c38.4 0 64-25.6 64-64V64c0-38.4-25.6-64-64-64zM755.2 448c-25.6 38.4-64 64-115.2 64H384c-108.8 0-192-83.2-192-192s83.2-192 192-192c38.4 0 76.8 12.8 108.8 32 51.2-44.8 134.4-44.8 179.2 12.8 19.2 19.2 32 51.2 32 83.2v19.2c64 32 83.2 108.8 51.2 172.8z"/><path d="M473.6 428.8c-6.4 0-19.2-6.4-25.6-12.8l-76.8-83.2c-12.8-12.8-12.8-32 0-44.8s32-12.8 44.8 0l57.6 57.6L576 243.2c12.8-12.8 32-12.8 44.8 0 12.8 12.8 12.8 32 0 44.8l-128 134.4c0 6.4-6.4 6.4-19.2 6.4z"/></svg>