<svg class="icon" viewBox="0 0 1024 1024" xmlns="http://www.w3.org/2000/svg" width="16" height="16"><defs><style/></defs><path d="M569.805 21.274a82.074 82.074 0 0 0-110.285 0L13.568 444.724a41.14 41.14 0 0 0 55.091 61.106l7.091-6.732v441.958a82.278 82.278 0 0 0 82.279 82.38h239.437V775.732a57.933 57.933 0 0 1 57.958-58.01H568.09a57.933 57.933 0 0 1 57.958 58.01v247.706h245.12a82.278 82.278 0 0 0 82.304-82.381V504.499c18.278 16.538 44.211 15.283 59.418-1.664a41.14 41.14 0 0 0-2.97-58.112L569.805 21.3z"/></svg>