<?xml version="1.0" standalone="no"?><!DOCTYPE svg PUBLIC "-//W3C//DTD SVG 1.1//EN" "http://www.w3.org/Graphics/SVG/1.1/DTD/svg11.dtd"><svg t="1542263441124" class="icon" style="" viewBox="0 0 2560 1024" version="1.1" xmlns="http://www.w3.org/2000/svg" p-id="28336" xmlns:xlink="http://www.w3.org/1999/xlink" width="500" height="200"><defs><style type="text/css"></style></defs><path d="M1022.8280889 573.16693333V541.12711111c14.56355555-5.82542222 29.12711111-8.73813333 43.69066667-14.56355556-2.91271111-29.12711111 0-58.25422222 0-87.38133333 0-5.82542222 11.65084445-2.91271111 14.56355556-5.82542222 14.56355555 2.91271111 29.12711111-2.91271111 43.69066667 0v55.34151111c2.91271111 5.82542222 5.82542222 8.73813333 8.73813333 14.56355556 29.12711111-14.56355555 46.60337778-34.95253333 69.90506667-52.4288h52.4288c-5.82542222 5.82542222-8.73813333 20.38897778-14.56355556 26.2144-26.2144 29.12711111-49.51608889 49.51608889-81.55591111 64.07964444-11.65084445 5.82542222-23.30168889 0-34.95253333 8.73813334 5.82542222 17.47626667-8.73813333 29.12711111 8.73813333 34.95253333 17.47626667-2.91271111 52.4288 2.91271111 81.55591111 2.91271111 23.30168889 0 43.69066667-5.82542222 52.4288 2.91271111 0 5.82542222 2.91271111 23.30168889 2.91271111 29.12711111-55.34151111 0-139.81013333 5.82542222-186.41351111-2.91271111-5.82542222 0-8.73813333-8.73813333-11.65084444-11.65084445-2.91271111-14.56355555-5.82542222-26.2144-5.82542223-40.77795555-17.47626667 5.82542222-32.03982222 5.82542222-43.69066667 8.73813333z m783.5192889-136.89742222c17.47626667 0 46.60337778-2.91271111 55.3415111 2.91271111-5.82542222 11.65084445-8.73813333 23.30168889-14.56355555 34.95253333 11.65084445 0 26.2144-2.91271111 40.77795555 0v32.03982223c-29.12711111-2.91271111-61.16693333 0-81.5559111 0-8.73813333 0-11.65084445 8.73813333-20.38897778 11.65084444-8.73813333 5.82542222-26.2144 8.73813333-40.77795556 8.73813333l-2.91271111-2.9127111v-32.03982223c17.47626667-8.73813333 40.77795555-17.47626667 49.51608889-29.12711111 5.82542222-8.73813333 0-17.47626667 14.56355556-26.2144z m454.38293333-2.91271111c14.56355555 0 37.86524445 2.91271111 52.4288 5.82542222v2.91271111l-5.82542223 5.82542222c-11.65084445 29.12711111-34.95253333 55.34151111-66.99235555 66.99235556-20.38897778 5.82542222-43.69066667 5.82542222-66.99235555 8.73813334v-34.95253334c26.2144-2.91271111 46.60337778-8.73813333 64.07964444-20.38897778 11.65084445-8.73813333 8.73813333-26.2144 23.30168889-34.95253333z m-1339.84711111 99.03217778c-17.47626667 0-34.95253333 2.91271111-49.51608889 2.91271111 0-11.65084445 0-26.2144 2.91271111-34.95253334 43.69066667 0 78.6432-17.47626667 99.03217778-37.86524444 8.73813333-8.73813333 5.82542222-14.56355555 14.56355555-23.30168889h52.4288c-2.91271111 2.91271111-2.91271111 8.73813333-5.82542222 11.65084445-8.73813333 29.12711111-34.95253333 40.77795555-52.4288 61.16693333 0 37.86524445-2.91271111 75.73048889-2.91271111 113.59573333-17.47626667 0-37.86524445-2.91271111-55.34151111-2.91271111-2.91271111-32.03982222-2.91271111-61.16693333-2.91271111-90.29404444zM1337.4008889 745.01688889v-37.86524444c-17.47626667-5.82542222-17.47626667-11.65084445-26.2144-20.38897778 2.91271111-5.82542222 5.82542222-8.73813333 11.65084445-14.56355556 23.30168889-8.73813333 40.77795555-26.2144 52.4288-49.51608889-17.47626667-14.56355555-29.12711111-2.91271111-40.77795555-23.30168889 5.82542222-26.2144-5.82542222-87.38133333 5.82542222-110.68302222 43.69066667-2.91271111 93.20675555-2.91271111 136.89742222-2.91271111v-11.65084445l-5.82542222-5.82542222c-49.51608889 0-99.03217778 2.91271111-148.54826667 0v-14.56355555c0-2.91271111 2.91271111-5.82542222 2.91271111-11.65084445 52.4288 0 200.97706667-5.82542222 294.18382222-5.82542222 43.69066667 0 72.81777778-5.82542222 81.55591112 2.91271111v29.12711111c-55.34151111 2.91271111-107.77031111 0-163.11182223 0v14.56355556c5.82542222 0 8.73813333 2.91271111 14.56355556 2.91271111 34.95253333-8.73813333 93.20675555-8.73813333 133.98471111 0 5.82542222 20.38897778 2.91271111 43.69066667 2.91271111 66.99235555 0 23.30168889 5.82542222 40.77795555-2.91271111 52.4288-5.82542222 0-11.65084445 8.73813333-17.47626667 8.73813334-75.73048889 2.91271111-157.2864 0-230.10417777 2.91271111 0 11.65084445-2.91271111 5.82542222 2.9127111 14.56355555h244.66773334c-11.65084445 43.69066667-52.4288 43.69066667-78.6432 69.90506667v2.91271111c32.03982222 2.91271111 61.16693333 5.82542222 93.20675556 5.82542222 0 11.65084445-2.91271111 20.38897778-2.91271112 32.03982223-32.03982222 0-90.29404445 0-131.072-8.73813333-23.30168889-2.91271111-32.03982222-14.56355555-46.60337778-14.56355556-26.2144 5.82542222-43.69066667 14.56355555-72.81777777 17.47626666-32.03982222 11.65084445-75.73048889 8.73813333-110.68302223 8.73813334z m605.84391112-302.92195556c66.99235555-2.91271111 198.06435555-17.47626667 189.32622222 32.03982222-5.82542222 40.77795555 11.65084445 128.15928889-14.56355556 125.24657778-23.30168889 11.65084445-64.07964445 5.82542222-160.19911111 5.82542222 0 34.95253333-5.82542222 87.38133333 5.82542223 110.68302223 17.47626667 0 34.95253333 2.91271111 52.4288 2.91271111v29.12711111c-26.2144 0-58.25422222-2.91271111-87.38133334-2.91271111-8.73813333-5.82542222-20.38897778 2.91271111-26.2144-14.56355556-8.73813333-32.03982222-2.91271111-101.94488889-2.91271111-151.46097778 0-46.60337778-2.91271111-93.20675555 2.91271111-125.24657777 2.91271111-2.91271111 17.47626667-17.47626667 40.77795556-11.65084445z m387.39057778 5.82542222c46.60337778 2.91271111 177.67537778-5.82542222 218.45333333 2.91271112 2.91271111 0 2.91271111 32.03982222-2.91271111 29.12711111-69.90506667 0-142.72284445 5.82542222-212.62791112 5.82542222 0-8.73813333-2.91271111-29.12711111-2.9127111-37.86524445z m-276.70755556 90.29404445c-23.30168889 0-72.81777778 0-93.20675556 2.91271111 2.91271111 14.56355555-5.82542222 17.47626667 0 26.2144 34.95253333 0 87.38133333 11.65084445 110.68302222 0 0-29.12711111 5.82542222-69.90506667 0-96.11946666-26.2144 2.91271111-93.20675555-2.91271111-110.68302222 2.9127111 0 5.82542222 0 17.47626667-2.91271111 23.3016889l5.82542223 5.82542222h90.29404444c0 2.91271111 2.91271111 5.82542222 2.91271111 5.82542222 0 11.65084445-2.91271111 20.38897778-2.91271111 29.12711111z m-451.47022222-14.56355555c0 14.56355555 5.82542222 17.47626667 0 23.30168888-66.99235555 0-139.81013333 2.91271111-209.7152 2.91271112 0 2.91271111 2.91271111 5.82542222 2.91271111 5.82542222 69.90506667 0 136.89742222 2.91271111 206.80248889 2.91271111v2.91271111c0 5.82542222 2.91271111 11.65084445 0 17.47626666-34.95253333 0-84.46862222 2.91271111-125.24657778 0-32.03982222 0-58.25422222 0-84.46862222 2.91271112 2.91271111 0-2.91271111 5.82542222 0 8.73813333 26.2144 2.91271111 49.51608889 2.91271111 87.38133333 2.91271111 58.25422222 0 125.24657778 0 148.54826667-5.82542222 0-29.12711111 2.91271111-61.16693333-5.82542222-78.6432-29.12711111 0-61.16693333 2.91271111-93.20675556 0-40.77795555-2.91271111-72.81777778-2.91271111-110.68302222 0-8.73813333 0-17.47626667-2.91271111-26.2144 0 0 2.91271111 0 8.73813333 2.91271111 11.65084444 66.99235555 2.91271111 136.89742222 2.91271111 206.80248889 2.91271112zM2211.21422224 745.01688889c0-49.51608889-2.91271111-96.11946667-2.91271111-145.63555556-11.65084445 0-26.2144 5.82542222-37.86524445 5.82542222v-40.77795555c40.77795555-2.91271111 69.90506667-23.30168889 87.38133334-49.51608889h52.4288c-5.82542222 17.47626667-8.73813333 29.12711111-17.47626667 40.77795556-5.82542222 5.82542222-23.30168889 11.65084445-26.2144 23.30168888 0 55.34151111-2.91271111 113.59573333-2.91271111 168.93724445-17.47626667-2.91271111-34.95253333-2.91271111-52.4288-2.91271111z m142.72284444 5.82542222c0-8.73813333-2.91271111-23.30168889-2.91271111-32.03982222 32.03982222 0 69.90506667-2.91271111 101.94488889-2.91271111 23.30168889-14.56355555 11.65084445-116.50844445 8.73813334-148.54826667-34.95253333 0-113.59573333 0-142.72284445-2.91271111-2.91271111-11.65084445-8.73813333-20.38897778-2.91271111-29.12711111 78.6432 2.91271111 163.11182222-5.82542222 238.84231111-2.91271111 0 8.73813333 2.91271111 26.2144 2.91271111 37.86524444-17.47626667 0-29.12711111-2.91271111-37.86524444 2.91271111-2.91271111 49.51608889 2.91271111 104.8576-2.91271112 145.63555556-2.91271111 11.65084445-11.65084445 17.47626667-17.47626666 26.2144-11.65084445 11.65084445-96.11946667 5.82542222-145.63555556 5.82542222z m-466.03377778-186.41351111h-43.69066666v5.82542222c-11.65084445 29.12711111 20.38897778 23.30168889 40.77795556 26.2144 2.91271111 5.82542222 5.82542222 11.65084445 2.9127111 17.47626667v11.65084444c-14.56355555 0-34.95253333 2.91271111-49.51608888 2.91271112 0 23.30168889 0 49.51608889 2.91271111 66.99235555 14.56355555-8.73813333 29.12711111-23.30168889 43.69066667-23.30168889-2.91271111 11.65084445 2.91271111 26.2144 0 37.86524444-26.2144 17.47626667-64.07964445 43.69066667-107.77031112 32.03982223V622.68302222c-11.65084445 0-26.2144 2.91271111-37.86524444 0 0-8.73813333-2.91271111-23.30168889-2.91271111-29.12711111 11.65084445 0 29.12711111 0 40.77795555-2.91271111 0-5.82542222-2.91271111-17.47626667 0-26.2144-8.73813333-8.73813333-23.30168889 0-37.86524444-2.91271111v-29.12711111c11.65084445 2.91271111 29.12711111 0 43.69066666-2.91271111h69.90506667c11.65084445 0 23.30168889-2.91271111 32.03982223 0 2.91271111 14.56355555 2.91271111 29.12711111 2.9127111 34.95253333z m113.59573334 52.4288c17.47626667 8.73813333 29.12711111 37.86524445 40.77795556 52.4288 5.82542222-5.82542222 14.56355555-11.65084445 20.38897777-17.47626667 2.91271111-11.65084445 5.82542222-20.38897778 11.65084445-32.03982222 17.47626667 0 34.95253333 2.91271111 52.4288 2.91271111-5.82542222 8.73813333-8.73813333 23.30168889-14.56355556 32.03982223-8.73813333 14.56355555-23.30168889 23.30168889-32.03982222 37.86524444 2.91271111 2.91271111 5.82542222 5.82542222 5.82542222 11.65084444 17.47626667 2.91271111 37.86524445 2.91271111 55.34151111 5.82542222 0 11.65084445-2.91271111 29.12711111-2.91271111 37.86524445-87.38133333-2.91271111-136.89742222-55.34151111-166.02453333-113.59573333 8.73813333-11.65084445 20.38897778-11.65084445 29.12711111-17.47626667z m-902.94044444 17.47626667c5.82542222 5.82542222-2.91271111 11.65084445 0 20.38897778h166.02453333c0 5.82542222 2.91271111 8.73813333 2.91271111 14.56355555s-2.91271111 11.65084445-2.91271111 17.47626667h-163.11182223c-2.91271111 0-5.82542222 2.91271111-5.82542222 2.91271111 0 20.38897778 2.91271111 40.77795555 0 61.16693333-20.38897778 0-43.69066667-2.91271111-64.07964444-2.91271111v-64.07964445H868.45440002c0-11.65084445 2.91271111-34.95253333 0-32.03982222 49.51608889 0 104.8576 2.91271111 160.19911111 0 5.82542222 0-2.91271111-17.47626667 2.91271111-17.47626666 20.38897778-2.91271111 46.60337778 0 66.99235556 0zM1471.38560002 657.63555555l-2.91271112 2.91271112c26.2144 29.12711111 99.03217778 40.77795555 116.50844445-2.91271112h-113.59573333z m-84.46862222 14.56355556c-14.56355555 11.65084445-29.12711111 26.2144-43.69066667 37.86524444h69.90506667c14.56355555 0 29.12711111 2.91271111 37.86524444-5.82542222-20.38897778-8.73813333-43.69066667-23.30168889-64.07964444-32.03982222z" fill="#231815" p-id="28337"></path><path d="M585.92142224 337.23733333l-23.30168889-29.12711111s-84.46862222 14.56355555-81.55591111-34.95253333c0 0 5.82542222-34.95253333-55.34151111-20.38897778 0 0-14.56355555-14.56355555-14.56355556-20.38897778 0 0 2.91271111-20.38897778-61.16693333-8.73813333 0 0-99.03217778 11.65084445-206.80248889 133.98471111 0 0-107.77031111 90.29404445-107.77031111-2.91271111 0 0-58.25422222 61.16693333-26.2144 107.77031111 0 0 34.95253333 49.51608889 104.8576 8.73813334 0 0-20.38897778 166.02453333 90.29404444 253.40586666 0 0 116.50844445 107.77031111 247.58044445 69.90506667 0 0 110.68302222-23.30168889 154.37368889-133.98471111 0 0-20.38897778 20.38897778-29.12711112 17.47626666 0 0 29.12711111-34.95253333 32.03982223-52.4288 0 0 0-20.38897778-17.47626667 11.65084445 0 0 2.91271111-20.38897778-8.73813333-11.65084445 0 0-58.25422222 66.99235555-84.46862223 72.81777778 0 0-186.41351111 110.68302222-270.88213333-110.68302222 0 0-34.95253333-104.8576 49.51608889-183.5008 84.46862222-78.6432 168.93724445-69.90506667 244.66773334-14.56355556 0 0 37.86524445-43.69066667 55.3415111-34.95253333 0 2.91271111 14.56355555-5.82542222 8.73813334-17.47626667z" fill="#E60012" p-id="28338"></path><path d="M326.69013335 468.30933333h183.5008v139.81013334H326.69013335V468.30933333z" fill="#E60012" p-id="28339"></path><path d="M1317.01191113 378.01528889h-17.47626667v-101.94488889h17.47626667v43.69066667h52.4288v-43.69066667h17.47626667v101.94488889h-17.47626667v-43.69066667h-52.4288v43.69066667z m101.94488889-101.94488889h17.47626666v64.07964445c0 8.73813333 2.91271111 14.56355555 5.82542222 20.38897777 2.91271111 2.91271111 8.73813333 5.82542222 17.47626667 5.82542223s14.56355555-2.91271111 17.47626667-5.82542223c2.91271111-2.91271111 5.82542222-8.73813333 5.82542222-20.38897777v-64.07964445h17.47626667v78.6432c0 2.91271111-2.91271111 5.82542222-5.82542223 8.73813333-2.91271111 5.82542222-8.73813333 8.73813333-14.56355555 11.65084445-5.82542222 2.91271111-11.65084445 2.91271111-20.38897778 2.91271111-8.73813333 0-14.56355555 0-20.38897777-2.91271111-5.82542222-2.91271111-11.65084445-5.82542222-14.56355556-11.65084445-2.91271111-2.91271111-2.91271111-5.82542222-5.82542222-8.73813333 0-2.91271111-2.91271111-8.73813333-2.91271112-17.47626667v-61.16693333h2.91271112z m171.84995555 58.25422222l-17.47626667-37.86524444-17.47626666 37.86524444h34.95253333z m-40.77795555 14.56355556l-14.56355556 29.12711111h-20.38897778l49.51608889-101.94488889h17.47626667l49.51608889 101.94488889h-20.38897778l-14.56355555-29.12711111h-46.60337778z m142.72284444-8.73813333l-32.03982222 40.77795555h-20.38897778l43.69066667-52.4288L1643.23555557 278.98311111h20.38897778l29.12711111 40.77795556 29.12711111-40.77795556h23.30168889l-40.77795556 49.51608889 43.69066667 52.4288h-20.38897777l-34.95253334-40.77795555z m93.20675556 37.86524444h-17.47626667v-101.94488889h17.47626667v101.94488889z m90.29404444-43.69066667l-17.47626666-37.86524444-17.47626667 37.86524444h34.95253333z m-40.77795556 14.56355556l-14.56355555 29.12711111h-20.38897778l49.51608889-101.94488889h17.47626667l49.51608889 101.94488889h-20.38897778l-14.56355556-29.12711111h-46.60337778z m262.144-29.12711111h5.82542223c8.73813333 0 17.47626667 0 20.38897777-2.91271112 2.91271111-2.91271111 5.82542222-5.82542222 5.82542223-11.65084444s-2.91271111-8.73813333-5.82542223-11.65084444c-2.91271111-2.91271111-8.73813333-2.91271111-17.47626666-2.91271112h-8.73813334v29.12711112z m0 46.60337778h14.56355556c8.73813333 0 14.56355555 0 17.47626667-2.91271112 2.91271111-2.91271111 5.82542222-5.82542222 5.82542222-11.65084444s-2.91271111-8.73813333-5.82542222-14.56355556c-2.91271111-2.91271111-11.65084445-5.82542222-17.47626667-5.82542222h-14.56355556V366.36444445z m8.73813334-90.29404445c14.56355555 0 23.30168889 2.91271111 32.03982222 5.82542222 5.82542222 5.82542222 11.65084445 11.65084445 11.65084444 20.38897778 0 2.91271111 0 8.73813333-2.9127111 11.65084445l-8.73813334 8.73813333c5.82542222 2.91271111 11.65084445 2.91271111 14.56355556 8.73813333 2.91271111 2.91271111 5.82542222 8.73813333 5.82542222 14.56355556s0 8.73813333-2.91271111 14.56355555c-2.91271111 2.91271111-5.82542222 8.73813333-8.73813333 11.65084445-2.91271111 2.91271111-8.73813333 5.82542222-14.56355556 5.82542222s-11.65084445 2.91271111-20.38897778 2.91271111h-29.12711111v-101.94488889h23.30168889v-2.91271111z m136.89742222 58.25422222L2225.7777778 296.45937778l-17.47626667 37.86524444h34.95253333z m-43.69066666 14.56355556l-14.56355556 29.12711111h-20.38897778l49.51608889-101.94488889h17.47626667l49.51608888 101.94488889h-20.38897777l-14.56355556-29.12711111h-46.60337777z m119.42115555 29.12711111h-17.47626667v-101.94488889h20.38897778l64.07964444 75.73048889v-75.73048889h17.47626667v101.94488889h-17.47626667l-64.07964444-78.6432-2.91271111 78.6432z m133.98471111-49.51608889l49.51608889-52.4288h23.30168889l-52.4288 52.4288 49.51608889 52.4288h-23.30168889l-46.60337778-52.4288z m0 49.51608889h-17.47626666v-101.94488889h17.47626666v101.94488889z" fill="#231815" p-id="28340"></path></svg>