<?xml version="1.0" standalone="no"?><!DOCTYPE svg PUBLIC "-//W3C//DTD SVG 1.1//EN" "http://www.w3.org/Graphics/SVG/1.1/DTD/svg11.dtd"><svg t="1542263038909" class="icon" style="" viewBox="0 0 4249 1024" version="1.1" xmlns="http://www.w3.org/2000/svg" p-id="18314" xmlns:xlink="http://www.w3.org/1999/xlink" width="829.8828125" height="200"><defs><style type="text/css"></style></defs><path d="M82.615596 514.170828l2.116525 33.894142 4.23693 31.773737 8.475151 33.892849 12.706909 29.657212 14.828606 31.777616 16.94901 25.41899 8.475152 14.828606 10.591677 12.712081 21.180767 25.41899 50.839273 42.364121 29.655919 16.94901 29.657212 14.828606 31.777616 10.590384 31.772445 8.475151 16.94901 2.116525 16.943838 2.120405h67.788283l31.772445-6.358627 33.894141-8.468687 29.655919-10.595555 31.777616-14.829899 25.41899-16.942546 14.828606-8.476444 10.591677-10.589091 25.41899-21.182061 21.185939-25.418989 21.182061-25.424162 16.945131-25.41899 14.827313-31.772444 10.596849-29.657213 8.46998-33.894141 2.120404-14.829899 2.116525-16.947717v-67.783111l-6.353454-33.894142-8.475152-31.777616-10.590384-31.772444-12.712081-31.777616-16.945131-29.657213-8.473859-14.827313-10.591676-10.591676-21.182061-23.302465-25.41899-23.298586-25.424161-21.185939-25.41899-16.945132-31.772445-14.828606-29.657212-10.590384-33.894141-8.475151-14.827313-2.115232h-16.950303l-16.943839-2.121697h-19.065535l-33.894142 2.121697-33.894141 2.115232-31.772444 8.475151-31.777617 10.590384-29.657212 14.828606-29.655919 19.065536-14.828606 8.475151-10.591677 10.590384-25.41899 23.298586-21.180767 23.302465-21.187233 25.418989-16.945131 29.657213-14.827313 29.655919-10.591677 31.778909-8.475151 31.772444-2.115233 16.94901v16.945132l-2.121697 16.94901v16.942545h-2.115232z m-82.615596 0l2.116525-42.368 2.120404-23.298586 2.116526-21.185939 14.828606-40.247596 6.358626-21.182061 8.46998-16.943838 8.473858-21.187232 8.475152-16.945132 21.18206-33.894141 10.590384-16.94901 14.828606-16.943838 25.41899-29.657213 14.828606-14.828606 14.828606-10.590383 14.827313-12.712081 16.950303-10.590384 16.943839-10.591677 16.950303-8.475151 38.131071-16.943839 38.125899-16.94901 21.187232-6.353454 21.18206-6.354748 21.180768-2.120404 21.182061-4.236929 42.369293-2.116525 42.369293 2.116525 21.18206 2.120404 21.182061 2.116525 40.247596 10.590384 21.185939 6.358626 21.182061 8.46998 16.950303 8.475151 16.943838 8.473859 38.131071 21.182061 14.828606 10.591676 16.945131 14.827314 25.41899 29.657212 29.655919 29.655919 10.596849 16.950303 10.590384 16.943838 10.590384 16.950303 8.475151 16.943839 21.182061 38.13107 14.828606 38.131071 2.115232 21.182061 6.358626 21.18206 2.116526 21.187233 2.116525 23.297293 2.120404 42.369293-2.120404 42.368-4.233051 42.365414-8.473858 40.247596-8.475152 21.187232-6.353454 21.180768-6.353455 10.591676-10.596848 16.94901-21.180768 38.124607-10.591677 14.829899-10.590384 16.94901-31.777616 27.534222-29.657212 29.657212-16.943838 10.594263-14.828606 10.591676-16.94901 10.590384-21.182061 8.475152-33.894141 21.18206-38.131071 16.943839-21.182061 6.358626-42.364121 4.230465-21.185939 2.12299-42.364122 2.116525-42.369293-2.116525-23.302464-2.12299-21.182061-2.115233-38.131071-8.475151-21.18206-8.471273-16.943838-6.358626-21.187233-8.468687-16.943838-10.595556-33.894142-21.183353-16.950303-12.706909-16.943838-10.594263-44.484525-44.484525-10.591677-14.828606-14.828606-16.943839-10.590384-14.828606-10.595556-16.950303-8.469979-21.180767-16.94901-33.894142-14.828606-38.13107-12.70691-42.364122-2.121697-21.18206-2.116525-21.188526-4.238222-40.243717z m660.919596 29.657212v188.528485h-209.713131v-61.428363h141.93002v-69.904808h-139.813495V412.489697h139.813495v-63.544889H451.206465v-61.434828h207.596606v188.529778h-139.813495v63.551353h141.93002v4.236929z m-476.626748 0v188.528485h207.600485v-61.428363h-141.928727v-69.904808h139.808323V412.489697h-139.808323v-63.544889h141.928727v-61.434828h-207.600485v188.529778h139.813495v63.551353h-139.813495v4.236929zM1001.974949 689.99499h3234.697051v27.535515H1001.974949z" fill="#CF0106" p-id="18315"></path><path d="M1001.974949 484.514909V245.140687h169.464243v-101.67596c40.247596 0 63.551354 0 69.904808 2.115233 10.590384 0 14.827313 0 14.827313 2.121697 0 2.116525 0 4.233051-2.115232 6.353454-4.238222 10.591677-6.353455 23.303758-6.353455 38.131071v50.839273h180.054627v235.136h-76.25697V446.383838h-103.797657v177.939394h-74.146909V446.383838h-101.677252v38.131071h-69.903516z m69.903516-182.176323v91.090747h101.677252V302.338586h-101.677252z m277.500121 91.090747V302.338586h-103.797657v91.090747h103.797657z m203.358384 230.893899V156.171636h430.025697v463.918546h-67.788283v-23.301172H1618.408727v27.535515h-65.671757zM1917.096081 211.251717H1620.525253v330.459798h296.570828V211.251717z m-271.151839 127.096243H1730.681535v-44.484526h-93.207272v-50.837979h258.434585v50.837979h-101.675959v44.484526h93.200808v50.843151h-23.297293c16.943838 29.657212 25.41899 44.485818 29.655919 46.601051l-31.777616 21.18206h38.132364v52.959677H1633.237333v-52.959677H1730.681535v-67.783111h-84.737293v-50.843151z m160.995556 72.025212l31.777616-21.182061H1798.464646v67.783111h40.252768c-10.595556-14.828606-21.187232-29.655919-31.777616-46.60105z m285.97398 101.682424h190.651475v-254.202828H2124.691394v-63.550061h396.126384v63.550061H2357.70699v256.31806H2554.711919v61.436121H2092.913778v-63.551353zM2929.656242 183.712323h184.298021v50.83798h-127.101415c16.943838 8.475152 25.41899 12.712081 27.535516 14.828606 0 2.120404-2.116525 6.358626-4.231758 8.473859-8.475152 8.475152-16.94901 19.065535-25.424162 33.894141h93.207273v288.091798c0 31.777616-33.894141 46.604929-99.560727 44.484525-2.116525-21.182061-8.475152-40.247596-19.065535-57.192727 36.014545 2.117818 52.959677-4.235636 48.722747-19.065535V412.489697c-6.353455 6.358626-12.706909 14.828606-21.182061 27.540687-2.121697-2.116525-8.475152-6.353455-19.065535-16.945131v129.217939h-63.550061v-12.712081h-61.429656v19.065535h-55.081374V427.318303l-12.706909 8.473859c-8.475152-14.827313-14.828606-25.41899-23.302465-33.892849v213.95394l-65.666585-2.12299V287.50998h99.560727c-2.116525-2.116525-6.353455-6.353455-8.475152-12.712081-8.46998-10.591677-10.590384-16.945131-8.469979-19.060364 10.590384-4.238222 31.772444-10.596848 65.666585-16.950303 2.116525 2.121697 8.475152 19.065535 21.182061 46.606223h57.196606c10.590384-16.94901 19.065535-36.014545 25.41899-52.959677H2650.035717V183.712323h194.888404c-2.116525-12.712081-6.353455-21.182061-8.475151-27.540687-2.116525-4.236929-2.116525-6.353455 0-8.469979 31.777616-2.121697 59.313131-4.236929 84.737293-4.23693 6.354747 10.590384 8.46998 23.297293 8.469979 40.247596z m-103.797656 154.635637h-69.903515v55.081373c25.41899-10.596848 48.721455-29.657212 69.903515-55.081373z m101.682424 0h-88.970343l36.010666 36.015838-8.475151 8.468687c-12.706909 6.358626-25.41899 14.828606-36.010667 25.425454h122.863192c-25.41899-14.828606-40.247596-23.303758-46.60105-27.540686-6.358626-2.116525-8.475152-4.238222-6.358627-6.353455 2.121697-6.358626 12.713374-19.065535 27.54198-36.015838z m82.615596 0h-74.141737c19.060364 12.712081 44.484525 27.540687 74.141737 46.606222v-46.606222zM2844.924121 495.105293h61.434828v-42.362828h-61.434828v42.362828z m474.505051-294.449131h82.615596v52.959676h-105.914182c-10.590384 23.301172-14.828606 38.131071-16.94901 42.369293h118.626262v52.959677h-61.429656v42.362828h65.666586v52.959677h-65.666586v59.313131c8.475152-6.353455 16.943838-12.712081 29.657212-19.065535 14.828606-12.712081 23.302465-19.065535 25.41899-19.065535 4.236929 14.828606 8.475152 31.777616 10.590384 48.721454-52.959677 40.247596-86.848646 67.789576-101.677253 82.616889-10.595556 10.589091-14.828606 14.828606-16.94901 14.828606-6.353455-8.475152-16.943838-27.540687-33.894141-59.313131 0-2.121697 2.121697-4.238222 8.475151-10.590384 10.590384-12.712081 16.943838-21.187232 16.943839-29.657212v-69.90998h-72.020041v-52.954505h72.020041v-42.368h-21.182061c-2.116525 4.236929-4.236929 8.475152-6.353455 14.828606-2.121697 6.353455-4.236929 10.590384-6.353454 12.712081-8.475152-6.358626-23.302465-16.950303-44.489697-31.777616-2.116525-2.116525-4.231758-2.116525-4.231758-4.238222 36.010667-74.141737 59.313131-133.454869 63.550061-175.817697 4.231758-14.828606 6.353455-21.187232 8.46998-25.424162 12.712081 2.120404 36.014545 6.358626 67.788283 14.828606 2.116525 2.120404 0 6.357333-4.23693 12.712081-2.116525 16.94901-4.238222 27.539394-8.475151 36.009374z m99.565899 315.636363V164.646788h226.662141v235.136h-21.187232c14.828606 12.706909 25.424162 25.41899 36.014545 38.131071 8.46998 10.590384 8.46998 19.060364-2.121697 23.298585-2.116525 2.120404-4.236929 2.120404-6.353454 2.120404-16.943838 12.706909-33.894141 23.298586-44.484526 36.010667 21.182061 25.41899 48.722747 42.369293 78.378667 52.959677-16.94901 12.706909-33.894141 33.894141-50.83798 59.313131-2.121697-2.121697-6.358626-4.238222-8.475151-6.353454-44.484525-33.894141-72.025212-63.550061-86.853818-91.092041 0 6.354747 0 12.713374 2.121697 23.303758 0 10.589091 0 16.942545 2.116525 21.18206-52.959677 27.540687-86.853818 46.606222-97.444202 55.07491-10.590384 6.358626-14.828606 10.591677-16.943839 10.591676-6.353455-4.233051-14.828606-27.535515-31.777616-67.783111 0-2.12299 2.121697-4.236929 6.358627-8.476444 10.590384-10.589091 14.827313-21.179475 14.827313-31.771152z m61.429656-296.570828v36.015838h97.444202v-36.015838h-97.444202z m97.444202 124.984889v-36.014546h-97.444202v36.014546h97.444202z m-78.378666 55.076202h-19.065536v122.863192c25.41899-10.590384 40.247596-16.94901 48.722748-25.41899-19.066828-36.014545-29.657212-67.788283-29.657212-97.444202z m114.38804 0h-57.191434v8.475151c6.353455 16.943838 12.706909 31.772444 19.065535 40.246303 14.828606-14.827313 27.535515-31.777616 38.125899-48.721454z m141.93002-129.21794c48.722747-38.131071 88.970343-82.615596 124.979717-135.575272 6.358626 4.236929 12.712081 8.475152 25.424162 14.828606 29.657212 12.712081 42.364121 21.182061 42.364121 23.302464-2.116525 2.116525-4.236929 6.353455-8.46998 8.475152-6.358626 6.353455-12.712081 10.590384-19.065535 16.943838-44.484525 48.722747-84.737293 86.853818-118.626263 114.389334-8.475152-10.590384-23.303758-23.302465-46.606222-42.364122z m446.969536-97.444202v52.959677h-222.42392v-52.959677h222.42392zM3895.621818 361.651717v254.201536h-65.671757V425.201778c-10.590384 10.590384-21.182061 23.302465-36.010667 38.13107l-44.484525-40.247595c52.959677-42.368 101.677253-97.444202 141.928727-163.11596 40.247596 21.187232 59.313131 33.894141 61.429657 38.131071 0 2.121697-2.116525 4.238222-6.353455 6.353454-14.828606 10.596848-31.777616 31.777616-50.83798 57.197899z m55.074909-57.197899h285.975273v57.197899h-78.378667v213.95394c2.116525 29.657212-29.657212 44.483232-99.560727 44.483232-4.236929-27.539394-10.595556-48.721455-23.302465-65.671758 38.131071 2.12299 57.196606-2.115232 52.959677-14.827313V359.535192h-139.813495v-55.081374h2.120404z m0 0M1005.666263 882.76299v-83.238788h19.205171v83.238788h-19.205171zM1118.382545 883.899475l-52.517494-52.670061v51.590465h-18.465617v-83.295677h9.232808l51.113374 50.227717v-50.227717h18.465616v84.375273h-7.828687zM1172.376566 882.76299h-24.005819v-83.181899c15.313455-0.416323 24.940606-0.624485 28.880162-0.624485 15.756929 0 28.253091 3.551677 37.485899 10.652445 9.232808 7.103354 13.849859 16.524929 13.849859 28.267313 0 29.923556-18.737131 44.886626-56.210101 44.886626z m-4.80194-70.284929v56.817777c3.101737 0.227556 6.450424 0.341333 10.046061 0.341334 9.699556 0 17.295515-2.708687 22.786586-8.124768 5.491071-5.416081 8.23596-12.992646 8.235959-22.727111 0-17.803636-10.759758-26.704162-32.277979-26.704162-2.068687 0-4.998465 0.131879-8.790627 0.39693zM1245.575758 799.524202h19.205171v56.420849c0 4.469657 1.772606 8.106667 5.317818 10.909737s8.420848 4.204606 14.625617 4.204606c6.94303 0 12.346182-1.373091 16.213333-4.119273 3.865859-2.746182 5.798788-6.50602 5.798788-11.279515v-56.136404h19.205172v57.272889c0 8.560485-3.730101 15.265616-11.190303 20.114101s-17.419636 7.272727-29.877011 7.272727c-12.556929 0-22.246141-2.367354-29.06505-7.10206-6.820202-4.734707-10.229657-11.514828-10.229657-20.340364v-57.217293zM1342.926869 878.160162l7.090424-13.238303c7.58303 4.090828 15.043232 6.136242 22.380606 6.136242 11.275636 0 16.915394-3.030626 16.915394-9.090586 0-2.840566-1.329131-5.549253-3.988687-8.124768s-8.137697-5.463919-16.434424-8.665212c-8.29802-3.2-13.886061-5.832404-16.766707-7.895919s-5.096727-4.517495-6.648243-7.35806-2.32598-5.98497-2.325979-9.43192c0-6.438788 3.065535-11.779879 9.195313-16.023272s13.997253-6.363798 23.599838-6.363798c12.506505 0 21.690182 1.799758 27.55103 5.397979l-5.83499 12.727596c-6.746505-3.712-13.862788-5.568646-21.346262-5.568646-4.432162 0-7.866182 0.899879-10.304647 2.698343-2.437172 1.801051-3.656404 4.138667-3.656404 7.018021 0 4.772202 6.869333 9.734465 20.608 14.886787 7.239111 2.726788 12.457374 5.237657 15.658667 7.527435 3.2 2.292364 5.637172 4.963556 7.312808 8.012283 1.673051 3.048727 2.510869 6.447838 2.510869 10.198626 0 6.742626-3.459879 12.291879-10.378344 16.647757-6.918465 4.355879-16.188768 6.534465-27.809616 6.534465-10.093899-0.002586-19.202586-2.009212-27.328646-6.02505zM1469.455515 812.648727v70.114263h-19.205172v-70.114263h-34.420363v-13.124525h89.596121v13.124525h-35.970586zM1578.995071 882.76299l-28.880162-34.375111c-2.906505-0.037495-6.968889-0.170667-12.187151-0.398222v34.773333h-19.943435v-83.238788c1.082182 0 5.244121-0.142222 12.483233-0.425374 7.239111-0.285737 13.074101-0.426667 17.506262-0.426666 27.477333 0 41.216 8.181657 41.216 24.544969 0 4.924768-1.896727 9.412525-5.687596 13.465859-3.792162 4.053333-8.568242 6.913293-14.329535 8.579879l31.983192 37.500121h-22.160808z m-41.067313-70.398707v23.125333c3.545212 0.227556 6.252606 0.341333 8.124767 0.341333 8.026505 0 13.897697-0.871434 17.616162-2.61301 3.717172-1.742869 5.576404-5.132929 5.576404-10.170181 0-4.090828-1.993697-6.950788-5.982384-8.579879s-10.267152-2.443636-18.835394-2.443637c-2.068687 0-4.235636 0.113778-6.499555 0.340041zM1610.757172 882.76299v-83.238788h19.205171v83.238788H1610.757172zM1715.643475 882.76299l-7.903677-16.875313h-37.079919l-7.533899 16.875313h-21.346263l43.136-84.375273h8.420849l43.505777 84.375273H1715.643475z m-26.516687-58.921374l-13.000404 30.738101h25.999515l-12.999111-30.738101zM1748.291232 882.76299v-83.238788h19.205172v70.114263h48.897293v13.124525H1748.291232zM1926.671515 882.76299l-7.903677-16.875313h-37.079919l-7.533899 16.875313h-21.346262l43.136-84.375273h8.420848l43.505778 84.375273H1926.671515z m-26.516687-58.921374l-13.000404 30.738101h25.999515l-12.999111-30.738101zM2030.302384 883.899475l-52.517495-52.670061v51.590465h-18.465616v-83.295677h9.232808l51.113374 50.227717v-50.227717h18.465616v84.375273h-7.828687zM2084.296404 882.76299h-24.005818v-83.181899c15.313455-0.416323 24.940606-0.624485 28.880161-0.624485 15.758222 0 28.253091 3.551677 37.485899 10.652445 9.232808 7.103354 13.848566 16.524929 13.848566 28.267313 0.001293 29.923556-18.734545 44.886626-56.208808 44.886626z m-4.800646-70.284929v56.817777c3.101737 0.227556 6.450424 0.341333 10.04606 0.341334 9.699556 0 17.295515-2.708687 22.787879-8.124768 5.489778-5.416081 8.234667-12.992646 8.234667-22.727111 0-17.803636-10.758465-26.704162-32.27798-26.704162-2.068687 0-4.999758 0.131879-8.790626 0.39693zM2277.228606 803.956364l-7.903677 12.215596c-4.283475-3.295677-11.178667-4.942869-20.681697-4.942869-9.011717 0-16.398222 2.907798-22.159515 8.720808-5.761293 5.815596-8.641939 13.172364-8.641939 22.074182s2.669899 15.966384 8.013576 21.193697c5.342384 5.227313 12.471596 7.840323 21.383757 7.840323 10.193455 0 18.170828-2.803071 23.932121-8.409212l8.936728 11.932444c-7.82998 6.401293-19.303434 9.602586-34.420364 9.602586s-26.860606-3.825778-35.232323-11.477333c-8.37301-7.651556-12.556929-18.086788-12.55693-31.30699 0-12.30998 4.640323-22.60299 13.923556-30.881616 9.281939-8.274747 21.161374-12.414707 35.638303-12.414707 12.409535 0 22.332768 1.95103 29.768404 5.853091zM2290.450101 840.432485c0-11.856162 4.222707-21.884121 12.668121-30.085172 8.444121-8.201051 19.732687-12.302222 33.865697-12.302222 15.559111 0 27.451475 3.712 35.675798 11.136s12.335838 17.841131 12.335839 31.250101-4.296404 24.053657-12.889213 31.931475c-8.592808 7.879111-20.792889 11.818667-36.600242 11.818666-14.526061 0-25.668525-3.902061-33.423515-11.704889-7.75499-7.801535-11.632485-18.482424-11.632485-32.043959z m19.942141 0c0 9.734465 2.141091 17.272242 6.425859 22.613333s10.514101 8.01099 18.688 8.01099c9.602586 0 16.92703-2.61301 21.974626-7.840323 5.046303-5.227313 7.570101-12.82198 7.570101-22.784 0-19.507717-9.355636-29.261576-28.068202-29.261576-8.568242 0-15.142788 2.641455-19.722343 7.92695-4.578263 5.282909-6.86804 12.395313-6.868041 21.334626zM2502.88097 882.819879h-18.61301l-11.227798-44.886626-21.791031 45.966222h-6.869333l-21.79103-45.966222-11.66998 44.886626h-18.539313l21.789737-83.295677h10.193455l23.414949 56.079515 22.897778-56.079515h10.118465l22.087111 83.295677zM2615.598545 882.819879h-18.61301l-11.227798-44.886626-21.79103 45.966222h-6.869333l-21.791031-45.966222-11.669979 44.886626h-18.539313l21.789737-83.295677h10.193454l23.41495 56.079515 22.897778-56.079515h10.118464l22.087111 83.295677zM2646.619798 812.648727v19.488324h35.749495v12.556929h-35.749495v24.943192h49.04598v13.124525h-68.249859v-83.238788h69.061818v13.124525h-49.857939zM2774.478869 882.76299l-28.881455-34.375111c-2.905212-0.037495-6.968889-0.170667-12.187151-0.398222v34.773333h-19.943435v-83.238788c1.082182 0 5.244121-0.142222 12.48194-0.425374 7.239111-0.285737 13.074101-0.426667 17.506262-0.426666 27.477333 0 41.216 8.181657 41.216 24.544969 0 4.924768-1.896727 9.412525-5.687596 13.465859s-8.568242 6.913293-14.329535 8.579879l31.983192 37.500121h-22.158222z m-41.068606-70.398707v23.125333c3.545212 0.227556 6.252606 0.341333 8.124767 0.341333 8.025212 0 13.897697-0.871434 17.616162-2.61301 3.717172-1.742869 5.576404-5.132929 5.576404-10.170181 0-4.090828-1.99499-6.950788-5.983677-8.579879s-10.265859-2.443636-18.834101-2.443637c-2.067394 0-4.235636 0.113778-6.499555 0.340041zM2880.028444 803.956364l-7.903676 12.215596c-4.283475-3.295677-11.178667-4.942869-20.681697-4.942869-9.011717 0-16.398222 2.907798-22.159515 8.720808-5.761293 5.815596-8.641939 13.172364-8.64194 22.074182s2.669899 15.966384 8.013576 21.193697c5.342384 5.227313 12.471596 7.840323 21.383757 7.840323 10.193455 0 18.170828-2.803071 23.932122-8.409212l8.936727 11.932444c-7.82998 6.401293-19.303434 9.602586-34.420364 9.602586s-26.860606-3.825778-35.232323-11.477333c-8.37301-7.651556-12.556929-18.086788-12.556929-31.30699 0-12.30998 4.640323-22.60299 13.923555-30.881616 9.281939-8.274747 21.161374-12.414707 35.638303-12.414707 12.410828 0 22.332768 1.95103 29.768404 5.853091zM2898.790141 882.76299v-83.238788h19.205172v83.238788h-19.205172zM3003.676444 882.76299l-7.902383-16.875313h-37.07992l-7.533899 16.875313h-21.347555l43.136-84.375273h8.420848l43.505778 84.375273h-21.198869z m-26.516686-58.921374l-13.000404 30.738101h25.999515l-12.999111-30.738101zM3036.324202 882.76299v-83.238788h19.205172v70.114263h48.897293v13.124525h-68.102465zM3192.989737 882.76299h-33.091232v-83.181899c14.575192-0.530101 24.793212-0.795152 30.652768-0.795152 11.227798 0 20.005495 1.846303 26.333091 5.540202 6.327596 3.691313 9.491394 8.967758 9.491394 15.822869 0 6.591354-4.531717 11.799273-13.591273 15.625051 13.442586 3.598222 20.164525 11.022222 20.164525 22.273293 0 7.575273-3.718465 13.58998-11.152808 18.038949-7.435636 4.451556-17.036929 6.676687-28.806465 6.676687z m-13.88606-71.364525v19.943434c2.954343 0.151273 6.057374 0.227556 9.306505 0.227556 12.507798 0 18.761697-3.617616 18.761697-10.852849 0-6.401293-5.687596-9.602586-17.062788-9.602586-3.004768 0.001293-6.674101 0.095677-11.005414 0.284445z m0 31.477656v27.500606c3.889131 0.265051 7.041293 0.398222 9.455192 0.398222 8.568242 0 14.784646-1.117091 18.650505-3.352565 3.864566-2.235475 5.797495-5.947475 5.797495-11.136 0-4.734707-1.798465-8.181657-5.391515-10.340849-3.594343-2.159192-9.874101-3.238788-18.835394-3.238788-1.872162-0.001293-5.096727 0.055596-9.676283 0.169374zM3313.091232 882.76299l-7.902384-16.875313h-37.079919l-7.533899 16.875313h-21.347555l43.136-84.375273h8.420848l43.505778 84.375273h-21.198869z m-26.516687-58.921374l-13.000404 30.738101h25.999516l-12.999112-30.738101zM3416.722101 883.899475l-52.516202-52.670061v51.590465h-18.465616v-83.295677h9.232808l51.113374 50.227717v-50.227717h18.465616v84.375273h-7.82998zM3508.090828 882.76299l-30.136889-35.454707-12.039757 12.670707v22.784h-19.205172v-83.238788h19.205172v39.82998l36.783838-39.82998h21.863435l-33.904485 36.363636 40.40404 46.875152h-22.970182zM3580.478061 840.432485c0-11.856162 4.222707-21.884121 12.668121-30.085172 8.444121-8.201051 19.732687-12.302222 33.865697-12.302222 15.559111 0 27.451475 3.712 35.675798 11.136s12.335838 17.841131 12.335838 31.250101-4.296404 24.053657-12.889212 31.931475c-8.592808 7.879111-20.792889 11.818667-36.600242 11.818666-14.526061 0-25.668525-3.902061-33.423516-11.704889-7.75499-7.801535-11.632485-18.482424-11.632484-32.043959z m19.943434 0c0 9.734465 2.141091 17.272242 6.425859 22.613333s10.514101 8.01099 18.688 8.01099c9.602586 0 16.92703-2.61301 21.974626-7.840323 5.046303-5.227313 7.570101-12.82198 7.570101-22.784 0-19.507717-9.355636-29.261576-28.068202-29.261576-8.568242 0-15.142788 2.641455-19.722344 7.92695-4.578263 5.282909-6.86804 12.395313-6.86804 21.334626zM3711.217778 812.648727v19.488324h38.039273v12.556929h-38.039273v38.067717h-19.205172v-83.238788h71.277899v13.124525h-52.072727zM3900.012606 803.956364l-7.903677 12.215596c-4.283475-3.295677-11.178667-4.942869-20.681697-4.942869-9.011717 0-16.398222 2.907798-22.159515 8.720808-5.761293 5.815596-8.641939 13.172364-8.641939 22.074182s2.669899 15.966384 8.013576 21.193697c5.342384 5.227313 12.471596 7.840323 21.383757 7.840323 10.193455 0 18.170828-2.803071 23.932121-8.409212l8.936728 11.932444c-7.82998 6.401293-19.303434 9.602586-34.420364 9.602586s-26.860606-3.825778-35.232323-11.477333c-8.37301-7.651556-12.556929-18.086788-12.55693-31.30699 0-12.30998 4.640323-22.60299 13.923556-30.881616 9.281939-8.274747 21.161374-12.414707 35.638303-12.414707 12.409535 0 22.332768 1.95103 29.768404 5.853091zM3980.672 882.76299v-37.500121h-43.062303v37.500121h-19.205172v-83.238788h19.205172v32.614141h43.062303v-32.614141h18.984081v83.238788h-18.984081zM4022.182788 882.76299v-83.238788h19.205172v83.238788h-19.205172zM4134.897778 883.899475l-52.516202-52.670061v51.590465h-18.465616v-83.295677h9.232808l51.113373 50.227717v-50.227717h18.465617v84.375273h-7.82998zM4228.040404 882.76299l-7.902384-16.875313h-37.079919l-7.533899 16.875313h-21.347556l43.136-84.375273h8.420849l43.505778 84.375273h-21.198869z m-26.516687-58.921374l-13.000404 30.738101h25.999515l-12.999111-30.738101z" fill="" p-id="18316"></path></svg>