<svg class="icon" viewBox="0 0 1024 1024" xmlns="http://www.w3.org/2000/svg" width="16" height="16"><defs><style/></defs><path d="M512 970.388c-234.299 0-424.901-190.046-424.901-423.66 0-138.579 68.587-268.684 183.476-348.058a41.128 41.128 0 0 1 22.149-7.216c13.46-.437 26.837 5.767 35.062 17.575 12.938 18.641 8.278 44.197-10.39 57.072-92.71 64.041-148.058 168.945-148.058 280.628 0 188.377 153.704 341.661 342.663 341.661 188.957 0 342.663-153.284 342.663-341.661 0-111.683-55.348-216.587-148.058-280.628-18.696-12.874-23.329-38.43-10.39-57.072 8.06-11.589 21.108-17.766 34.322-17.602a40.996 40.996 0 0 1 22.889 7.243c114.888 79.375 183.476 209.48 183.476 348.058-.002 233.614-190.604 423.66-424.903 423.66zm0-367.372c-23.482 0-42.49-19.035-42.49-42.49V106.422c0-23.456 19.008-42.49 42.49-42.49 23.482 0 42.49 19.034 42.49 42.489v454.106c0 23.454-19.008 42.488-42.49 42.488v.001z"/></svg>