<svg xmlns="http://www.w3.org/2000/svg" viewBox="0 0 972.2 460"><path class="st0" d="M808.4 211.1l18.2 25.8h53.8l-35.8 26.5 31.7 45.1h66l-5.6 28.3H820.8l-26.3-37.5-52.9 37.7h-140l9.5-46 115.3.1 41.7-30.6-34.2-49.3h-44.7l8.9-46h43.4l4.3-21.6h-45.1l8.8-45.1H755l6-28h67.4l-5.3 28h59.8l-8 45h-61.1l-3.7 21.9h76.5l-6 45.7z"/><path class="st0" d="M835.8 89.6l3.5-18.7h44.9l-3.5 18.7zM691.2 163.2H636l13.6-64.8h43.8l-8 43.6h9.4zM481.1 142l8.2-43.5H640l-9.2 43.5zM356.5 142l8.5-43.5h118l-8.4 43.5z"/><path class="st0" d="M262.1 142l-10.4 59.5h25.9l5.4-51.9h53.6l-3.1 51.9h115.4l-25.8 137.7h-70.7l18.4-91H243.5l-24.2 135.9h-70.5l25.5-135.9H33.7l14.9-46.7h49.3l18.3-51.9h57.2l-17 51.9h26.8l11.2-59.5h-88.9l14.8-43.6 237.1.1-8.1 43.5zM366.8 365.9v-.1-.1-.1-.1-.2c0-.2-.1-.5-.1-.7v-.1c0-.1-.1-.2-.1-.4v-.1-.1-.1-.1-.1h-.1-.1l-.1-.1-.1-.1-.2-.2-.1-.1-.1-.1h-.1v-.1h-.1-.1-.1-.1-.1-.1-.1-.1-.1c-.1-.1-.3-.1-.4-.1-.1 0-.3-.1-.4-.1h-.1-.1c-.1 0-.2 0-.3-.1h-.1c-.1 0-.3 0-.4-.1h-.1c-.1 0-.3 0-.4-.1h-.1-.1-.1-.1-.1-.1-.1-.1-.1-.1-9.6-.1-.1-.1-.1v.1s-.1 0-.1.1V362.9c-.1.2-.1.4-.1.7v22.9h3.9v-9.3H363.3c.1 0 .3 0 .4-.1h.1c.1 0 .2 0 .3-.1H364.9c.2-.1.4-.1.6-.2h.6v-.1-.1h.1l.1-.1c0-.1.1-.1.1-.2h.1l.1-.1.1-.1h.1v-.1-.1-.1-.1-.1-.1-.1-.1-.1-.1-.1-.1-.1-.1-.1-.1-.1-.2-.1-.3-.1-.3-.3-.1-7.1zm-4 .2V367.1c0 .1 0 .2-.1.3v.5l-.1.1-.1.1-.2.2h-.1-.1-.1-.1-.1-.1-.1-.1-.1-.1c-.1 0-.2.1-.4.1h-.1-.1-.1-.1H360.2h-.1-.1-.1-.1-.1-.1H359h-4.4-.1-.1c-.1 0-.2-.1-.2-.1h-.1v-.1s-.1 0-.1-.1h-.1v-.1-.1-.3-.8-4.1-1-.4-.1-.1c0-.1.1-.2.1-.2h.1s0-.1.1-.1v-.1H360.4c.2 0 .4.1.7.1h.1c.1 0 .2.1.3.1.2.1.3.1.5.2h.2c.4.3.7.7 1 1.1v.5c.1.2.1.3.2.5 0 .1 0 .2.1.2v.2c0 .1 0 .2.1.3V364.2c-.8 1.8-.8 1.9-.8 1.9zM403.5 383.1c0-.1-.1-.1-.1-.1v-.1c0-.1 0-.1-.1-.2v-.1-.1-.1-.1c-.1-.1-.1-.3-.1-.4v-.1-.2-.1c0-.1 0-.2-.1-.3v-.1-.3-.1-.1-.2-.1-.3-.5-2.6-4.1-.6-.2-.1-.1-.3-.2-.1-.1-.1-.2-.1-.1c0-.1 0-.2-.1-.3v-.1c0-.1-.1-.3-.1-.4v-.1-.1-.1-.1-.2-.1-.1-.1-.1h-.1l-.1-.1c-.1-.1-.1-.2-.2-.2l-.1-.1-.1-.1v-.1h-.1-.1-.1c-.2-.1-.4-.1-.6-.2-.1 0-.3-.1-.4-.1-.2 0-.5-.1-.7-.1h-.5-.1-.1-.1-.1-.1-.1H396.3h-.1-.1-.1-.7-.1-.1-.1c-.1 0-.2 0-.3.1h-.1-.1-.1c-.1 0-.3.1-.4.1h-.1c-.2.1-.4.1-.6.2-.1 0-.1 0-.2.1h-.1-.1l-.1.1-.1.1-.1.1-.3.3h-.1V369.2c-.1.2-.1.5 0 .7V370.2l.1.1.1.1v.1h.4c.1 0 .3 0 .5.1h.4c.1 0 .2 0 .4.1h.5v-.1-.1-.1-.1-.1-.1-.1h.1s.1 0 .1-.1l.1-.1v-.1l.1-.1H399.8s.1 0 .1.1h.1v.1l.1.1.1.1h.1v2l-.1.1-.1.1h-.1-.1-.1-.1-.1-.1-.1-.1-.1-.1-.1c-.2.1-.4.1-.6.1h-.2c-.2.1-.3.1-.5.1h-.2c-.1 0-.3.1-.5.1h-.1-.1-.1H396.4h-.1c-.2 0-.4 0-.5.1h-.1-.1-.1-.1-.2-.1c-.1 0-.2 0-.3.1h-.1c-.1 0-.2 0-.3.1h-.1-.1-.1c-.1 0-.3 0-.4.1h-.1c-.1 0-.3 0-.4.1h-.1c-.1 0-.2 0-.3.1h-.1c-.1 0-.1 0-.2.1h-.1-.1-.1-.1-.1-.1-.1-.1-.1-.1-.1-.1-.1v.1l-.1.1-.1.1-.1.1-.1.1v.4c-.1.1-.1.3-.1.4v.1c0 .1 0 .2-.1.4v1.6c0 .1 0 .2.1.3v.1c0 .2.1.3.1.5v.4h.1l.1.1.1.1.2.2.1.1v.1H392.5c.1 0 .2 0 .3.1H396.4c.2 0 .4-.1.5-.1h.2c.1 0 .3-.1.5-.1h.7v-.1l.1-.1s0-.1.1-.1l.2-.2.3-.3h.1s0-.1.1-.1V378.4c0 .1.1.3.1.4v.7c1.9 3.7 3.1 3.7 4.2 3.6 0 .1 0 .1 0 0zm-4.3-7.9V376.6c0 .1-.1.3-.1.4v.7l-.1.1-.1.1-.1.1v.1s0 .1-.1.1l-.1.1v.1h-.1-.1-.1-.1-.1-.1-.1-.1-.1-.1-.1c-.2 0-.4.1-.6.1H396.6 396.3h-.1-.1-.1-.1-.1-.1-.1-1-.1-.1-.1-.1-.1-.1-.1-.1-.1-.1-.1-.1-.1-.1-.1l-.1-.1-.1-.1-.1-.1v-.1-.1-.1-.2-.1-.1-.1-.1-.2-.4-.1c0-.1 0-.2.1-.3v-.1-.1-.1-.1-.1-.1h.1l.1-.1.1-.1v-.1H394.3c.1 0 .2-.1.3-.1.1 0 .3-.1.4-.1h1.2c.1 0 .2 0 .3-.1h.7c.1 0 .3 0 .4-.1h.1c.1 0 .3-.1.5-.1h.2c.1 0 .2-.1.3-.1H400.2s.1 0 .1-.1h.2l.1-.1c-1.4-.6-1.4 0-1.4.6zM423.4 366.7c0-.1 0-.1 0 0v-.1-.1-.1-.1l.1-.1v-.1H426.3V368.9h.1l.1-.1.1-.1.2-.2.1-.1h.5c.1 0 .2-.1.3-.1h.1c.1 0 .2 0 .3-.1H430.3c.1 0 .2.1.4.1H431c-.4 1.1-.9 2.2-1.3 3.3l-.6-.3h-.1c-.1 0-.2 0-.2-.1h-.1-.1-.1-.1H428.1h-.4-.1-.1-.1-.1-.1-.1-.1-.1-.1-.1-.1-.1-.1-.1-.1l-.1.1-.1.1-.1.1-.1.1v.1s0 .1-.1.1v.4c-.1.2-.1.4-.2.6v.1c0 .1 0 .2-.1.3v11.1h-3.6V372v-2.7-1c1.6-1.2 1.6-1.4 1.6-1.6 0 .1 0 .1 0 0zM701.4 285.7h-89.2l23-116.3h44.5l-13.4 70.5h42.9zM620.6 201.5l-28.3 135.6H475.7l6.1-28.7h49.6l13.6-60.2h-99.1l9.6-46.8zM468.8 383.2s-.1 0 0 0c-.1 0-.1-.1 0 0-.1-.1-.1-.1 0 0 0-.1-.1-.1-.1-.1v-.1c0-.1 0-.1-.1-.2v-.1-.1-.1-.1c-.1-.1-.1-.3-.1-.4v-.1-.2-.1c0-.1 0-.2-.1-.3v-.1-.3-.1-.1-.2-.1-.3-.5-2.6-4.1-.6-.2-.1-.1-.3-.2-.1-.1-.1-.2-.1-.1c0-.1 0-.2-.1-.3v-.1c0-.1-.1-.3-.1-.4v-.1-.1-.1-.1-.2-.1-.1-.1-.1h-.1l-.1-.1c-.1-.1-.1-.2-.2-.2l-.1-.1-.1-.1v-.1h-.1-.1-.1c-.2-.1-.4-.1-.6-.2-.1 0-.3-.1-.4-.1-.2 0-.5-.1-.7-.1h-.5-.1-.1-.1-.1-.1-.1H461.6h-.1-.1-.1-.7-.1-.1-.1c-.1 0-.2 0-.3.1h-.1-.1-.1c-.1 0-.3.1-.4.1h-.1c-.2.1-.4.1-.6.2-.1 0-.1 0-.2.1h-.1-.1l-.1.1-.1.1-.1.1-.3.3h-.1V369.3c-.1.2-.1.5 0 .7v.4h.1l.1.1v.1h.2c.1 0 .2.1.2.1h.2c.1 0 .3 0 .5.1h.4c.1 0 .2 0 .4.1h.5v-.1-.1-.1-.1-.1-.1-.1h.1s.1 0 .1-.1l.1-.1v-.1l.1-.1H465.3s.1 0 .1.1h.1v.1l.1.1.1.1h.1v2l-.1.1-.1.1h-.1-.1-.1-.1-.1-.1-.1-.1-.1-.1-.1c-.2.1-.4.1-.6.1h-.2c-.2.1-.3.1-.5.1h-.2c-.1 0-.3.1-.5.1h-.1-.1-.1H461.9h-.1c-.2 0-.4 0-.5.1h-.1-.1-.1-.1-.2-.1c-.1 0-.2 0-.3.1h-.1c-.1 0-.2 0-.3.1h-.1-.1-.1c-.1 0-.3 0-.4.1h-.1c-.1 0-.3 0-.4.1h-.1c-.1 0-.2 0-.3.1h-.1c-.1 0-.1 0-.2.1h-.1-.1-.1-.1-.1-.1-.1-.1-.1-.1-.1-.1-.1v.1l-.1.1-.1.1-.1.1-.1.1v.4c-.1.1-.1.3-.1.4v.1c0 .1 0 .2-.1.4v1.6c0 .1 0 .2.1.3v.1c0 .2.1.3.1.5v.4h.1l.1.1.1.1.2.2.1.1v.1H458c.1 0 .2 0 .3.1H461.9c.2 0 .4-.1.5-.1h.2c.1 0 .3-.1.5-.1h.7v-.1l.1-.1s0-.1.1-.1l.2-.2.3-.3h.1s0-.1.1-.1V378.6c0 .1.1.3.1.4v.7c1.7 3.6 2.8 3.6 4 3.5zm-4.3-7.9V376.7c0 .1-.1.3-.1.4v.7l-.1.1-.1.1-.1.1v.1s0 .1-.1.1l-.1.1v.1h-.1-.1-.1-.1-.1-.1-.1-.1-.1-.1-.1c-.2 0-.4.1-.6.1H461.9 461.6h-.1-.1-.1-.1-.1-.1-.1-1-.1-.1-.1-.1-.1-.1-.1-.1-.1-.1-.1-.1-.1-.1-.1l-.1-.1-.1-.1-.1-.1v-.1-.1-.1-.2-.1-.1-.1-.1-.2-.4-.1c0-.1 0-.2.1-.3v-.1-.1-.1-.1-.1-.1h.1l.1-.1.1-.1v-.1H459.6c.1 0 .2-.1.3-.1.1 0 .3-.1.4-.1h1.2c.1 0 .2 0 .3-.1h.7c.1 0 .3 0 .4-.1h.1c.1 0 .3-.1.5-.1h.2c.1 0 .2-.1.3-.1H465.5s.1 0 .1-.1h.2l.1-.1c-1.4-.6-1.4 0-1.4.6zM488 359.4v-.1-.1c0-.1.1-.1.1-.2h.1l.1-.1v-.1h3v25.4h-3.7v-18-4.5-1.1-.4c.4-.6.4-.7.4-.8zM513 359.4v-.1-.1-.1s.1 0 .1-.1h2.9v25.4h-3.7v-18-4.5-1.1-.4c.7-.8.7-.9.7-1zM554 378.2c-.1 0-.1 0 0 0h-.2-.5c-.1 0-.3 0-.4-.1h-.2c-.1 0-.3 0-.4-.1h-.1-.1-.5-.1c-.2-.1-.5-.1-.7 0h-.1-.1-.1-.1l-.1.1h-.1v.1h-.1l-.1.1-.1.1c0 .1-.1.1-.1.2l-.1.1h-.1-.1-.1-.1-.1-.1c-.1 0-.3.1-.4.1h-.1c-.1 0-.2 0-.3.1H548h-.1-.1-.4-.1-.4-.1c-.1 0-.2 0-.3-.1H546.2c-.1 0-.3-.1-.4-.1h-.1-.1c-.1 0-.2-.1-.3-.1h-.1-.1-.1-.1-.1v-.1s0-.1-.1-.1l-.2-.2-.1-.1s-.1 0-.1-.1h-.1v-.1-.1-.1-.1-.1-.1-.1-.1-.1c0-.1-.1-.3-.1-.4v-.1-.1c0-.1 0-.2-.1-.3v-.1-.1-.1-.1-.3h13.2l.1-.1v-.1c0-.1 0-.2.1-.2v-.1-.1-.1-.2-.2-.1-.1-.1-.1-.2-.1c0-.1 0-.3-.1-.4v-.1c0-.2-.1-.4-.1-.6 0-.1 0-.2-.1-.3v-.1-.1-.1c-.1-.2-.1-.4-.2-.5v-.1-.1-.1-.1-.1-.1-.1-.1-.1l-.1-.1-.1-.1s-.1 0-.1-.1l-.1-.1-.1-.1s0-.1-.1-.1l-.1-.1-.1-.1h-.1-.1-.1-.1-.1-.1-.1-.1-.1c-.2-.1-.4-.1-.5-.1h-.1H554.3c-.1 0-.3 0-.5-.1h-.1-.1-.1-.1-.1-.1-.1-.1-.5-.1-.5-.3-.2H550.7h-.1-.1-.1-.1-.1-.1-.1-.1-.1c-.1 0-.3 0-.4.1h-.1c-.1 0-.2 0-.3.1h-.1-.1c-.2.1-.5.1-.7.2-.1 0-.1 0-.2.1h-.1-.1-.1-.1-.1-.1-.1-.1-.1v.1l-.1.1s0 .1-.1.1l-.1.1s0 .1-.1.1c0 0 0 .1-.1.1l-.1.1s-.1 0-.1.1l-.1.1h-.1V371.9c-.1.1-.1.3-.1.4 0 .1-.1.2-.1.4v.1c0 .1-.1.3-.1.4v.1c0 .2-.1.3-.1.5V377.2c0 .2.1.5.1.7 0 .1 0 .2.1.3v.5c0 .1.1.3.1.4V379.9h.1l.1.1.1.1.2.2.1.1.1.1.1.1h1.3c.3.1.5.1.8.2h.2c.1 0 .3 0 .4.1H554.2c.1 0 .3-.1.4-.1H556v-.1l.1-.1s0-.1.1-.1l.2-.2.2-.2.1-.1.1-.1h.1v-.1-.1-.1c0-.1 0-.1.1-.2v-.1-.1-.1c-2.9-.9-3-.9-3-.9zm-14.1-5.5c0-.1 0-.1 0 0 0-.1 0-.1 0 0v-.2-.1-.1-.1c0-.1 0-.2.1-.3v-.2c0-.1.1-.3.1-.4v-.1-.1-.1-.1-.1-.1h.1l.1-.1c.1 0 .1-.1.2-.1l.1-.1s0-.1.1-.1v-.1h.1c.2-.1.5-.2.7-.3h.1c.1 0 .3-.1.4-.1.1 0 .2 0 .2-.1H545.4v.1l.1.1.2.2.1.1.1.1h.1V371.2c0 .1 0 .2.1.3v1.3h-10.6c4.4 0 4.4-.1 4.4-.1zM574 359.4v-.1-.1c0-.1.1-.1.1-.2h.1l.1-.1v-.1h3v25.4h-3.7v-18-4.5-1.1-.4c.3-.7.4-.7.4-.8zM652.8 359.9c0-.1 0-.1 0 0 0-.1.1-.1 0 0v-.1c0-.1.1-.2.1-.3v-.1h.1l.1-.1v-.1h.2c.1 0 .2-.1.2-.1H670.7v3.1h-13.1-.1-.1-.1-.1s0 .1-.1.1c0 0-.1 0-.1.1V367.7c0 .1.1.2.1.2v.1l.1.1.1.1H670v3.1h-12.3-.1-.1c-.1 0-.2.1-.2.1h-.1-.1s0 .1-.1.1c0 0-.1 0-.1.1v6.1s.1 0 .1.1l.1.1h14v3h-18.9v-18.2-4.1-.7c.6 2.2.6 2.1.6 2zM707.1 357.9h-.8-.1-.1-.1-.1v.1l-.1.1h-.1v.1c0 .1-.1.2-.1.3 0 .1 0 .2-.1.3V367.8h-.1l-.1-.1-.1-.1-.1-.1v-.1l-.1-.1-.1-.1v-.1h-.1-.1-.1-.1c-.1 0-.2-.1-.3-.1h-.2-.1-.1c-.2 0-.4-.1-.5-.1h-.4-.1-.1-.1H702h-.1-.1-.1-.1-.4-.1-.2-.1-.1-.1c-.1 0-.3.1-.5.1-.2.1-.4.1-.5.2h-.1-.1-.1-.1-.1s-.1 0-.1.1h-.1v.1s0 .1-.1.1l-.1.1-.1.1h-.1l-.1.1-.1.1h-.1-.1v1.4c0 .1-.1.3-.1.4V370c0 .1 0 .2-.1.3v.1c0 .1 0 .2-.1.3v4.4c0 .1.1.3.1.5v.1c0 .2.1.3.1.5v.5c.1.2.2.5.3.7V377.7s.1 0 .1.1l.1.1.1.1.1.1.1.1s.1 0 .1.1v.1h1.2c.1 0 .2.1.3.1h.1c.1 0 .3 0 .4.1H703.6c.1 0 .2 0 .3-.1h.1c.2 0 .4-.1.6-.1.1 0 .3-.1.4-.1h.2v-.1l.1-.1c.1-.1.2-.2.3-.2l.1-.1.1-.1h.1v-.1-.1 2.8h3.7v-25.4c-1.4 3-1.9 3-2.5 3zm-2 17.2v.9c0 .1 0 .3-.1.4v.2c0 .1 0 .2-.1.3V377.2c-.1.2-.1.5-.2.7v.2c-.1.2-.2.5-.3.7v.1l-.1.1-.1.1-.2.2-.1.1h-.1c-.2.1-.5.2-.8.3h-.1c-.1 0-.2 0-.2.1H702.4h-.1-.1-.1-.8-.1-.1H700.8c-.2 0-.3-.1-.5-.1s-.3-.1-.5-.1h-.1-.1v-.1l-.1-.1-.1-.1s-.1 0-.1-.1l-.1-.1h-.1v-.1s0-.1-.1-.1v-.1-.1c-.1-.1-.1-.3-.1-.5v-.1c0-.1 0-.2-.1-.2v-.2c0-.1 0-.2-.1-.3v-.1-.1-.1-.1-.1-.3-.1-.1-.1-.1-.1-.1-.1-.2-.2-.2-.2-.3-.1-.1-.2-.1-.2-.1-.1-.1-.1c0-.1 0-.3.1-.4v-.1c0-.1 0-.3.1-.4v-.1c0-.1.1-.3.1-.4v-.1c.1-.3.1-.5.2-.8v-.1-.1-.1-.1-.1l.1-.1s.1 0 .1-.1l.1-.1v-.1l.1-.1v-.1h2.1c.1 0 .2 0 .3.1.2.1.4.1.6.2h.5l.1.1.1.1h.1l.1.1.1.1v.1s0 .1.1.1v.2c.1.2.1.3.2.5V372.2c0 .1 0 .2.1.3v.1c0 .1 0 .2.1.4v2.2c1.1-.2 1.1-.1 1-.1zM728 366.9s0-.1 0 0c0-.1 0-.1 0 0v-.1c0-.1.1-.2.1-.3v-.1h.1l.1-.1v-.1h2.6V378.5c0 .2.1.4.1.5.1.2.1.3.2.5v.1l.1.1.1.1.1.1.1.1H734.2c.1 0 .2 0 .3-.1h.6c.3-.1.6-.2.9-.4h.1v-.1l.1-.1s.1 0 .1-.1l.1-.1.1-.1v-.1-.1-.1-.1-.1-.1c0-.1.1-.3.1-.4 0-.1 0-.2.1-.2v-.1c0-.1 0-.2.1-.3v-.1-.1-.1-.1-.1-.1-7.1-1.4-.4-.2-.1-.1s.1 0 .1-.1h.1v-.1h2.6V385H736v-3 .1h-.1l-.1.1-.1.1-.1.1s-.1 0-.1.1c0 0 0 .1-.1.1l-.1.1s0 .1-.1.1v.1h-.1-.1-.1-.1-.1c-.2.1-.3.1-.5.2-.1 0-.2.1-.3.1-.2 0-.4.1-.6.1h-.4-.1-.1-1.1-.1-.1-.1-.1-.1-.1-.1c-.1 0-.2 0-.3-.1h-.1-.1-.1-.1-.1-.1-.1-.1-.1-.1v-.1c-.1-.1-.2-.1-.2-.2l-.2-.2-.1-.1h-.1v-.1-.1-.1-.1-.1c-.1-.2-.1-.4-.2-.7 0-.1 0-.2-.1-.3v-.1c0-.2-.1-.4-.1-.6v-.2-.1-.1-.1-.1-.1-.2-.3-.1-.3-1.2-6-1.9-.4-.2c-.6-2.1-.6-2.2-.6-2.2zM763.4 374.3v-.2-.1-.1-.1-.2-.1-.1-.1c0-.1 0-.3.1-.4v-.1-.1-.1-.1c0-.1 0-.3.1-.5v-.1c0-.1.1-.2.1-.4v-.1-.1-.1-.1-.1c.1-.2.1-.4.2-.5v-.1-.1c.2-.3.3-.7.5-1v-.1h.1c.1-.1.2-.2.3-.4l.3-.3v-.1H766.1c.1 0 .2 0 .2-.1.1 0 .2 0 .3-.1h.1c.1 0 .2 0 .4-.1h.1c.1 0 .2 0 .3-.1H770.4c.1 0 .2 0 .3.1h.1c.1 0 .2 0 .3.1H771.4c.1 0 .2 0 .2.1h.1c.2.1.4.1.6.2h.1s.1 0 .1.1h.4l.1.1s0 .1.1.1l.1.1.1.1.1.1.1.1.1.1.1.1h.1v.6s0 .1.1.1h-.2-.1c-.1 0-.2 0-.2.1h-.1c-.1 0-.3.1-.4.1h-.1-.1c-.1 0-.3.1-.4.1h-.1-.1c-.1 0-.2 0-.2.1h-.1c-.2.1-.5.1-.7 0h-.1-.1-.1v-.1l-.1-.1h-.1v-.1l-.1-.1-.1-.1h-.1l-.1-.1-.1-.1v-.1h-.1c-.3-.2-.6-.3-.9-.4h-.1-.1-.1-.1-.1-.1-.1-.4-.2-.1-.4-.1c-.2 0-.3.1-.5.1h-.1-.1-.1c-.3.1-.6.2-.9.4h-.1l-.1.1-.1.1-.2.2-.1.1h-.1V371.3c0 .1 0 .2-.1.3V375c0 .1 0 .3.1.4v.1c0 .2.1.4.1.6 0 .1.1.3.1.4v.4l.1.1.1.1.1.1.1.1.1.1h1.2c.1 0 .2 0 .3.1H768.8c.1 0 .2 0 .3-.1h.1c.1 0 .2-.1.4-.1h.7v-.1l.1-.1.1-.1s.1 0 .1-.1l.1-.1v-.1-.1-.1-.1-.1-.1-.1h.1l.1-.1v-.1H772.4c.2 0 .4 0 .6.1.1 0 .2 0 .4.1h1.4V377.8l-.1.1s-.1 0-.1.1c-.1 0-.1.1-.2.1l-.1.1-.1.1s0 .1-.1.1l-.1.1v.1h-.1-.1-.1-.1-.1-.1c-.1.1-.3.1-.4.1h-.1c-.1 0-.3.1-.4.1h-.1-.1-.1c-.1 0-.2 0-.3.1h-.4-.1-.1-.1-.5-1.5-.1-.1-.1-.1-.1-.4-.1c-.2 0-.4-.1-.6-.1-.1 0-.3-.1-.4-.1h-.1-.1-.1c-.2-.1-.4-.1-.6-.2h-.1-.1-.1v-.1l-.1-.1-.1-.1-.2-.2-.2-.2-.1-.1-.1-.1h-.1-.1v-.1-.1-.1-.1-.1-.1c-.1-.2-.1-.4-.2-.6v-.1c0-.1-.1-.3-.1-.4v-.2-.2-.1c0-.1 0-.2-.1-.3v-.1c0-.1 0-.3-.1-.4v-.2-.1-.1-.1-.1-.1-.1-.4-.2c-1.1 1.3-1.1 1.2-1.1 1.1zM815.9 383.7s0-.1 0 0c-.1-.1-.1-.1 0 0-.1-.1-.1-.1 0 0 0-.1-.1-.1-.1-.1v-.1c0-.1 0-.1-.1-.2v-.1-.1-.1-.1c-.1-.1-.1-.3-.1-.4v-.1-.2-.1c0-.1 0-.2-.1-.3v-.1-.3-.1-.1-.2-.1-.3-.5-2.6-4.1-.6-.2-.1-.1-.3-.2-.1-.1-.1-.2-.1-.1c0-.1 0-.2-.1-.3v-.1c0-.1-.1-.3-.1-.4v-.1-.1-.1-.1-.2-.1-.1-.1-.1h-.1l-.1-.1c-.1-.1-.1-.2-.2-.2l-.1-.1-.1-.1v-.1h-.1-.1-.1c-.2-.1-.4-.1-.6-.2-.1 0-.3-.1-.4-.1-.2 0-.5-.1-.7-.1h-.5-.1-.1-.1-.1-.1-.1H808.7h-.1-.1-.1-.7-.1-.1-.1c-.1 0-.2 0-.3.1h-.1-.1-.1c-.1 0-.3.1-.4.1h-.1c-.2.1-.4.1-.6.2-.1 0-.1 0-.2.1h-.1-.1l-.1.1-.1.1-.1.1-.3.3h-.1V369.8c-.1.2-.1.5 0 .7v.2s.1 0 .1.1c0 0 0 .1.1.1H805.1c.1 0 .3 0 .5.1h.4c.1 0 .2 0 .4.1h.5v-.1-.1-.1-.1-.1-.1-.1h.1s.1 0 .1-.1l.1-.1v-.1l.1-.1H812.1s.1 0 .1.1h.1v.1l.1.1.1.1h.1v2l-.1.1-.1.1h-.1-.1-.1-.1-.1-.1-.1-.1-.1-.1-.1c-.2.1-.4.1-.6.1h-.2c-.2.1-.3.1-.5.1h-.2c-.1 0-.3.1-.5.1h-.1-.1-.1H808.7h-.1c-.2 0-.4 0-.5.1h-.1-.1-.1-.1-.2-.1c-.1 0-.2 0-.3.1h-.1c-.1 0-.2 0-.3.1h-.1-.1-.1c-.1 0-.3 0-.4.1h-.1c-.1 0-.3 0-.4.1h-.1c-.1 0-.2 0-.3.1h-.1c-.1 0-.1 0-.2.1h-.1-.1-.1-.1-.1-.1-.1-.1-.1-.1-.1-.1-.1v.1l-.1.1-.1.1-.1.1-.1.1v.4c-.1.1-.1.3-.1.4v.1c0 .1 0 .2-.1.4v1.6c0 .1 0 .2.1.3v.1c0 .2.1.3.1.5v.4h.1l.1.1.1.1.2.2.1.1v.1H804.8c.1 0 .2 0 .3.1H808.7c.2 0 .4-.1.5-.1h.2c.1 0 .3-.1.5-.1h.7v-.1l.1-.1s0-.1.1-.1l.2-.2.3-.3h.1s0-.1.1-.1V378.8c0 .1.1.3.1.4v.7c2 3.8 3.1 3.8 4.3 3.8zm-4.3-8V377.1c0 .1-.1.3-.1.4v.7l-.1.1-.1.1-.1.1v.1s0 .1-.1.1l-.1.1v.1h-.1-.1-.1-.1-.1-.1-.1-.1-.1-.1-.1c-.2 0-.4.1-.6.1H809 808.7h-.1-.1-.1-.1-.1-.1-.1-1-.1-.1-.1-.1-.1-.1-.1-.1-.1-.1-.1-.1-.1-.1-.1l-.1-.1-.1-.1-.1-.1v-.1-.1-.1-.2-.1-.1-.1-.1-.2-.4-.1c0-.1 0-.2.1-.3v-.1-.1-.1-.1-.1-.1h.1l.1-.1.1-.1v-.1H806.7c.1 0 .2-.1.3-.1.1 0 .3-.1.4-.1h1.2c.1 0 .2 0 .3-.1h.7c.1 0 .3 0 .4-.1h.1c.1 0 .3-.1.5-.1h.2c.1 0 .2-.1.3-.1H812.6s.1 0 .1-.1h.2l.1-.1c-1.4-.5-1.4.1-1.4.6zM836.2 362.3v-.7-.4-.1c0-.1 0-.2.1-.2v-.1s.1 0 .1-.1c0 0 0-.1.1-.1h.1c.1 0 .2-.1.4-.1h.1c.1 0 .2-.1.3-.1H837.7c.2-.1.5-.1.7-.2h.2c.1 0 .2-.1.3-.1h.1v6.6h4v2.8h-4V381.3l.1.1s0 .1.1.1H841.6c.1 0 .3-.1.4-.1h.1v.5l.3.9v.1c0 .1 0 .1.1.2v.1h-.1-.1-.1-.1-.1-.1-.1-.1-.1c-.2 0-.3.1-.5.1h-.4-.1H839.2h-.1-.1-.1-.1-.1-.1-.1-.1-.1-.1c-.1 0-.2 0-.2-.1h-.1c-.2-.1-.3-.1-.5-.2h-.1v-.1l-.1-.1-.1-.1-.1-.1-.1-.1v-.1-.1-.1-.1-.1-.1-.1c0-.1 0-.2-.1-.3v-.1c0-.1 0-.2-.1-.3v-.1-.1-.1-.3-.3-.5-1.6-9h-2.9v-2.8h2.9c-.5-1.5-.5-2.8-.5-4z"/></svg>