<?xml version="1.0" standalone="no"?><!DOCTYPE svg PUBLIC "-//W3C//DTD SVG 1.1//EN" "http://www.w3.org/Graphics/SVG/1.1/DTD/svg11.dtd"><svg t="1542263343290" class="icon" style="" viewBox="0 0 1024 1024" version="1.1" xmlns="http://www.w3.org/2000/svg" p-id="25121" xmlns:xlink="http://www.w3.org/1999/xlink" width="200" height="200"><defs><style type="text/css"></style></defs><path d="M106.4 426.3c24.9-0.1 49.9-0.1 74.8 0-1.1 5.1-2.1 10.1-3 15.2-22 0.6-44.1-0.9-66.1 0.9-1.6 8.7-4.2 17.3-5.8 26-12.6 0-25.1 0-37.7-0.1-0.4 1.7-1.3 5-1.8 6.6 15.9 0.5 31.8 0.3 47.7 0.2 1.7-8.3 3.6-16.5 5.8-24.6 18.6 0.3 37.1 0.1 55.7 0-1.1 5.3-2.2 10.6-3 15.9-15.2 0.4-30.4 0.1-45.6 0-2.9 9.3-4.9 18.8-7.1 28.2-18.9-0.1-37.9 0.1-56.8-0.1-0.5 2-1 3.9-1.5 5.9 12.6 0.8 25.3 0.4 38 0.6-2.9 14.4-5.9 28.9-8.7 43.3-13.3 0.3-26.6 0.2-39.9 0.3-0.4 2.4-0.9 4.8-1.3 7.2 15.9 0 31.7-0.2 47.5-0.2 3.8-16.8 7.9-33.6 11.4-50.5 18.8-0.3 37.6 0 56.4-0.1-1 5.5-2.2 11-3.7 16.4-14.8-0.3-29.6-0.1-44.4-0.3-3.7 16.8-8 33.5-11.6 50.4-19.4 0-38.8-0.1-58.2-0.1-0.6 2.8-1.2 5.6-1.8 8.3 21.9 0.8 43.7 0.1 65.6 0.4 4.5-17 8.9-34.1 13.2-51.1 11.9 0.1 23.7 0.1 35.6 0.1-1.1 5.8-2.3 11.5-3.8 17.1-8.9-0.1-17.8-0.1-26.7 0-4 16.8-8.1 33.6-12.5 50.3-28.9-0.2-57.8 0-86.8-0.1 3.5-16.1 7.7-32.1 11-48.3-13.3 0.1-26.6 0-39.8 0 3.5-14.3 6.7-28.7 9.9-43.1 12.9 0 25.8 0.1 38.8 0.1 3.2-16.3 6-32.7 9.6-49 13.3-0.3 26.7 0.3 40-0.3 2.7-8.3 4.1-17 6.6-25.5M15.5 525c10.1 0.3 20.3 0.1 30.4 0.1 0.2-2.3 0.5-4.6 0.7-6.9-9.7 0.1-19.5 0.1-29.2-0.1-0.7 2.3-1.3 4.6-1.9 6.9m43-6.7c-0.3 1.7-0.8 5.2-1.1 6.9h28.8c0.2-1.7 0.5-5.2 0.7-7-9.5 0.1-18.9 0.1-28.4 0.1z" fill="#04632F" p-id="25122"></path><path d="M783.1 448.1c2.9 1.1 5.8 2.3 8.6 3.6-1.7 3-3.5 5.9-5.3 8.8 3.6-0.2 7.3-0.4 11-0.6 0 2.1-0.1 4.2-0.1 6.3-4.5 1.9-9.4 2.6-14.2 3.3-2.3 2.9-5.4 4.8-9 5.7 0.2-1.6 0.6-4.9 0.8-6.6-4.3-0.9-8.8-1.4-13.1-0.3-0.3 2.1-0.5 4.2-0.7 6.3-1.4 0.3-2.7 0.7-4.1 1-0.7-1.2-2-3.7-2.7-4.9-2.4 1.4-4.8 2.8-7.1 4.2-0.7 0-2.1 0.1-2.8 0.2-1.6-2.4-3.2-4.8-4.7-7.2 4.3-1.6 8.8-2.2 13.3-2.8-1-3.7-2.1-7.3-2.5-11.1 3.3 0.5 6.6 1 9.9 1.6 0.1 2.8 0.1 5.7 0.1 8.5 6.1-0.7 12.3-1.4 18.4-2.1 1.2-4.7 2.5-9.4 4.2-13.9m-557.3 1.6c4.6 0.3 9.1 1.1 13.6 2.3-2.8 4.7-3.2 10.1-3.1 15.5 12.1-2.5 26.1-0.6 34.5 9.3-6.4 5.3-13.7 11.8-14 20.7-7-0.1-14 0.2-20.9 1-1.6 14.4-2.6 29-0.9 43.4-2.9 0.5-5.9 0.1-8.8-0.4 3-13.8 1.5-27.9 0.9-41.9-5 0.9-9.9 2-14.7 3.4-5-8.1-12.2-15.5-13.4-25.3-0.5-2.8 2.6-2.6 4.5-2.9 7.8-0.4 15.2-3.2 22.7-5.4-0.3-6.5-0.6-13.1-0.4-19.7m10.6 24.2c-0.1 5.3-0.4 10.5-0.6 15.8 4.9-0.6 10.2 0 14.6-2.4 2-3.7 4.1-8.5 1.9-12.5-4.8-2.7-10.7-1-15.9-0.9m-25.2 7.4c-0.3 4.6 0.8 9 2.4 13.3 4.5-0.9 9-2.1 13.3-3.5-0.4-4.9-0.7-9.9-1-14.9-4.9 1.5-9.8 3.2-14.7 5.1m354.9-28.4c2.3 0.7 4.6 1.5 6.9 2.4-2.9 9.2-6.7 18.2-8.6 27.7 6.7-0.8 12.6-4.2 18.7-7 1.1 2.5 2.2 4.9 3.2 7.4-3 1.6-6.6 2.7-9.2 5-2.3 6.5-3.5 13.4-5.8 19.9 5.3 7.7 13.8 12.3 22.2 15.8 4.4 1.9 9.4 3.2 12.4 7.3-0.4 2.6-3.4 2.1-5.3 2.5-8.4 0.9-16.6-1.9-24.2-5.3-1-2.9-1.2-6-2.4-8.8-1.9-2.3-4.8-3.5-7.2-5.1-4.4 4.6-7.7 11.2-14.2 13-4.8 0.4-9.5-1.4-14.1-2.5 8.4-4 18.6-5.7 24.2-14-3-2.4-6-4.6-9.2-6.7 0.1-1.3 0.4-3.8 0.5-5l-5.6 1.6c8.7-14.9 13.7-31.5 17.7-48.2m-7.2 41.9c2.5 3.3 5.2 6.5 8 9.5 1.7-4.6 1.6-9.4 0.6-14.1-3.8-0.4-7.2 0.6-8.6 4.6m113.6-41.4c2.7 0.4 5.3 0.8 8 1.3-2.1 5.8-3.1 11.9-3.1 18.1 3-0.4 6.1-0.9 9.1-1.3 0.1 1.8 0.4 5.4 0.6 7.2 1.4-2.3 2.9-4.6 4.5-6.8 1.8 0.9 3.4 2 5.1 3.1-3.4 3.9-6.6 7.9-9.4 12.2 4-0.1 8.1-0.4 12.1-0.9 1.5 3 2.5 6.2 3.2 9.5-6.6-1.8-13.1-4.1-20.1-2.9-2.3 2.5-4.6 4.9-6.9 7.3 5.4-1.2 11.2-2.9 16.6-0.3-1.9 12.3 0.2 24.9-2.5 37.1-4.7-2.5-9-5.6-12.8-9.2-2.7 0.8-5.3 1.6-8 2.4-2.3-7.1-1.5-14.6-2.1-21.8-2.2 3.2-3.6 6.9-5.7 10.1-4.3 4.2-10.1 6.6-15.9 7.9 3.8-7.4 11.2-11.8 16.8-17.8 4.2-4.4 8.1-9.2 11.7-14.1-5.7 0.3-11.2 2-16.4 4.4-0.8-1-2.4-3-3.1-4-2.6 4.2-4.7 8.7-5.8 13.6 1-0.1 3-0.4 4-0.5 1.7-2.1 3.5-4.1 5.4-6.1-0.8 7.2-5.3 13-11.2 16.8-3.6-5.8-1.6-12.7-2.3-19.1-1.4 0.2-4.1 0.6-5.5 0.8-2.6 9.4-1.3 19.1-2.8 28.6l-1.3 1.1c-1.2 0-3.5 0.1-4.7 0.1 1.6-9.8 1.9-19.8-0.6-29.4-4.2 2.8-8.6 5.3-13.4 6.9 3.3-9 10.4-16 13.5-25 2.3-6.7 5-13.4 8.3-19.7 2.4 1.6 4.7 3.3 7 5.1-4.2 6.2-8 12.7-11.3 19.4-1.1 2.2-0.1 4.6 0 6.9 6.7-0.8 12.6-3.9 18.8-6.2 1.6 1.4 3.1 3 4.5 4.6 5.5-0.9 13.3-0.5 15.5-6.9-2.6-0.5-5.1-1.1-7.7-1.7-1-2.2-1.6-4.6-2.3-6.9 3-0.6 5.9-1.2 8.9-1.7 0.2-7.5 0.7-14.8 1.3-22.2m5.8 29.3c0 1.8 0.1 3.6 0.1 5.3 2.7-2.7 5.4-5.5 7.8-8.5-2.7 1-5.3 2.1-7.9 3.2m-5.7 25.7c2.4 0.9 4.8 1.7 7.2 2.6-0.6 3.9-2.8 6.7-6.7 7.7-0.2 0.6-0.5 1.9-0.7 2.6 3.4 0.2 7.5-0.3 8 4.2l2.7-0.4c-0.1-6.8-0.7-13.5-2.1-20.2-3 0.4-5.8 1.7-8.4 3.5m183.3-51.3c0.7-1.7 1.6-3.2 2.7-4.6 2.5 2.1 4.5 4.6 6.5 7.2-2.8 3.1-5.6 6.2-8.1 9.5 3.2 1.4 10.8-2.2 10.5 3.4-0.1 3.4-3.7 5-5.9 7-2.9-1.7-5.3-5.9-9-4.9-4.1 3.5-7 8.3-7.9 13.6 5.1-1 9.7-3.9 14.9-4.5 4.2 4.5-2.4 9.8-3.8 14.2 1.8 0 5.3 0.1 7.1 0.1-1.4 5.6-6.3 8.9-10.5 12.4-2 1.5-1.9 7.2 1.5 7.1 4.8-3 8.1-7.7 12.1-11.6-2.7 10-8.6 20.1-18.7 23.8-1.3-5.9-1.4-12-1.3-18l-8.7 1.2c-0.5-2.6-0.9-5.3-1.3-7.9 3.8-0.3 7.8-0.5 11.1-2.7 0.7-3.9-2.5-7.1-3.8-10.6-4.1 3.7-9 6.9-14.8 7.1 1.4-2.7 3-5.4 4.9-7.8 8.6-10.4 17.3-21.3 22.5-34M424.6 476c0.5-7.5 0.4-14.9 0.7-22.4 3.3 0.7 6.7 1.4 10 2.2-0.9 5.8-1.3 11.7-1.4 17.6 6.1 0.1 12.2 0.9 17.8 3.4-2.7 11.4-3.4 23.1-7.3 34.2-3.6-2-7.2-4-11-5.6-5.2-0.2-10 2.6-14.9 4.1-5.1-8.4-9.4-18.1-9.7-28 4.8-2.7 10.5-3.8 15.8-5.5m9.2 6.9c1.4 1.7 5.5 4.1 3 6.5-1.5 2-3.1 3.9-4.5 6 2 1.8 4 3.6 6.1 5.4 0.7-5.5 1.8-10.9 1.7-16.4 0.2-2.6-1-4.8-3.5-5.8-2 0.7-2.1 2.8-2.8 4.3m-15.2 1.4l-0.4 4c2.5-0.4 5-0.9 7.6-1.5-0.1-1.4-0.3-4.1-0.4-5.5-2.3 1-4.6 2.1-6.8 3m6.2 10.2c-1.6 0.8-3.3 1.5-4.9 2.3 0.1 1.7 0.3 3.5 0.4 5.3 2.7-1.1 5.3-2.4 6.8-5-0.5-0.7-1.7-2-2.3-2.6m-115.2-28.1c16.4-7 34.5-11.3 52.3-8.2 3.2 0.6 5.8 2.5 8.4 4.3-3.3 7-2.4 14.7-1.7 22.2-0.3 18.3-1.6 36.8 0.7 55-8.8-0.7-15.5-7.3-21.9-12.8 4.3 0.2 8.6 0.3 12.9-0.1-0.4-13.4-1.3-26.9-1.5-40.3-0.3-8.3-0.1-17.2-5.2-24.2-10.8-1.4-22 0.9-31.5 6.1-6.6 3.6-5.7 12.2-7.3 18.5-0.9 9.7-5 19.6-1.9 29.2 2.6 2.8 6.7 0.6 9.9 0.3 9.9-2.7 20.3-4.1 30.5-2.4 0.1 2.5 0.2 5 0.3 7.6-15.3-2-31.4-0.2-45.5 6.3-1.2-5.9-1.6-12-1.2-18 0.9-14.7-0.7-29.4 2.7-43.5m646.8 5.7c2.4-4.4 5.1-8.7 8.8-12.3 2.4 2.3 4.8 4.6 7.1 7.1-5.8 6.8-13 12.3-20.1 17.6-0.7-4.6 2.1-8.5 4.2-12.4m-483.9-10.3c3.9-1.7 7.9 0.7 11.5 2-2.3 5.8-4.5 11.6-6.9 17.4 3.2 6.2 7.4 12.3 7.9 19.5-0.1 4.6-1.3 9.1-2.7 13.5-6.2-1.5-12.2-4-18.3-5.7-1.7 13.1-2 26.4 0.1 39.4-1.8-0.1-5.3-0.2-7.1-0.2 0.4-23.4-0.7-46.8-1.3-70.1-0.2-3.2-1.3-6.3-2.3-9.3 6.5-2.1 12.9-4.1 19.1-6.5m-8.2 11c-1 7.5-0.7 15.1-0.5 22.7-0.8 6.2 7.3 5.2 11.2 6.1 1.5-7.2-1.9-13.8-4-20.5 0.5-4.6 1.6-9.2 1.6-13.8-3.1 0.9-7.7 1.4-8.3 5.5m405.6-2.8c9.2-4.9 20.5-12.3 30.8-5.5-2.6 7.9-3.2 16.6-7.4 23.9-3.5 4.9-9.7 6.7-13.9 10.9 9.3-2 18-7.8 23.2-15.8 0.9 2.1 2 4.2 3 6.3-5.1 6.5-11.2 12.3-18.6 16.1 6.4 4.4 13.1 8.8 20.5 11.4 5.7 2 11.7 3.6 16.7 7.2 0.6 2.8-2.4 3.7-4.5 4.3-5.9 0.2-11.9-0.2-17.5-1.9-2.4-5.8-5.3-11.4-11.6-13.8-3.6 9.5-10.5 17.2-18.3 23.5-3.9-6.5-3.6-14.3-4.1-21.6-1.2-15 4-29.9 1.7-45m6.1 7c3.5-0.3 7-0.7 10.5-0.9-1 7.4-8.2 10.4-11.3 16.5 4.4-2.3 10.4-4.2 11.5-9.7 1.2-5.2 3.3-11.4-0.8-15.8-3.7 2.8-7.1 6.1-9.9 9.9m-2.4 29.3c-1.2 5.4-1.4 11-1.2 16.6 6.3-0.7 11.6-4.5 14.9-9.8-3.6-3.8-8.5-6.2-13.7-6.8m106.5-37.9c8.6-1.4 16.7-5 25.3-6.7 1.2 2.4 2.2 5 2.9 7.6-7.7 5.1-16.5 8.2-25.8 7.8-0.8-2.8-1.6-5.7-2.4-8.7m-656.8 6c8.7-3.5 17.8-6.1 27.1-6.3-0.2 2.1-0.2 4.2-0.7 6.3-3.2 3.2-8.7 3.5-10.8 8 3.8-0.1 7.6-0.5 11.4-0.7 0.2 1.2 0.5 3.6 0.7 4.8-0.8 1-2.5 2.9-3.3 3.9 1.9 5.7 9.3 8.5 8.6 15-13.7 0.1-27.2 1.5-40.7 4-1.1-7.7 8.3-5.6 13-8 0.6-2.5 1.2-5 1.7-7.5-3.4 0.4-6.8 0.8-10.2 1.3-0.2-2.4-0.3-4.7-0.4-7.1 3.9-0.9 7.8-1.7 11.6-2.7-0.5-4.8-4.8-4.8-8.5-5.1 0.2-2.1 0.3-4 0.5-5.9m16 25.3l6.3-1.2c-1.2-2.2-2.2-4.4-3.6-6.4-4.6-0.9-2.1 4.9-2.7 7.6m427.2-30.8c3.5 1.1 5.1 5.3 7.7 7.8 10.5-0.6 21.1-0.9 31.6-1.4 1.8 3.5 2.9 7.3 2.8 11.3-8.2-3.5-17.2-3.4-25.9-3.2 0.5 1.4 1.1 2.8 1.7 4.3-6.6 4.2-12.5 9.7-17 16.2 5.5-1.3 9-6 13.3-9.1 6 1.8 10.2 7.3 10.8 13.4-3.3 4.7-8.9-1.4-12.9-2.3 2.2-2.1 5-3.2 7.7-4.5-1.9-0.9-3.6-5.1-5.9-2.6-3.7 1.5-3.3 6.1-4.5 9.2-8.4 0.4-16.7 2.3-24.6 5.2-0.8-2.1-2.4-4-2.4-6.3 5-3 10.3-5.7 14.4-10-5.1 0.8-9.9 2.6-14.6 4.5-1.1-2.2-2.1-4.5-3.2-6.7 2.4-0.6 4.9-1.3 7.3-1.9 1.5-2 3.1-4 4.7-6.1-9.9 1.6-19.9 2.5-29.5 5.7-0.4-1.4-1.2-4.2-1.5-5.6 12.6-2.3 24.9-6 37.5-8.5-0.2-3.5-0.5-7.1 2.5-9.4m-3.1 22.4c6 0.4 10.8-2.8 14.2-7.4-6-0.7-12.2 1.2-14.2 7.4m-115.8-19.8c0.7 0 2.1-0.1 2.8-0.2 2.4 3.5 5.1 6.8 7.6 10.2-0.6 0.9-1.8 2.6-2.5 3.5-3.2-0.7-7.1-0.8-9-3.9-0.9-3.3 0.4-6.5 1.1-9.6M524 477.3c8.7-0.9 17-5.2 25.8-4.6 4.1 5-3.4 8-6.7 10.4-0.5 2.5-0.9 5.1-1.3 7.7 3.1-0.2 6.2-0.4 9.4-0.4-0.7 5.8-6.1 8.3-10.6 10.9-0.4 2.2-0.7 4.4-1 6.6 3.6-0.7 7.2-1.3 10.9-1.8-2.5 4.6-6 8.6-10.9 10.8-6.6 3.1-12.4 7.5-18.9 10.5-1.9-1.5-3.6-3.4-5.3-5.2 2.4-1.6 4.8-3.1 7.3-4.7-0.4-8-1.5-16.1 0.3-24 2.5 0.8 5 1.7 7.4 2.6-1.3 6.1-1.8 12.4-1.4 18.7 1.1-0.9 3.1-2.6 4.1-3.4 2.3-8.3 2.5-17.2 1.7-25.7-2.5 0.2-5 0.5-7.5 0.7-1.3-3-3-5.9-3.3-9.1m446.7 10.4c15.2-1.9 29.5-8.9 45-8 5.2 0.3 5.2 7.3 6.3 11.1-5.1-0.3-10.3-0.8-15.4-0.2-2.5 14.5-1.4 29.4 0.1 43.9l-0.6 1.3c-11.1-2.1-22.3-5.9-30-14.7 7.3 1.6 14.4 4.5 22 3.7 0.3-11.2 0.1-22.7-2.8-33.7-7.3-0.2-14.3 2-21.1 4.2-1.1-2.5-2.4-5-3.5-7.6m-17.1 8.2c3.9-5.3 6.8-11.4 11.6-16l4.8 4.5c-1.7 2.8-4.4 5.4-4.5 8.9-1.1 11.1-1.1 22.2-1.1 33.3-2.3 0.2-4.5 0.5-6.8 0.6 0.1-9.8 2.6-19.7 0-29.4-4 4.4-5.2 11-10.5 14.3-2.6 2-6 2-9.1 2.4 4.7-6.5 11-11.9 15.6-18.6m-208.2 20.7c11.6-2.2 23.2-5.1 35-5.9 5.6-0.4 10.6 2.7 15.6 4.7-3.9 8.4-4.8 17.9-9.4 26.1-3.2-1.6-6.4-3.3-9.7-4.5-6.5-0.4-12.9 1-19 3-5.9-6.8-12.1-14.1-12.5-23.4m28.3-1.2l-0.4 4c2.5 0 5 0.1 7.5 0.1-0.2 1.3-0.6 3.8-0.7 5.1-3.3 0.8-7.4 0.5-8.5 4.4 3.4 1.1 6.4 2.9 9.4 4.8 2.5-5.8 4.3-12.1 2.5-18.4h-9.8m-19.6 5.9c0.5 3.5 0.5 7.3 2.7 10.3 2.5 0.9 5.2-0.2 7.8-0.4 0.2-0.9 0.7-2.7 0.9-3.6-2.2 0.3-4.5 0.7-6.7 1-0.6-1.4-1.9-4.2-2.5-5.6l9.6-2.7c-3.1-5.1-8-0.2-11.8 1m-510.6 45c8.9-0.9 17.1 8.7 13.8 17.3-2.9 10.9-20.1 12.5-24.6 2-4.5-8.1 1.9-18.5 10.8-19.3m-2.3 2.6c-8.4 4.7-6.6 23.3 4.8 22 6.9-1.2 7.9-9.5 6.7-15.2-0.2-5.3-6.8-9.8-11.5-6.8m326.2-1.1c5-2.8 10.6-0.4 15.9-0.1 0.2 2.5 0.5 5.1 0.8 7.7-2.9-4.4-7.9-9.6-13.6-6.6-9.1 4.1-7.9 19.7 1.8 22.2 2.5 0 5-0.2 7.4-0.6-0.5-4.3 1.8-10.6-4.1-11.8 3.6-0.1 7.2-0.3 10.8-0.6-3.2 3.7-2.6 8.5-2.5 13.1-6.9 2.3-15.7 3.4-21.1-2.5-6.2-6.3-3.1-17.5 4.6-20.8m30.7 0.4c1.8-0.7 3.7-1.3 5.5-2 3.1 0.6 6.3 1.1 9.4 1.5-0.2 2.8-0.3 5.7-0.4 8.5-1.4-4.5-4.4-7.9-9.2-8.8-1.5 1.6-3 3.3-4.5 5 4.6 3.8 10 6.4 15 9.6-0.1 2.6 1.2 5.8-1.1 7.8-4.2 5-11 2-16.6 2.3 0.1-2.8 0.1-5.5 0.2-8.2 1.8 6.4 12.4 10.8 14.5 2.4-4-4.5-10.8-5.7-14.2-10.8-1.2-2.5 0.8-5 1.4-7.3m104.7-1.1c2.2-3.1 6.4 0.6 9.2 0.7 5.8 5.3 10.3 11.8 15.7 17.5 0.1-5.3 0.1-10.5 0.1-15.8l-4.8-2.4c3.7 0 7.4 0 11.1-0.1-1 0.7-2.9 2.2-3.8 3-0.4 7.7 0 15.4-0.3 23.1-6.4-6.4-12-13.4-18-20.2-0.1 5.7-0.1 11.4-0.1 17.2 1.6 0.7 3.2 1.5 4.8 2.2-3.9 0-7.7 0-11.6-0.1 1.5-0.7 3-1.4 4.5-2-0.1-7.4 0.9-14.9-1.1-22-1.9 0.8-5.9 2.3-5.7-1.1m100-0.5c9.8-2.7 19.5 8.7 15 18-3.3 10.4-19.9 11.1-24.2 1.1-4-7.6 0.9-17.4 9.2-19.1m-4.3 5.7c-2.8 6.6-1.8 15.3 4.9 19.1 3.7-0.5 8.1-1.3 9.5-5.4 1.6-5.8 1.9-14.2-4.2-17.4-3.6-2.1-8.3 0.3-10.2 3.7m-598.1-5c5.1-0.1 10.2-0.7 15.3 0 4.6 0.4 8.2 6.1 5.6 10.2-2.5 4.3-8.1 3.5-12.2 4.1 0.2 2.8 0.3 5.7 0.5 8.5 0.9 0.6 2.8 1.6 3.7 2.2-4.2 0.1-8.4 0.1-12.7-0.1 1.5-0.7 3.1-1.4 4.6-2.1 0.1-6.9 0.1-13.8 0-20.7-1.2-0.5-3.6-1.6-4.8-2.1m9 1.1c-0.1 3.7-0.1 7.5-0.1 11.3 1.4 0.1 2.7 0.2 4.1 0.3 1.6-1.8 4.5-3.4 3.7-6.3 0.4-4.4-4.8-4.3-7.7-5.3m61.4-0.2c4.1-3.5 9.5-0.7 14.2-0.5-0.2 2.8-0.3 5.6-0.4 8.4-1.6-4.1-4.2-7.5-8.6-8.8-1.7 1.6-3.5 3.2-5.2 4.8 4.3 4.3 10.3 6 14.7 10.2 3.4 5-2.1 11-7.4 10.4-3.2-0.2-6.5-0.6-9.7-0.8 0.1-2.8 0.2-5.5 0.3-8.2 1.9 2.3 2.7 6.4 6 6.8 3.3 1.5 6.1-0.8 8.8-2.3-3.2-6.2-10.4-8-15.4-12.4 0.6-2.6 0.2-5.9 2.7-7.6m26.1-0.9c7.2-0.5 14.5-0.2 21.8-0.3 0.3 2.7 0.6 5.5 0.9 8.2-1-5-4.9-6.6-9.7-6.7-0.2 7.2-0.2 14.4-0.1 21.5 1.5 0.7 3 1.4 4.5 2.2-4.5 0.2-9 0.1-13.5-0.1 1.5-0.7 3.1-1.3 4.7-1.9 0.2-7.2 0.2-14.4 0-21.7-4 0.1-7.4 1.6-9.4 5.2 0.3-2.2 0.5-4.3 0.8-6.4m62-0.4c5 0.1 9.9 0.2 14.8 0.4-1.9 0.7-3.8 1.3-5.7 2 0.1 7 0 14 0.1 21 6.3 0.6 12.7-0.4 16.3-6.2-1 2.7-2.3 5.3-3.4 7.9-7 0.4-14 0.2-21 0.1 0.9-0.6 2.6-1.8 3.5-2.4 0.9-6.8 0.2-13.6 0.4-20.4-1.6-0.8-3.3-1.6-5-2.4m51.4 1.8c3-3.1 7.7-1.4 11.4-1.3 0.8-0.1 2.4-0.2 3.1-0.2 0 2.9 0 5.8 0.1 8.6-2-2.5-3-7-6.7-7.1-3-1.1-8.2 1.4-5.6 5.1 3.9 3 8.7 4.6 12.5 7.8 2.7 2.5 1.1 6.1 0.2 9-4.4 2.2-9.2 2.7-13.8 1.1-0.7 0.2-2.2 0.7-2.9 0.9 0.1-3.3 0.1-6.5 0.2-9.8 1.2 6.3 10 12 14.2 4.8-1.2-5.1-7.5-6.1-11.1-9-3.9-1.6-4.7-7.2-1.6-9.9m39.4-2.9c5 8.7 7.2 19 14 26.6-3.9-0.2-7.7-0.3-11.6-0.6 1.1-0.4 3.2-1.4 4.3-1.8-0.9-2.1-1.9-4.2-2.8-6.3-3.3 0.1-6.6 0.1-9.8 0.1-1 2-2 4-3 6.1 1 0.5 3.1 1.5 4.1 2-3.3 0.2-6.5 0.3-9.8 0.5 7.5-7.1 9.6-17.8 14.6-26.6m-0.9 7.3c-1.5 3-2.9 5.9-4.3 8.9h8.5c-1.4-3-2.8-5.9-4.2-8.9m16.4-5.8c4.4-0.2 8.8-0.2 13.2-0.3-1.1 0.7-3.2 2-4.2 2.7 2.7 5.6 5.3 11.1 7.9 16.7 2.4-5.6 4.8-11.1 7.2-16.7-1-0.6-2.9-1.8-3.8-2.4l9.6-0.6c-7.2 7.4-9.3 18.1-13.9 27.1-3.9-8.1-7.8-16.2-11.5-24.4-1.5-0.8-3-1.4-4.5-2.1m36.7-0.1c4.7-0.1 9.3-0.1 14 0-1.7 0.7-3.4 1.4-5.1 2.2 0.1 6.8-0.4 13.6 0.2 20.4 0.8 0.4 2.5 1.3 3.3 1.7 0.1 0.2 0.1 0.6 0.2 0.8-3.9 0-7.9 0-11.8 0.1 1.3-1.3 3.8-1.8 3.9-4 0.3-6.4 0-12.7 0.1-19.1-1.2-0.5-3.6-1.6-4.8-2.1m19.1 0.5c2.8-0.1 6.2-2.1 8.5 0.2 5.4 5.5 10.3 11.5 15.5 17.2 0.1-6.2 0.1-12.5-0.8-18.6 2.8 0.4 5.7 0.9 8.5 1.2-1.4 0.3-4.1 1-5.4 1.3 0 8.1 0.1 16.2 0 24.3-6.4-6.4-11.9-13.8-18.3-20.2-0.1 5.6-0.1 11.2 0 16.8 1.4 0.8 2.9 1.5 4.3 2.4-3.9 0-7.8-0.1-11.7-0.4 1.2-0.4 3.7-1.3 5-1.7 0.1-6.9 0.2-13.9 0-20.8-1.4-0.3-4.2-1.2-5.6-1.7m116.1-0.4c7.3 0.6 16.3-2.5 22.5 2.6 3.4 2.9 1.4 6.9-1.4 9.3 4.1 2.2 6.1 8 2 11.1-6.9 3.6-15 1.4-22.5 1.9l4-2.4c0.7-6.8 0.2-13.7 0.3-20.5-1.6-0.7-3.3-1.4-4.9-2m9.3 1.2c-0.1 3.3-0.2 6.6-0.2 9.9 3.5-0.5 8.2 0.9 10.4-2.8 2.5-6.2-5.9-7.1-10.2-7.1m-0.1 11.3c-0.1 3.6-0.1 7.1 0 10.7 4.6 0.3 9.2-0.5 12.6-4-1.8-5.8-7.4-6.5-12.6-6.7m24.1 12.4c7.2-7.2 9.5-17.7 14.2-26.5 5.7 8.5 6.5 20.5 15.4 26.6-4.1-0.1-8.2-0.1-12.3-0.2 0.9-0.6 2.8-1.7 3.7-2.2-0.8-2-1.7-4.1-2.5-6.1h-10.1c-0.9 2-1.9 3.9-2.8 5.9 0.9 0.6 2.8 1.9 3.8 2.5-3.2 0.1-6.3 0-9.4 0m13.4-19c-1.5 3-3 5.9-4.4 8.9 2.8 0 5.7 0 8.6-0.1-1.4-2.9-2.8-5.9-4.2-8.8m55.1-5.8c4.5-0.2 9-0.4 13.4-0.7-5.2 2.1-4.3 7.6-4.3 12.3 3.6-3.1 7.1-6.3 10.5-9.6-0.9-0.6-2.6-1.7-3.4-2.2 3.8-0.1 7.7-0.1 11.6-0.3-5.5 2.8-10.2 7-14.4 11.5 5.5 5 10.7 10.8 17.8 13.6-4.7 0.3-9.4 0.3-14 0.4 0.7-0.7 2.2-2 3-2.7-3.6-3.3-7.2-6.6-11-9.8 0.2 4.6-0.8 10.3 4.2 12.6-4.2-0.2-8.4-0.3-12.6-0.4 1.1-0.5 3.2-1.5 4.2-2 0.8-6.9 0.2-13.9 0.4-20.8-2-0.7-3.7-1.3-5.4-1.9m86.5-0.2c7-0.3 14.1-0.2 21.1-0.2 0.1 2.1 0.3 4.1 0.4 6.2-2.7-4.7-7.8-4.8-12.7-4.5v9.7c3.3-0.2 6.5-1.1 9.2-3-0.1 2.8-0.1 5.6 0 8.4-1.9-3.5-5.5-4.2-9.2-4.1 0 3.3 0 6.7 0.1 10.1 0.9 0.6 2.8 1.8 3.8 2.4-4 0.1-8 0.1-12 0 0.9-0.5 2.8-1.5 3.8-2.1 0.2-7 0.1-14 0.1-20.9-1.1-0.5-3.4-1.5-4.6-2m49.4 3c5-5.7 13-2.6 19.4-2.5-0.1 2.7-0.1 5.4 0 8.1-2-4.2-5.4-8.4-10.7-7.5-8.4 0.7-9.5 11.6-7 17.9 3 5.1 9.7 5 14.8 3.5 0.1-2.8 0.6-5.6 1.7-8.1 1.2 1.6 2.7 3 4.2 4.3-4.8 3.7-10 8.5-16.6 6.7-10.2-1.3-13.4-16-5.8-22.4m26.1-3.3c4.7 0.1 9.3 0.2 14 0.4-1.5 0.7-3 1.4-4.6 2.1l-0.3 9c4.1 0.1 8.3 0.1 12.4 0.1-0.4-4.5 1.3-10.6-4.9-11.6 4.6 0.2 9.2 0.3 13.7 0.6-1.6 0.6-3.3 1.3-4.9 1.9 0.3 6.9 0.1 13.8 0.1 20.7 1.4 0.7 2.7 1.5 4.1 2.2H918c1-0.6 2.9-1.7 3.9-2.3 0.1-3.2 0.1-6.4 0.2-9.6h-12.3c0 3.2 0.1 6.4 0.2 9.7 1.5 0.7 3 1.5 4.5 2.2-4.4 0-8.8-0.1-13.2-0.1 1.1-0.6 3.2-1.7 4.2-2.3 0.7-7 0.2-14 0.1-21-0.9-0.6-3.4-1.5-4.7-2m35.3 0.4c4.5-0.1 9.1-0.2 13.7-0.5-1.1 0.6-3.1 1.9-4.2 2.5-0.7 6.8-0.7 13.7 0 20.4 1 0.6 2.9 1.8 3.9 2.4h-13.2l4.8-2.1c0.1-6.9 0.1-13.7 0.1-20.6l-5.1-2.1m17.8-0.1c3.1 0.4 7.3-1.5 9.7 1.3 5.1 5.4 9.6 11.3 14.8 16.7-1.2-5.9 3.1-15.1-4-18.2 3.7 0.1 7.4 0.2 11 0.2-1.7 0.8-3.3 1.6-5 2.4 0.2 7.8 0.1 15.6-0.1 23.4-6.4-6.2-12-13.3-18.1-19.8-0.1 5.6 0 11.3 0 16.9 1.3 0.7 2.7 1.5 4 2.3-3.5 0-7 0-10.5-0.2 1-0.5 3-1.4 4-1.9 0.2-6.8 0.1-13.6 0.1-20.4-1.9-1-3.9-1.8-5.9-2.7m36.6 25c7.4-6.9 8.2-18.1 14.6-25.6 4.8 8.4 6.6 18.8 13.9 25.6-3.8 0-7.6 0-11.3-0.1 0.9-0.6 2.7-1.8 3.5-2.4-1-2-2-4.1-2.9-6.1-3.3 0.2-6.7-0.2-9.9 0.7l-2.8 5.6c1 0.6 3.1 1.8 4.1 2.4-3 0-6.1 0-9.2-0.1m13-19.2c-1.4 3-2.7 6.1-4.1 9.1 2.1 0 6.4-0.1 8.5-0.2-1.5-3-2.9-6-4.4-8.9m-667.8-2.8l2.5-4.4c4.8 8.8 6.4 20 14.4 26.5-4.2-0.1-8.4-0.1-12.6-0.4 1.2-0.5 3.5-1.4 4.7-1.9-0.9-2.1-1.9-4.1-2.8-6.2h-10.2c-0.8 2.1-1.7 4.3-2.5 6.4 1.1 0.4 3.2 1.2 4.3 1.6-3.1 0.3-6.3 0.6-9.4 0.9 4.3-6 7.8-12.8 9.4-20l2.1 3.3c-0.8 1.5-2.4 4.6-3.2 6.1 2.8 0 5.6 0.1 8.3 0.1-1.2-3.1-2.4-6.3-3.1-9.5-0.6-0.9-1.3-1.7-1.9-2.5z" fill="#1B1917" p-id="25123"></path></svg>