<svg class="icon" viewBox="0 0 1024 1024" xmlns="http://www.w3.org/2000/svg" width="48" height="48"><defs><style/></defs><path d="M511.36 383.418c-70.7 0-128.013 57.314-128.013 128.012s57.315 128.013 128.013 128.013S639.373 582.13 639.373 511.43 582.06 383.418 511.36 383.418zm409.568 127.938c0-53.917 36.67-100.043 88.57-118.907-12.727-53.482-33.83-103.717-61.87-149.227-50.027 23.334-108.546 16.641-146.66-21.472-38.1-38.105-44.803-96.603-21.49-146.622-45.516-28.03-95.74-49.15-149.225-61.866-18.874 51.878-64.99 88.526-118.89 88.526S411.346 65.14 392.473 13.262C338.985 25.98 288.761 47.1 243.246 75.13c23.312 50.018 16.61 108.517-21.49 146.62-38.109 38.107-96.617 44.804-146.639 21.482-28.04 45.512-49.171 95.734-61.898 149.216 51.903 18.863 88.573 64.99 88.573 118.908 0 53.93-36.685 100.064-88.604 118.92 12.714 53.487 33.804 103.73 61.83 149.248 50.043-23.374 108.602-16.69 146.735 21.441 38.13 38.131 44.812 96.691 21.437 146.735 45.516 28.036 95.741 49.164 149.229 61.887 18.841-51.95 64.992-88.663 118.941-88.663 53.946 0 100.095 36.71 118.938 88.656a509.018 509.018 0 0 0 149.239-61.862c-23.387-50.048-16.705-108.617 21.428-146.753 38.128-38.126 96.676-44.814 146.715-21.45 28.027-45.52 49.145-95.75 61.858-149.237-51.924-18.854-88.611-64.99-88.611-118.922zM511.36 767.457c-141.398 0-256.026-114.625-256.026-256.025S369.962 255.406 511.36 255.406s256.026 114.625 256.026 256.026S652.758 767.457 511.36 767.457z"/></svg>