<?xml version="1.0" standalone="no"?><!DOCTYPE svg PUBLIC "-//W3C//DTD SVG 1.1//EN" "http://www.w3.org/Graphics/SVG/1.1/DTD/svg11.dtd"><svg t="1542263483200" class="icon" style="" viewBox="0 0 2560 1024" version="1.1" xmlns="http://www.w3.org/2000/svg" p-id="30318" xmlns:xlink="http://www.w3.org/1999/xlink" width="500" height="200"><defs><style type="text/css"></style></defs><path d="M993.28 573.952c0 18.944-15.36 34.304-34.304 34.304H213.504c-18.944 0-34.304-15.36-34.304-34.304v-233.984c0-18.944 15.36-34.304 34.304-34.304h745.472c18.944 0 34.304 15.36 34.304 34.304v233.984zM552.96 465.92h-16.384v6.144h-15.872v-14.336h27.648v-12.8h-27.648v-10.24h32.256v-14.336h-86.016v14.336h32.256v9.728h-27.648v13.312h27.648v14.336h-32.256v14.336H552.96v-20.48z m-156.16-58.368h-48.128v-14.336c0-1.536-1.024-2.56-2.56-2.56h-19.456c-1.536 0-2.56 1.024-2.56 2.56v14.336h-48.128c-8.704 0-15.872 7.168-15.872 15.872v52.224c0 8.704 7.168 15.872 15.872 15.872h48.128v22.528c0 1.536 1.024 2.56 2.56 2.56h19.456c1.536 0 2.56-1.024 2.56-2.56V491.52h48.128c8.704 0 15.872-7.168 15.872-15.872v-52.224c0-8.704-7.168-15.872-15.872-15.872z m-73.216 67.584h-41.472v-49.152h41.472v49.152z m66.56 0h-41.472v-49.152h41.472v49.152z m378.88-49.664h12.8c1.536 0 2.56-1.024 2.56-2.56V414.72h112.64v8.192c0 1.536 1.024 2.56 2.56 2.56h12.8c1.536 0 2.56-1.024 2.56-2.56v-9.216c0-7.68-6.144-14.336-14.336-14.336h-48.64v-6.656c0-1.536-1.024-2.56-2.56-2.56h-18.432c-1.536 0-2.56 1.024-2.56 2.56v6.656h-48.64c-7.68 0-14.336 6.144-14.336 14.336v9.216c1.024 1.536 2.048 2.56 3.584 2.56z m-49.664-1.536c-2.048 0-4.096 1.024-4.608 2.56l-18.432 35.84c-0.512 1.536 0 2.56 1.536 2.56h18.432c2.048 0 4.096-1.024 4.608-2.56l18.432-35.84c0.512-1.536 0-2.56-1.536-2.56h-18.432z m-150.016-29.184H450.56c-8.704 0-15.872 7.168-15.872 15.872v87.04c0 8.704 7.168 15.872 15.872 15.872h118.784c8.704 0 15.872-7.168 15.872-15.872v-87.04c0-8.704-7.168-15.872-15.872-15.872z m-5.632 102.4H455.68v-86.528h108.032v86.528z m350.208-59.392h-23.552v-10.24c0-1.536-1.024-2.56-2.56-2.56h-15.872c-1.536 0-3.072 1.024-3.072 2.56v10.24H814.08v-10.24c0-1.536-1.024-2.56-2.56-2.56h-15.872c-1.536 0-2.56 1.024-2.56 2.56v10.24H768c-1.536 0-2.56 1.024-2.56 2.56v11.776c0 1.536 1.024 2.56 2.56 2.56h23.552v7.168c0 8.704 4.096 16.896 14.336 22.016 4.096 2.048 9.216 4.096 14.336 6.656-9.216 3.584-17.92 5.632-26.624 5.632h-22.528c-1.536 0-3.072 1.024-3.072 2.56v11.776c0 1.536 1.024 2.56 3.072 2.56h22.016c8.704 0 19.456-2.048 28.672-5.12 3.584-1.536 10.752-4.608 18.432-8.192 8.192 3.584 14.848 6.656 18.944 8.192 9.216 3.584 19.968 5.12 28.672 5.12h22.016c1.536 0 2.56-1.024 2.56-2.56v-11.776c0-1.536-1.024-2.56-2.56-2.56h-22.528c-8.704 0-16.896-1.536-26.624-5.632 5.12-2.56 10.24-5.12 14.336-6.656 10.752-5.12 14.336-13.312 14.336-22.016v-6.656h23.552c1.536 0 2.56-1.024 2.56-2.56v-11.776c1.024-1.536 0-3.072-1.536-3.072z m-45.568 22.528c0 4.608-1.024 8.704-7.168 11.776-5.12 2.56-13.312 6.144-20.48 9.728-7.168-3.584-15.36-7.168-20.48-9.728-6.144-3.072-7.168-6.656-7.168-11.776v-5.12h54.784l0.512 5.12z m-230.912 4.608h18.432c1.536 0 2.56-1.024 1.536-2.56l-18.432-35.84c-0.512-1.536-2.56-2.56-4.608-2.56h-18.432c-1.536 0-2.56 1.024-1.536 2.56l18.432 35.84c0.512 1.024 2.048 2.56 4.608 2.56z m111.616 9.216h-59.904v-59.904h55.296c1.536 0 2.56-1.024 2.56-2.56v-11.776c0-1.536-1.024-2.56-2.56-2.56h-134.144c-1.536 0-2.56 1.024-2.56 2.56v11.776c0 1.536 1.024 2.56 2.56 2.56H665.6v59.904h-59.904c-1.536 0-2.56 1.024-2.56 2.56v12.288c0 1.536 1.024 2.56 2.56 2.56H665.6v23.04c0 1.536 1.024 2.56 2.56 2.56h18.432c1.536 0 2.56-1.024 2.56-2.56V491.52h59.904c1.536 0 2.56-1.024 2.56-2.56v-12.288c0-1.536-1.024-2.56-2.56-2.56z" fill="#EC681B" p-id="30319"></path><path d="M1019.392 334.336l-0.512-6.656-1.536-5.632-2.048-5.632-2.56-5.12-3.072-5.12-3.584-4.608-4.096-4.096-4.096-4.096-4.608-3.584-5.12-3.072-5.12-2.56-5.632-2.048-5.632-1.536-6.144-1.024-6.144-0.512H212.992l-6.144 0.512-6.144 1.024-5.632 1.536-5.632 2.048-5.12 2.56-5.12 3.072-4.608 3.584-4.096 4.096-4.096 4.096-3.584 4.608-3.072 5.12-2.56 5.12-2.048 5.632-1.536 5.632-1.024 6.144-0.512 6.144v343.552l0.512 6.144 1.024 6.656 1.536 5.632 2.048 5.632 2.56 5.12 3.072 5.12 3.584 4.608 4.096 4.096 4.096 4.096 4.608 3.584 5.12 3.072 5.12 2.56 5.632 2.048 5.632 1.536 6.144 1.024 6.144 0.512h745.984l6.144-0.512 6.144-1.024 5.632-1.536 5.632-2.048 5.12-2.56 5.12-3.072 4.608-3.584 4.096-4.096 4.096-4.096 3.584-4.608 3.072-5.12 2.56-5.12 2.048-5.632 1.536-5.632 1.024-6.144 0.512-6.144v-343.552l-0.512-6.144z m-8.192 349.184c0 28.672-23.04 51.712-51.712 51.712H214.016c-28.672 0-51.712-23.04-51.712-51.712v-343.04c0-28.672 23.04-51.712 51.712-51.712h745.472c28.16 0 51.2 23.04 51.712 51.712v343.04zM2228.736 335.36c-3.584 0-6.144-2.56-6.144-6.144v-24.576c0-3.584 2.56-6.144 6.144-6.144h162.816c3.584 0 6.144 3.072 6.144 6.144v24.576c0 3.584-3.072 6.144-6.144 6.144h-162.816z m-9.728 78.336c-3.584 0-6.144-2.56-6.144-6.144v-24.576c0-3.072 2.56-6.144 6.144-6.144H2401.28c3.584 0 6.144 3.072 6.144 6.144v24.576c0 3.584-2.56 6.144-6.144 6.144h-32.256v104.448c0 12.8-10.24 23.04-23.04 23.04H2257.92c-3.584 0-6.144-2.56-6.144-6.144v-21.504c0-3.584 2.56-6.144 6.144-6.144h67.072v-93.696h-105.984z m-115.712 31.744c-2.56 0-4.608-1.024-4.608-2.56 0-0.512 0-1.024 1.024-2.048l49.152-60.928c3.584-4.608 4.608-5.632 8.192-5.632h38.4c2.048 0 3.584 1.024 3.584 3.072 0 1.024-0.512 1.536-1.024 2.56l-39.936 50.176h18.432v104.448c0 3.072-3.072 6.144-6.144 6.144h-31.744c-3.584 0-6.656-2.56-6.656-6.144V445.44h-28.672z m0-77.824c-3.072 0-4.608-1.024-4.608-2.56l0.512-1.536 49.664-61.44c3.584-4.608 4.608-5.632 8.192-5.632h38.4c2.048 0 3.584 1.024 3.584 2.56s-0.512 2.56-1.024 3.072l-50.176 62.464c-1.536 2.048-3.072 2.56-6.656 2.56h-37.888v0.512zM2025.472 448.512c3.584-4.096 5.12-5.12 8.192-5.12h29.184c3.584 0 5.632 0.512 5.632 2.56 0 1.024-1.024 2.56-3.072 4.608l-37.888 44.032 2.56 4.608c4.608 7.68 5.12 8.192 6.656 10.24 2.56 2.56 3.584 2.56 11.264 2.56h15.872c3.072 0 6.144 3.072 6.144 6.144v16.896c0 3.072-3.072 6.144-6.144 6.144h-23.552c-20.48 0-31.232-5.12-39.424-18.432l-42.496-72.704c-1.024-1.536-1.536-2.56-1.536-3.584 0-1.536 1.024-2.56 3.584-2.56h31.232c4.608 0 5.632 1.024 8.704 6.144l10.24 16.896 14.848-18.432z m-88.064-68.096v21.504h89.088v-21.504h-89.088z m89.6-51.2h-89.088v21.504h89.088v-21.504zM1937.408 512h30.208c3.584 0 6.656 2.56 6.656 6.144v16.896c0 3.072-3.072 6.144-6.656 6.144h-44.544c-12.8 0-23.04-10.24-23.04-23.04v-196.608c0-12.288 10.24-23.04 23.04-23.04h118.784c12.8 0 23.04 10.24 23.04 23.04v86.528c0 12.8-10.24 23.04-23.04 23.04h-104.448V512z m-96.256-78.848h36.352c3.584 0 6.656 2.56 6.656 6.144v20.48c0 3.584-3.072 6.144-6.656 6.144h-36.352v46.08h28.672c3.072 0 6.144 2.56 6.144 6.144v16.896c0 3.072-3.072 6.144-6.144 6.144h-45.056c-12.288 0-23.04-10.24-23.04-23.04V465.92h-29.184c-3.584 0-6.144-2.56-6.144-6.144v-20.48c0-3.584 2.56-6.144 6.144-6.144h29.184v-26.624h-29.184c-3.584 0-6.144-2.56-6.144-6.144v-20.48c0-3.584 2.56-6.144 6.144-6.144h104.448c3.584 0 6.656 2.56 6.656 6.144v20.48c0 3.584-3.072 6.144-6.656 6.144h-36.352v26.624h0.512z m35.84-116.736c3.584 0 6.656 2.56 6.656 6.144v20.48c0 3.072-3.072 6.144-6.656 6.144h-67.584l-4.608 8.192c-2.56 5.12-3.584 5.632-8.704 5.632h-31.232c-4.096 0-5.12-0.512-5.12-2.56 0-0.512 0.512-1.536 1.536-3.584l30.72-55.808c2.56-4.608 3.584-5.632 7.168-5.632h33.792c3.584 0 4.608 0.512 4.608 2.048 0 1.024-0.512 2.048-1.024 3.584l-8.704 14.848h49.152v0.512zM1523.2 427.52c0 16.384 1.024 17.92 19.968 27.136l35.84 16.384 35.84-16.384c19.456-9.216 19.968-10.24 19.968-27.136v-11.776h-111.616v11.776z m32.256-134.144c0-3.584 2.56-6.656 6.144-6.656h34.816c3.584 0 6.144 2.56 6.144 6.656v12.288h97.28c15.36 0 28.16 12.8 28.16 28.672v17.408c0 3.584-2.56 6.144-6.144 6.144h-23.04c-3.584 0-6.144-2.56-6.144-6.144v-15.36h-227.84v15.36c0 3.584-2.56 6.144-6.144 6.144h-22.528c-3.584 0-6.656-2.56-6.656-6.144v-17.408c0-15.872 13.312-28.672 29.184-28.672h96.768v-12.288z m-121.856 122.88c-3.584 0-6.656-2.56-6.656-6.144v-21.504c0-3.584 2.56-6.144 6.656-6.144h47.104v-20.48c0-3.584 2.56-6.144 6.144-6.144h30.208c3.584 0 6.656 2.56 6.656 6.144v20.48h111.616v-19.968c0-3.584 2.56-6.656 6.656-6.656h30.208c3.584 0 6.144 2.56 6.144 6.656v19.968h45.056c3.584 0 6.144 2.56 6.144 6.144v21.504c0 3.584-2.56 6.144-6.144 6.144h-45.056v12.288c0 28.16-8.192 37.888-44.032 53.76l-14.848 6.656 2.56 1.024c18.432 8.192 32.256 11.264 48.128 11.264h47.616c3.584 0 6.144 3.072 6.144 6.656v21.504c0 3.584-2.56 6.144-6.144 6.144h-47.616c-24.576-0.512-37.376-3.584-65.536-16.384l-25.088-11.264-25.088 11.264c-29.696 13.312-39.424 15.36-65.536 16.384h-47.616c-3.584 0-6.144-2.56-6.144-6.144v-21.504c0-3.584 2.56-6.656 6.144-6.656h47.616c15.36 0 32.256-4.096 48.128-11.264l2.56-1.024-14.848-6.656c-36.352-16.896-43.008-25.088-44.032-53.76v-12.288H1433.6zM1338.368 353.792h34.304c3.072 0 4.096 1.024 4.096 3.072 0 0.512-0.512 2.048-1.536 4.608l-34.816 68.096c-2.56 4.608-4.096 5.632-11.264 5.632h-34.304c-2.56 0-4.096-1.024-4.096-3.072 0-0.512 0-1.536 1.536-4.608l35.328-68.096c1.536-4.096 4.096-5.632 10.752-5.632z m-128 74.24c1.536 2.56 1.536 3.584 1.536 4.608 0 2.048-1.536 3.072-4.096 3.072h-34.304c-7.168 0-8.704-1.024-11.264-5.632l-35.328-68.096c-0.512-1.536-1.536-3.584-1.536-4.608 0-2.048 1.536-3.072 4.096-3.072h34.304c6.656 0 8.704 1.024 11.264 5.632l35.328 68.096z m-102.4 62.464c-3.584 0-6.656-2.56-6.656-6.656v-22.016c0-3.584 2.56-6.656 6.656-6.656h119.296v-121.344h-110.08c-3.584 0-6.144-3.072-6.144-6.656V307.2c0-3.584 2.56-6.144 6.144-6.144h267.264c3.584 0 6.144 2.56 6.144 6.144v20.992c0 3.584-2.56 6.656-6.144 6.656H1274.88V455.68h120.32c3.584 0 6.656 3.072 6.656 6.656v22.016c0 3.584-2.56 6.656-6.656 6.656H1274.88v46.08c0 3.584-3.072 6.144-6.656 6.144H1233.92c-3.584 0-6.144-2.56-6.144-6.144v-46.08h-119.296v-0.512zM1901.056 631.296c0-5.632 4.608-10.24 10.24-10.24h41.472c13.312 0 23.552 3.584 30.208 10.24 5.12 5.12 7.68 11.264 7.68 18.944v0.512c0 13.824-7.68 20.992-16.384 25.6 13.312 4.608 22.528 12.288 22.528 27.648v0.512c0 20.48-16.896 31.232-42.496 31.232h-43.008c-5.632 0-10.24-4.608-10.24-10.24v-94.208z m46.592 38.4c12.8 0 21.504-5.12 21.504-15.36v-0.512c0-9.216-7.168-14.336-19.968-14.336H1920v30.208h27.648z m6.144 48.64c13.824 0 22.016-5.632 22.016-15.872v-1.024c0-9.728-7.68-15.36-23.552-15.36H1920v31.232h33.792v1.024z m58.368 5.12l42.496-94.72c2.048-5.12 6.144-8.192 12.288-8.192h1.024c5.632 0 9.728 3.072 11.776 8.192l42.496 94.72c1.024 1.536 1.024 3.072 1.024 4.096 0 5.12-4.096 9.728-9.728 9.728-4.608 0-8.192-2.56-9.728-7.168l-9.216-21.504h-55.808l-9.728 22.016c-1.536 4.096-5.12 6.144-9.216 6.144-5.12 0-9.216-4.096-9.216-9.216 0.512-1.536 0.512-3.072 1.536-4.096z m74.752-33.28l-19.968-46.08-19.968 46.08h39.936z m58.368-58.88c0-5.632 4.608-10.24 10.24-10.24h2.048c5.12 0 7.68 2.56 10.24 6.144l57.344 74.24v-70.144c0-5.632 4.608-9.728 9.728-9.728 5.632 0 10.24 4.608 10.24 9.728V727.04c0 5.632-4.096 10.24-9.728 10.24h-1.024c-4.608 0-7.68-2.56-10.24-6.144l-58.88-76.288V727.04c0 5.632-4.608 9.728-9.728 9.728-5.632 0-10.24-4.608-10.24-9.728v-95.744z m129.536-1.024c0-5.632 4.608-10.24 10.24-10.24s9.728 4.608 9.728 10.24v48.64l54.272-54.784c2.048-2.56 4.608-3.584 8.192-3.584 5.632 0 9.216 4.608 9.216 9.216 0 3.072-1.536 5.632-3.584 7.68l-35.84 34.304 38.4 48.128c1.536 2.048 2.56 4.096 2.56 7.168 0 5.632-4.608 9.728-10.24 9.728-4.096 0-6.656-2.048-8.704-4.608l-36.864-47.104-18.432 17.92v23.552c0 5.632-4.608 10.24-9.728 10.24-5.632 0-10.24-4.608-10.24-10.24v-96.256h1.024zM1417.216 620.032h-17.408c-1.536 0-2.56 1.024-2.56 2.56V701.44c-9.216-10.24-69.12-78.336-70.144-79.872-1.536-1.536-3.584-2.048-5.12-2.048h-16.896c-1.536 0-2.56 1.024-2.56 2.56v109.568c0 1.536 1.024 2.56 2.56 2.56h17.408c1.536 0 2.56-1.024 2.56-2.56v-79.872c6.656 7.168 69.632 78.848 71.168 80.384 1.536 1.536 3.584 2.048 5.12 2.048h16.384c1.536 0 2.56-1.024 2.56-2.56v-109.056c-0.512-1.536-2.048-2.56-3.072-2.56z m99.84-1.536h-39.936c-21.504 0-38.912 15.36-38.912 34.816v48.128c0 19.456 17.408 34.816 38.912 34.816h39.936c21.504 0 38.912-15.36 38.912-34.816v-30.72h-60.416v16.384c0 1.536 1.024 2.56 2.56 2.56h33.28v22.016c0 1.536-1.024 2.56-2.56 2.56h-63.488c-1.536 0-2.56-1.024-2.56-2.56v-68.608c0-1.536 1.024-2.56 2.56-2.56h63.488c1.536 0 2.56 1.024 2.56 2.56v13.312c0 1.536 1.024 2.56 2.56 2.56h19.456c1.536 0 2.56-1.024 2.56-2.56v-2.56c0.512-19.968-17.408-35.328-38.912-35.328z m330.752 1.536h-17.408c-1.536 0-2.56 1.024-2.56 2.56V701.44c-9.216-10.24-69.12-78.336-70.144-79.872-1.536-1.536-3.584-2.048-5.12-2.048H1735.68c-1.536 0-2.56 1.024-2.56 2.56v109.568c0 1.536 1.024 2.56 2.56 2.56h17.408c1.536 0 2.56-1.024 2.56-2.56v-79.872c6.656 7.168 69.632 78.848 71.168 80.384 1.536 1.536 3.584 2.048 5.12 2.048h16.384c1.536 0 2.56-1.024 2.56-2.56v-109.056c-0.512-1.536-1.024-2.56-3.072-2.56z m-181.248 3.584c-1.024-2.048-3.072-3.072-5.12-3.072h-16.896c-2.048 0-4.096 1.024-5.12 3.072l-53.76 105.984c-2.048 3.584-0.512 5.632 3.072 5.632h16.896c2.56 0 3.584-0.512 4.608-3.072l42.496-85.504 42.496 85.504c1.024 2.56 2.048 3.072 4.608 3.072h16.896c3.072 0 4.608-2.048 3.072-5.632l-53.248-105.984z m-454.144 53.76c0 1.536-1.024 2.56-2.56 2.56h-58.368V640h58.368c1.536 0 2.56 1.024 2.56 2.56v34.816z m-12.8-57.344h-70.656c-1.536 0-2.56 1.024-2.56 2.56v109.056c0 1.536 1.024 2.56 2.56 2.56h19.456c1.536 0 2.56-1.024 2.56-2.56v-32.256h48.128c21.504 0 39.424-12.8 39.424-32.256v-12.288c-0.512-19.456-17.92-34.816-38.912-34.816z m77.312 0h-19.456c-1.536 0-2.56 1.024-2.56 2.56v109.056c0 1.536 1.024 2.56 2.56 2.56h19.456c1.536 0 2.56-1.024 2.56-2.56v-109.056c0.512-1.536-0.512-2.56-2.56-2.56z" fill="#EC681B" p-id="30320"></path><path d="M1668.096 700.416H1638.4c-1.536 0-2.56 1.024-2.56 2.56v28.672c0 1.536 1.024 2.56 2.56 2.56h29.184c1.536 0 2.56-1.024 2.56-2.56v-28.672c0.512-1.536-1.024-2.56-2.048-2.56z" fill="#005C3B" p-id="30321"></path><path d="M812.544 666.624l6.144-2.56 2.56-1.536 2.048-1.536 2.048-1.536 2.56-3.072 1.024 1.024 2.048 2.048 2.56 2.048 2.56 1.536 5.632 3.072h-29.184v0.512z m26.112-11.776l1.024 3.072 3.072-1.024 0.512-0.512 0.512-0.512 0.512-0.512 1.536-2.048 1.536-2.048 1.024-2.56 1.024-2.56V643.072l-0.512-1.024-1.024-0.512-1.024-0.512h-26.624v-3.584l-1.536-2.048h-2.56l-0.512 0.512-0.512 0.512-0.512 0.512-1.024 2.048-0.512 1.024-1.536 2.56-2.048 2.56-2.048 2.048v-2.56l-2.048-2.048-10.24-3.584-1.536-0.512H792.064l-0.512 0.512-0.512 0.512-0.512 0.512-0.512 0.512v2.048l0.512 0.512 0.512 0.512 0.512 0.512 0.512 0.512 1.024 0.512 1.024 0.512c1.024 0.512 2.048 0.512 3.072 1.024l3.072 1.024c1.024 0.512 2.048 1.024 3.584 1.536h2.56V650.752l0.512 1.536-3.072 1.024-3.072 2.048-3.072 2.048-3.584 2.048c-1.536 0.512-3.072 1.536-4.096 2.048l-0.512 0.512-0.512 0.512-0.512 0.512V664.576l0.512 0.512 0.512 0.512 0.512 0.512 0.512 0.512h2.56l4.096-2.048c1.536-1.024 3.072-1.536 4.608-2.56l2.048-1.024v3.072l1.024 1.536h-5.632l-1.024 0.512-1.024 0.512-1.024 0.512-0.512 1.024-0.512 1.024-0.512 1.024V688.64l0.512 0.512 2.56 2.56-6.656 0.512h-1.024l-0.512 0.512-0.512 0.512-0.512 0.512-0.512 0.512v2.048l0.512 0.512 0.512 0.512 0.512 0.512 0.512 0.512H791.552l6.656-0.512 5.632-1.024 5.12-2.048 4.096-2.56 3.584-3.072 2.56-4.096 1.536-4.608 1.024-5.12V673.792l-0.512-2.048h14.848l0.512 0.512v14.848l-3.584-1.536c-1.536-0.512-3.584-1.024-5.12-2.048l-1.024-0.512-2.56-0.512H822.784c-0.512 0-0.512 0-1.024 0.512l-1.536 1.024v3.072l0.512 0.512 0.512 0.512 0.512 0.512 0.512 0.512 3.072 1.024 2.56 1.024 2.56 1.024 2.56 1.024 2.56 1.024 2.56 1.536 2.56 1.536 2.56 1.536 2.56 0.512 2.048-1.536v-1.536l-2.048-2.048-7.168-3.584 1.536-1.024 0.512-0.512 0.512-0.512 0.512-0.512V671.232l-0.512-1.024-1.536-2.56 5.12 1.536h2.56l1.536-2.048v-2.048l-0.512-0.512-0.512-0.512-0.512-0.512-0.512-0.512-4.096-1.024-3.072-1.024-3.584-1.536-4.096-3.072-2.048-2.048-2.048-2.048-1.536-2.048 0.512-1.024 0.512-1.024h11.264c-0.512 1.024-1.536 2.048-2.048 3.072-0.512 0.512-1.024 1.536-1.536 2.048l-0.512 0.512v1.024h4.096z m1.536 3.072z m-29.696-1.536l-1.024-3.072 1.536-0.512c0.512 0 1.024-0.512 1.536-1.024l1.536-1.536c1.024-1.024 1.536-2.048 2.56-3.072h7.168l-0.512 1.536-1.024 2.048-1.536 2.048-1.536 2.56-2.56 1.536-2.56 1.536-3.072 1.536-3.584 1.024 3.072-4.608z m10.24 31.232l0.512-1.536 1.024-1.536v1.536l-1.536 1.536z m-3.072-14.336l-1.024 2.048v0.512l-0.512 4.096-1.024 3.584-2.048 3.072-2.56 2.56-3.072 2.048-7.168 2.56 2.048-2.56 0.512-0.512v-15.872h0.512l14.336-1.536z m-51.2-9.728h-27.136l2.048-2.048 1.536-1.536 1.024-1.536 1.024-2.048 0.512-2.048 0.512-2.048V645.12h13.312v12.288l0.512 1.536v0.512l0.512 0.512 0.512 0.512 0.512 0.512 0.512 0.512 4.608 2.048z m-8.704 15.36l-1.536 1.536-3.072 2.56-1.536-1.536-1.024-1.024-2.048-2.048-1.024-1.536-2.56-3.072-2.048-3.072h20.992l-1.024 2.56-1.024 1.536-1.024 1.536-1.024 1.536-2.048 1.024z m-24.064-13.824l-2.048 1.024c-1.024 0.512-2.048 1.536-3.072 2.048v-11.264h7.68v-5.12l-0.512-0.512-0.512-0.512-0.512-0.512h-6.144v-11.264l-0.512-0.512-0.512-0.512-0.512-0.512h-3.584l-0.512 0.512-0.512 0.512-0.512 0.512V651.264H715.776l-0.512 0.512-0.512 0.512-0.512 0.512v3.584l0.512 0.512 0.512 0.512 0.512 0.512h6.144v14.336l-2.048 1.024-2.56 1.536c-1.024 0.512-1.536 1.024-2.56 1.536l-0.512 0.512-0.512 0.512v2.56l0.512 0.512 0.512 0.512 0.512 0.512 0.512 0.512h2.048c1.024-0.512 1.536-0.512 2.56-1.024l2.048-1.024v13.824l-2.56-1.024h-3.072l-1.536 2.56v2.048l0.512 0.512 0.512 0.512 0.512 0.512 0.512 0.512 0.512 0.512 2.56 0.512 2.048 0.512h2.048l1.536-0.512 1.024-1.024 1.536-2.048 1.024 2.048 0.512 0.512 0.512 0.512 0.512 0.512h2.56l2.56-0.512 2.56-1.024 2.56-1.024 2.56-1.024 2.56-1.024 2.048-1.024 4.096-2.048 1.536 1.024 2.048 1.024 2.56 1.024 2.56 1.024 2.56 1.024 3.072 1.024 3.072 0.512 3.584 0.512H775.168l0.512-0.512 0.512-0.512 0.512-0.512 0.512-0.512v-2.048l-0.512-0.512-0.512-0.512-0.512-0.512-0.512-0.512-0.512-0.512h-0.512l-2.048-0.512-2.048-0.512-2.048-0.512-2.048-0.512-2.048-1.024-2.048-1.024-3.072-1.536 2.56-2.56 1.536-2.048 1.536-2.048 1.536-2.048 1.536-2.048 1.024-2.048 1.024-2.56 0.512-1.536 0.512-1.536V668.16l-0.512-0.512-0.512-0.512-0.512-0.512-0.512-0.512-4.096-2.048H773.632l0.512-0.512 0.512-0.512 0.512-0.512 0.512-0.512v-2.048l-0.512-0.512-0.512-0.512-0.512-0.512-0.512-0.512H768l-1.536-0.512V644.096l-0.512-1.024-0.512-0.512-1.024-0.512-1.024-0.512h-19.968l-1.024 0.512-1.024 0.512-0.512 1.024-0.512 1.024v8.192l-0.512 1.536-0.512 1.536-0.512 1.536-2.56 3.072v-0.512l-3.072 2.048-0.512 0.512-0.512-2.048-0.512 0.512V662.528l0.512 0.512 1.536 2.048z m2.56-8.192z m-7.68 37.888V675.84c2.048-1.024 4.096-2.048 5.632-3.584l0.512-0.512 2.56-3.072-1.024 4.096v1.024l0.512 0.512 0.512 0.512 2.56 3.584 2.56 3.072c1.024 1.024 1.536 2.048 2.56 2.56l2.048 2.048-4.096 2.048-2.048 1.024-4.096 1.536-4.608 1.536-0.512 0.512-0.512 0.512-2.56 1.536z m-160.768-35.84V665.088l-0.512 0.512h-18.944v-6.144h19.456v-0.512z m-19.456-12.288l0.512-0.512H568.32v5.632h-19.456l-0.512-5.12z m11.264 40.448l-3.584-1.024-2.56 1.536-1.536 1.536-1.024 1.024-2.56 2.56v-20.992h4.096l1.024 3.584 1.536 4.096 2.048 4.096 2.56 3.584z m-17.92-13.824v12.8l-3.584-1.024-2.048 1.024-3.072 3.072-2.048 2.048v-16.384H539.648l2.048-1.536z m0-13.312v9.728l-2.048-1.024h-8.704v-7.168H538.624l0.512-0.512 0.512-0.512 0.512-0.512 1.024-2.048-1.024-2.048-0.512-0.512-0.512-0.512-0.512-0.512H526.336l2.56-5.632H540.672l1.536-0.512v7.68l-1.024 2.048 0.512 2.048z m29.184 11.776c-1.536 2.048-3.584 4.096-5.632 5.632l-0.512 0.512-2.048 2.048-1.536-3.072-1.536-3.072-1.024-2.048h12.288z m4.608 3.072v-0.512l-0.512-0.512-0.512-0.512-0.512-0.512-3.072-1.024 2.048-1.536 0.512-0.512 0.512-1.024 0.512-1.024v-24.064l-0.512-1.024-0.512-1.024-0.512-0.512-0.512-0.512-1.024-0.512-1.024-0.512H545.792l-1.024 0.512-1.024 0.512-0.512 0.512-0.512 0.512-1.024 2.048-1.536-0.512h-9.728c0-0.512 0-1.536 0.512-2.048v-2.048l-0.512-0.512-0.512-0.512-0.512-0.512-0.512-0.512h-2.56l-0.512 0.512-0.512 0.512-0.512 0.512-0.512 0.512v0.512l-0.512 3.072-1.024 2.56-1.024 2.56-1.024 2.56-1.024 2.56-1.024 2.56-1.536 2.048-1.536 2.048-0.512 0.512-0.512 0.512V662.016l0.512 0.512 0.512 0.512 0.512 0.512 2.56 0.512 2.56-1.536 1.024-1.536h1.536v7.168H517.12l-0.512 0.512-0.512 0.512-0.512 0.512v3.072l0.512 0.512 0.512 0.512 0.512 0.512h7.168V696.832l0.512 0.512 0.512 0.512 0.512 0.512 0.512 0.512 0.512 0.512h2.56l1.536-0.512 2.048-1.536 2.56-2.048c1.024-1.024 2.56-2.048 3.584-3.584l2.048-2.048V695.808l0.512 1.536 0.512 1.024 1.024 1.024 1.024 0.512h3.072l1.536-0.512 2.048-1.536 2.048-1.536c1.024-1.024 2.56-2.048 3.584-3.584l1.536-1.536 0.512-0.512 0.512-0.512v-3.072l2.56 2.56 3.584 3.072 3.584 2.56 4.096 2.56 3.072 0.512 2.56-1.536 0.512-3.072-2.048-2.048-3.072-2.048-3.072-2.048-2.56-2.048-1.536-1.536 4.608-4.608 2.56-2.56 0.512-0.512 0.512-0.512 0.512-0.512v-0.512z m39.936-34.816h-1.024l-0.512 0.512-0.512 0.512-0.512 0.512-0.512 0.512v2.048l0.512 0.512 0.512 0.512 0.512 0.512 0.512 0.512h33.792l0.512-0.512 0.512-0.512 0.512-0.512 0.512-0.512v-2.048l-0.512-0.512-0.512-0.512-0.512-0.512-0.512-0.512h-32.768z m-14.848-0.512l-2.048 3.584-2.048 3.584-2.56 3.072-2.56 3.072-0.512 0.512-0.512 0.512V655.36l0.512 0.512 0.512 0.512 0.512 0.512 2.56 1.024 2.048-1.024 2.56-3.584 2.56-3.584 2.56-4.096 2.56-4.096 0.512-2.56-2.048-2.048h-2.56l-2.048 2.56z m-5.12 36.352l2.048-2.048V697.856l0.512 0.512 0.512 0.512 0.512 0.512 0.512 0.512h2.56l0.512-0.512 0.512-0.512 0.512-0.512 0.512-0.512V664.064l2.048-3.072c1.024-2.048 1.024-3.072 1.536-5.12l-2.048-2.048h-2.56l-2.048 2.048-1.024 2.048-1.024 2.048-1.024 2.048-1.024 2.048-2.56 3.584-3.072 3.584-1.024 2.56 1.024 2.56 2.56 1.024 1.536-1.536z m13.824-17.408V659.968l0.512 0.512 0.512 0.512 0.512 0.512 0.512 0.512h25.088v28.672l-0.512 0.512-0.512 0.512h-4.096l-3.072-0.512-6.144-1.536h-3.072l-1.536 2.048v3.072l2.048 1.536 3.072 1.024 3.072 0.512 2.56 0.512 2.56 0.512h5.632l1.536-0.512 1.024-0.512 1.024-0.512 1.024-1.024 0.512-1.024 0.512-1.536 0.512-1.536v-30.208H650.24l0.512-0.512 0.512-0.512 0.512-0.512 0.512-0.512v-2.048l-0.512-0.512-0.512-0.512-0.512-0.512-0.512-0.512h-39.936l-0.512 0.512-0.512 0.512-0.512 0.512-0.512 0.512 1.024 0.512z m-209.408-11.776h5.632l-2.56 11.776V661.504c0 0.512 0 1.024 0.512 1.536 0 0.512 0.512 1.024 0.512 1.536 0.512 1.536 1.024 2.56 1.536 4.096l0.512 1.536 1.024 3.072v3.584s0 0.512-0.512 0.512l-0.512 0.512h-0.512l-2.56-0.512h-1.024l-1.536 0.512-0.512-31.232z m44.544 12.8v-3.584l4.096 2.048h3.072l2.048-2.048v-3.072l-2.048-2.048-2.56-1.024-2.56-1.024-2.048-1.536-2.048-1.536-2.048-1.536-2.048-1.536-2.048-2.048-2.56-3.072-1.024-0.512-1.024-0.512h-2.048l-1.024 0.512-1.024 1.024c-1.024 1.536-2.56 3.072-3.584 4.096l-0.512 0.512-1.536 1.536-1.536 1.536-2.048 1.536-2.048 1.536-5.12 3.584 1.536-6.144 0.512-2.56V639.488l-0.512-0.512-0.512-0.512-0.512-0.512-2.048 2.048H397.312l-1.024 0.512-1.024 0.512-0.512 0.512-0.512 0.512-0.512 1.024v55.808l0.512 0.512 0.512 0.512 0.512 0.512 0.512 0.512h2.048l0.512-0.512 0.512-0.512 0.512-0.512 0.512-0.512v-13.824l1.536 0.512c0.512 0 1.024 0 1.536 0.512H408.576l1.024-0.512 1.024-0.512 1.024-0.512 0.512-0.512 0.512-0.512 0.512-0.512 0.512-1.024 0.512-1.024 0.512-1.024v-5.12c0-1.024 0-1.536-0.512-2.048 0-1.024-0.512-2.048-1.024-3.072l-1.024-3.072-2.048-4.096v-1.536l0.512-3.072 2.048 1.536 0.512 0.512H414.72l0.512-0.512 0.512-0.512 2.56-1.536 0.512 1.536c0 0.512 0 0.512 0.512 1.024l0.512 0.512 0.512 0.512 0.512 0.512h7.68l-2.048 2.048-0.512 0.512v2.048l1.536 6.144c0.512 2.048 1.024 4.608 1.024 6.656l0.512 4.608v1.024l0.512 0.512 0.512 0.512 0.512 0.512 0.512 0.512H432.64l2.048-1.024-0.512 2.048v1.024l0.512 1.536h-11.776l2.56-2.048 0.512-0.512V686.08c0-0.512 0-1.536-0.512-2.048-0.512-1.024-0.512-2.048-1.024-3.584l-0.512-2.56-1.024-2.56-1.024-2.56-2.048-5.12-1.024-2.56-0.512-0.512 1.536 1.024-0.512-0.512-0.512-0.512h-2.048l-0.512 0.512-1.536 0.512-0.512 0.512v1.024c0 2.048 1.536 4.608 2.56 6.656l2.048 5.12 1.536 4.608 1.024 4.096v0.512l0.512 0.512 0.512 0.512 2.56 2.048h-11.264l-0.512 0.512-0.512 0.512-0.512 0.512-0.512 0.512v2.56l0.512 0.512 0.512 0.512 0.512 0.512H450.048l0.512-0.512 0.512-0.512 0.512-0.512v-3.072l-0.512-0.512-0.512-0.512-0.512-0.512h-10.24c0.512-0.512 1.024-1.536 1.024-2.048v-0.512l2.048-5.632 1.024-3.072 1.024-3.072 0.512-3.072 0.512-3.072 0.512-3.072 0.512-3.072v-2.048l-0.512-0.512-0.512-0.512-0.512-0.512-0.512-0.512h-2.56l-1.024 1.536c0 0.512-0.512 1.024-0.512 1.024l-0.512 4.096-1.024 6.144-0.512 3.072-2.56 9.216c-0.512-2.56-0.512-5.12-1.024-7.68 0-1.536-0.512-3.584-1.024-5.12l-1.024-4.608-1.024-4.096v-0.512l-2.048-3.072h12.8l1.024-1.536 0.512 0.512z m-1.536 2.048z m-20.992-7.168l2.56-2.048 1.536-1.536 1.024-1.536 2.048-2.56 0.512-0.512 1.024-1.024 2.048 2.048 1.024 1.536 1.536 1.536c1.024 0.512 1.536 1.536 2.56 2.048 1.536 1.024 2.56 2.048 4.096 2.56h-19.968v-0.512z m-83.456 0.512V645.12h29.184l0.512 0.512v10.24l-1.024 0.512h-28.16-0.512v-1.536z m-10.752 17.408l2.048 1.536h17.92l-2.048 2.56-2.048 2.048-2.56 2.048-2.56 2.048-3.072 2.048-3.072 2.048-4.608 2.56v-16.896z m4.096-29.696v15.872l0.512 1.024 0.512 1.024 0.512 0.512 0.512 0.512 1.024 0.512 1.024 0.512h13.824v5.12h-18.944c-0.512 0-0.512 0-1.024 0.512l-1.536 1.536v-15.36c0.512-1.024 1.024-2.56 1.536-4.096l2.048-7.68z m29.184 34.304l-2.56-3.072H377.856l0.512-0.512 0.512-0.512 0.512-0.512v-3.072l-0.512-0.512-0.512-0.512-0.512-0.512h-21.504v-5.12H370.688l1.024-0.512 1.024-0.512 0.512-0.512 0.512-0.512 0.512-1.024 0.512-1.024V642.56l-0.512-1.024-0.512-1.024-0.512-0.512-0.512-0.512-1.024-0.512-1.024-0.512H335.872l-1.024 0.512-1.024 0.512-0.512 0.512-1.536 1.536-1.024-2.56v-0.512l-2.56-1.536H326.656l-0.512 0.512-0.512 0.512-0.512 0.512-0.512 0.512-0.512 1.024v1.024l-0.512 3.072-1.024 3.072-1.024 3.072-1.024 2.56-1.024 2.56-1.536 2.56-1.536 2.048-1.536 2.048-0.512 0.512-0.512 0.512v2.048l0.512 0.512 0.512 1.024 2.56 1.024 3.584-2.048V696.32l0.512 0.512 0.512 0.512 0.512 0.512 0.512 0.512h2.56l0.512-0.512 0.512-0.512 0.512-0.512 0.512-0.512v-4.096l2.048 1.024h2.048l3.072-2.048 3.072-2.048 2.56-2.048 2.56-2.048 2.048-2.048 3.584-3.584V696.32l0.512 0.512 0.512 0.512 0.512 0.512 0.512 0.512h2.048l0.512-0.512 0.512-0.512 0.512-0.512 0.512-0.512v-15.36l2.56 2.56 2.56 2.048 2.56 2.048 2.56 2.048 3.072 2.048 3.072 2.048 3.584 2.048h2.56l2.048-2.048 0.512-3.072-1.536-2.048-4.096-2.048-3.584-2.048-3.072-2.048-3.072-2.048-2.56-2.048-1.024-1.536z m327.68-8.704v-1.024l-0.512-1.024-0.512-1.024-0.512-0.512-1.024-0.512-1.024-0.512-1.024-0.512h-2.048l-1.024 0.512-1.024 0.512-0.512 0.512-0.512 0.512-0.512 1.024-0.512 1.024v2.048l0.512 1.024 0.512 1.024 0.512 0.512 0.512 0.512 1.024 0.512 1.024 0.512h2.048l1.024-0.512 1.024-0.512 1.024-0.512 0.512-1.024 0.512-1.024 0.512-1.024v-0.512z m-199.168 0v-1.024l-0.512-1.024-0.512-1.024-0.512-0.512-1.024-0.512-1.024-0.512-1.024-0.512h-2.048l-1.024 0.512-1.024 0.512-0.512 0.512-0.512 0.512-0.512 1.024-0.512 1.024v2.048l0.512 1.024 0.512 1.024 0.512 0.512 0.512 0.512 1.024 0.512 1.024 0.512h2.048l1.024-0.512 1.024-0.512 1.024-0.512 0.512-0.512 0.512-1.024 0.512-1.024v-1.024z" fill="#EC681B" p-id="30322"></path></svg>