<?xml version="1.0" standalone="no"?><!DOCTYPE svg PUBLIC "-//W3C//DTD SVG 1.1//EN" "http://www.w3.org/Graphics/SVG/1.1/DTD/svg11.dtd"><svg t="1542263244670" class="icon" style="" viewBox="0 0 2560 1024" version="1.1" xmlns="http://www.w3.org/2000/svg" p-id="22591" xmlns:xlink="http://www.w3.org/1999/xlink" width="500" height="200"><defs><style type="text/css"></style></defs><path d="M1149.44 391.68s-17.92 69.12-48.64 117.76l-2.56 2.56 28.16 20.48 2.56-2.56c33.28-51.2 51.2-120.32 51.2-120.32v-2.56l-30.72-17.92v2.56z m-2.56-12.8l2.56 2.56 23.04-20.48V358.4c-28.16-33.28-56.32-48.64-58.88-51.2h-2.56l-23.04 20.48 2.56 2.56c0-2.56 40.96 25.6 56.32 48.64m222.72-104.96c-15.36-23.04-38.4-38.4-38.4-38.4l-2.56-2.56-25.6 17.92 2.56 2.56s12.8 12.8 23.04 20.48h-33.28V230.4h-33.28v43.52h-89.6v5.12c-20.48-20.48-40.96-33.28-40.96-33.28h-2.56l-25.6 20.48 2.56 2.56s35.84 25.6 56.32 48.64l2.56 2.56 17.92-12.8h79.36v17.92h-74.24V537.6h30.72v-76.8h43.52v69.12h33.28V460.8h43.52v43.52s-5.12 2.56-28.16 2.56H1305.6l10.24 30.72h20.48c7.68 0 15.36-2.56 20.48-7.68 5.12-5.12 10.24-12.8 10.24-20.48v-184.32h-74.24V307.2h99.84v-30.72l-23.04-2.56z m-107.52 153.6h-43.52v-23.04h43.52v23.04z m0-53.76h-43.52v-20.48h43.52v20.48z m76.8 53.76h-43.52v-23.04h43.52v23.04zM1338.88 373.76h-43.52v-20.48h43.52v20.48z m289.28 89.6c17.92-20.48 30.72-43.52 43.52-71.68v-23.04H1561.6c2.56-5.12 5.12-15.36 7.68-20.48H1715.2v-30.72h-140.8c2.56-12.8 7.68-35.84 10.24-69.12v-2.56l-30.72-7.68v2.56c-2.56 33.28-7.68 58.88-12.8 76.8h-46.08c2.56-7.68 23.04-58.88 23.04-58.88l-28.16-15.36-30.72 79.36v25.6h74.24c-15.36 66.56-53.76 117.76-107.52 151.04l-2.56 2.56 23.04 25.6 2.56-2.56c48.64-35.84 79.36-74.24 97.28-117.76 10.24 20.48 25.6 40.96 38.4 56.32-23.04 20.48-56.32 35.84-97.28 46.08h-5.12l17.92 25.6h2.56c40.96-7.68 74.24-25.6 102.4-51.2 23.04 17.92 40.96 28.16 51.2 33.28 15.36 7.68 30.72 12.8 48.64 17.92h2.56l20.48-25.6h-5.12c-33.28-10.24-66.56-25.6-94.72-46.08m-20.48-23.04c-10.24-10.24-20.48-25.6-30.72-46.08H1638.4c-7.68 17.92-17.92 33.28-30.72 46.08m243.2-84.48h35.84v-30.72h-64c2.56-7.68 5.12-12.8 7.68-17.92h58.88v-30.72h-51.2c5.12-17.92 5.12-30.72 5.12-33.28v-2.56l-28.16-7.68v2.56c-5.12 56.32-23.04 97.28-53.76 122.88l-2.56 2.56 20.48 23.04h-2.56v30.72h43.52v76.8c0 7.68 0 12.8-2.56 15.36l-2.56 2.56 17.92 28.16 58.88-30.72v-30.72s-33.28 15.36-40.96 20.48v-76.8h40.96V384h-40.96v-28.16zM1820.16 384h-40.96c10.24-10.24 20.48-17.92 25.6-25.6h12.8v25.6z m181.76 76.8c17.92-10.24 33.28-25.6 46.08-43.52l2.56-2.56-23.04-17.92h5.12V248.32h-135.68v245.76c0 7.68-2.56 10.24-2.56 12.8l-2.56 2.56 15.36 28.16 71.68-25.6v-30.72s-40.96 15.36-48.64 15.36v-97.28h20.48c2.56 28.16 12.8 56.32 28.16 79.36 15.36 25.6 38.4 40.96 69.12 48.64h2.56l20.48-28.16h-5.12c-30.72-7.68-51.2-20.48-64-38.4m-74.24-181.76h74.24V307.2h-74.24v-28.16z m0 56.32h74.24v30.72h-74.24v-30.72z m61.44 99.84c-5.12-10.24-7.68-23.04-10.24-38.4h46.08c-12.8 20.48-23.04 30.72-35.84 38.4m151.04-94.72c25.6-17.92 53.76-48.64 81.92-89.6l2.56-2.56-25.6-17.92-2.56 2.56c-23.04 35.84-51.2 64-81.92 87.04l-2.56 2.56 28.16 17.92z m92.16-5.12v30.72h84.48v133.12c0 2.56 0 2.56-2.56 2.56 0 0-5.12 2.56-15.36 2.56h-35.84l10.24 30.72h20.48c15.36 0 25.6 0 33.28-2.56 7.68-2.56 12.8-5.12 17.92-10.24 5.12-5.12 5.12-12.8 5.12-20.48v-135.68H2406.4v-30.72h-174.08z m5.12-10.24l-25.6-17.92-2.56 2.56c-30.72 46.08-64 76.8-99.84 97.28l-2.56 2.56 23.04 25.6s25.6-17.92 33.28-23.04v120.32h30.72v-151.04c23.04-25.6 35.84-43.52 43.52-56.32z m148.48-38.4V256h-145.92v30.72h145.92z m-709.12 25.6l2.56 2.56 25.6-17.92-2.56-2.56c-25.6-35.84-53.76-56.32-53.76-56.32h-2.56l-25.6 17.92 2.56 2.56c0-2.56 35.84 28.16 53.76 53.76M2152.96 760.32l-2.56-5.12c-5.12-5.12-102.4-148.48-110.08-158.72h-30.72v189.44h20.48v-163.84l2.56 5.12c5.12 5.12 102.4 148.48 110.08 158.72h28.16v-189.44H2150.4v163.84z m102.4-76.8c0-2.56 76.8-74.24 94.72-89.6h-28.16c-7.68 5.12-87.04 79.36-89.6 84.48l-5.12 2.56v-87.04h-20.48v189.44h20.48v-99.84l2.56 2.56c2.56 5.12 87.04 89.6 94.72 97.28H2355.2c-17.92-15.36-99.84-99.84-99.84-99.84M1203.2 680.96c-23.04-7.68-43.52-12.8-43.52-38.4 0-12.8 7.68-33.28 40.96-33.28 15.36 0 28.16 5.12 35.84 15.36 0 0 15.36-12.8 17.92-15.36-12.8-12.8-28.16-20.48-51.2-20.48-46.08 0-64 30.72-64 51.2 0 40.96 30.72 51.2 56.32 58.88 20.48 7.68 40.96 12.8 40.96 33.28 0 25.6-25.6 35.84-40.96 35.84-17.92 0-33.28-7.68-40.96-20.48-2.56 2.56-15.36 12.8-17.92 15.36 12.8 15.36 33.28 23.04 58.88 23.04 38.4 0 64-23.04 64-58.88-5.12-30.72-30.72-38.4-56.32-46.08m145.92-84.48h-66.56v189.44h23.04v-87.04h46.08c53.76 0 58.88-35.84 58.88-51.2 0-15.36-7.68-51.2-61.44-51.2m-7.68 84.48H1305.6v-69.12h38.4c10.24 0 43.52 0 43.52 33.28 0 35.84-33.28 35.84-46.08 35.84m153.6-84.48h-66.56v189.44h61.44c30.72 0 58.88-10.24 76.8-28.16 17.92-17.92 25.6-40.96 25.6-66.56 2.56-10.24 0-94.72-97.28-94.72m-7.68 168.96h-35.84V614.4h43.52c76.8 0 79.36 66.56 79.36 74.24-2.56 53.76-46.08 76.8-87.04 76.8m268.8-81.92c20.48-7.68 30.72-23.04 30.72-40.96 0-28.16-20.48-46.08-56.32-46.08h-64v189.44h64c38.4 0 66.56-20.48 66.56-51.2 0-25.6-17.92-51.2-40.96-51.2m-69.12-71.68h43.52c25.6 0 33.28 15.36 33.28 30.72 0 20.48-15.36 30.72-38.4 30.72h-38.4v-61.44z m43.52 156.16H1689.6v-74.24h40.96c28.16 0 43.52 12.8 43.52 38.4 0 33.28-33.28 35.84-43.52 35.84m156.16-171.52c0 2.56-81.92 184.32-84.48 189.44h25.6c0-2.56 20.48-48.64 20.48-48.64H1945.6s17.92 46.08 20.48 48.64h25.6c-2.56-5.12-79.36-186.88-81.92-189.44h-23.04z m-30.72 122.88l40.96-99.84 40.96 99.84h-81.92zM640 437.76c51.2-40.96 107.52-38.4 128-35.84-7.68-23.04-43.52-97.28-145.92-97.28-58.88 0-97.28 30.72-117.76 56.32-25.6 30.72-33.28 66.56-33.28 87.04-7.68 89.6-56.32 133.12-61.44 138.24-53.76 43.52-107.52 38.4-128 33.28 10.24 23.04 46.08 99.84 148.48 97.28 40.96-2.56 76.8-17.92 107.52-48.64 33.28-33.28 40.96-87.04 43.52-102.4 7.68-74.24 43.52-115.2 58.88-128m258.56-145.92c0-17.92-12.8-28.16-12.8-28.16l-79.36-61.44s-15.36-12.8-15.36 7.68V460.8c0 17.92-5.12 74.24-53.76 115.2-58.88 48.64-120.32 46.08-140.8 40.96 10.24 23.04 53.76 97.28 153.6 97.28 89.6 0 151.04-79.36 151.04-153.6V291.84z m-583.68 151.04c58.88-48.64 120.32-46.08 140.8-40.96-10.24-23.04-53.76-97.28-153.6-97.28-89.6 0-151.04 79.36-151.04 153.6v276.48c0 17.92 12.8 28.16 12.8 28.16l79.36 61.44s15.36 12.8 15.36-7.68V558.08c5.12-17.92 7.68-74.24 56.32-115.2" fill="#003F7B" p-id="22592"></path></svg>