<?xml version="1.0" standalone="no"?><!DOCTYPE svg PUBLIC "-//W3C//DTD SVG 1.1//EN" "http://www.w3.org/Graphics/SVG/1.1/DTD/svg11.dtd"><svg class="icon" width="48px" height="48.00px" viewBox="0 0 1024 1024" version="1.1" xmlns="http://www.w3.org/2000/svg"><path d="M541.91309552 469.32834699c0 14.44046085-10.231984 26.49744784-23.84471125 29.29977485-0.45874389 0.09972691-0.92746053 0.17950848-1.39617717 0.24931732-0.21939926 0.02991812-0.43879853 0.06980888-0.65819781 0.09972698-0.85765171 0.11967236-1.73524872 0.1994539-2.61284579 0.23934462-0.08975424 0-0.17950848 0.00997267-0.26926272 0.0099727-0.37896239 0.00997267-0.75792472 0.01994537-1.13688713 0.0199454h-0.20942658c-0.30915352 0-0.60833434-0.00997267-0.91748786-0.0199454-0.12964502 0-0.26926273-0.00997267-0.39890775-0.01994537-0.04986345 0-0.08975424 0-0.13961768-0.00997267-1.10696902-0.05983614-2.19399266-0.17950848-3.2710436-0.35901705-0.27923541-0.04986345-0.54849814-0.09972691-0.82773362-0.14959039-0.11967236-0.01994537-0.23934463-0.04986345-0.3689897-0.06980887C492.28897037 495.79587673 482.07693178 483.74886246 482.07693178 469.32834699 482.07693178 452.80359312 495.47025978 439.41026512 511.99501365 439.41026512s29.91808188 13.393328 29.91808187 29.91808187z" fill="#FFFFFF" /><path d="M665.489085 726.748209L568.907849 602.352941s-12.968505-12.968505-29.349775-2.559573c0 0-24.913181 17.405099-12.968506 32.421263 0 0 85.148475 105.283786 96.069322 123.542076 17.917014 30.202966 67.743376 10.920847 42.830195-29.008498z" fill="#FFFFFF" /><path d="M723.335444 677.433761s4.77787-8.361273 21.841693-18.428928c0 0 20.988502-14.504249 36.345942-6.484253 0 0 7.67872 7.849358 0.853192 17.063823 0 0-8.190635 14.333611-16.039994 13.651058 0 0-6.825529 2.730212 15.016164-0.511915 0 0 13.139143 76.616564-2.730211 74.227629 0 0-30.714881 5.460423-37.881687 3.754041 0 0-18.25829-3.242126-24.571904-12.968505 0 0-10.920847-16.039993-5.460424-36.857857-0.170638 0 1.365106-18.599567 12.627229-33.445093z" fill="#FFC799" /><path d="M714.632895 691.255457l-79.346776 29.179137s-16.551908 7.337444-11.603399 26.107649c0 0 9.214464 28.83786 27.472754 23.036161l79.85869-11.944676c-0.170638 0.170638-21.329778-22.865522-16.381269-66.378271z" fill="#FFFFFF" /><path d="M753.026496 747.736711l-18.258291-10.408932 149.991002-262.78287 9.385102 5.289785z" fill="#994C2E" /><path d="M781.523079 652.52058s9.385102 7.508082 9.214465 20.817864c0 0-10.067655 22.18297-26.278287 0.170638l17.063822-20.988502z" fill="#FFC799" /><path d="M816.16264 700.299283c5.460423-17.917014-8.019997-26.619563-8.019997-26.619563-23.206799-17.575737-31.397434 9.555741-31.397434 9.555741-14.845526 1.706382-11.944676 17.234461-11.944676 17.234461-17.746376 8.019997-9.385102 25.254458-9.385102 25.254457-3.071488 0.511915-13.139143 0.682553-11.091485 13.139144 0 0 1.535744 9.385102 22.694884 17.063822 0.511915 0.511915 10.067655 1.023829 10.067656 1.02383 4.77787 0.170638 10.750208-4.095317 15.528078-11.262123 16.551908-22.18297 19.111481-30.885519 23.548076-45.389769z" fill="#FFCEA1" /><path d="M777.427762 681.35844c-0.511915 1.194468-0.853191 2.047659-0.853191 2.047659-0.511915 0-1.023829 0.170638-1.535744 0.170638 0 0.853191 0.341276 1.87702 1.365106 2.218297 2.90085 1.194468 5.631061 2.388935 8.361273 3.924679 2.730212 1.535744 4.607232-2.90085 1.87702-4.436594-2.730212-1.535744-5.460423-2.730212-8.361273-3.924679h-0.853191zM764.971171 703.370772c2.90085 1.194468 5.631061 2.388935 8.361274 3.924679 2.730212 1.535744 4.607232-2.90085 1.87702-4.436594-2.730212-1.535744-5.460423-2.730212-8.361273-3.924679-0.853191-0.341276-1.706382-0.170638-2.218297 0.341276 0 0.853191 0.170638 1.365106 0.170638 1.365106-0.341276 0.170638-0.853191 0.341276-1.194467 0.511915 0 0.853191 0.341276 1.706382 1.365105 2.218297zM756.268622 729.47842c2.730212 1.194468 5.631061 2.388935 8.361273 3.924679 2.730212 1.535744 4.607232-2.90085 1.877021-4.436593-2.730212-1.535744-5.460423-2.730212-8.361274-3.92468-2.730212-1.194468-4.607232 3.242126-1.87702 4.436594z" fill="#FFC392" /><path d="M586.14231 867.354108l-0.853192 22.012331-2.900849 80.88252-1.706383 49.143809c-14.674888 2.047659-29.691051 3.412765-44.707215 4.095317-1.535744 0-3.071488 0.170638-4.607232 0.170639-6.484253 0.170638-12.968505 0.341276-19.452758 0.341276h-3.583403v-92.997834c0-6.484253 0.682553-12.456591 1.877021-17.917014 6.996167-30.714881 31.568072-47.437427 50.850191-52.556573 0.511915-0.170638 0.853191-0.170638 1.365106-0.341277 4.607232-1.023829 8.873188-1.535744 12.456591-1.194467 0.511915 0 1.023829 0.170638 1.365105 0.170638 6.142976 0.682553 9.897017 3.412765 9.897018 8.190635zM485.97767 930.831528v92.315281c-0.853191 0-1.535744 0-2.388935-0.170638-18.940843-1.023829-37.54041-3.071488-55.969338-6.142977-4.77787-0.853191-9.385102-1.706382-14.162973-2.559573l-1.706382-44.365939-2.730212-76.445926-1.023829-26.107648v-0.853191c0.511915-3.924679 3.754041-6.484253 8.873187-7.337444 0.511915-0.170638 1.194468-0.170638 1.877021-0.170638h0.853191c3.242126-0.170638 6.825529 0.170638 10.920847 1.023829 0.341276 0 0.682553 0.170638 1.023829 0.170638 11.944676 2.730212 26.278287 10.238294 37.199133 22.865523 0.341276 0.341276 0.682553 0.682553 0.853192 1.023829 1.535744 1.87702 3.071488 4.095317 4.607232 6.313614 4.265956 6.654891 7.67872 14.333611 9.726379 23.036161 1.365106 5.289785 2.047659 11.091485 2.047658 17.405099z" fill="#FFCEA1" /><path d="M346.224963 756.609898l102.382936-120.641226s10.067655-15.186802-4.095318-28.325946c0 0-23.206799-19.28212-35.492751-4.436594 0 0-85.831028 105.283786-101.871021 119.958674-26.107649 24.05999 4.77787 66.37827 39.076154 33.445092z" fill="#FFFFFF" /><path d="M493.827029 578.463589c-66.719547 0-120.641226 158.522913-120.641227 259.370105 0 100.847192 241.453091 100.847192 241.453092 0s-54.092318-259.370105-120.811865-259.370105z" fill="#FFFFFF" /><path d="M541.947009 648.766539c1.87702-2.730212 3.071488-5.972338 3.071488-9.214464 0-8.70255-6.996167-15.698717-15.698717-15.698717-0.511915 0-13.821696 0-14.504249 0.170638V862.405599h3.071488V626.071655h6.996167v235.992668c1.023829 0 2.047659 0 3.071488-0.170639V626.071655h1.365106c7.508082 0 13.48042 6.142976 13.48042 13.48042 0 3.071488-1.023829 6.142976-3.071488 8.531911l-0.511915 0.682553 0.511915 0.682553c2.047659 2.388935 3.071488 5.460423 3.071488 8.531911 0 3.071488-1.023829 6.142976-3.071488 8.531912l-0.511915 0.682552 0.511915 0.682553c2.047659 2.388935 3.071488 5.460423 3.071488 8.531912 0 3.071488-1.023829 6.142976-3.071488 8.531911l-0.511915 0.682553 0.511915 0.682553c2.047659 2.388935 3.071488 5.460423 3.071488 8.531911 0 3.071488-1.023829 6.142976-3.071488 8.531912l-0.511915 0.682552 0.511915 0.682553c2.047659 2.388935 3.071488 5.460423 3.071488 8.531912 0 3.071488-1.023829 6.142976-3.071488 8.531911l-0.511915 0.682553 0.511915 0.682553c2.047659 2.388935 3.071488 5.460423 3.071488 8.531911 0 3.071488-1.023829 6.142976-3.071488 8.531912l-0.511915 0.682552 0.511915 0.682553c2.047659 2.388935 3.071488 5.460423 3.071488 8.531912 0 3.071488-1.023829 6.142976-3.071488 8.531911l-0.511915 0.682553 0.511915 0.682553c2.047659 2.388935 3.071488 5.460423 3.071488 8.531911 0 3.071488-1.023829 6.142976-3.071488 8.531912l-0.511915 0.682552 0.511915 0.682553c2.047659 2.388935 3.071488 5.460423 3.071488 8.531912 0 3.071488-1.023829 6.142976-3.071488 8.531911l-0.511915 0.682553 0.511915 0.682553c2.047659 2.388935 3.071488 5.460423 3.071488 8.531911 0 3.071488-1.023829 6.142976-3.071488 8.531912l-0.511915 0.682553 0.511915 0.682552c2.047659 2.388935 3.071488 5.460423 3.071488 8.531912 0 3.071488-1.023829 6.142976-3.071488 8.531911l-0.511915 0.682553 0.511915 0.682553c2.047659 2.388935 3.071488 5.460423 3.071488 8.531911 0 3.071488-1.023829 6.142976-3.071488 8.531912l-0.511915 0.682553 0.511915 0.682552c1.87702 2.388935 3.071488 5.460423 3.071488 8.531912 0.682553 0 1.535744 0 2.218297-0.170638 0-3.242126-1.023829-6.484253-2.90085-9.043826 1.87702-2.730212 3.071488-5.972338 3.071488-9.214465 0-3.242126-1.023829-6.484253-3.071488-9.214464 1.87702-2.730212 3.071488-5.972338 3.071488-9.214464 0-3.242126-1.023829-6.484253-3.071488-9.214464 1.87702-2.730212 3.071488-5.972338 3.071488-9.214465 0-3.242126-1.023829-6.484253-3.071488-9.214464 1.87702-2.730212 3.071488-5.972338 3.071488-9.214464 0-3.242126-1.023829-6.484253-3.071488-9.214465 1.87702-2.730212 3.071488-5.972338 3.071488-9.214464 0-3.242126-1.023829-6.484253-3.071488-9.214464 1.87702-2.730212 3.071488-5.972338 3.071488-9.214464 0-3.242126-1.023829-6.484253-3.071488-9.214465 1.87702-2.730212 3.071488-5.972338 3.071488-9.214464 0-3.412765-1.023829-6.654891-3.071488-9.214464 1.87702-2.730212 3.071488-5.972338 3.071488-9.214464 0-3.242126-1.023829-6.484253-3.071488-9.214465 1.87702-2.730212 3.071488-5.972338 3.071488-9.214464 0-3.242126-1.023829-6.484253-3.071488-9.214464 1.87702-2.730212 3.071488-5.972338 3.071488-9.214464 0-3.242126-1.023829-6.484253-3.071488-9.214465 1.87702-2.730212 3.071488-5.972338 3.071488-9.214464-0.170638-3.242126-1.194468-6.484253-3.242126-9.214464z" fill="#E2E2E2" /><path d="M527.613398 607.130812c0 9.214464-7.67872 16.722546-17.234461 16.722546h-37.369772c-9.555741 0-17.234461-7.508082-17.234461-16.722546v-36.345943c0-9.214464 7.67872-16.722546 17.234461-16.722546h37.369772c9.555741 0 17.234461 7.508082 17.234461 16.722546v36.345943z" fill="#FFCEA1" /><path d="M510.378937 554.062323h-37.369772c-9.555741 0-17.234461 7.508082-17.234461 16.722546v16.893185c11.774038 1.535744 23.718714 2.388935 35.834028 2.388935 12.285952 0 24.230628-0.853191 36.004666-2.388935v-16.893185c0-9.214464-7.67872-16.722546-17.234461-16.722546z" fill="#FFA669" /><path d="M612.420597 853.532411c-13.309782 2.90085-46.754874 8.873188-113.64506 8.873188-67.4021 0-108.525912-6.654891-123.542076-9.555741-3.583403-0.682553 24.913181 113.645059 24.913181 113.64506s68.937844 25.766372 189.57907 2.218296c0 0 26.107649-115.863356 22.694885-115.180803zM508.331278 673.509082c0 6.484253-5.289785 11.774038-11.774038 11.774037-6.484253 0-11.774038-5.289785-11.774037-11.774037 0-6.484253 5.289785-11.774038 11.774037-11.774038 6.484253 0 11.774038 5.289785 11.774038 11.774038z" fill="#383838" /><path d="M450.996834 648.766539c-1.87702-2.730212-2.90085-5.972338-2.90085-9.214464 0-8.70255 6.996167-15.698717 15.698717-15.698717 0.511915 0 13.821696 0 14.504249 0.170638V862.405599h-3.071488V626.071655h-7.166805v235.992668c-1.023829 0-2.047659 0-3.071489-0.170639V626.071655h-1.365105c-7.508082 0-13.48042 6.142976-13.48042 13.48042 0 3.071488 1.023829 6.142976 3.071488 8.531911l0.511914 0.682553-0.511914 0.682553c-1.87702 2.388935-3.071488 5.460423-3.071488 8.531911 0 3.071488 1.023829 6.142976 3.071488 8.531912l0.511914 0.682552-0.511914 0.682553c-1.87702 2.388935-3.071488 5.460423-3.071488 8.531912 0 3.071488 1.023829 6.142976 3.071488 8.531911l0.511914 0.682553-0.511914 0.682553c-1.87702 2.388935-3.071488 5.460423-3.071488 8.531911 0 3.071488 1.023829 6.142976 3.071488 8.531912l0.511914 0.682552-0.511914 0.682553c-1.87702 2.388935-3.071488 5.460423-3.071488 8.531912 0 3.071488 1.023829 6.142976 3.071488 8.531911l0.511914 0.682553-0.511914 0.682553c-1.87702 2.388935-3.071488 5.460423-3.071488 8.531911 0 3.071488 1.023829 6.142976 3.071488 8.531912l0.511914 0.682552-0.511914 0.682553c-1.87702 2.388935-3.071488 5.460423-3.071488 8.531912 0 3.071488 1.023829 6.142976 3.071488 8.531911l0.511914 0.682553-0.511914 0.682553c-1.87702 2.388935-3.071488 5.460423-3.071488 8.531911 0 3.071488 1.023829 6.142976 3.071488 8.531912l0.511914 0.682552-0.511914 0.682553c-1.87702 2.388935-3.071488 5.460423-3.071488 8.531912 0 3.071488 1.023829 6.142976 3.071488 8.531911l0.511914 0.682553-0.511914 0.682553c-1.87702 2.388935-3.071488 5.460423-3.071488 8.531911 0 3.071488 1.023829 6.142976 3.071488 8.531912l0.511914 0.682553-0.511914 0.682552c-1.87702 2.388935-3.071488 5.460423-3.071488 8.531912 0 3.071488 1.023829 6.142976 3.071488 8.531911l0.511914 0.682553-0.511914 0.682553c-1.87702 2.388935-3.071488 5.460423-3.071488 8.531911 0 3.071488 1.023829 6.142976 3.071488 8.531912l0.511914 0.682553-0.511914 0.682552c-1.87702 2.388935-3.071488 5.460423-3.071488 8.531912-0.682553 0-1.535744 0-2.218297-0.170638 0-3.242126 1.023829-6.484253 2.90085-9.043826-1.87702-2.730212-2.90085-5.972338-2.90085-9.214465 0-3.242126 1.023829-6.484253 2.90085-9.214464-1.87702-2.730212-2.90085-5.972338-2.90085-9.214464 0-3.242126 1.023829-6.484253 2.90085-9.214464-1.87702-2.730212-2.90085-5.972338-2.90085-9.214465 0-3.242126 1.023829-6.484253 2.90085-9.214464-1.87702-2.730212-2.90085-5.972338-2.90085-9.214464 0-3.242126 1.023829-6.484253 2.90085-9.214465-1.87702-2.730212-2.90085-5.972338-2.90085-9.214464 0-3.242126 1.023829-6.484253 2.90085-9.214464-1.87702-2.730212-2.90085-5.972338-2.90085-9.214464 0-3.242126 1.023829-6.484253 2.90085-9.214465-1.87702-2.730212-2.90085-5.972338-2.90085-9.214464 0-3.412765 1.023829-6.654891 2.90085-9.214464-1.87702-2.730212-2.90085-5.972338-2.90085-9.214464 0-3.242126 1.023829-6.484253 2.90085-9.214465-1.87702-2.730212-2.90085-5.972338-2.90085-9.214464 0-3.242126 1.023829-6.484253 2.90085-9.214464-1.87702-2.730212-2.90085-5.972338-2.90085-9.214464 0-3.242126 1.023829-6.484253 2.90085-9.214465-1.87702-2.730212-2.90085-5.972338-2.90085-9.214464 0-3.242126 1.023829-6.484253 3.071488-9.214464z" fill="#E2E2E2" /><path d="M508.331278 713.950342c0 6.484253-5.289785 11.774038-11.774038 11.774037-6.484253 0-11.774038-5.289785-11.774037-11.774037 0-6.484253 5.289785-11.774038 11.774037-11.774038 6.484253 0 11.774038 5.289785 11.774038 11.774038z" fill="#383838" /><path d="M562.423596 635.798034c0.170638 2.730212 0.170638 5.460423 0.170638 8.190635 0 54.774871-30.032328 99.14081-67.231461 99.140809-37.199133 0-67.231461-44.365939-67.231462-99.140809 0-4.77787 0.170638-9.555741 0.682553-14.162973-33.445092 55.116147-55.7987 143.506749-55.7987 208.178637 0 5.289785 0.682553 10.238294 2.047659 15.016164 17.917014 3.242126 61.088485 9.555741 123.542076 9.55574 58.528912 0 96.23996-5.631061 113.645059-8.873188 1.365106-4.948509 2.218297-10.238294 2.218297-15.698716 0.170638-62.624229-20.476587-146.919513-52.044659-202.206299z" fill="#EA6A47" /><path d="M526.930845 605.936344c0 9.214464-7.67872 16.722546-17.234461 16.722546h-37.369772c-9.555741 0-17.234461-7.508082-17.234461-16.722546v-36.175304c0-9.214464 7.67872-16.722546 17.234461-16.722546h37.369772c9.555741 0 17.234461 7.508082 17.234461 16.722546v36.175304z" fill="#FFCEA1" /><path d="M509.696384 553.038494h-37.369772c-9.555741 0-17.234461 7.508082-17.234461 16.722546v16.893184c11.774038 1.535744 23.718714 2.388935 36.004666 2.388935 12.285952 0 24.230628-0.853191 36.004666-2.388935v-16.893184c-0.170638-9.214464-7.849358-16.722546-17.405099-16.722546z" fill="#FFA669" /><path d="M486.148309 873.83836c-5.119147 9.214464-16.722546 12.797867-26.107649 8.019997l-90.43826-47.608065c-9.214464-4.948509-12.627229-16.38127-7.508082-25.595734l61.771038-111.597401c5.119147-9.214464 16.893184-12.797867 26.107648-8.019997l90.438261 47.608066c9.214464 4.948509 12.627229 16.38127 7.508082 25.595734l-61.771038 111.5974z" fill="#2697BF" /><path d="M483.588735 873.155807c-4.948509 9.043826-16.38127 12.627229-25.254457 7.849359l-87.537411-46.072321c-8.873188-4.77787-12.115314-15.869355-7.166805-24.913182l60.064656-108.69655c4.948509-9.043826 16.38127-12.627229 25.254457-7.849359l87.537411 46.072322c8.873188 4.77787 12.115314 15.869355 7.166805 24.913181l-60.064656 108.69655z" fill="#FFFFFF" /><path d="M481.029162 883.223463c-5.119147 9.214464-16.551908 12.968505-25.595734 8.190635L360.387935 841.246459c-6.996167-5.8017-5.631061-12.456591-0.511914-21.671055l61.6004-111.5974c5.119147-9.214464 16.551908-12.968505 25.595734-8.190635l88.390601 46.413598c9.043826 4.77787 12.115314 16.210632 6.996168 25.425095l-61.429762 111.597401z" fill="#27AAE1" /><path d="M440.075987 697.73971l-3.071488-10.408932-7.166805 2.730212-4.607232 5.119147-4.436594 7.849358v0.511915c-0.682553 0.853191-1.365106 1.87702-1.877021 2.90085l-61.771038 111.426762c-5.119147 9.214464-3.242126 18.940843 3.412765 23.206799l79.517413-143.336111z" fill="#2697BF" /><path d="M729.137144 209.031828c0 60.747209-48.973171 109.891018-109.208465 109.891018s-109.208465-49.143809-109.208466-109.891018c0-60.747209 48.973171-109.891018 109.208466-109.891018s109.208465 49.314448 109.208465 109.891018z" fill="#932A34" /><path d="M599.281453 124.907182c-1.023829 29.349775 24.401266 60.235294 45.560407 77.640393 10.750208 8.873188 24.401266 15.186802 38.564239 13.309782 14.333611-1.87702 22.694884-13.992335 23.548075-27.643393 1.535744-25.083819-22.18297-71.497417-53.068488-58.528912-10.920847 4.607232-12.285952 19.452758-8.361273 29.179137 4.607232 11.603399 15.186802 18.940843 27.814031 16.38127 7.337444-1.535744 5.119147-12.968505-2.218297-11.432761-19.964673 4.095317-21.329778-34.980837 1.194467-22.353608 14.845526 8.190635 35.151475 47.608065 16.210632 60.235294-17.405099 11.603399-39.588069-9.726379-50.338277-21.500416-12.115314-13.48042-27.814031-34.810198-27.131478-54.092318 0-7.849358-11.603399-8.873188-11.774038-1.194468z" fill="#7F212D" /><path d="M705.930345 363.630062c0 112.62123-96.410598 203.912681-215.174804 203.912681-118.934844 0-215.174804-91.291451-215.174804-203.912681S371.991335 159.71738 490.755541 159.71738s215.174804 91.291451 215.174804 203.912682z" fill="#993035" /><path d="M362.264956 446.56024c0 28.325946-22.694884 51.191468-50.679554 51.191468s-50.679553-22.865522-50.679553-51.191468 22.694884-51.191468 50.679553-51.191468 50.679553 22.865522 50.679554 51.191468z" fill="#FFC28F" /><path d="M362.264956 446.56024c0-28.325946-22.694884-51.191468-50.679554-51.191468-11.774038 0-22.694884 4.095317-31.397433 11.091485 0 0 4.095317 63.818697 39.758707 90.779536 24.05999-4.095317 42.31828-25.254458 42.31828-50.679553z" fill="#FFA669" /><path d="M620.269955 445.536411c-0.682553 28.325946 21.500417 51.703383 49.485086 52.385935 27.984669 0.682553 51.191468-21.841693 51.703383-50.167638 0.682553-28.325946-21.500417-51.703383-49.485086-52.385936-27.984669-0.682553-51.02083 21.841693-51.703383 50.167639z" fill="#FFC28F" /><path d="M620.269955 445.536411c0.682553-28.325946 23.718714-50.850192 51.703383-50.167639 11.944676 0.170638 22.694884 4.607232 31.226795 11.774038 0 0-5.460423 63.818697-41.635727 89.926345-24.05999-4.607232-41.806366-26.107649-41.294451-51.532744z" fill="#FFA669" /><path d="M693.985669 391.956007c0 100.335277-91.120813 181.729712-203.400766 181.729712-112.279953 0-203.230128-81.394434-203.230129-181.729712s90.950175-181.729712 203.230129-181.729711c112.450592-0.170638 203.400767 81.223796 203.400766 181.729711z" fill="#FFCEA1" /><path d="M375.062823 421.305782c5.460423 0.170638 1.365106 7.508082-4.095318 7.337444-5.8017-0.170638-10.920847-2.388935-15.016164-6.484252-3.924679-3.924679 2.047659-9.897017 5.972338-6.142977 2.388935 2.559573 9.555741 5.289785 13.139144 5.289785zM608.325279 428.643226c5.8017-0.170638 10.920847-2.388935 15.016164-6.484252 3.924679-3.924679-2.047659-9.897017-5.972338-6.142977-2.388935 2.388935-9.555741 5.119147-13.139143 5.289785-5.460423 0.170638-1.365106 7.508082 4.095317 7.337444z" fill="#754C29" /><path d="M363.118147 438.710882a26.448925 21.500417 90 1 0 43.000833 0 26.448925 21.500417 90 1 0-43.000833 0Z" fill="#754C29" /><path d="M573.003166 438.710882a26.448925 21.500417 90 1 0 43.000833 0 26.448925 21.500417 90 1 0-43.000833 0Z" fill="#754C29" /><path d="M592.967839 430.349608a6.996167 6.825529 90 1 0 13.651058 0 6.996167 6.825529 90 1 0-13.651058 0Z" fill="#F1F2F2" /><path d="M386.495584 430.349608c0 3.754041-3.071488 6.996167-6.825529 6.996168s-6.825529-3.071488-6.825529-6.996168c0-3.754041 3.071488-6.996167 6.825529-6.996167 3.754041 0.170638 6.825529 3.242126 6.825529 6.996167z" fill="#F1F2F2" /><path d="M653.032495 472.155974c0 7.849358-12.285952 14.333611-27.472755 14.333611-15.186802 0-27.472755-6.484253-27.472754-14.333611 0-7.849358 12.285952-14.333611 27.472754-14.333611 15.186802 0 27.472755 6.484253 27.472755 14.333611z" fill="#FFB883" /><path d="M323.35944 472.155974a27.472755 14.333611 0 1 0 54.945509 0 27.472755 14.333611 0 1 0-54.945509 0Z" fill="#FFB883" /><path d="M545.530412 497.922346c0 19.111481-23.889352 34.63956-53.239127 34.63956s-53.239127-15.528079-53.239127-34.63956h106.478254z" fill="#FFA669" /><path d="M545.530412 491.438094c0 19.111481-23.889352 34.63956-53.239127 34.63956s-53.239127-15.528079-53.239127-34.63956h106.478254z" fill="#A4493A" /><path d="M447.242793 491.438094c0.511915 10.238294 20.817864 18.428929 45.901683 18.428928s45.389768-8.190635 45.901683-18.428928h-91.803366z" fill="#FBFFFF" /><path d="M658.32228 396.904516c-13.139143-27.472755-40.953174-46.413598-73.033162-46.413598-44.024663 0-79.85869 35.663389-81.053157 79.85869-14.845526-5.631061-27.984669-2.90085-35.834028 0.170639-1.194468-44.195301-37.028495-79.85869-81.053158-79.858691-31.568072 0-58.870188 18.25829-72.350608 44.877854-5.631061 11.262123-8.873188 23.889352-8.873188 37.369772 0 23.889352 10.238294 45.560407 26.448925 60.57657 14.504249 13.309782 33.615731 21.500417 54.774871 21.500417 19.794034 0 38.052325-7.337444 52.215298-19.28212 1.535744-1.365106 3.071488-2.730212 4.607232-4.265955 12.968505-12.968505 21.671055-30.202966 23.889352-49.485086 5.119147-2.559573 19.964673-8.531911 36.857857 0 2.047659 19.28212 10.920847 36.687219 23.889351 49.485086 2.388935 2.218297 4.77787 4.436594 7.337444 6.484252 2.218297 1.706382 4.436594 3.242126 6.825529 4.777871 0.682553 0.511915 1.365106 0.853191 2.047659 1.194467 11.944676 6.996167 25.766372 10.920847 40.611898 10.920847 22.865522 0 43.512748-9.726379 58.358274-25.08382 14.162973-14.845526 22.865522-34.810198 22.865522-56.993167-0.511915-12.797867-3.412765-24.913181-8.531911-35.834028z m-271.144143 107.672721c-17.234461 0-33.274454-6.313614-45.560407-16.722546-1.194468-1.023829-2.218297-1.87702-3.242126-2.90085-5.289785-5.119147-9.897017-11.091485-13.48042-17.575737-5.631061-10.238294-8.70255-22.012331-8.702549-34.468922 0-12.968505 3.412765-25.083819 9.214464-35.492751 12.285952-21.671055 35.322113-36.345942 61.771038-36.345943 39.076154 0 70.985502 32.250625 70.985502 71.838694 0 39.41743-31.909348 71.668055-70.985502 71.668055z m261.75904-39.929345c-3.412765 6.996167-7.849358 13.309782-13.309782 18.770205-0.853191 0.853191-1.706382 1.706382-2.730211 2.559573-12.627229 11.603399-29.349775 18.770205-47.778704 18.770205-14.674888 0-28.325946-4.607232-39.758707-12.285952-0.511915-0.341276-0.853191-0.511915-1.194467-0.853191-18.087652-12.968505-30.032328-34.468922-30.032328-58.69955 0-39.588069 31.909348-71.838694 70.985502-71.838694 27.643393 0 51.703383 16.210632 63.477421 39.588069 4.77787 9.726379 7.508082 20.647225 7.508082 32.250625 0.170638 11.262123-2.559573 22.012331-7.166806 31.73871z" fill="#994C2E" /><path d="M688.354608 306.807532c-13.48042-28.496584-26.448925-44.707215-44.707216-64.330611-18.25829-19.794034-32.250625-26.619563-65.183803-45.219131-32.933178-18.599567-105.795701-15.869355-105.7957-15.869355s-42.488919-0.682553-94.192302 28.667222c-51.703383 29.349775-79.517414 73.374438-91.120813 118.252292-11.603399 44.877854 0 73.203799 0 73.203799 19.111481-47.949342 121.323779-72.862523 183.094818-88.390602 84.124646-21.15914 142.141643-18.428929 159.034827-16.893184 6.825529 69.620397 63.989335 110.061656 63.989335 110.061656h8.873188v-31.397433c0 0.170638-0.511915-39.41743-13.992334-68.084653z" fill="#993035" /><path d="M302.370938 482.394268c0 4.095317-3.242126 7.337444-7.166805 7.337443-3.924679 0-7.166806-3.242126-7.166806-7.337443 0-3.924679 3.242126-7.337444 7.166806-7.337444 3.924679 0 7.166806 3.242126 7.166805 7.337444z" fill="#FFFFFF" /><path d="M695.692051 482.394268c0 4.095317-3.242126 7.337444-7.166805 7.337443-3.924679 0-7.166806-3.242126-7.166806-7.337443 0-3.924679 3.242126-7.337444 7.166806-7.337444 3.924679 0 7.166806 3.242126 7.166805 7.337444z" fill="#FFFFFF" /><path d="M534.438927 598.086986l-42.659557 29.179136-42.659557-29.179136c-11.774038 6.654891-22.865522 15.869355-33.103816 27.131478 0 11.774038 24.401266 31.909348 44.195301 31.909348 13.651058 0 25.425096-4.436594 31.568072-10.920846 6.142976 6.484253 17.917014 10.920847 31.568072 10.920846 19.964673 0 44.365939-20.305949 44.365939-31.909348-10.408932-11.262123-21.500417-20.476587-33.274454-27.131478z"  /><path d="M534.438927 590.408265l-42.659557 29.179137-42.659557-29.179137c-11.774038 6.654891-22.865522 15.869355-33.103816 27.131478 0 11.774038 24.401266 31.909348 44.195301 31.909349 13.651058 0 25.425096-4.436594 31.568072-10.920847 6.142976 6.484253 17.917014 10.920847 31.568072 10.920847 19.964673 0 44.365939-20.305949 44.365939-31.909349-10.408932-11.262123-21.500417-20.476587-33.274454-27.131478z" fill="#FFFFFF" /><path d="M424.547909 731.184803s8.873188-4.436594 29.008498-3.583403c0 0 26.107649-0.853191 34.468922 13.821696 0 0 1.87702 10.408932-9.214464 14.504249 0 0-17.063823 5.631061-23.206799 0.853192 0 0-0.341276 5.631061 14.845526 9.385102 15.016164 3.754041 26.790202-0.511915 26.790201-0.511915s26.619563-1.706382 18.087652 15.698717c-2.90085 5.8017-28.667222 16.039993-40.099983 9.726379 3.242126 2.559573 38.222963 0.341276 42.31828 10.57957 1.706382 4.095317 2.730212 20.647225-38.393601 13.309782 0 0 28.155307 3.071488 29.691052 11.432761 2.388935 12.797867-21.15914 17.234461-43.854025 5.289785 0 0-6.484253-3.754041-15.869355-9.214464 0 0 27.814031 12.797867 30.373605 19.452758 4.77787 12.456591-10.750208 12.627229-18.087652 9.555741 0 0-34.980837-13.651058-47.096151-24.05999 0 0-17.917014-13.139143-23.036161-18.258291 0 0-13.48042-12.285952-13.309781-23.548075 0 0 0-18.940843 16.551908-33.103816-0.170638-0.341276 11.944676-14.845526 30.032328-21.329778z" fill="#FFCEA1" /><path d="M409.01983 738.18097l-83.954008-17.746376s-18.428929-2.730212-24.913181 15.357441c0 0-8.873188 28.667222 9.897017 33.445092l75.934011 31.226796c0.170638 0-6.142976-29.179137 23.036161-62.282953z" fill="#FFFFFF" /></svg>