<?xml version="1.0" standalone="no"?><!DOCTYPE svg PUBLIC "-//W3C//DTD SVG 1.1//EN" "http://www.w3.org/Graphics/SVG/1.1/DTD/svg11.dtd"><svg class="icon" width="48px" height="48.00px" viewBox="0 0 1024 1024" version="1.1" xmlns="http://www.w3.org/2000/svg"><path d="M1024 512c0 247.125333-175.104 453.461333-408.064 501.418667-7.850667 1.706667-15.872 3.072-23.893333 4.266666-0.341333 0-0.682667 0.170667-0.853334 0.170667-3.072 0.512-6.144 0.853333-9.386666 1.365333-0.341333 0-0.682667 0.170667-1.024 0.170667-1.536 0.170667-3.072 0.341333-4.608 0.682667l-13.824 1.536c-8.704 0.853333-17.408 1.536-26.282667 1.877333-1.194667 0-2.389333 0.170667-3.413333 0.170667H529.749333c-1.536 0-2.901333 0.170667-4.437333 0.170666-1.877333 0-3.584 0-5.461333 0.170667H506.538667c-4.266667 0-8.362667-0.170667-12.458667-0.341333h-1.365333c-2.218667 0-4.608-0.170667-6.826667-0.341334-0.853333 0-1.536 0-2.389333-0.170666-3.072-0.170667-6.144-0.341333-9.386667-0.512-3.754667-0.341333-7.68-0.512-11.434667-1.024-10.410667-1.024-20.650667-2.218667-30.890666-3.925334-1.536-0.170667-2.901333-0.512-4.437334-0.682666-4.778667-0.853333-9.386667-1.706667-14.165333-2.56-2.048-0.341333-4.096-0.853333-6.314667-1.194667C174.762667 964.949333 0 758.784 0 512 0 229.205333 229.205333 0 512 0s512 229.205333 512 512z" fill="#FFFFFF" /><path d="M758.101333 668.672l-16.896-9.557333L880.64 414.890667l8.704 4.949333z" fill="#994C2E" /><path d="M735.232 672.085333c-0.170667-0.170667-0.170667-0.512-0.341333-0.682666-1.024-2.56-2.048-4.949333-2.901334-7.509334-2.56-7.509333-3.242667-14.848-0.341333-21.333333 4.608-10.581333 12.629333-17.237333 23.210667-20.138667 5.802667-1.536 11.434667 0.682667 15.701333 6.485334 2.901333 3.754667 4.437333 8.021333 6.144 12.458666 1.706667 4.778667 1.194667 8.874667-0.682667 12.8-2.048 4.437333-5.290667 7.509333-9.045333 10.069334-7.850667 5.461333-16.725333 8.362667-25.941333 10.922666-2.389333 0.682667-4.096 0.512-5.461334-2.389333 0-0.512-0.170667-0.512-0.341333-0.682667z" fill="#FECAA7" /><path d="M601.429333 813.738667V843.434667c-0.170667 1.706667-0.512 3.242667-0.512 4.949333-0.682667 19.626667-2.389333 39.082667-5.461333 58.368-2.56 15.701333-5.290667 31.232-8.533333 46.762667-3.072 14.165333-6.485333 40.789333-10.752 66.389333l-13.824 1.536c-8.704 0.853333-17.408 1.536-26.282667 1.877333-1.194667 0-2.389333 0.170667-3.413333 0.170667H529.749333c-1.536-65.877333-7.68-151.210667-11.946666-161.962667-0.341333-0.682667-0.512-1.365333-1.024-2.389333-0.341333 0.853333-0.682667 1.194667-0.853334 1.706667-1.706667 4.266667-1.024 95.573333 0.682667 162.986666h-10.069333c-4.266667 0-8.362667-0.170667-12.458667-0.341333h-1.365333c-2.218667 0-4.608-0.170667-6.826667-0.341333-0.853333 0-1.536 0-2.389333-0.170667-3.072-0.170667-6.144-0.341333-9.386667-0.512-3.754667-0.341333-7.68-0.512-11.434667-1.024-7.509333-33.962667-13.141333-72.874667-16.896-95.402667-3.584-20.48-5.632-40.96-6.144-61.781333-0.170667-3.925333-0.341333-7.850667-0.512-11.946667V849.92c0-0.512 0.170667-1.024 0.170667-1.536 0.170667-2.048 0.170667-4.266667 0.341333-6.314667 0-0.853333 0-1.536 0.170667-2.389333l1.024-20.992c0-1.536 0.341333-3.072 0.512-4.608 0.170667-0.853333 0.170667-1.877333 0.341333-2.730667 0-0.512 0.512-0.853333 0.853334-1.024 3.925333-0.341333 7.68-0.682667 11.605333-1.024 12.117333-1.024 24.064-2.048 36.181333-3.072 0.512 0 0.853333 0 1.365334-0.170666 16.042667-1.365333 31.914667-2.730667 47.957333-4.266667 1.877333-0.170667 3.584-0.341333 5.461333-0.512 14.677333-1.194667 29.354667-2.56 44.032-3.754667 2.389333-0.170667 4.949333-0.512 7.338667-0.853333 1.536 1.536 2.389333 2.218667 3.925333 3.754667l0.170667 0.170666c0 1.536 0.170667 3.242667 0.170667 4.949334 0 0.853333 0 1.706667 0.170666 2.56 0 0.853333 0.170667 1.706667 0.170667 2.56 0.170667 1.365333 0.170667 2.218667 0.341333 3.072z"  /><path d="M439.637333 842.410667c0.341333-3.242667 0.512-6.144 0.853334-9.045334 0-1.024 0.512-1.194667 1.365333-1.024 6.997333 1.024 13.824 2.218667 20.821333 3.072 15.018667 1.877333 30.037333 2.389333 45.056 2.048 17.237333-0.341333 34.304-1.877333 51.2-4.608 13.653333-2.218667 27.306667-4.949333 40.618667-8.704 0.170667 0 0.341333 0 1.024-0.170666 0.170667 4.266667 0.170667 8.362667 0.170667 12.458666 0 0.341333-0.682667 0.853333-1.194667 1.024-6.314667 1.536-12.458667 3.413333-18.773333 4.437334-11.264 1.877333-22.528 3.413333-33.792 4.608-9.045333 0.853333-18.090667 1.024-26.965334 1.365333-22.698667 0.682667-45.397333-1.194667-68.096-3.754667-3.925333-0.512-8.021333-1.194667-12.288-1.706666z" fill="#5A5A5A" /><path d="M330.069333 719.018667v-5.12c0.682667-3.413333 1.194667-6.826667 2.048-10.069334 5.12-23.210667 15.189333-43.008 29.525334-59.904 13.653333-16.213333 29.696-28.501333 47.274666-38.4 15.701333-8.874667 32.085333-15.530667 48.981334-20.309333 4.266667-1.194667 8.533333-2.389333 12.8-2.901333 9.557333-1.024 19.114667-1.706667 28.672-2.389334 14.677333-1.194667 29.525333-2.56 44.202666-3.754666h1.365334c-0.341333 1.365333-0.512 2.389333-0.853334 3.754666 0.512 0 0.853333 0.170667 1.024 0.170667 6.314667 0.512 12.629333 0.853333 18.773334 1.536 5.802667 0.512 11.605333 1.536 17.408 2.048 7.68 0.512 15.189333 2.730667 22.528 5.632 5.461333 2.218667 11.605333 4.266667 18.773333 12.8 13.653333 15.872 30.549333 68.437333 41.130667 85.333333 17.92-2.048 61.269333-43.349333 66.389333-43.178666 2.389333 0.170667 30.72 23.04 30.037333 26.453333-0.170667 0.682667-0.170667 1.365333-0.341333 1.877333-2.901333 13.482667-51.712 58.88-70.656 71.68-28.501333 20.992-38.912 19.968-53.76 7.338667-10.581333-8.362667-35.328-81.066667-43.861333-82.432-1.194667-0.170667-1.877333-2.901333-2.048-1.536-0.170667 2.048-0.341333 7.338667-0.170667 9.386667 0.682667 4.778667 1.706667 6.314667 2.389333 11.093333 2.048 15.018667 2.048 22.528 3.925334 37.546667 1.877333 14.165333 3.754667 70.314667 5.632 84.309333 0.170667 1.194667-0.170667 1.706667-1.024 2.218667l-10.752 6.144c-15.701333 8.362667-32.085333 14.165333-49.152 16.896-8.362667 1.365333-16.896 2.048-25.258667 2.218666-10.922667 0.170667-21.674667-1.194667-32.426667-3.584-13.141333-2.901333-25.770667-7.338667-37.888-13.824-3.584-1.877333-3.584-1.877333-3.072-6.485333 1.024-10.922667 2.218667-64 3.242667-75.093333 1.024-10.581333 2.048-21.162667 3.072-31.573334 1.024-10.581333 2.048-21.333333 3.242667-31.914666 0.341333-3.925333 0.682667-7.68 1.194666-11.946667-1.194667 0.170667-2.218667 0.170667-3.242666 0.512-14.506667 6.314667-27.989333 14.848-39.765334 26.965333-6.997333 7.338667-12.8 15.701333-16.554666 25.941334-3.242667 9.216-4.608 18.602667-2.901334 28.672 0 0.512-0.341333 1.365333-0.853333 1.706666-14.165333 9.386667-28.330667 18.773333-42.666667 28.330667-0.853333 0.512-1.365333 0.512-1.877333-0.512-1.536-2.56-3.242667-5.12-4.437333-8.021333-4.949333-11.605333-6.997333-24.234667-8.704-37.034667-0.512-3.584-0.853333-7.168-1.365334-10.581333z"  /><path d="M484.010667 663.381333c-0.341333 1.536-0.682667 2.901333-0.853334 4.437334-2.048 15.36-3.925333 30.890667-5.973333 46.250666-2.730667 20.309333-5.290667 40.448-8.192 60.757334-0.170667 1.706667-1.706667 3.242667-2.901333 4.608-3.242667 3.413333-6.826667 5.802667-11.434667 4.949333-0.341333 0-0.853333 0-1.194667-0.341333-2.56-2.218667-5.632-2.048-8.533333-2.56-9.045333-1.706667-18.090667-3.242667-27.306667-4.949334-13.824-2.56-27.648-5.461333-41.301333-8.021333-4.096-0.853333-8.362667-1.536-12.458667-2.218667-1.024-0.170667-2.218667 0-3.242666 0 0-0.170667-0.170667-0.341333-0.170667-0.512 0.341333-0.341333 0.682667-0.682667 1.024-0.853333 8.362667-5.632 16.896-11.264 25.258667-16.896 0.170667-0.170667 0.341333-0.170667 0.512-0.341333 2.56-1.365333 2.730667-1.365333 2.218666-4.437334-1.536-13.312 1.536-25.258667 7.509334-36.352 6.144-11.093333 14.336-19.626667 23.722666-26.624 5.461333-4.096 11.264-7.68 17.066667-11.264 6.314667-3.925333 12.629333-7.509333 19.114667-11.264 0.682667-0.341333 1.536-0.512 2.389333-0.341333 8.192 1.365333 16.554667 2.901333 24.746667 4.437333v1.536zM338.090667 761.685333h-1.024c-8.704-1.536-17.237333-3.072-25.941334-4.608-1.194667-0.170667-1.536-0.682667-1.365333-2.218666 1.365333-10.581333 2.901333-21.333333 4.266667-31.914667 1.365333-10.581333 2.730667-21.162667 4.096-31.573333 1.194667-9.216 2.389333-18.261333 3.584-27.477334l3.584-27.648c0.170667-1.024 0.341333-2.048 0.512-3.242666 12.970667 2.389333 25.770667 4.778667 39.082666 7.168-0.512 0.682667-0.853333 1.194667-1.365333 1.706666-11.264 12.970667-20.309333 27.648-26.453333 44.885334-3.242667 9.216-5.632 18.773333-6.826667 28.672-0.341333 2.56 0.170667 5.290667 0.512 7.850666 1.536 12.970667 3.413333 25.941333 7.338667 38.229334v0.170666z" fill="#00C51C" /><path d="M404.309333 760.661333c1.365333 0.853333 2.730667 1.877333 4.096 2.901334 4.096 3.072 8.021333 6.485333 10.24 11.776 3.072 7.168 0.170667 13.994667-3.925333 18.090666-0.170667 0.170667-0.512 0.341333-0.853333 0.512-7.338667 2.389333-14.677333 2.048-22.016-0.512-12.288-4.266667-21.504-13.653333-29.184-25.6-2.048-3.072-1.877333-3.242667 1.024-5.12 6.826667-4.437333 13.824-8.704 20.650666-13.141333 2.389333-1.536 5.12-2.389333 7.68-2.730667 2.901333-0.512 5.802667-0.682667 8.704-1.024 0.512 0 1.194667 0 1.536 0.341334 2.901333 3.072 5.632 5.973333 7.509334 10.069333 1.024 2.218667 0.170667 3.754667-1.877334 3.925333h-3.584v0.512z" fill="#FECAA7" /><path d="M526.336 573.610667h3.413333c5.12 2.218667 10.24 4.266667 15.36 6.485333v-0.682667c0.512-0.170667 1.024-0.682667 1.536-0.512 2.901333 0.170667 5.802667 0.682667 8.704 0.853334 1.024 0 1.365333 0.682667 1.536 1.536 0.341333 2.048 0.853333 4.096 1.194667 6.144l13.312 54.272c0.512 2.218667 1.194667 4.266667 1.877333 6.485333v0.682667l-1.536-0.512c-8.021333-4.096-16.042667-8.021333-24.064-12.288-1.024-0.512-1.536-0.512-2.218666 0.682666-2.218667 4.096-4.608 8.192-6.826667 12.288-0.341333 0.512-0.341333 1.536-0.170667 2.389334 1.536 6.826667 3.242667 13.653333 4.437334 20.650666 1.194667 7.338667 1.706667 14.677333 2.901333 22.016 1.706667 10.922667 2.389333 21.845333 2.048 32.938667-0.341333 12.288-0.853333 24.576-1.706667 36.864-0.512 8.704-1.706667 59.392-2.56 68.096-0.170667 1.536-0.682667 2.048-1.877333 2.218667-4.949333 0.682667-9.898667 1.706667-14.677333 1.877333-9.557333 0.170667-19.114667-0.170667-28.672-0.341333-0.682667 0-1.536-0.682667-1.877334-1.194667-1.024-2.389333-2.048-4.778667-2.56-7.168-3.072-11.605333-4.266667-65.536-5.290666-77.482667-1.536-18.261333-2.901333-36.352-2.730667-54.784 0.170667-13.824 1.365333-27.648 3.754667-41.130666 0.170667-0.682667 0-1.536-0.170667-2.218667l-7.168-15.36c-0.341333-0.853333-0.853333-1.194667-1.706667-0.853333l-20.48 8.192c-1.365333 0.512-2.730667 1.024-4.437333 1.706666 0.170667-0.853333 0.170667-1.536 0.341333-2.048 0.512-2.56 1.194667-5.12 1.706667-7.509333 4.266667-18.773333 9.557333-37.034667 16.042667-54.784 0.512-1.536 1.194667-2.048 2.56-2.218667 16.042667-1.536 31.914667-3.072 47.957333-4.608 0.853333-0.170667 1.536-0.512 2.048-0.682666z" fill="#FFFFFF" /><path d="M539.136 539.648h2.56c2.56 10.922667 4.437333 22.016 5.802667 33.109333 0.341333 2.218667 0.682667 4.266667 1.024 6.314667v2.218667c-0.341333 0.512-0.682667 0.853333-1.024 1.536-6.144 11.605333-13.141333 22.016-21.504 31.402666-0.853333 1.024-1.706667 1.536-2.901334 1.536-4.778667 0.170667-9.728 0.512-14.506666 0.853334-1.877333 0.170667-3.242667-0.512-4.608-2.218667-8.021333-9.557333-14.848-20.138667-21.504-30.890667-0.341333-0.682667-1.024-1.194667-1.536-1.706666v-2.218667c0.170667-0.512 0.512-1.024 0.512-1.536 1.194667-9.216 2.218667-18.432 3.413333-27.648 0.512-4.437333 0.512-4.437333 4.266667-4.949333 14.848-1.706667 29.696-3.584 44.544-5.290667 1.706667 0.170667 3.584-0.170667 5.461333-0.512z" fill="#FFD8BD" /><path d="M523.434667 638.464h1.536v0.512c4.266667 19.797333 8.704 39.424 12.970666 59.221333 0.512 2.389333 1.194667 4.608 1.877334 6.997334v1.877333c-0.341333 0.512-0.682667 1.194667-1.024 1.706667-5.632 15.36-11.264 30.890667-17.066667 46.250666-0.341333 1.024-0.853333 2.218667-1.365333 3.413334-0.512-0.682667-0.853333-1.024-1.024-1.365334-7.168-10.24-14.506667-20.309333-21.674667-30.549333-1.536-2.218667-3.242667-4.437333-4.949333-6.656v-1.877333c0.170667-0.170667 0.170667-0.341333 0.341333-0.682667 2.218667-11.093333 4.608-22.186667 6.826667-33.28 2.730667-13.482667 5.632-27.136 8.362666-40.618667 0.170667-1.024 0.682667-1.536 1.706667-1.706666 2.218667-0.341333 4.608-0.853333 6.826667-1.365334 2.048-0.682667 4.266667-1.194667 6.656-1.877333z" fill="#7B6EB4" /><path d="M503.466667 616.96h25.429333c0 0.170667 0.170667 0.341333 0.170667 0.512 4.608 5.802667 4.266667 12.8 0.682666 19.114667-3.072 5.461333-7.509333 9.045333-11.946666 12.8-0.170667 0.170667-0.682667 0.170667-1.024 0-1.365333-0.512-2.56-1.194667-3.925334-1.706667-4.096-1.877333-8.021333-4.096-11.434666-7.509333-4.949333-5.12-5.632-11.264-2.048-17.578667 1.365333-2.048 2.901333-3.754667 4.096-5.632z" fill="#614576" /><path d="M484.693333 549.717333s10.581333 3.072 29.866667 2.730667c19.456-0.341333 28.842667-5.461333 29.013333-4.437333 0.170667 0.853333 1.024 6.485333 1.024 6.485333s-17.92 6.144-30.208 6.144c-15.36 0-29.866667-4.096-29.866666-4.096l0.170666-6.826667z" fill="#FFA669" /><path d="M329.386667 339.285333v-2.218666l1.536-7.168c1.365333-6.997333 2.730667-13.824 4.266666-20.821334 1.365333-6.997333 2.730667-13.824 4.266667-20.821333 1.365333-6.314667 2.56-12.629333 3.754667-19.114667 0.170667-0.682667 0.512-1.024 1.194666-1.024 4.608-0.170667 9.216-0.170667 13.653334-0.341333 25.941333-0.853333 52.053333-1.536 77.994666-2.389333 21.162667-0.682667 42.496-1.365333 63.658667-1.877334l52.565333-1.536c2.56 0 5.290667-0.170667 7.850667-0.341333 4.778667-0.341333 9.557333-0.853333 14.506667-1.194667 9.557333-0.512 19.285333-1.024 28.842666-1.536 0.341333 0 0.853333-0.170667 1.194667-0.170666h18.944c0.512 0 1.024 0.170667 1.536 0.170666 6.314667 0.341333 12.8 0.682667 18.944 1.877334 3.413333 0.682667 6.656 1.365333 9.557333 3.072 1.706667 0.853333 2.901333 2.218667 3.584 4.096 0.682667 2.218667 1.536 4.437333 2.048 6.826666 1.706667 7.850667 2.730667 15.872 3.242667 23.893334 0.853333 12.629333 1.706667 25.258667 2.389333 37.888 0.512 11.946667 0.682667 24.064 0.853334 36.010666l1.024 67.925334c0 0.341333 0 0.682667 0.170666 0.853333 1.194667-0.341333 2.389333-0.853333 3.584-1.194667 1.194667-0.341333 2.389333-0.512 3.584-0.512 4.949333-0.341333 8.533333 2.389333 9.557334 7.168 0.853333 3.584 0.170667 7.168-1.024 10.581334-1.877333 6.144-4.778667 11.776-8.192 17.237333-2.389333 3.754667-5.12 7.509333-8.533334 10.410667-1.877333 1.706667-3.925333 3.072-6.485333 3.413333-3.925333 0.682667-6.826667-1.194667-9.216-4.266667-0.170667-0.341333-0.512-0.682667-0.682667-1.024-0.341333 0.341333-0.512 0.682667-0.853333 0.853334-9.898667 10.752-20.48 20.650667-31.914667 29.696-16.042667 12.458667-33.450667 22.528-52.565333 29.354666-9.045333 3.242667-18.432 5.632-27.818667 7.168-6.826667 1.024-13.653333 1.706667-20.650666 1.877334-7.68 0.341333-15.36-0.341333-23.04-1.194667-8.533333-1.024-17.066667-2.56-25.258667-4.778667-15.189333-4.096-29.866667-9.898667-43.690667-17.408-16.725333-8.874667-32.256-19.285333-46.250666-32.085333-0.170667-0.170667-0.341333-0.341333-0.512-0.341333h-0.170667l-0.682667 0.682666c-2.048 2.218667-4.437333 3.584-7.338666 4.096-3.925333 0.682667-7.509333 0-10.922667-1.706666-9.386667-4.437333-16.042667-11.605333-20.309333-20.992-1.536-3.413333-2.56-6.826667-2.389334-10.581334 0.170667-3.242667 1.706667-5.802667 4.949334-6.656 1.877333-0.512 3.925333-0.512 5.973333-0.682666h1.194667c-0.170667-2.218667-0.512-4.266667-0.682667-6.314667-0.512-4.608-0.853333-9.386667-1.536-13.994667-0.853333-5.973333-1.877333-11.946667-2.730667-17.749333-0.853333-5.973333-1.877333-11.776-2.901333-17.749333-1.024-6.656-2.048-13.312-3.242667-19.968-1.024-6.656-2.048-13.482667-3.242666-20.138667-1.024-6.144-1.877333-12.117333-2.901334-18.261333 0.170667-2.218667-0.341333-4.608-0.682666-6.997334z" fill="#FFCEA1" /><path d="M350.72 476.16c0.512 7.168 1.024 14.506667 1.536 22.016-1.024-0.512-1.877333-0.682667-2.56-1.194667-2.389333-1.536-4.778667-3.072-6.997333-4.778666-0.853333-0.512-1.365333-1.536-1.877334-2.218667-1.536-2.218667-1.365333-4.949333 0.170667-7.168 2.389333-3.242667 5.802667-4.949333 9.216-6.656h0.512zM665.941333 480.938667c-3.072-6.485333-5.973333-12.8-9.045333-19.114667-0.170667-0.512-0.341333-0.853333 0.512-1.024 3.584-0.170667 7.338667-0.341333 10.752 1.194667 3.413333 1.536 4.778667 4.437333 3.584 8.533333-1.024 3.754667-3.072 6.997333-5.290667 10.069333-0.170667 0.170667-0.341333 0.170667-0.512 0.341334z" fill="#FFAF7C" /><path d="M530.090667 114.858667c2.389333 0.170667 4.949333 0.341333 7.338666 0.682666 6.485333 1.024 12.970667 1.706667 19.456 3.072 13.824 2.901333 26.965333 7.850667 39.765334 14.165334l1.024 0.512s0.170667 0.170667 0.170666 0.341333c-6.144 5.461333-12.288 10.752-18.432 16.213333 0 0 0 0.170667 0.170667 0.170667 1.365333-0.170667 2.901333-0.341333 4.266667-0.512 8.704-1.024 17.408-0.512 26.112 1.024 21.845333 4.096 40.618667 14.848 57.173333 30.378667 11.605333 10.922667 21.504 23.552 30.037333 37.546666 0.170667 0.170667 0.170667 0.341333 0.341334 0.682667-6.656 1.877333-13.141333 3.925333-19.626667 5.802667 1.194667 2.218667 2.389333 4.266667 3.413333 6.314666 5.973333 11.434667 10.752 23.552 13.482667 36.522667 1.877333 9.045333 2.730667 18.261333 2.218667 27.477333-0.170667 2.901333 0.512 5.802667 0.853333 8.704 0.853333 5.461333 2.048 10.922667 4.437333 15.872 1.194667 2.56 2.901333 5.12 4.266667 7.68-2.389333 1.877333-5.290667 3.584-8.533333 4.608-2.218667 0.682667-4.437333 1.024-6.826667 0.341334-0.853333-0.341333-1.536-0.853333-2.389333-1.194667 0.682667 2.048 1.365333 4.266667 1.877333 6.485333 1.365333 5.973333 1.536 12.117333 1.365333 18.261334-0.341333 8.192-1.706667 16.213333-3.584 24.234666-4.949333 20.650667-13.482667 39.765333-23.04 58.197334-0.170667 0.341333-0.512 0.853333-0.853333 1.194666-0.170667-0.853333-0.170667-1.877333-0.341333-2.730666-1.194667-13.141333-2.218667-26.282667-3.584-39.424-1.024-11.093333-2.218667-22.016-3.754667-33.109334-1.877333-13.824-3.754667-27.477333-5.973333-41.301333-1.877333-11.946667-4.096-23.722667-7.168-35.157333-2.048-8.362667-4.437333-16.554667-8.362667-24.064-0.512-1.024-1.024-2.56-1.877333-2.901334-0.682667-0.341333-1.877333 0.853333-2.901334 1.365334-11.946667 6.997333-24.405333 12.629333-37.205333 17.237333-11.434667 4.266667-23.04 7.509333-34.986667 10.24-9.898667 2.218667-19.797333 3.754667-29.866666 4.949333-16.554667 1.877333-33.28 2.218667-49.834667 1.365334-11.093333-0.682667-22.186667-1.877333-33.109333-3.925334-11.093333-1.877333-22.016-4.437333-32.938667-7.509333-15.530667-4.437333-30.72-9.898667-45.568-16.554667-2.218667-1.024-2.218667-1.024-3.584 1.024-5.290667 8.021333-9.045333 17.066667-12.288 26.282667-3.413333 9.898667-5.973333 20.138667-7.850667 30.549333-4.096 22.869333-4.949333 46.08-3.754666 69.290667 0.682667 12.117333 2.730667 24.405333 4.437333 36.352 0.853333 5.973333 1.365333 11.946667 2.048 17.92 0 0.341333 0 0.853333 0.170667 1.194667h-0.170667c-0.853333-1.877333-1.877333-3.584-2.730667-5.461334-7.509333-17.237333-13.312-35.328-17.92-53.76-3.242667-13.141333-5.632-26.453333-7.338666-39.936-1.194667-9.728-2.048-19.285333-2.389334-29.013333 0-0.682667-0.170667-1.194667-0.170666-1.877333v-19.285334c0-0.341333 0.170667-0.853333 0.170666-1.194666 0.512-6.997333 1.024-13.994667 1.536-21.162667 0.170667-1.706667 0.341333-3.413333 0.682667-5.290667 4.437333 3.242667 8.704 6.314667 12.970667 9.386667v-1.024c-0.341333-3.072-0.682667-5.973333-0.853334-9.045333-1.194667-18.090667-0.853333-36.010667 1.194667-53.930667 1.536-13.141333 4.096-25.770667 8.192-38.229333 0.341333-0.853333 0.512-1.706667 1.024-2.56 5.632 6.997333 11.093333 13.653333 16.554667 20.650666 0-0.341333 0.170667-0.512 0.170666-0.682666 0.170667-4.608 1.194667-8.874667 2.56-13.141334 3.413333-10.069333 9.045333-18.602667 15.872-26.112 8.533333-9.216 18.432-16.384 29.184-22.357333 17.408-9.728 36.010667-16.042667 55.125334-20.821333 0.341333-0.170667 0.853333-0.170667 1.365333-0.341334-1.536 6.656-3.072 13.141333-4.608 19.968 1.194667-0.853333 2.048-1.536 3.072-2.048 15.701333-10.410667 33.109333-15.530667 51.2-17.578666 2.56-0.341333 5.290667-0.512 7.850667-0.682667 4.096-0.341333 7.68-0.341333 11.264-0.341333z" fill="#994925" /><path d="M395.776 392.704a24.576 16.725333 90 1 0 33.450667 0 24.576 16.725333 90 1 0-33.450667 0Z"  /><path d="M560.128 392.704a24.576 16.725333 90 1 0 33.450667 0 24.576 16.725333 90 1 0-33.450667 0Z"  /><path d="M575.658667 376.490667a6.485333 5.290667 90 1 0 10.581333 0 6.485333 5.290667 90 1 0-10.581333 0Z" fill="#F1F2F2" /><path d="M414.037333 376.490667c0 3.584-2.389333 6.485333-5.290666 6.485333-2.901333 0-5.290667-2.901333-5.290667-6.485333 0-3.584 2.389333-6.485333 5.290667-6.485334 2.901333 0 5.290667 2.901333 5.290666 6.485334z" fill="#F1F2F2" /><path d="M560.810667 486.229333c0 19.114667-23.893333 34.645333-53.248 34.645334s-53.248-15.530667-53.248-34.645334h106.496z" fill="#FFA669" /><path d="M560.810667 479.744c0 19.114667-23.893333 34.645333-53.248 34.645333s-53.248-15.530667-53.248-34.645333h106.496z" fill="#994925" /><path d="M462.677333 479.744c0.512 10.24 20.821333 18.432 45.909334 18.432s45.397333-8.192 45.909333-18.432h-91.818667z" fill="#FBFFFF" /><path d="M581.12 319.829333c-36.693333 0-66.56 29.696-67.584 66.56-12.288-4.778667-23.381333-2.389333-29.866667 0.170667-1.024-36.864-30.890667-66.56-67.584-66.56-37.376 0-67.754667 30.72-67.754666 68.437333s30.378667 68.437333 67.754666 68.437334c34.816 0 63.488-26.624 67.242667-60.928 4.266667-2.218667 16.554667-7.168 30.72 0 3.754667 34.133333 32.426667 60.928 67.242667 60.928 37.376 0 67.584-30.72 67.584-68.437334-0.170667-37.888-30.549333-68.608-67.754667-68.608z m-165.205333 128.341334c-32.597333 0-59.221333-26.965333-59.221334-59.904s26.453333-59.904 59.221334-59.904 59.221333 26.965333 59.221333 59.904-26.624 59.904-59.221333 59.904z m165.205333 0c-32.597333 0-59.221333-26.965333-59.221333-59.904s26.453333-59.904 59.221333-59.904c32.597333 0 59.221333 26.965333 59.221333 59.904s-26.624 59.904-59.221333 59.904z"  /></svg>