<?xml version="1.0" standalone="no"?><!DOCTYPE svg PUBLIC "-//W3C//DTD SVG 1.1//EN" "http://www.w3.org/Graphics/SVG/1.1/DTD/svg11.dtd"><svg t="1561001253316" class="icon" style="" viewBox="0 0 1024 1024" version="1.1" xmlns="http://www.w3.org/2000/svg" p-id="8732" xmlns:xlink="http://www.w3.org/1999/xlink" width="48" height="48"><defs><style type="text/css"></style></defs><path d="M430.08 348.16H348.16V266.24H266.24v81.92H184.32v81.92h81.92v81.92h81.92V430.08h81.92zM941.056 791.04l-133.632-133.632c20.48-29.696 32.256-65.536 32.256-104.448 0-101.888-82.944-184.32-184.832-184.832-101.888 0-184.32 82.432-184.32 184.32s82.944 184.32 184.832 184.832c33.28 0 64.512-9.216 91.648-24.576l136.192 136.192 57.856-57.856zM655.36 655.36c-56.32 0-102.4-46.08-102.4-102.4 0-27.136 10.752-53.248 29.696-72.192 19.456-19.456 45.056-30.208 72.192-30.208 56.832 0 102.912 46.08 102.912 102.912 0 27.136-10.752 53.248-29.696 72.192-19.456 19.456-45.056 29.696-72.704 29.696z" fill="#201617" p-id="8733"></path><path d="M678.4 772.608c-70.656 62.976-131.584 100.352-166.4 119.296-54.272-29.184-172.544-104.448-292.864-251.904C81.92 470.528 81.92 395.264 81.92 354.816 81.92 226.816 184.832 122.88 311.808 122.88c60.416 0 110.08 15.872 147.456 47.616l52.736 45.056 52.736-45.056c37.376-31.744 87.04-47.616 147.456-47.616 126.464 0 229.888 103.936 229.888 231.936 0 46.592-9.216 103.424-75.264 201.728 21.504 15.36 45.056 32.256 66.56 47.616C1011.712 488.448 1024 416.256 1024 354.816 1024 181.76 884.224 40.96 712.192 40.96c-76.288 0-146.432 21.504-200.192 67.072C457.728 62.464 388.096 40.96 311.808 40.96 139.776 40.96 0 181.76 0 354.816 0 430.592 18.432 522.24 155.648 691.2c179.712 221.184 356.352 291.84 356.352 291.84s98.816-39.424 223.744-151.552l-57.344-58.88z" fill="#201617" p-id="8734"></path></svg>