<?xml version="1.0" standalone="no"?><!DOCTYPE svg PUBLIC "-//W3C//DTD SVG 1.1//EN" "http://www.w3.org/Graphics/SVG/1.1/DTD/svg11.dtd"><svg t="1560826098742" class="icon" style="" viewBox="0 0 1024 1024" version="1.1" xmlns="http://www.w3.org/2000/svg" p-id="2075" xmlns:xlink="http://www.w3.org/1999/xlink" width="48" height="48"><defs><style type="text/css"></style></defs><path d="M737.28 71.68H286.72c-135.168 0-245.76 110.592-245.76 245.76v389.12c0 135.168 110.592 245.76 245.76 245.76h450.56c135.168 0 245.76-110.592 245.76-245.76v-389.12c0-135.168-110.592-245.76-245.76-245.76zM559.104 737.28c-26.624 26.624-67.584 26.624-94.208 0s-26.624-67.584 0-94.208 67.584-26.624 94.208 0 26.624 69.632 0 94.208z m143.36-151.552c-8.192 8.192-20.48 14.336-32.768 14.336-12.288 0-24.576-4.096-32.768-14.336-32.768-34.816-77.824-53.248-124.928-53.248s-92.16 18.432-124.928 51.2c-18.432 18.432-47.104 18.432-65.536 0-18.432-18.432-18.432-47.104 0-65.536 104.448-104.448 276.48-104.448 380.928 0 18.432 18.432 18.432 49.152 0 67.584z m135.168-135.168c-8.192 8.192-20.48 14.336-32.768 14.336-12.288 0-24.576-4.096-32.768-14.336-69.632-69.632-161.792-108.544-260.096-108.544-98.304 0-190.464 38.912-260.096 108.544-18.432 18.432-47.104 18.432-65.536 0-18.432-18.432-18.432-47.104 0-65.536 43.008-43.008 96.256-77.824 151.552-100.352 55.296-22.528 112.64-32.768 174.08-32.768 59.392 0 118.784 12.288 174.08 32.768 57.344 22.528 108.544 57.344 151.552 100.352 18.432 16.384 18.432 47.104 0 65.536z" p-id="2076"></path></svg>