<svg class="icon" viewBox="0 0 1024 1024" xmlns="http://www.w3.org/2000/svg" width="48" height="48"><defs><style/></defs><path d="M112.4 626.7h222.3L90.3 870.8c-17.7 18.3-17.2 47.7 1.1 65.5 17.9 17.3 46.4 17.3 64.3 0L404 688.4v220.2c0 25.6 20.7 46.4 46.4 46.4 25.6 0 46.4-20.8 46.4-46.4V580.4c0-25.5-20.7-46.3-46.4-46.3h-338c-25.5 0-46.4 20.6-46.4 46.3.1 25.7 20.7 46.3 46.4 46.3zM913.1 390H690.8l244.3-244.1c17.7-18.3 17.2-47.7-1.1-65.5-17.9-17.3-46.4-17.3-64.3 0L621.4 328.3V108.1c0-25.6-20.7-46.4-46.4-46.4s-46.4 20.7-46.4 46.4v328.2c0 25.5 20.7 46.3 46.4 46.3h338c25.5 0 46.4-20.6 46.4-46.3-.1-25.5-20.7-46.3-46.3-46.3z"/></svg>