<?xml version="1.0" standalone="no"?><!DOCTYPE svg PUBLIC "-//W3C//DTD SVG 1.1//EN" "http://www.w3.org/Graphics/SVG/1.1/DTD/svg11.dtd"><svg t="1560836437241" class="icon" style="" viewBox="0 0 2560 1024" version="1.1" xmlns="http://www.w3.org/2000/svg" p-id="1672" xmlns:xlink="http://www.w3.org/1999/xlink" width="320" height="128"><defs><style type="text/css"></style></defs><path d="M668.16 665.6c-40.96-253.44 17.92-389.12 23.04-401.92 2.56-12.8-7.68-10.24-7.68-10.24H586.24c-5.12 0-7.68 10.24-7.68 10.24l-5.12 15.36c-7.68 28.16-12.8 53.76-17.92 79.36H281.6v-2.56s-7.68-46.08-15.36-71.68-12.8-28.16-12.8-28.16h-89.6c-17.92 0-12.8 10.24-12.8 10.24 10.24 25.6 23.04 94.72 23.04 94.72 40.96 253.44-17.92 389.12-23.04 401.92-2.56 12.8 7.68 10.24 7.68 10.24H256c5.12 0 7.68-10.24 7.68-10.24l5.12-15.36c7.68-25.6 12.8-53.76 17.92-76.8h273.92v2.56s7.68 46.08 15.36 71.68c5.12 25.6 12.8 28.16 12.8 28.16h89.6c17.92 0 12.8-10.24 12.8-10.24-10.24-28.16-23.04-97.28-23.04-97.28z m-368.64-99.84c2.56-40.96 0-76.8 0-110.08h248.32c-2.56 40.96-2.56 76.8 0 110.08h-248.32z" fill="#0066B1" p-id="1673"></path><path d="M476.16 680.96v-15.36h-102.4s2.56 79.36-7.68 94.72c0 0-2.56 5.12 5.12 7.68 7.68 2.56 112.64 0 112.64 0s5.12-2.56 0-12.8-7.68-25.6-7.68-74.24zM371.2 358.4h102.4v-12.8c0-51.2 2.56-66.56 7.68-79.36s0-12.8 0-12.8-104.96-2.56-112.64 0c-7.68 2.56-5.12 7.68-5.12 7.68 10.24 15.36 7.68 97.28 7.68 97.28z" fill="#0066B1" p-id="1674"></path><path d="M926.72 673.28l-53.76 69.12h53.76v17.92h-84.48v-12.8l53.76-69.12h-51.2v-17.92h79.36v12.8zM1044.48 760.32h-23.04v-40.96h-46.08v40.96h-23.04v-99.84h23.04v40.96h46.08v-40.96h23.04v99.84zM1077.76 711.68c0-15.36 5.12-28.16 15.36-38.4 10.24-10.24 23.04-15.36 38.4-15.36s28.16 5.12 35.84 12.8c10.24 10.24 12.8 20.48 12.8 35.84 0 15.36-5.12 28.16-15.36 38.4-10.24 10.24-23.04 15.36-38.4 15.36s-28.16-5.12-35.84-12.8c-7.68-10.24-12.8-20.48-12.8-35.84z m23.04 0c0 10.24 2.56 17.92 7.68 23.04 5.12 5.12 12.8 10.24 20.48 10.24 7.68 0 15.36-2.56 20.48-7.68 5.12-5.12 7.68-12.8 7.68-23.04s-2.56-17.92-7.68-25.6c-5.12-5.12-10.24-7.68-20.48-7.68-7.68 0-15.36 2.56-20.48 10.24-5.12 2.56-7.68 10.24-7.68 20.48zM1303.04 760.32h-23.04l-43.52-64c-2.56-2.56-5.12-5.12-5.12-7.68V760.32h-20.48v-99.84h25.6l43.52 61.44c2.56 5.12 5.12 7.68 5.12 7.68v-69.12h20.48v99.84zM1425.92 752.64c-10.24 5.12-23.04 7.68-38.4 7.68-17.92 0-30.72-5.12-40.96-12.8-10.24-7.68-15.36-20.48-15.36-35.84 0-15.36 5.12-28.16 15.36-38.4 10.24-10.24 25.6-15.36 40.96-15.36 10.24 0 20.48 2.56 28.16 5.12v20.48c-7.68-5.12-17.92-7.68-30.72-7.68-10.24 0-17.92 2.56-25.6 10.24-5.12 5.12-10.24 15.36-10.24 25.6s2.56 17.92 7.68 23.04c5.12 5.12 12.8 7.68 23.04 7.68 5.12 0 10.24 0 15.36-2.56v-20.48h-12.8v-17.92h43.52v51.2zM1536 660.48l-33.28 64v35.84h-23.04v-35.84l-33.28-64h25.6l17.92 38.4s0 2.56 2.56 7.68c0-2.56 2.56-5.12 2.56-7.68l17.92-38.4h23.04zM1643.52 716.8c0 28.16-15.36 43.52-43.52 43.52s-43.52-15.36-43.52-43.52v-56.32h23.04v56.32c0 15.36 7.68 25.6 20.48 25.6s20.48-7.68 20.48-23.04v-58.88h23.04v56.32zM1771.52 760.32h-25.6l-7.68-23.04h-38.4l-7.68 23.04h-25.6l38.4-99.84h25.6l40.96 99.84z m-35.84-38.4l-12.8-33.28c0-2.56-2.56-5.12-2.56-7.68 0 2.56 0 5.12-2.56 7.68l-12.8 33.28h30.72zM1894.4 760.32h-23.04l-43.52-64c-2.56-2.56-5.12-5.12-5.12-7.68V760.32h-20.48v-99.84h25.6l43.52 61.44c2.56 5.12 5.12 7.68 5.12 7.68v-69.12h20.48v99.84zM1966.08 760.32v-99.84h38.4c10.24 0 20.48 2.56 25.6 5.12 5.12 5.12 10.24 10.24 10.24 17.92 0 5.12-2.56 10.24-5.12 12.8-5.12 5.12-7.68 7.68-15.36 7.68 7.68 0 12.8 2.56 17.92 7.68 5.12 5.12 7.68 10.24 7.68 15.36 0 7.68-2.56 15.36-10.24 20.48-7.68 5.12-15.36 7.68-28.16 7.68h-40.96z m20.48-84.48v25.6h10.24c5.12 0 10.24 0 12.8-2.56 2.56-2.56 5.12-5.12 5.12-10.24 0-7.68-5.12-10.24-17.92-10.24h-10.24z m0 40.96v28.16h12.8c5.12 0 10.24 0 12.8-2.56 2.56-2.56 5.12-5.12 5.12-10.24s-2.56-7.68-5.12-10.24c-2.56-2.56-7.68-2.56-12.8-2.56h-12.8zM2163.2 760.32h-25.6l-7.68-23.04h-38.4l-7.68 23.04h-25.6l38.4-99.84h25.6l40.96 99.84z m-38.4-38.4l-12.8-33.28c0-2.56-2.56-5.12-2.56-7.68 0 2.56 0 5.12-2.56 7.68l-12.8 33.28h30.72zM2280.96 760.32h-23.04l-43.52-64c-2.56-2.56-5.12-5.12-5.12-7.68V760.32h-20.48v-99.84h25.6l43.52 61.44c2.56 5.12 5.12 7.68 5.12 7.68v-69.12h20.48v99.84zM2401.28 760.32h-28.16l-30.72-43.52s-2.56-2.56-2.56-5.12v48.64h-23.04v-99.84h23.04v46.08c0-2.56 2.56-2.56 2.56-5.12l30.72-40.96h25.6l-38.4 46.08 40.96 53.76z" fill="#0063AA" p-id="1675"></path><path d="M2316.8 537.6c0 7.68-10.24 12.8-20.48 12.8h-81.92v40.96h112.64c38.4 0 48.64-15.36 51.2-20.48 2.56-5.12 2.56-20.48 2.56-20.48v-135.68h23.04v-43.52H2176v40.96h140.8v125.44zM1333.76 491.52h61.44v94.72h-61.44zM1520.64 491.52h61.44v94.72h-61.44zM1999.36 496.64v-38.4h-112.64c-5.12 0-5.12 2.56-5.12 5.12v94.72c0 30.72 35.84 33.28 69.12 33.28h46.08v-33.28h-40.96c-12.8 0-20.48-5.12-20.48-17.92v-43.52h64zM2188.8 268.8h217.6v43.52h-217.6zM2168.32 273.92c0-5.12-2.56-5.12-5.12-5.12h-102.4v43.52h107.52v-38.4z" fill="#0063AA" p-id="1676"></path><path d="M1858.56 435.2h110.08c17.92 0 35.84-15.36 35.84-30.72v-135.68h-53.76v15.36h-89.6v-15.36h-61.44v327.68h61.44V435.2z m0-122.88h89.6v28.16h-89.6v-28.16z m0 61.44h89.6v12.8c0 7.68-5.12 15.36-12.8 15.36h-79.36v-28.16zM1308.16 327.68c0-7.68 2.56-17.92 10.24-17.92h104.96v28.16h-38.4v-10.24h-56.32v107.52c0 25.6 15.36 30.72 23.04 35.84 7.68 2.56 30.72 5.12 30.72 5.12h40.96v115.2h64v-117.76h51.2s20.48 0 30.72-5.12c10.24-5.12 15.36-15.36 15.36-15.36v-125.44h-56.32v10.24h-40.96v-28.16h97.28v-43.52h-286.72c-35.84 0-56.32 10.24-56.32 46.08v279.04h64v-263.68z m222.72 104.96c0 5.12-5.12 10.24-10.24 10.24h-125.44c-5.12 0-10.24-7.68-10.24-10.24v-10.24h148.48v10.24z m0-64v23.04H1382.4v-23.04h148.48zM888.32 509.44h92.16v79.36h64v-81.92h112.64c12.8 0 28.16-20.48 28.16-38.4v-168.96h-64v15.36h-76.8v-46.08h-61.44v46.08h-79.36v-15.36h-61.44v174.08c-2.56 25.6 20.48 35.84 46.08 35.84z m156.16-153.6h79.36v81.92c0 10.24-2.56 23.04-12.8 23.04h-66.56v-104.96z m-140.8 0h79.36v99.84c0 5.12-2.56 5.12-5.12 5.12h-61.44c-7.68 0-12.8-10.24-12.8-17.92v-87.04zM2065.92 412.16h20.48v179.2h64v-222.72h-89.6v38.4c0 5.12 0 5.12 5.12 5.12zM1676.8 330.24h102.4v-38.4h-51.2c-5.12 0-5.12 0-10.24-2.56 0-5.12-2.56-5.12-2.56-10.24v-12.8h-64v38.4c2.56 12.8 12.8 25.6 25.6 25.6zM1674.24 558.08c0 12.8 5.12 23.04 12.8 28.16 7.68 5.12 17.92 5.12 35.84 5.12h53.76v-33.28h-20.48c-15.36 0-23.04-5.12-23.04-20.48v-64h46.08V435.2h-46.08v-33.28h46.08v-38.4h-128v38.4h20.48v33.28h-20.48v38.4h20.48v84.48z" fill="#0063AA" p-id="1677"></path></svg>